0
SECTION
2
HEADER
9
$INSUNITS
70
4
9
$ACADVER
1
AC1014
9
$HANDSEED
5
FFFF
0
ENDSEC
0
SECTION
2
TABLES
0
TABLE
2
VPORT
5
8
100
AcDbSymbolTable
0
ENDTAB
0
TABLE
2
LTYPE
5
5
100
AcDbSymbolTable
0
LTYPE
5
14
100
AcDbSymbolTableRecord
100
AcDbLinetypeTableRecord
2
BYBLOCK
70
0
0
LTYPE
5
15
100
AcDbSymbolTableRecord
100
AcDbLinetypeTableRecord
2
BYLAYER
70
0
0
ENDTAB
0
TABLE
2
LAYER
5
2
100
AcDbSymbolTable
70
2
0
LAYER
5
50
100
AcDbSymbolTableRecord
100
AcDbLayerTableRecord
2
0
70
0
6
CONTINUOUS
0
ENDTAB
0
TABLE
2
STYLE
5
3
100
AcDbSymbolTable
70
1
0
STYLE
5
11
100
AcDbSymbolTableRecord
100
AcDbTextStyleTableRecord
2
STANDARD
70
0
0
ENDTAB
0
TABLE
2
VIEW
5
6
100
AcDbSymbolTable
70
0
0
ENDTAB
0
TABLE
2
UCS
5
7
100
AcDbSymbolTable
70
0
0
ENDTAB
0
TABLE
2
APPID
5
9
100
AcDbSymbolTable
70
2
0
APPID
5
12
100
AcDbSymbolTableRecord
100
AcDbRegAppTableRecord
2
ACAD
70
0
0
ENDTAB
0
TABLE
2
DIMSTYLE
5
A
100
AcDbSymbolTable
70
1
0
ENDTAB
0
TABLE
2
BLOCK_RECORD
5
1
100
AcDbSymbolTable
70
1
0
BLOCK_RECORD
5
1F
100
AcDbSymbolTableRecord
100
AcDbBlockTableRecord
2
*MODEL_SPACE
0
BLOCK_RECORD
5
1B
100
AcDbSymbolTableRecord
100
AcDbBlockTableRecord
2
*PAPER_SPACE
0
ENDTAB
0
ENDSEC
0
SECTION
2
BLOCKS
0
BLOCK
5
20
100
AcDbEntity
100
AcDbBlockBegin
2
*MODEL_SPACE
0
ENDBLK
5
21
100
AcDbEntity
100
AcDbBlockEnd
0
BLOCK
5
1C
100
AcDbEntity
100
AcDbBlockBegin
2
*PAPER_SPACE
0
ENDBLK
5
1D
100
AcDbEntity
100
AcDbBlockEnd
0
ENDSEC
0
SECTION
2
ENTITIES
0
LWPOLYLINE
5
100
100
AcDbEntity
8
0
100
AcDbPolyline
90
8
70
1
43
0.0
10
-14.250001907348624
20
-55.25
42
0.41421356237309631
10
-13.250001907348619
20
-56.25
10
76.249998092651452
20
-56.25
42
0.41421356237309503
10
77.249998092651438
20
-55.25
10
77.249998092651438
20
13.250000000000011
42
0.41421356237309503
10
76.249998092651452
20
14.250000000000014
10
-13.250001907348619
20
14.250000000000011
42
0.41421356237309503
10
-14.250001907348624
20
13.250000000000011
0
CIRCLE
5
101
100
AcDbEntity
8
0
100
AcDbCircle
10
62.999998092651381
20
-41.999999999999972
30
0
40
0.75000000000000022
210
-0
220
0
230
1
0
CIRCLE
5
102
100
AcDbEntity
8
0
100
AcDbCircle
10
41.999998092651396
20
-42
30
0
40
1.4950000000000021
210
0
220
-0
230
1
0
CIRCLE
5
103
100
AcDbEntity
8
0
100
AcDbCircle
10
20.999998092651392
20
-42
30
0
40
1.4950000000000021
210
0
220
-0
230
1
0
CIRCLE
5
104
100
AcDbEntity
8
0
100
AcDbCircle
10
-1.9073486079435042e-06
20
-42
30
0
40
1.4950000000000021
210
0
220
-0
230
1
0
CIRCLE
5
105
100
AcDbEntity
8
0
100
AcDbCircle
10
-1.9073486079435042e-06
20
-21
30
0
40
1.4950000000000021
210
0
220
-0
230
1
0
CIRCLE
5
106
100
AcDbEntity
8
0
100
AcDbCircle
10
20.999998092651392
20
-21
30
0
40
1.4950000000000021
210
0
220
-0
230
1
0
CIRCLE
5
107
100
AcDbEntity
8
0
100
AcDbCircle
10
41.999998092651396
20
-21
30
0
40
1.4950000000000021
210
0
220
-0
230
1
0
CIRCLE
5
108
100
AcDbEntity
8
0
100
AcDbCircle
10
62.999998092651438
20
-21.000000000000007
30
0
40
1.4950000000000021
210
0
220
-0
230
1
0
CIRCLE
5
109
100
AcDbEntity
8
0
100
AcDbCircle
10
62.999998092651438
20
3.5619592643303195e-15
30
0
40
1.4950000000000021
210
0
220
-0
230
1
0
CIRCLE
5
110
100
AcDbEntity
8
0
100
AcDbCircle
10
41.999998092651396
20
3.5619028072517392e-16
30
0
40
1.4950000000000021
210
0
220
-0
230
1
0
CIRCLE
5
111
100
AcDbEntity
8
0
100
AcDbCircle
10
20.999998092651392
20
3.5619028072516983e-16
30
0
40
1.4950000000000021
210
0
220
-0
230
1
0
CIRCLE
5
112
100
AcDbEntity
8
0
100
AcDbCircle
10
-1.9073486079435042e-06
20
3.5619028072516569e-16
30
0
40
1.4950000000000021
210
0
220
-0
230
1
0
CIRCLE
5
113
100
AcDbEntity
8
0
100
AcDbCircle
10
62.999998092651381
20
-41.999999999999972
30
0
40
1
210
0
220
0
230
1
0
CIRCLE
5
114
100
AcDbEntity
8
0
100
AcDbCircle
10
41.999998092651396
20
-42
30
0
40
1.9999999999999993
210
0
220
0
230
1
0
CIRCLE
5
115
100
AcDbEntity
8
0
100
AcDbCircle
10
20.999998092651392
20
-42
30
0
40
1.9999999999999969
210
0
220
0
230
1
0
CIRCLE
5
116
100
AcDbEntity
8
0
100
AcDbCircle
10
-1.9073486079435042e-06
20
-42
30
0
40
1.9999999999999993
210
0
220
0
230
1
0
CIRCLE
5
117
100
AcDbEntity
8
0
100
AcDbCircle
10
62.999998092651438
20
-21.000000000000007
30
0
40
2.0000000000000013
210
0
220
0
230
1
0
CIRCLE
5
118
100
AcDbEntity
8
0
100
AcDbCircle
10
41.999998092651396
20
-21
30
0
40
2.0000000000000018
210
0
220
0
230
1
0
CIRCLE
5
119
100
AcDbEntity
8
0
100
AcDbCircle
10
20.999998092651392
20
-21
30
0
40
2.0000000000000009
210
0
220
0
230
1
0
CIRCLE
5
120
100
AcDbEntity
8
0
100
AcDbCircle
10
-1.9073486079435042e-06
20
-21
30
0
40
1.9999999999999996
210
0
220
0
230
1
0
CIRCLE
5
121
100
AcDbEntity
8
0
100
AcDbCircle
10
62.999998092651438
20
3.5619592643303195e-15
30
0
40
2.0000000000000018
210
0
220
0
230
1
0
CIRCLE
5
122
100
AcDbEntity
8
0
100
AcDbCircle
10
41.999998092651396
20
3.5619028072517392e-16
30
0
40
1.9999999999999969
210
0
220
0
230
1
0
CIRCLE
5
123
100
AcDbEntity
8
0
100
AcDbCircle
10
20.999998092651392
20
3.5619028072516983e-16
30
0
40
2.0000000000000009
210
0
220
0
230
1
0
CIRCLE
5
124
100
AcDbEntity
8
0
100
AcDbCircle
10
-1.9073486079435042e-06
20
3.5619028072516569e-16
30
0
40
2
210
0
220
0
230
1
0
CIRCLE
5
125
100
AcDbEntity
8
0
100
AcDbCircle
10
73.249998092651438
20
-52.25
30
0
40
1.6000000000000003
210
0
220
0
230
1
0
LINE
5
126
100
AcDbEntity
8
0
100
AcDbLine
10
31.499998092651413
20
-56.25
30
0
11
31.499998092651413
21
14.250000000000011
31
0
0
LINE
5
127
100
AcDbEntity
8
0
100
AcDbLine
10
77.249998092651438
20
-20.999999999999996
30
0
11
-14.250001907348624
21
-20.999999999999996
31
0
0
CIRCLE
5
128
100
AcDbEntity
8
0
100
AcDbCircle
10
73.249998092651438
20
10.250000000000004
30
0
40
1.6000000000000003
210
0
220
0
230
1
0
CIRCLE
5
129
100
AcDbEntity
8
0
100
AcDbCircle
10
-10.250001907348611
20
-52.25
30
0
40
1.6000000000000003
210
0
220
0
230
1
0
CIRCLE
5
130
100
AcDbEntity
8
0
100
AcDbCircle
10
-10.250001907348611
20
10.250000000000004
30
0
40
1.6000000000000003
210
0
220
0
230
1
0
ENDSEC
0
SECTION
2
OBJECTS
0
DICTIONARY
5
C
100
AcDbDictionary
3
ACAD_GROUP
350
D
3
ACAD_MLINESTYLE
350
17
0
DICTIONARY
5
D
100
AcDbDictionary
0
DICTIONARY
5
1A
330
C
100
AcDbDictionary
0
DICTIONARY
5
17
100
AcDbDictionary
0
ENDSEC
0
EOF
