0
SECTION
2
HEADER
9
$INSUNITS
70
4
9
$ACADVER
1
AC1014
9
$HANDSEED
5
FFFF
0
ENDSEC
0
SECTION
2
TABLES
0
TABLE
2
VPORT
5
8
100
AcDbSymbolTable
0
ENDTAB
0
TABLE
2
LTYPE
5
5
100
AcDbSymbolTable
0
LTYPE
5
14
100
AcDbSymbolTableRecord
100
AcDbLinetypeTableRecord
2
BYBLOCK
70
0
0
LTYPE
5
15
100
AcDbSymbolTableRecord
100
AcDbLinetypeTableRecord
2
BYLAYER
70
0
0
ENDTAB
0
TABLE
2
LAYER
5
2
100
AcDbSymbolTable
70
2
0
LAYER
5
50
100
AcDbSymbolTableRecord
100
AcDbLayerTableRecord
2
0
70
0
6
CONTINUOUS
0
ENDTAB
0
TABLE
2
STYLE
5
3
100
AcDbSymbolTable
70
1
0
STYLE
5
11
100
AcDbSymbolTableRecord
100
AcDbTextStyleTableRecord
2
STANDARD
70
0
0
ENDTAB
0
TABLE
2
VIEW
5
6
100
AcDbSymbolTable
70
0
0
ENDTAB
0
TABLE
2
UCS
5
7
100
AcDbSymbolTable
70
0
0
ENDTAB
0
TABLE
2
APPID
5
9
100
AcDbSymbolTable
70
2
0
APPID
5
12
100
AcDbSymbolTableRecord
100
AcDbRegAppTableRecord
2
ACAD
70
0
0
ENDTAB
0
TABLE
2
DIMSTYLE
5
A
100
AcDbSymbolTable
70
1
0
ENDTAB
0
TABLE
2
BLOCK_RECORD
5
1
100
AcDbSymbolTable
70
1
0
BLOCK_RECORD
5
1F
100
AcDbSymbolTableRecord
100
AcDbBlockTableRecord
2
*MODEL_SPACE
0
BLOCK_RECORD
5
1B
100
AcDbSymbolTableRecord
100
AcDbBlockTableRecord
2
*PAPER_SPACE
0
ENDTAB
0
ENDSEC
0
SECTION
2
BLOCKS
0
BLOCK
5
20
100
AcDbEntity
100
AcDbBlockBegin
2
*MODEL_SPACE
0
ENDBLK
5
21
100
AcDbEntity
100
AcDbBlockEnd
0
BLOCK
5
1C
100
AcDbEntity
100
AcDbBlockBegin
2
*PAPER_SPACE
0
ENDBLK
5
1D
100
AcDbEntity
100
AcDbBlockEnd
0
ENDSEC
0
SECTION
2
ENTITIES
0
CIRCLE
5
100
100
AcDbEntity
8
0
100
AcDbCircle
10
-74.750000000000057
20
-53.750000000000007
30
0
40
1.6000000000000014
210
0
220
0
230
1
0
CIRCLE
5
101
100
AcDbEntity
8
0
100
AcDbCircle
10
-74.750000000000057
20
11.750000000000011
30
0
40
1.6000000000000014
210
0
220
0
230
1
0
CIRCLE
5
102
100
AcDbEntity
8
0
100
AcDbCircle
10
11.750000000000014
20
-53.75
30
0
40
1.5999999999999992
210
0
220
0
230
1
0
CIRCLE
5
103
100
AcDbEntity
8
0
100
AcDbCircle
10
11.750000000000014
20
11.750000000000016
30
0
40
1.5999999999999992
210
0
220
0
230
1
0
LWPOLYLINE
5
104
100
AcDbEntity
8
0
100
AcDbPolyline
90
8
70
1
43
0.0
10
-13.775000000000016
20
6.2195000000000089
42
0.41421356237309503
10
-14.775000000000018
20
7.2195000000000089
10
-27.225000000000076
20
7.2195000000000089
42
0.41421356237309537
10
-28.22500000000008
20
6.219500000000008
10
-28.225000000000083
20
-6.2305000000000108
42
0.41421356237309503
10
-27.22500000000008
20
-7.2305000000000108
10
-14.775000000000018
20
-7.2305000000000099
42
0.41421356237309503
10
-13.775000000000016
20
-6.2305000000000099
0
LWPOLYLINE
5
105
100
AcDbEntity
8
0
100
AcDbPolyline
90
8
70
1
43
0.0
10
-7.2250000000000734
20
-6.2305000000000108
42
0.41421356237309503
10
-6.2250000000000743
20
-7.2305000000000108
10
6.2249999999999854
20
-7.2305000000000099
42
0.41421356237309503
10
7.2249999999999845
20
-6.2305000000000099
10
7.2249999999999845
20
6.2195000000000089
42
0.41421356237309537
10
6.2249999999999837
20
7.2195000000000089
10
-6.2250000000000751
20
7.2195000000000089
42
0.41421356237309537
10
-7.2250000000000743
20
6.219500000000008
0
LWPOLYLINE
5
106
100
AcDbEntity
8
0
100
AcDbPolyline
90
8
70
1
43
0.0
10
7.2249999999999845
20
-14.780499999999993
42
0.41421356237309503
10
6.2249999999999837
20
-13.780499999999991
10
-6.2250000000000751
20
-13.780499999999991
42
0.41421356237309503
10
-7.2250000000000743
20
-14.780499999999993
10
-7.2250000000000734
20
-27.23050000000001
42
0.41421356237309503
10
-6.2250000000000743
20
-28.230500000000013
10
6.2249999999999854
20
-28.230500000000017
42
0.41421356237309503
10
7.2249999999999845
20
-27.230500000000013
0
LWPOLYLINE
5
107
100
AcDbEntity
8
0
100
AcDbPolyline
90
8
70
1
43
0.0
10
-57.399999999999984
20
-49.099999999999973
42
0.41421356237309503
10
-56.399999999999991
20
-48.09999999999998
10
-56.399999999999991
20
-35.899999999999977
42
0.41421356237309503
10
-57.399999999999984
20
-34.899999999999977
10
-68.59999999999998
20
-34.899999999999977
42
0.41421356237309503
10
-69.59999999999998
20
-35.899999999999977
10
-69.59999999999998
20
-48.09999999999998
42
0.41421356237309503
10
-68.59999999999998
20
-49.099999999999973
0
LWPOLYLINE
5
108
100
AcDbEntity
8
0
100
AcDbPolyline
90
8
70
1
43
0.0
10
-55.775000000000013
20
-14.780499999999993
42
0.41421356237309503
10
-56.775000000000013
20
-13.780499999999991
10
-69.22500000000008
20
-13.780499999999991
42
0.41421356237309503
10
-70.225000000000065
20
-14.780499999999993
10
-70.225000000000065
20
-27.23050000000001
42
0.41421356237309503
10
-69.22500000000008
20
-28.230500000000013
10
-56.775000000000013
20
-28.230500000000017
42
0.41421356237309503
10
-55.775000000000013
20
-27.230500000000013
0
LWPOLYLINE
5
109
100
AcDbEntity
8
0
100
AcDbPolyline
90
8
70
1
43
0.0
10
-55.775000000000013
20
6.2195000000000089
42
0.41421356237309503
10
-56.775000000000013
20
7.2195000000000089
10
-69.22500000000008
20
7.2195000000000089
42
0.41421356237309537
10
-70.225000000000065
20
6.219500000000008
10
-70.225000000000065
20
-6.2305000000000108
42
0.41421356237309503
10
-69.22500000000008
20
-7.2305000000000108
10
-56.775000000000013
20
-7.2305000000000099
42
0.41421356237309503
10
-55.775000000000013
20
-6.2305000000000099
0
LWPOLYLINE
5
110
100
AcDbEntity
8
0
100
AcDbPolyline
90
8
70
1
43
0.0
10
-34.775000000000013
20
-35.780499999999989
42
0.41421356237309503
10
-35.775000000000013
20
-34.780499999999989
10
-48.22500000000008
20
-34.780499999999989
42
0.41421356237309503
10
-49.225000000000072
20
-35.780499999999989
10
-49.225000000000072
20
-48.230500000000021
42
0.41421356237309503
10
-48.22500000000008
20
-49.230500000000021
10
-35.77500000000002
20
-49.230500000000021
42
0.41421356237309503
10
-34.77500000000002
20
-48.230500000000021
0
LWPOLYLINE
5
111
100
AcDbEntity
8
0
100
AcDbPolyline
90
8
70
1
43
0.0
10
-13.775000000000016
20
-35.780499999999989
42
0.41421356237309503
10
-14.775000000000018
20
-34.780499999999989
10
-27.225000000000076
20
-34.780499999999989
42
0.41421356237309503
10
-28.22500000000008
20
-35.780499999999989
10
-28.225000000000083
20
-48.230500000000021
42
0.41421356237309503
10
-27.22500000000008
20
-49.230500000000021
10
-14.775000000000018
20
-49.230500000000021
42
0.41421356237309503
10
-13.775000000000016
20
-48.230500000000021
0
LWPOLYLINE
5
112
100
AcDbEntity
8
0
100
AcDbPolyline
90
8
70
1
43
0.0
10
7.2249999999999845
20
-35.780499999999989
42
0.41421356237309503
10
6.2249999999999837
20
-34.780499999999989
10
-6.2250000000000751
20
-34.780499999999989
42
0.41421356237309503
10
-7.2250000000000743
20
-35.780499999999989
10
-7.2250000000000734
20
-48.230500000000021
42
0.41421356237309503
10
-6.2250000000000743
20
-49.230500000000021
10
6.2249999999999854
20
-49.230500000000021
42
0.41421356237309503
10
7.2249999999999845
20
-48.230500000000021
0
LWPOLYLINE
5
113
100
AcDbEntity
8
0
100
AcDbPolyline
90
8
70
1
43
0.0
10
-34.775000000000013
20
-14.780499999999993
42
0.41421356237309503
10
-35.775000000000013
20
-13.780499999999991
10
-48.22500000000008
20
-13.780499999999991
42
0.41421356237309503
10
-49.225000000000072
20
-14.780499999999993
10
-49.225000000000072
20
-27.23050000000001
42
0.41421356237309503
10
-48.22500000000008
20
-28.230500000000013
10
-35.77500000000002
20
-28.230500000000017
42
0.41421356237309503
10
-34.77500000000002
20
-27.230500000000013
0
LWPOLYLINE
5
114
100
AcDbEntity
8
0
100
AcDbPolyline
90
8
70
1
43
0.0
10
-13.775000000000016
20
-14.780499999999993
42
0.41421356237309503
10
-14.775000000000018
20
-13.780499999999991
10
-27.225000000000076
20
-13.780499999999991
42
0.41421356237309503
10
-28.22500000000008
20
-14.780499999999993
10
-28.225000000000083
20
-27.23050000000001
42
0.41421356237309503
10
-27.22500000000008
20
-28.230500000000013
10
-14.775000000000018
20
-28.230500000000017
42
0.41421356237309503
10
-13.775000000000016
20
-27.230500000000013
0
LWPOLYLINE
5
115
100
AcDbEntity
8
0
100
AcDbPolyline
90
8
70
1
43
0.0
10
-34.775000000000013
20
6.2195000000000089
42
0.41421356237309503
10
-35.775000000000013
20
7.2195000000000089
10
-48.22500000000008
20
7.2195000000000089
42
0.41421356237309537
10
-49.225000000000072
20
6.219500000000008
10
-49.225000000000072
20
-6.2305000000000108
42
0.41421356237309503
10
-48.22500000000008
20
-7.2305000000000108
10
-35.77500000000002
20
-7.2305000000000099
42
0.41421356237309503
10
-34.77500000000002
20
-6.2305000000000099
0
LWPOLYLINE
5
116
100
AcDbEntity
8
0
100
AcDbPolyline
90
8
70
1
43
0.0
10
-77.250000000000057
20
15.250000000000018
42
0.41421356237309631
10
-78.250000000000043
20
14.250000000000014
10
-78.250000000000043
20
-56.249999999999993
42
0.41421356237310802
10
-77.250000000000057
20
-57.25
10
14.250000000000025
20
-57.25
42
0.41421356237309764
10
15.250000000000012
20
-56.25
10
15.250000000000014
20
14.250000000000007
42
0.4142135623730937
10
14.250000000000016
20
15.250000000000014
0
ENDSEC
0
SECTION
2
OBJECTS
0
DICTIONARY
5
C
100
AcDbDictionary
3
ACAD_GROUP
350
D
3
ACAD_MLINESTYLE
350
17
0
DICTIONARY
5
D
100
AcDbDictionary
0
DICTIONARY
5
1A
330
C
100
AcDbDictionary
0
DICTIONARY
5
17
100
AcDbDictionary
0
ENDSEC
0
EOF
