G04 #@! TF.GenerationSoftware,KiCad,Pcbnew,7.0.6*
G04 #@! TF.CreationDate,2023-10-20T19:04:06+03:00*
G04 #@! TF.ProjectId,000018 PGKB,30303030-3138-4205-9047-4b422e6b6963,1.0*
G04 #@! TF.SameCoordinates,Original*
G04 #@! TF.FileFunction,Soldermask,Top*
G04 #@! TF.FilePolarity,Negative*
%FSLAX46Y46*%
G04 Gerber Fmt 4.6, Leading zero omitted, Abs format (unit mm)*
G04 Created by KiCad (PCBNEW 7.0.6) date 2023-10-20 19:04:06*
%MOMM*%
%LPD*%
G01*
G04 APERTURE LIST*
%ADD10C,0.200000*%
%ADD11C,1.000000*%
%ADD12C,1.700000*%
%ADD13C,4.000000*%
%ADD14C,3.200000*%
%ADD15O,2.800000X3.600000*%
%ADD16C,1.524000*%
%ADD17C,2.500000*%
%ADD18C,0.700000*%
%ADD19O,0.900000X1.700000*%
%ADD20O,0.900000X2.400000*%
G04 APERTURE END LIST*
D10*
X135500000Y-111000000D02*
X130500000Y-111000000D01*
X127500000Y-108000000D01*
X116500000Y-108000000D01*
X114500000Y-105500000D01*
X114500000Y-104000000D01*
X135500000Y-104000000D01*
X135500000Y-111000000D01*
G36*
X135500000Y-111000000D02*
G01*
X130500000Y-111000000D01*
X127500000Y-108000000D01*
X116500000Y-108000000D01*
X114500000Y-105500000D01*
X114500000Y-104000000D01*
X135500000Y-104000000D01*
X135500000Y-111000000D01*
G37*
G04 #@! TO.C,ART1*
G36*
X51500000Y-171300000D02*
G01*
X55300000Y-171300000D01*
X55300000Y-172600000D01*
X51500000Y-172600000D01*
X51500000Y-171300000D01*
G37*
G04 #@! TD*
D11*
G04 #@! TO.C,H5*
X87100000Y-150200000D03*
X87800000Y-148600000D03*
X87800000Y-151800000D03*
X89400000Y-147900000D03*
G36*
X89423315Y-146005110D02*
G01*
X89434400Y-146006103D01*
X89446809Y-146014832D01*
X89459378Y-146020032D01*
X89465454Y-146027946D01*
X89476740Y-146035883D01*
X89484653Y-146052949D01*
X89490905Y-146061087D01*
X89544106Y-146189397D01*
X89583309Y-146257244D01*
X89872711Y-146670676D01*
X90048797Y-146846634D01*
X90269254Y-147015671D01*
X90509889Y-147154487D01*
X90766584Y-147260706D01*
X91034948Y-147332511D01*
X91310388Y-147368672D01*
X91588192Y-147368573D01*
X91863606Y-147332213D01*
X92131918Y-147260216D01*
X92260228Y-147207016D01*
X92280241Y-147204374D01*
X92327682Y-147187032D01*
X92378672Y-147195949D01*
X92418372Y-147229167D01*
X92436144Y-147277784D01*
X92427227Y-147328775D01*
X92372615Y-147446171D01*
X92294195Y-147692966D01*
X92247734Y-147947719D01*
X92233985Y-148206308D01*
X92253169Y-148464551D01*
X92304976Y-148718270D01*
X92388569Y-148963361D01*
X92502594Y-149195860D01*
X92645208Y-149412005D01*
X92814104Y-149608300D01*
X93006549Y-149781570D01*
X93219431Y-149929011D01*
X93449305Y-150048239D01*
X93570900Y-150092725D01*
X93613239Y-150122506D01*
X93635016Y-150169466D01*
X93630394Y-150221023D01*
X93600613Y-150263362D01*
X93553653Y-150285139D01*
X93547175Y-150284558D01*
X93538913Y-150290905D01*
X93410603Y-150344106D01*
X93342757Y-150383309D01*
X92929323Y-150672713D01*
X92753366Y-150848797D01*
X92584329Y-151069254D01*
X92445513Y-151309889D01*
X92339294Y-151566584D01*
X92267489Y-151834948D01*
X92231328Y-152110388D01*
X92231427Y-152388192D01*
X92267787Y-152663606D01*
X92339784Y-152931918D01*
X92392984Y-153060228D01*
X92395608Y-153080103D01*
X92412986Y-153127643D01*
X92404069Y-153178633D01*
X92370851Y-153218333D01*
X92322234Y-153236105D01*
X92271244Y-153227187D01*
X92153846Y-153172575D01*
X91907048Y-153094154D01*
X91652291Y-153047693D01*
X91393699Y-153033945D01*
X91135452Y-153053131D01*
X90881730Y-153104940D01*
X90636636Y-153188536D01*
X90404136Y-153302566D01*
X90187989Y-153445184D01*
X89991694Y-153614085D01*
X89818425Y-153806535D01*
X89670985Y-154019421D01*
X89551759Y-154249301D01*
X89507276Y-154370898D01*
X89477496Y-154413238D01*
X89430536Y-154435015D01*
X89378979Y-154430395D01*
X89336639Y-154400615D01*
X89314862Y-154353655D01*
X89315443Y-154347174D01*
X89309096Y-154338912D01*
X89255894Y-154210602D01*
X89216696Y-154142764D01*
X88927282Y-153729316D01*
X88751204Y-153553364D01*
X88530746Y-153384327D01*
X88290111Y-153245512D01*
X88033416Y-153139293D01*
X87765052Y-153067488D01*
X87489612Y-153031326D01*
X87211808Y-153031426D01*
X86936394Y-153067786D01*
X86668082Y-153139783D01*
X86539773Y-153192984D01*
X86519737Y-153195629D01*
X86508855Y-153199607D01*
X86500575Y-153198158D01*
X86488454Y-153199759D01*
X86472885Y-153193316D01*
X86457865Y-153190690D01*
X86449381Y-153183590D01*
X86440623Y-153179967D01*
X86432667Y-153169606D01*
X86418165Y-153157472D01*
X86413455Y-153144587D01*
X86409097Y-153138912D01*
X86407807Y-153129134D01*
X86400393Y-153108855D01*
X86403092Y-153093423D01*
X86402322Y-153087593D01*
X86405421Y-153080103D01*
X86409311Y-153057865D01*
X86463923Y-152940467D01*
X86542344Y-152693669D01*
X86588805Y-152438912D01*
X86602553Y-152180320D01*
X86583367Y-151922073D01*
X86531558Y-151668351D01*
X86447962Y-151423257D01*
X86333932Y-151190757D01*
X86191314Y-150974610D01*
X86022413Y-150778315D01*
X85829963Y-150605046D01*
X85617077Y-150457606D01*
X85387197Y-150338380D01*
X85265600Y-150293897D01*
X85253182Y-150285162D01*
X85239152Y-150279357D01*
X85232370Y-150270524D01*
X85223260Y-150264117D01*
X85216873Y-150250342D01*
X85207626Y-150238301D01*
X85206169Y-150227260D01*
X85201483Y-150217157D01*
X85202839Y-150202034D01*
X85200851Y-150186983D01*
X85205109Y-150176693D01*
X85206103Y-150165600D01*
X85214838Y-150153182D01*
X85220643Y-150139152D01*
X85229476Y-150132370D01*
X85235883Y-150123260D01*
X85249658Y-150116873D01*
X85261698Y-150107625D01*
X85390008Y-150054423D01*
X85466392Y-150010287D01*
X85867821Y-149729287D01*
X86047246Y-149549733D01*
X86216283Y-149329275D01*
X86355098Y-149088640D01*
X86461317Y-148831945D01*
X86533122Y-148563581D01*
X86569284Y-148288141D01*
X86569184Y-148010337D01*
X86532824Y-147734923D01*
X86460827Y-147466611D01*
X86407626Y-147338302D01*
X86405630Y-147323181D01*
X86400393Y-147308855D01*
X86402300Y-147297954D01*
X86400851Y-147286983D01*
X86406683Y-147272891D01*
X86409310Y-147257865D01*
X86416412Y-147249378D01*
X86420643Y-147239152D01*
X86432741Y-147229863D01*
X86442528Y-147218165D01*
X86452922Y-147214366D01*
X86461698Y-147207626D01*
X86476820Y-147205630D01*
X86491145Y-147200393D01*
X86502047Y-147202300D01*
X86513017Y-147200851D01*
X86527110Y-147206683D01*
X86542135Y-147209311D01*
X86659533Y-147263923D01*
X86906331Y-147342344D01*
X87161088Y-147388805D01*
X87419680Y-147402553D01*
X87677927Y-147383367D01*
X87931649Y-147331558D01*
X88176743Y-147247962D01*
X88409243Y-147133932D01*
X88625390Y-146991314D01*
X88821685Y-146822413D01*
X88994954Y-146629963D01*
X89142394Y-146417077D01*
X89261620Y-146187197D01*
X89306103Y-146065600D01*
X89310654Y-146059131D01*
X89319173Y-146038541D01*
X89332137Y-146028587D01*
X89335883Y-146023260D01*
X89343938Y-146019525D01*
X89360229Y-146007015D01*
X89375167Y-146005043D01*
X89382843Y-146001483D01*
X89394333Y-146002513D01*
X89411547Y-146000240D01*
X89423315Y-146005110D01*
G37*
X89400000Y-152500000D03*
X90900000Y-151900000D03*
X91000000Y-148600000D03*
X91700000Y-150200000D03*
G04 #@! TD*
D12*
G04 #@! TO.C,S3*
X104980000Y-160500000D03*
D13*
X99900000Y-160500000D03*
D12*
X94820000Y-160500000D03*
D14*
X103710000Y-163040000D03*
X97360000Y-165580000D03*
G04 #@! TD*
D11*
G04 #@! TO.C,H6*
X87200000Y-128900000D03*
X87900000Y-127300000D03*
X87900000Y-130500000D03*
X89500000Y-126600000D03*
G36*
X89523315Y-124705110D02*
G01*
X89534400Y-124706103D01*
X89546809Y-124714832D01*
X89559378Y-124720032D01*
X89565454Y-124727946D01*
X89576740Y-124735883D01*
X89584653Y-124752949D01*
X89590905Y-124761087D01*
X89644106Y-124889397D01*
X89683309Y-124957244D01*
X89972711Y-125370676D01*
X90148797Y-125546634D01*
X90369254Y-125715671D01*
X90609889Y-125854487D01*
X90866584Y-125960706D01*
X91134948Y-126032511D01*
X91410388Y-126068672D01*
X91688192Y-126068573D01*
X91963606Y-126032213D01*
X92231918Y-125960216D01*
X92360228Y-125907016D01*
X92380241Y-125904374D01*
X92427682Y-125887032D01*
X92478672Y-125895949D01*
X92518372Y-125929167D01*
X92536144Y-125977784D01*
X92527227Y-126028775D01*
X92472615Y-126146171D01*
X92394195Y-126392966D01*
X92347734Y-126647719D01*
X92333985Y-126906308D01*
X92353169Y-127164551D01*
X92404976Y-127418270D01*
X92488569Y-127663361D01*
X92602594Y-127895860D01*
X92745208Y-128112005D01*
X92914104Y-128308300D01*
X93106549Y-128481570D01*
X93319431Y-128629011D01*
X93549305Y-128748239D01*
X93670900Y-128792725D01*
X93713239Y-128822506D01*
X93735016Y-128869466D01*
X93730394Y-128921023D01*
X93700613Y-128963362D01*
X93653653Y-128985139D01*
X93647175Y-128984558D01*
X93638913Y-128990905D01*
X93510603Y-129044106D01*
X93442757Y-129083309D01*
X93029323Y-129372713D01*
X92853366Y-129548797D01*
X92684329Y-129769254D01*
X92545513Y-130009889D01*
X92439294Y-130266584D01*
X92367489Y-130534948D01*
X92331328Y-130810388D01*
X92331427Y-131088192D01*
X92367787Y-131363606D01*
X92439784Y-131631918D01*
X92492984Y-131760228D01*
X92495608Y-131780103D01*
X92512986Y-131827643D01*
X92504069Y-131878633D01*
X92470851Y-131918333D01*
X92422234Y-131936105D01*
X92371244Y-131927187D01*
X92253846Y-131872575D01*
X92007048Y-131794154D01*
X91752291Y-131747693D01*
X91493699Y-131733945D01*
X91235452Y-131753131D01*
X90981730Y-131804940D01*
X90736636Y-131888536D01*
X90504136Y-132002566D01*
X90287989Y-132145184D01*
X90091694Y-132314085D01*
X89918425Y-132506535D01*
X89770985Y-132719421D01*
X89651759Y-132949301D01*
X89607276Y-133070898D01*
X89577496Y-133113238D01*
X89530536Y-133135015D01*
X89478979Y-133130395D01*
X89436639Y-133100615D01*
X89414862Y-133053655D01*
X89415443Y-133047174D01*
X89409096Y-133038912D01*
X89355894Y-132910602D01*
X89316696Y-132842764D01*
X89027282Y-132429316D01*
X88851204Y-132253364D01*
X88630746Y-132084327D01*
X88390111Y-131945512D01*
X88133416Y-131839293D01*
X87865052Y-131767488D01*
X87589612Y-131731326D01*
X87311808Y-131731426D01*
X87036394Y-131767786D01*
X86768082Y-131839783D01*
X86639773Y-131892984D01*
X86619737Y-131895629D01*
X86608855Y-131899607D01*
X86600575Y-131898158D01*
X86588454Y-131899759D01*
X86572885Y-131893316D01*
X86557865Y-131890690D01*
X86549381Y-131883590D01*
X86540623Y-131879967D01*
X86532667Y-131869606D01*
X86518165Y-131857472D01*
X86513455Y-131844587D01*
X86509097Y-131838912D01*
X86507807Y-131829134D01*
X86500393Y-131808855D01*
X86503092Y-131793423D01*
X86502322Y-131787593D01*
X86505421Y-131780103D01*
X86509311Y-131757865D01*
X86563923Y-131640467D01*
X86642344Y-131393669D01*
X86688805Y-131138912D01*
X86702553Y-130880320D01*
X86683367Y-130622073D01*
X86631558Y-130368351D01*
X86547962Y-130123257D01*
X86433932Y-129890757D01*
X86291314Y-129674610D01*
X86122413Y-129478315D01*
X85929963Y-129305046D01*
X85717077Y-129157606D01*
X85487197Y-129038380D01*
X85365600Y-128993897D01*
X85353182Y-128985162D01*
X85339152Y-128979357D01*
X85332370Y-128970524D01*
X85323260Y-128964117D01*
X85316873Y-128950342D01*
X85307626Y-128938301D01*
X85306169Y-128927260D01*
X85301483Y-128917157D01*
X85302839Y-128902034D01*
X85300851Y-128886983D01*
X85305109Y-128876693D01*
X85306103Y-128865600D01*
X85314838Y-128853182D01*
X85320643Y-128839152D01*
X85329476Y-128832370D01*
X85335883Y-128823260D01*
X85349658Y-128816873D01*
X85361698Y-128807625D01*
X85490008Y-128754423D01*
X85566392Y-128710287D01*
X85967821Y-128429287D01*
X86147246Y-128249733D01*
X86316283Y-128029275D01*
X86455098Y-127788640D01*
X86561317Y-127531945D01*
X86633122Y-127263581D01*
X86669284Y-126988141D01*
X86669184Y-126710337D01*
X86632824Y-126434923D01*
X86560827Y-126166611D01*
X86507626Y-126038302D01*
X86505630Y-126023181D01*
X86500393Y-126008855D01*
X86502300Y-125997954D01*
X86500851Y-125986983D01*
X86506683Y-125972891D01*
X86509310Y-125957865D01*
X86516412Y-125949378D01*
X86520643Y-125939152D01*
X86532741Y-125929863D01*
X86542528Y-125918165D01*
X86552922Y-125914366D01*
X86561698Y-125907626D01*
X86576820Y-125905630D01*
X86591145Y-125900393D01*
X86602047Y-125902300D01*
X86613017Y-125900851D01*
X86627110Y-125906683D01*
X86642135Y-125909311D01*
X86759533Y-125963923D01*
X87006331Y-126042344D01*
X87261088Y-126088805D01*
X87519680Y-126102553D01*
X87777927Y-126083367D01*
X88031649Y-126031558D01*
X88276743Y-125947962D01*
X88509243Y-125833932D01*
X88725390Y-125691314D01*
X88921685Y-125522413D01*
X89094954Y-125329963D01*
X89242394Y-125117077D01*
X89361620Y-124887197D01*
X89406103Y-124765600D01*
X89410654Y-124759131D01*
X89419173Y-124738541D01*
X89432137Y-124728587D01*
X89435883Y-124723260D01*
X89443938Y-124719525D01*
X89460229Y-124707015D01*
X89475167Y-124705043D01*
X89482843Y-124701483D01*
X89494333Y-124702513D01*
X89511547Y-124700240D01*
X89523315Y-124705110D01*
G37*
X89500000Y-131200000D03*
X91000000Y-130600000D03*
X91100000Y-127300000D03*
X91800000Y-128900000D03*
G04 #@! TD*
D12*
G04 #@! TO.C,S7*
X104980000Y-139500000D03*
D13*
X99900000Y-139500000D03*
D12*
X94820000Y-139500000D03*
D14*
X103710000Y-142040000D03*
X97360000Y-144580000D03*
G04 #@! TD*
D12*
G04 #@! TO.C,S5*
X62980000Y-139500000D03*
D13*
X57900000Y-139500000D03*
D12*
X52820000Y-139500000D03*
D14*
X61710000Y-142040000D03*
X55360000Y-144580000D03*
G04 #@! TD*
D11*
G04 #@! TO.C,FD3*
X127597202Y-171790000D03*
G04 #@! TD*
D12*
G04 #@! TO.C,S1*
X62980000Y-160500000D03*
D13*
X57900000Y-160500000D03*
D12*
X52820000Y-160500000D03*
D14*
X61710000Y-163040000D03*
X55360000Y-165580000D03*
G04 #@! TD*
D11*
G04 #@! TO.C,FD1*
X44347202Y-165590000D03*
G04 #@! TD*
D12*
G04 #@! TO.C,S10*
X83980000Y-118500000D03*
D13*
X78900000Y-118500000D03*
D12*
X73820000Y-118500000D03*
D14*
X82710000Y-121040000D03*
X76360000Y-123580000D03*
G04 #@! TD*
G04 #@! TO.C,H1*
X46150000Y-106750000D03*
G04 #@! TD*
D11*
G04 #@! TO.C,FD5*
X50697202Y-104690000D03*
G04 #@! TD*
D12*
G04 #@! TO.C,S4*
X125980000Y-160500000D03*
D13*
X120900000Y-160500000D03*
D12*
X115820000Y-160500000D03*
D14*
X124710000Y-163040000D03*
X118360000Y-165580000D03*
G04 #@! TD*
D12*
G04 #@! TO.C,S11*
X104980000Y-118500000D03*
D13*
X99900000Y-118500000D03*
D12*
X94820000Y-118500000D03*
D14*
X103710000Y-121040000D03*
X97360000Y-123580000D03*
G04 #@! TD*
D12*
G04 #@! TO.C,S6*
X83980000Y-139500000D03*
D13*
X78900000Y-139500000D03*
D12*
X73820000Y-139500000D03*
D14*
X82710000Y-142040000D03*
X76360000Y-144580000D03*
G04 #@! TD*
D12*
G04 #@! TO.C,S8*
X125980000Y-139500000D03*
D13*
X120900000Y-139500000D03*
D12*
X115820000Y-139500000D03*
D14*
X124710000Y-142040000D03*
X118360000Y-144580000D03*
G04 #@! TD*
G04 #@! TO.C,H4*
X46150000Y-172250000D03*
G04 #@! TD*
G04 #@! TO.C,H3*
X132650000Y-106750000D03*
G04 #@! TD*
D12*
G04 #@! TO.C,S2*
X83980000Y-160500000D03*
D13*
X78900000Y-160500000D03*
D12*
X73820000Y-160500000D03*
D14*
X82710000Y-163040000D03*
X76360000Y-165580000D03*
G04 #@! TD*
G04 #@! TO.C,H2*
X132650000Y-172250000D03*
G04 #@! TD*
D12*
G04 #@! TO.C,S9*
X62980000Y-118500000D03*
D13*
X57900000Y-118500000D03*
D12*
X52820000Y-118500000D03*
D14*
X61710000Y-121040000D03*
X55360000Y-123580000D03*
G04 #@! TD*
D15*
G04 #@! TO.C,S20*
X114400000Y-118450000D03*
X127400000Y-118450000D03*
D16*
X118400000Y-125950000D03*
X123400000Y-125950000D03*
X120900000Y-125950000D03*
X118400000Y-111450000D03*
X123400000Y-111450000D03*
G04 #@! TD*
D17*
G04 #@! TO.C,TP1*
X64986721Y-170187635D03*
G04 #@! TD*
G04 #@! TO.C,TP11*
X66300000Y-106600000D03*
G04 #@! TD*
G04 #@! TO.C,TP12*
X70600000Y-106600000D03*
G04 #@! TD*
G04 #@! TO.C,TP6*
X49900000Y-126700000D03*
G04 #@! TD*
G04 #@! TO.C,TP15*
X66400000Y-157800000D03*
G04 #@! TD*
G04 #@! TO.C,TP4*
X129700000Y-134200000D03*
G04 #@! TD*
G04 #@! TO.C,TP7*
X69149789Y-161299326D03*
G04 #@! TD*
D18*
G04 #@! TO.C,J1*
X86405000Y-109360000D03*
X87255000Y-109360000D03*
X88105000Y-109360000D03*
X88955000Y-109360000D03*
X89805000Y-109360000D03*
X90655000Y-109360000D03*
X91505000Y-109360000D03*
X92355000Y-109360000D03*
X92355000Y-108010000D03*
X91505000Y-108010000D03*
X90655000Y-108010000D03*
X89805000Y-108010000D03*
X88955000Y-108010000D03*
X88105000Y-108010000D03*
X87255000Y-108010000D03*
X86405000Y-108010000D03*
D19*
X85055000Y-105000000D03*
D20*
X85055000Y-108380000D03*
D19*
X93705000Y-105000000D03*
D20*
X93705000Y-108380000D03*
G04 #@! TD*
D17*
G04 #@! TO.C,TP13*
X110597137Y-168902694D03*
G04 #@! TD*
G04 #@! TO.C,TP8*
X66800000Y-145200000D03*
G04 #@! TD*
G04 #@! TO.C,TP14*
X126400000Y-127200000D03*
G04 #@! TD*
G04 #@! TO.C,TP2*
X95800000Y-151200000D03*
G04 #@! TD*
G04 #@! TO.C,TP16*
X57800000Y-106000000D03*
G04 #@! TD*
G04 #@! TO.C,TP3*
X129800000Y-138700000D03*
G04 #@! TD*
G04 #@! TO.C,TP5*
X134000000Y-113500000D03*
G04 #@! TD*
M02*
