G04 #@! TF.GenerationSoftware,KiCad,Pcbnew,7.0.6*
G04 #@! TF.CreationDate,2023-10-20T19:04:06+03:00*
G04 #@! TF.ProjectId,000018 PGKB,30303030-3138-4205-9047-4b422e6b6963,1.0*
G04 #@! TF.SameCoordinates,Original*
G04 #@! TF.FileFunction,AssemblyDrawing,Top*
%FSLAX46Y46*%
G04 Gerber Fmt 4.6, Leading zero omitted, Abs format (unit mm)*
G04 Created by KiCad (PCBNEW 7.0.6) date 2023-10-20 19:04:06*
%MOMM*%
%LPD*%
G01*
G04 APERTURE LIST*
%ADD10C,0.100000*%
%ADD11C,0.150000*%
%ADD12C,0.060000*%
%ADD13C,0.040000*%
%ADD14C,0.250000*%
G04 APERTURE END LIST*
D10*
X4200000Y-10200000D02*
X62200000Y-10200000D01*
X18200000Y-36200000D02*
X35200000Y-36200000D01*
X35200000Y-38200000D01*
X18200000Y-38200000D01*
X18200000Y-36200000D01*
X34200000Y-4200000D02*
X34200000Y-10200000D01*
X4200000Y-6200000D02*
X62200000Y-6200000D01*
X18200000Y-33200000D02*
X35200000Y-33200000D01*
X35200000Y-35200000D01*
X18200000Y-35200000D01*
X18200000Y-33200000D01*
X4200000Y-8200000D02*
X62200000Y-8200000D01*
X4200000Y-12200000D02*
X62200000Y-12200000D01*
X4200000Y-4200000D02*
X62200000Y-4200000D01*
X62200000Y-54200000D01*
X4200000Y-54200000D01*
X4200000Y-4200000D01*
X18200000Y-24200000D02*
X35200000Y-24200000D01*
X35200000Y-26200000D01*
X18200000Y-26200000D01*
X18200000Y-24200000D01*
X18200000Y-42200000D02*
X35200000Y-42200000D01*
X35200000Y-44200000D01*
X18200000Y-44200000D01*
X18200000Y-42200000D01*
X18200000Y-27200000D02*
X35200000Y-27200000D01*
X35200000Y-29200000D01*
X18200000Y-29200000D01*
X18200000Y-27200000D01*
X18200000Y-30200000D02*
X35200000Y-30200000D01*
X35200000Y-32200000D01*
X18200000Y-32200000D01*
X18200000Y-30200000D01*
X18200000Y-39200000D02*
X35200000Y-39200000D01*
X35200000Y-41200000D01*
X18200000Y-41200000D01*
X18200000Y-39200000D01*
D11*
X20108207Y-34559580D02*
X20060588Y-34607200D01*
X20060588Y-34607200D02*
X19917731Y-34654819D01*
X19917731Y-34654819D02*
X19822493Y-34654819D01*
X19822493Y-34654819D02*
X19679636Y-34607200D01*
X19679636Y-34607200D02*
X19584398Y-34511961D01*
X19584398Y-34511961D02*
X19536779Y-34416723D01*
X19536779Y-34416723D02*
X19489160Y-34226247D01*
X19489160Y-34226247D02*
X19489160Y-34083390D01*
X19489160Y-34083390D02*
X19536779Y-33892914D01*
X19536779Y-33892914D02*
X19584398Y-33797676D01*
X19584398Y-33797676D02*
X19679636Y-33702438D01*
X19679636Y-33702438D02*
X19822493Y-33654819D01*
X19822493Y-33654819D02*
X19917731Y-33654819D01*
X19917731Y-33654819D02*
X20060588Y-33702438D01*
X20060588Y-33702438D02*
X20108207Y-33750057D01*
X20679636Y-34654819D02*
X20584398Y-34607200D01*
X20584398Y-34607200D02*
X20536779Y-34559580D01*
X20536779Y-34559580D02*
X20489160Y-34464342D01*
X20489160Y-34464342D02*
X20489160Y-34178628D01*
X20489160Y-34178628D02*
X20536779Y-34083390D01*
X20536779Y-34083390D02*
X20584398Y-34035771D01*
X20584398Y-34035771D02*
X20679636Y-33988152D01*
X20679636Y-33988152D02*
X20822493Y-33988152D01*
X20822493Y-33988152D02*
X20917731Y-34035771D01*
X20917731Y-34035771D02*
X20965350Y-34083390D01*
X20965350Y-34083390D02*
X21012969Y-34178628D01*
X21012969Y-34178628D02*
X21012969Y-34464342D01*
X21012969Y-34464342D02*
X20965350Y-34559580D01*
X20965350Y-34559580D02*
X20917731Y-34607200D01*
X20917731Y-34607200D02*
X20822493Y-34654819D01*
X20822493Y-34654819D02*
X20679636Y-34654819D01*
X21441541Y-34654819D02*
X21441541Y-33988152D01*
X21441541Y-34178628D02*
X21489160Y-34083390D01*
X21489160Y-34083390D02*
X21536779Y-34035771D01*
X21536779Y-34035771D02*
X21632017Y-33988152D01*
X21632017Y-33988152D02*
X21727255Y-33988152D01*
X22441541Y-34607200D02*
X22346303Y-34654819D01*
X22346303Y-34654819D02*
X22155827Y-34654819D01*
X22155827Y-34654819D02*
X22060589Y-34607200D01*
X22060589Y-34607200D02*
X22012970Y-34511961D01*
X22012970Y-34511961D02*
X22012970Y-34131009D01*
X22012970Y-34131009D02*
X22060589Y-34035771D01*
X22060589Y-34035771D02*
X22155827Y-33988152D01*
X22155827Y-33988152D02*
X22346303Y-33988152D01*
X22346303Y-33988152D02*
X22441541Y-34035771D01*
X22441541Y-34035771D02*
X22489160Y-34131009D01*
X22489160Y-34131009D02*
X22489160Y-34226247D01*
X22489160Y-34226247D02*
X22012970Y-34321485D01*
X24203446Y-34654819D02*
X23632018Y-34654819D01*
X23917732Y-34654819D02*
X23917732Y-33654819D01*
X23917732Y-33654819D02*
X23822494Y-33797676D01*
X23822494Y-33797676D02*
X23727256Y-33892914D01*
X23727256Y-33892914D02*
X23632018Y-33940533D01*
X25155827Y-34654819D02*
X24584399Y-34654819D01*
X24870113Y-34654819D02*
X24870113Y-33654819D01*
X24870113Y-33654819D02*
X24774875Y-33797676D01*
X24774875Y-33797676D02*
X24679637Y-33892914D01*
X24679637Y-33892914D02*
X24584399Y-33940533D01*
X25774875Y-33654819D02*
X25870113Y-33654819D01*
X25870113Y-33654819D02*
X25965351Y-33702438D01*
X25965351Y-33702438D02*
X26012970Y-33750057D01*
X26012970Y-33750057D02*
X26060589Y-33845295D01*
X26060589Y-33845295D02*
X26108208Y-34035771D01*
X26108208Y-34035771D02*
X26108208Y-34273866D01*
X26108208Y-34273866D02*
X26060589Y-34464342D01*
X26060589Y-34464342D02*
X26012970Y-34559580D01*
X26012970Y-34559580D02*
X25965351Y-34607200D01*
X25965351Y-34607200D02*
X25870113Y-34654819D01*
X25870113Y-34654819D02*
X25774875Y-34654819D01*
X25774875Y-34654819D02*
X25679637Y-34607200D01*
X25679637Y-34607200D02*
X25632018Y-34559580D01*
X25632018Y-34559580D02*
X25584399Y-34464342D01*
X25584399Y-34464342D02*
X25536780Y-34273866D01*
X25536780Y-34273866D02*
X25536780Y-34035771D01*
X25536780Y-34035771D02*
X25584399Y-33845295D01*
X25584399Y-33845295D02*
X25632018Y-33750057D01*
X25632018Y-33750057D02*
X25679637Y-33702438D01*
X25679637Y-33702438D02*
X25774875Y-33654819D01*
X26727256Y-33654819D02*
X26822494Y-33654819D01*
X26822494Y-33654819D02*
X26917732Y-33702438D01*
X26917732Y-33702438D02*
X26965351Y-33750057D01*
X26965351Y-33750057D02*
X27012970Y-33845295D01*
X27012970Y-33845295D02*
X27060589Y-34035771D01*
X27060589Y-34035771D02*
X27060589Y-34273866D01*
X27060589Y-34273866D02*
X27012970Y-34464342D01*
X27012970Y-34464342D02*
X26965351Y-34559580D01*
X26965351Y-34559580D02*
X26917732Y-34607200D01*
X26917732Y-34607200D02*
X26822494Y-34654819D01*
X26822494Y-34654819D02*
X26727256Y-34654819D01*
X26727256Y-34654819D02*
X26632018Y-34607200D01*
X26632018Y-34607200D02*
X26584399Y-34559580D01*
X26584399Y-34559580D02*
X26536780Y-34464342D01*
X26536780Y-34464342D02*
X26489161Y-34273866D01*
X26489161Y-34273866D02*
X26489161Y-34035771D01*
X26489161Y-34035771D02*
X26536780Y-33845295D01*
X26536780Y-33845295D02*
X26584399Y-33750057D01*
X26584399Y-33750057D02*
X26632018Y-33702438D01*
X26632018Y-33702438D02*
X26727256Y-33654819D01*
X28679637Y-33988152D02*
X28679637Y-34654819D01*
X28251066Y-33988152D02*
X28251066Y-34511961D01*
X28251066Y-34511961D02*
X28298685Y-34607200D01*
X28298685Y-34607200D02*
X28393923Y-34654819D01*
X28393923Y-34654819D02*
X28536780Y-34654819D01*
X28536780Y-34654819D02*
X28632018Y-34607200D01*
X28632018Y-34607200D02*
X28679637Y-34559580D01*
X29155828Y-34654819D02*
X29155828Y-33988152D01*
X29155828Y-34083390D02*
X29203447Y-34035771D01*
X29203447Y-34035771D02*
X29298685Y-33988152D01*
X29298685Y-33988152D02*
X29441542Y-33988152D01*
X29441542Y-33988152D02*
X29536780Y-34035771D01*
X29536780Y-34035771D02*
X29584399Y-34131009D01*
X29584399Y-34131009D02*
X29584399Y-34654819D01*
X29584399Y-34131009D02*
X29632018Y-34035771D01*
X29632018Y-34035771D02*
X29727256Y-33988152D01*
X29727256Y-33988152D02*
X29870113Y-33988152D01*
X29870113Y-33988152D02*
X29965352Y-34035771D01*
X29965352Y-34035771D02*
X30012971Y-34131009D01*
X30012971Y-34131009D02*
X30012971Y-34654819D01*
X35870112Y-9131009D02*
X35536779Y-9131009D01*
X35536779Y-9654819D02*
X35536779Y-8654819D01*
X35536779Y-8654819D02*
X36012969Y-8654819D01*
X36965350Y-9654819D02*
X36632017Y-9178628D01*
X36393922Y-9654819D02*
X36393922Y-8654819D01*
X36393922Y-8654819D02*
X36774874Y-8654819D01*
X36774874Y-8654819D02*
X36870112Y-8702438D01*
X36870112Y-8702438D02*
X36917731Y-8750057D01*
X36917731Y-8750057D02*
X36965350Y-8845295D01*
X36965350Y-8845295D02*
X36965350Y-8988152D01*
X36965350Y-8988152D02*
X36917731Y-9083390D01*
X36917731Y-9083390D02*
X36870112Y-9131009D01*
X36870112Y-9131009D02*
X36774874Y-9178628D01*
X36774874Y-9178628D02*
X36393922Y-9178628D01*
X37822493Y-8988152D02*
X37822493Y-9654819D01*
X37584398Y-8607200D02*
X37346303Y-9321485D01*
X37346303Y-9321485D02*
X37965350Y-9321485D01*
X10934648Y-38035771D02*
X10887029Y-37988152D01*
X10887029Y-37988152D02*
X10791791Y-37845295D01*
X10791791Y-37845295D02*
X10744172Y-37750057D01*
X10744172Y-37750057D02*
X10696553Y-37607200D01*
X10696553Y-37607200D02*
X10648934Y-37369104D01*
X10648934Y-37369104D02*
X10648934Y-37178628D01*
X10648934Y-37178628D02*
X10696553Y-36940533D01*
X10696553Y-36940533D02*
X10744172Y-36797676D01*
X10744172Y-36797676D02*
X10791791Y-36702438D01*
X10791791Y-36702438D02*
X10887029Y-36559580D01*
X10887029Y-36559580D02*
X10934648Y-36511961D01*
X11315601Y-37654819D02*
X11315601Y-36654819D01*
X11791791Y-36988152D02*
X11791791Y-37654819D01*
X11791791Y-37083390D02*
X11839410Y-37035771D01*
X11839410Y-37035771D02*
X11934648Y-36988152D01*
X11934648Y-36988152D02*
X12077505Y-36988152D01*
X12077505Y-36988152D02*
X12172743Y-37035771D01*
X12172743Y-37035771D02*
X12220362Y-37131009D01*
X12220362Y-37131009D02*
X12220362Y-37654819D01*
X12648934Y-36750057D02*
X12696553Y-36702438D01*
X12696553Y-36702438D02*
X12791791Y-36654819D01*
X12791791Y-36654819D02*
X13029886Y-36654819D01*
X13029886Y-36654819D02*
X13125124Y-36702438D01*
X13125124Y-36702438D02*
X13172743Y-36750057D01*
X13172743Y-36750057D02*
X13220362Y-36845295D01*
X13220362Y-36845295D02*
X13220362Y-36940533D01*
X13220362Y-36940533D02*
X13172743Y-37083390D01*
X13172743Y-37083390D02*
X12601315Y-37654819D01*
X12601315Y-37654819D02*
X13220362Y-37654819D01*
X13553696Y-38035771D02*
X13601315Y-37988152D01*
X13601315Y-37988152D02*
X13696553Y-37845295D01*
X13696553Y-37845295D02*
X13744172Y-37750057D01*
X13744172Y-37750057D02*
X13791791Y-37607200D01*
X13791791Y-37607200D02*
X13839410Y-37369104D01*
X13839410Y-37369104D02*
X13839410Y-37178628D01*
X13839410Y-37178628D02*
X13791791Y-36940533D01*
X13791791Y-36940533D02*
X13744172Y-36797676D01*
X13744172Y-36797676D02*
X13696553Y-36702438D01*
X13696553Y-36702438D02*
X13601315Y-36559580D01*
X13601315Y-36559580D02*
X13553696Y-36511961D01*
X15553696Y-37654819D02*
X15077506Y-37654819D01*
X15077506Y-37654819D02*
X15077506Y-36654819D01*
X15791792Y-36654819D02*
X16410839Y-36654819D01*
X16410839Y-36654819D02*
X16077506Y-37035771D01*
X16077506Y-37035771D02*
X16220363Y-37035771D01*
X16220363Y-37035771D02*
X16315601Y-37083390D01*
X16315601Y-37083390D02*
X16363220Y-37131009D01*
X16363220Y-37131009D02*
X16410839Y-37226247D01*
X16410839Y-37226247D02*
X16410839Y-37464342D01*
X16410839Y-37464342D02*
X16363220Y-37559580D01*
X16363220Y-37559580D02*
X16315601Y-37607200D01*
X16315601Y-37607200D02*
X16220363Y-37654819D01*
X16220363Y-37654819D02*
X15934649Y-37654819D01*
X15934649Y-37654819D02*
X15839411Y-37607200D01*
X15839411Y-37607200D02*
X15791792Y-37559580D01*
X39370112Y-31326009D02*
X39036779Y-31326009D01*
X39036779Y-31849819D02*
X39036779Y-30849819D01*
X39036779Y-30849819D02*
X39512969Y-30849819D01*
X39893922Y-31849819D02*
X39893922Y-31183152D01*
X39893922Y-30849819D02*
X39846303Y-30897438D01*
X39846303Y-30897438D02*
X39893922Y-30945057D01*
X39893922Y-30945057D02*
X39941541Y-30897438D01*
X39941541Y-30897438D02*
X39893922Y-30849819D01*
X39893922Y-30849819D02*
X39893922Y-30945057D01*
X40370112Y-31183152D02*
X40370112Y-31849819D01*
X40370112Y-31278390D02*
X40417731Y-31230771D01*
X40417731Y-31230771D02*
X40512969Y-31183152D01*
X40512969Y-31183152D02*
X40655826Y-31183152D01*
X40655826Y-31183152D02*
X40751064Y-31230771D01*
X40751064Y-31230771D02*
X40798683Y-31326009D01*
X40798683Y-31326009D02*
X40798683Y-31849819D01*
X41703445Y-31849819D02*
X41703445Y-31326009D01*
X41703445Y-31326009D02*
X41655826Y-31230771D01*
X41655826Y-31230771D02*
X41560588Y-31183152D01*
X41560588Y-31183152D02*
X41370112Y-31183152D01*
X41370112Y-31183152D02*
X41274874Y-31230771D01*
X41703445Y-31802200D02*
X41608207Y-31849819D01*
X41608207Y-31849819D02*
X41370112Y-31849819D01*
X41370112Y-31849819D02*
X41274874Y-31802200D01*
X41274874Y-31802200D02*
X41227255Y-31706961D01*
X41227255Y-31706961D02*
X41227255Y-31611723D01*
X41227255Y-31611723D02*
X41274874Y-31516485D01*
X41274874Y-31516485D02*
X41370112Y-31468866D01*
X41370112Y-31468866D02*
X41608207Y-31468866D01*
X41608207Y-31468866D02*
X41703445Y-31421247D01*
X42322493Y-31849819D02*
X42227255Y-31802200D01*
X42227255Y-31802200D02*
X42179636Y-31706961D01*
X42179636Y-31706961D02*
X42179636Y-30849819D01*
X43322494Y-31183152D02*
X43703446Y-31183152D01*
X43465351Y-30849819D02*
X43465351Y-31706961D01*
X43465351Y-31706961D02*
X43512970Y-31802200D01*
X43512970Y-31802200D02*
X43608208Y-31849819D01*
X43608208Y-31849819D02*
X43703446Y-31849819D01*
X44036780Y-31849819D02*
X44036780Y-30849819D01*
X44465351Y-31849819D02*
X44465351Y-31326009D01*
X44465351Y-31326009D02*
X44417732Y-31230771D01*
X44417732Y-31230771D02*
X44322494Y-31183152D01*
X44322494Y-31183152D02*
X44179637Y-31183152D01*
X44179637Y-31183152D02*
X44084399Y-31230771D01*
X44084399Y-31230771D02*
X44036780Y-31278390D01*
X44941542Y-31849819D02*
X44941542Y-31183152D01*
X44941542Y-30849819D02*
X44893923Y-30897438D01*
X44893923Y-30897438D02*
X44941542Y-30945057D01*
X44941542Y-30945057D02*
X44989161Y-30897438D01*
X44989161Y-30897438D02*
X44941542Y-30849819D01*
X44941542Y-30849819D02*
X44941542Y-30945057D01*
X45846303Y-31802200D02*
X45751065Y-31849819D01*
X45751065Y-31849819D02*
X45560589Y-31849819D01*
X45560589Y-31849819D02*
X45465351Y-31802200D01*
X45465351Y-31802200D02*
X45417732Y-31754580D01*
X45417732Y-31754580D02*
X45370113Y-31659342D01*
X45370113Y-31659342D02*
X45370113Y-31373628D01*
X45370113Y-31373628D02*
X45417732Y-31278390D01*
X45417732Y-31278390D02*
X45465351Y-31230771D01*
X45465351Y-31230771D02*
X45560589Y-31183152D01*
X45560589Y-31183152D02*
X45751065Y-31183152D01*
X45751065Y-31183152D02*
X45846303Y-31230771D01*
X46274875Y-31849819D02*
X46274875Y-30849819D01*
X46370113Y-31468866D02*
X46655827Y-31849819D01*
X46655827Y-31183152D02*
X46274875Y-31564104D01*
X47084399Y-31183152D02*
X47084399Y-31849819D01*
X47084399Y-31278390D02*
X47132018Y-31230771D01*
X47132018Y-31230771D02*
X47227256Y-31183152D01*
X47227256Y-31183152D02*
X47370113Y-31183152D01*
X47370113Y-31183152D02*
X47465351Y-31230771D01*
X47465351Y-31230771D02*
X47512970Y-31326009D01*
X47512970Y-31326009D02*
X47512970Y-31849819D01*
X48370113Y-31802200D02*
X48274875Y-31849819D01*
X48274875Y-31849819D02*
X48084399Y-31849819D01*
X48084399Y-31849819D02*
X47989161Y-31802200D01*
X47989161Y-31802200D02*
X47941542Y-31706961D01*
X47941542Y-31706961D02*
X47941542Y-31326009D01*
X47941542Y-31326009D02*
X47989161Y-31230771D01*
X47989161Y-31230771D02*
X48084399Y-31183152D01*
X48084399Y-31183152D02*
X48274875Y-31183152D01*
X48274875Y-31183152D02*
X48370113Y-31230771D01*
X48370113Y-31230771D02*
X48417732Y-31326009D01*
X48417732Y-31326009D02*
X48417732Y-31421247D01*
X48417732Y-31421247D02*
X47941542Y-31516485D01*
X48798685Y-31802200D02*
X48893923Y-31849819D01*
X48893923Y-31849819D02*
X49084399Y-31849819D01*
X49084399Y-31849819D02*
X49179637Y-31802200D01*
X49179637Y-31802200D02*
X49227256Y-31706961D01*
X49227256Y-31706961D02*
X49227256Y-31659342D01*
X49227256Y-31659342D02*
X49179637Y-31564104D01*
X49179637Y-31564104D02*
X49084399Y-31516485D01*
X49084399Y-31516485D02*
X48941542Y-31516485D01*
X48941542Y-31516485D02*
X48846304Y-31468866D01*
X48846304Y-31468866D02*
X48798685Y-31373628D01*
X48798685Y-31373628D02*
X48798685Y-31326009D01*
X48798685Y-31326009D02*
X48846304Y-31230771D01*
X48846304Y-31230771D02*
X48941542Y-31183152D01*
X48941542Y-31183152D02*
X49084399Y-31183152D01*
X49084399Y-31183152D02*
X49179637Y-31230771D01*
X49608209Y-31802200D02*
X49703447Y-31849819D01*
X49703447Y-31849819D02*
X49893923Y-31849819D01*
X49893923Y-31849819D02*
X49989161Y-31802200D01*
X49989161Y-31802200D02*
X50036780Y-31706961D01*
X50036780Y-31706961D02*
X50036780Y-31659342D01*
X50036780Y-31659342D02*
X49989161Y-31564104D01*
X49989161Y-31564104D02*
X49893923Y-31516485D01*
X49893923Y-31516485D02*
X49751066Y-31516485D01*
X49751066Y-31516485D02*
X49655828Y-31468866D01*
X49655828Y-31468866D02*
X49608209Y-31373628D01*
X49608209Y-31373628D02*
X49608209Y-31326009D01*
X49608209Y-31326009D02*
X49655828Y-31230771D01*
X49655828Y-31230771D02*
X49751066Y-31183152D01*
X49751066Y-31183152D02*
X49893923Y-31183152D01*
X49893923Y-31183152D02*
X49989161Y-31230771D01*
X51132019Y-31183152D02*
X51322495Y-31849819D01*
X51322495Y-31849819D02*
X51512971Y-31373628D01*
X51512971Y-31373628D02*
X51703447Y-31849819D01*
X51703447Y-31849819D02*
X51893923Y-31183152D01*
X52274876Y-31849819D02*
X52274876Y-31183152D01*
X52274876Y-30849819D02*
X52227257Y-30897438D01*
X52227257Y-30897438D02*
X52274876Y-30945057D01*
X52274876Y-30945057D02*
X52322495Y-30897438D01*
X52322495Y-30897438D02*
X52274876Y-30849819D01*
X52274876Y-30849819D02*
X52274876Y-30945057D01*
X52608209Y-31183152D02*
X52989161Y-31183152D01*
X52751066Y-30849819D02*
X52751066Y-31706961D01*
X52751066Y-31706961D02*
X52798685Y-31802200D01*
X52798685Y-31802200D02*
X52893923Y-31849819D01*
X52893923Y-31849819D02*
X52989161Y-31849819D01*
X53322495Y-31849819D02*
X53322495Y-30849819D01*
X53751066Y-31849819D02*
X53751066Y-31326009D01*
X53751066Y-31326009D02*
X53703447Y-31230771D01*
X53703447Y-31230771D02*
X53608209Y-31183152D01*
X53608209Y-31183152D02*
X53465352Y-31183152D01*
X53465352Y-31183152D02*
X53370114Y-31230771D01*
X53370114Y-31230771D02*
X53322495Y-31278390D01*
X54370114Y-31849819D02*
X54274876Y-31802200D01*
X54274876Y-31802200D02*
X54227257Y-31754580D01*
X54227257Y-31754580D02*
X54179638Y-31659342D01*
X54179638Y-31659342D02*
X54179638Y-31373628D01*
X54179638Y-31373628D02*
X54227257Y-31278390D01*
X54227257Y-31278390D02*
X54274876Y-31230771D01*
X54274876Y-31230771D02*
X54370114Y-31183152D01*
X54370114Y-31183152D02*
X54512971Y-31183152D01*
X54512971Y-31183152D02*
X54608209Y-31230771D01*
X54608209Y-31230771D02*
X54655828Y-31278390D01*
X54655828Y-31278390D02*
X54703447Y-31373628D01*
X54703447Y-31373628D02*
X54703447Y-31659342D01*
X54703447Y-31659342D02*
X54655828Y-31754580D01*
X54655828Y-31754580D02*
X54608209Y-31802200D01*
X54608209Y-31802200D02*
X54512971Y-31849819D01*
X54512971Y-31849819D02*
X54370114Y-31849819D01*
X55560590Y-31183152D02*
X55560590Y-31849819D01*
X55132019Y-31183152D02*
X55132019Y-31706961D01*
X55132019Y-31706961D02*
X55179638Y-31802200D01*
X55179638Y-31802200D02*
X55274876Y-31849819D01*
X55274876Y-31849819D02*
X55417733Y-31849819D01*
X55417733Y-31849819D02*
X55512971Y-31802200D01*
X55512971Y-31802200D02*
X55560590Y-31754580D01*
X55893924Y-31183152D02*
X56274876Y-31183152D01*
X56036781Y-30849819D02*
X56036781Y-31706961D01*
X56036781Y-31706961D02*
X56084400Y-31802200D01*
X56084400Y-31802200D02*
X56179638Y-31849819D01*
X56179638Y-31849819D02*
X56274876Y-31849819D01*
X38989160Y-33412200D02*
X39084398Y-33459819D01*
X39084398Y-33459819D02*
X39274874Y-33459819D01*
X39274874Y-33459819D02*
X39370112Y-33412200D01*
X39370112Y-33412200D02*
X39417731Y-33316961D01*
X39417731Y-33316961D02*
X39417731Y-33269342D01*
X39417731Y-33269342D02*
X39370112Y-33174104D01*
X39370112Y-33174104D02*
X39274874Y-33126485D01*
X39274874Y-33126485D02*
X39132017Y-33126485D01*
X39132017Y-33126485D02*
X39036779Y-33078866D01*
X39036779Y-33078866D02*
X38989160Y-32983628D01*
X38989160Y-32983628D02*
X38989160Y-32936009D01*
X38989160Y-32936009D02*
X39036779Y-32840771D01*
X39036779Y-32840771D02*
X39132017Y-32793152D01*
X39132017Y-32793152D02*
X39274874Y-32793152D01*
X39274874Y-32793152D02*
X39370112Y-32840771D01*
X39989160Y-33459819D02*
X39893922Y-33412200D01*
X39893922Y-33412200D02*
X39846303Y-33364580D01*
X39846303Y-33364580D02*
X39798684Y-33269342D01*
X39798684Y-33269342D02*
X39798684Y-32983628D01*
X39798684Y-32983628D02*
X39846303Y-32888390D01*
X39846303Y-32888390D02*
X39893922Y-32840771D01*
X39893922Y-32840771D02*
X39989160Y-32793152D01*
X39989160Y-32793152D02*
X40132017Y-32793152D01*
X40132017Y-32793152D02*
X40227255Y-32840771D01*
X40227255Y-32840771D02*
X40274874Y-32888390D01*
X40274874Y-32888390D02*
X40322493Y-32983628D01*
X40322493Y-32983628D02*
X40322493Y-33269342D01*
X40322493Y-33269342D02*
X40274874Y-33364580D01*
X40274874Y-33364580D02*
X40227255Y-33412200D01*
X40227255Y-33412200D02*
X40132017Y-33459819D01*
X40132017Y-33459819D02*
X39989160Y-33459819D01*
X40893922Y-33459819D02*
X40798684Y-33412200D01*
X40798684Y-33412200D02*
X40751065Y-33316961D01*
X40751065Y-33316961D02*
X40751065Y-32459819D01*
X41703446Y-33459819D02*
X41703446Y-32459819D01*
X41703446Y-33412200D02*
X41608208Y-33459819D01*
X41608208Y-33459819D02*
X41417732Y-33459819D01*
X41417732Y-33459819D02*
X41322494Y-33412200D01*
X41322494Y-33412200D02*
X41274875Y-33364580D01*
X41274875Y-33364580D02*
X41227256Y-33269342D01*
X41227256Y-33269342D02*
X41227256Y-32983628D01*
X41227256Y-32983628D02*
X41274875Y-32888390D01*
X41274875Y-32888390D02*
X41322494Y-32840771D01*
X41322494Y-32840771D02*
X41417732Y-32793152D01*
X41417732Y-32793152D02*
X41608208Y-32793152D01*
X41608208Y-32793152D02*
X41703446Y-32840771D01*
X42560589Y-33412200D02*
X42465351Y-33459819D01*
X42465351Y-33459819D02*
X42274875Y-33459819D01*
X42274875Y-33459819D02*
X42179637Y-33412200D01*
X42179637Y-33412200D02*
X42132018Y-33316961D01*
X42132018Y-33316961D02*
X42132018Y-32936009D01*
X42132018Y-32936009D02*
X42179637Y-32840771D01*
X42179637Y-32840771D02*
X42274875Y-32793152D01*
X42274875Y-32793152D02*
X42465351Y-32793152D01*
X42465351Y-32793152D02*
X42560589Y-32840771D01*
X42560589Y-32840771D02*
X42608208Y-32936009D01*
X42608208Y-32936009D02*
X42608208Y-33031247D01*
X42608208Y-33031247D02*
X42132018Y-33126485D01*
X43036780Y-33459819D02*
X43036780Y-32793152D01*
X43036780Y-32983628D02*
X43084399Y-32888390D01*
X43084399Y-32888390D02*
X43132018Y-32840771D01*
X43132018Y-32840771D02*
X43227256Y-32793152D01*
X43227256Y-32793152D02*
X43322494Y-32793152D01*
X44417733Y-33459819D02*
X44417733Y-32793152D01*
X44417733Y-32888390D02*
X44465352Y-32840771D01*
X44465352Y-32840771D02*
X44560590Y-32793152D01*
X44560590Y-32793152D02*
X44703447Y-32793152D01*
X44703447Y-32793152D02*
X44798685Y-32840771D01*
X44798685Y-32840771D02*
X44846304Y-32936009D01*
X44846304Y-32936009D02*
X44846304Y-33459819D01*
X44846304Y-32936009D02*
X44893923Y-32840771D01*
X44893923Y-32840771D02*
X44989161Y-32793152D01*
X44989161Y-32793152D02*
X45132018Y-32793152D01*
X45132018Y-32793152D02*
X45227257Y-32840771D01*
X45227257Y-32840771D02*
X45274876Y-32936009D01*
X45274876Y-32936009D02*
X45274876Y-33459819D01*
X46179637Y-33459819D02*
X46179637Y-32936009D01*
X46179637Y-32936009D02*
X46132018Y-32840771D01*
X46132018Y-32840771D02*
X46036780Y-32793152D01*
X46036780Y-32793152D02*
X45846304Y-32793152D01*
X45846304Y-32793152D02*
X45751066Y-32840771D01*
X46179637Y-33412200D02*
X46084399Y-33459819D01*
X46084399Y-33459819D02*
X45846304Y-33459819D01*
X45846304Y-33459819D02*
X45751066Y-33412200D01*
X45751066Y-33412200D02*
X45703447Y-33316961D01*
X45703447Y-33316961D02*
X45703447Y-33221723D01*
X45703447Y-33221723D02*
X45751066Y-33126485D01*
X45751066Y-33126485D02*
X45846304Y-33078866D01*
X45846304Y-33078866D02*
X46084399Y-33078866D01*
X46084399Y-33078866D02*
X46179637Y-33031247D01*
X46608209Y-33412200D02*
X46703447Y-33459819D01*
X46703447Y-33459819D02*
X46893923Y-33459819D01*
X46893923Y-33459819D02*
X46989161Y-33412200D01*
X46989161Y-33412200D02*
X47036780Y-33316961D01*
X47036780Y-33316961D02*
X47036780Y-33269342D01*
X47036780Y-33269342D02*
X46989161Y-33174104D01*
X46989161Y-33174104D02*
X46893923Y-33126485D01*
X46893923Y-33126485D02*
X46751066Y-33126485D01*
X46751066Y-33126485D02*
X46655828Y-33078866D01*
X46655828Y-33078866D02*
X46608209Y-32983628D01*
X46608209Y-32983628D02*
X46608209Y-32936009D01*
X46608209Y-32936009D02*
X46655828Y-32840771D01*
X46655828Y-32840771D02*
X46751066Y-32793152D01*
X46751066Y-32793152D02*
X46893923Y-32793152D01*
X46893923Y-32793152D02*
X46989161Y-32840771D01*
X47465352Y-33459819D02*
X47465352Y-32459819D01*
X47560590Y-33078866D02*
X47846304Y-33459819D01*
X47846304Y-32793152D02*
X47465352Y-33174104D01*
X49560590Y-33459819D02*
X48989162Y-33459819D01*
X49274876Y-33459819D02*
X49274876Y-32459819D01*
X49274876Y-32459819D02*
X49179638Y-32602676D01*
X49179638Y-32602676D02*
X49084400Y-32697914D01*
X49084400Y-32697914D02*
X48989162Y-32745533D01*
X50465352Y-32459819D02*
X49989162Y-32459819D01*
X49989162Y-32459819D02*
X49941543Y-32936009D01*
X49941543Y-32936009D02*
X49989162Y-32888390D01*
X49989162Y-32888390D02*
X50084400Y-32840771D01*
X50084400Y-32840771D02*
X50322495Y-32840771D01*
X50322495Y-32840771D02*
X50417733Y-32888390D01*
X50417733Y-32888390D02*
X50465352Y-32936009D01*
X50465352Y-32936009D02*
X50512971Y-33031247D01*
X50512971Y-33031247D02*
X50512971Y-33269342D01*
X50512971Y-33269342D02*
X50465352Y-33364580D01*
X50465352Y-33364580D02*
X50417733Y-33412200D01*
X50417733Y-33412200D02*
X50322495Y-33459819D01*
X50322495Y-33459819D02*
X50084400Y-33459819D01*
X50084400Y-33459819D02*
X49989162Y-33412200D01*
X49989162Y-33412200D02*
X49941543Y-33364580D01*
X51370114Y-32459819D02*
X51179638Y-32459819D01*
X51179638Y-32459819D02*
X51084400Y-32507438D01*
X51084400Y-32507438D02*
X51036781Y-32555057D01*
X51036781Y-32555057D02*
X50941543Y-32697914D01*
X50941543Y-32697914D02*
X50893924Y-32888390D01*
X50893924Y-32888390D02*
X50893924Y-33269342D01*
X50893924Y-33269342D02*
X50941543Y-33364580D01*
X50941543Y-33364580D02*
X50989162Y-33412200D01*
X50989162Y-33412200D02*
X51084400Y-33459819D01*
X51084400Y-33459819D02*
X51274876Y-33459819D01*
X51274876Y-33459819D02*
X51370114Y-33412200D01*
X51370114Y-33412200D02*
X51417733Y-33364580D01*
X51417733Y-33364580D02*
X51465352Y-33269342D01*
X51465352Y-33269342D02*
X51465352Y-33031247D01*
X51465352Y-33031247D02*
X51417733Y-32936009D01*
X51417733Y-32936009D02*
X51370114Y-32888390D01*
X51370114Y-32888390D02*
X51274876Y-32840771D01*
X51274876Y-32840771D02*
X51084400Y-32840771D01*
X51084400Y-32840771D02*
X50989162Y-32888390D01*
X50989162Y-32888390D02*
X50941543Y-32936009D01*
X50941543Y-32936009D02*
X50893924Y-33031247D01*
X52322495Y-32459819D02*
X52132019Y-32459819D01*
X52132019Y-32459819D02*
X52036781Y-32507438D01*
X52036781Y-32507438D02*
X51989162Y-32555057D01*
X51989162Y-32555057D02*
X51893924Y-32697914D01*
X51893924Y-32697914D02*
X51846305Y-32888390D01*
X51846305Y-32888390D02*
X51846305Y-33269342D01*
X51846305Y-33269342D02*
X51893924Y-33364580D01*
X51893924Y-33364580D02*
X51941543Y-33412200D01*
X51941543Y-33412200D02*
X52036781Y-33459819D01*
X52036781Y-33459819D02*
X52227257Y-33459819D01*
X52227257Y-33459819D02*
X52322495Y-33412200D01*
X52322495Y-33412200D02*
X52370114Y-33364580D01*
X52370114Y-33364580D02*
X52417733Y-33269342D01*
X52417733Y-33269342D02*
X52417733Y-33031247D01*
X52417733Y-33031247D02*
X52370114Y-32936009D01*
X52370114Y-32936009D02*
X52322495Y-32888390D01*
X52322495Y-32888390D02*
X52227257Y-32840771D01*
X52227257Y-32840771D02*
X52036781Y-32840771D01*
X52036781Y-32840771D02*
X51941543Y-32888390D01*
X51941543Y-32888390D02*
X51893924Y-32936009D01*
X51893924Y-32936009D02*
X51846305Y-33031247D01*
X54036781Y-32793152D02*
X54036781Y-33459819D01*
X53608210Y-32793152D02*
X53608210Y-33316961D01*
X53608210Y-33316961D02*
X53655829Y-33412200D01*
X53655829Y-33412200D02*
X53751067Y-33459819D01*
X53751067Y-33459819D02*
X53893924Y-33459819D01*
X53893924Y-33459819D02*
X53989162Y-33412200D01*
X53989162Y-33412200D02*
X54036781Y-33364580D01*
X54512972Y-33459819D02*
X54512972Y-32793152D01*
X54512972Y-32888390D02*
X54560591Y-32840771D01*
X54560591Y-32840771D02*
X54655829Y-32793152D01*
X54655829Y-32793152D02*
X54798686Y-32793152D01*
X54798686Y-32793152D02*
X54893924Y-32840771D01*
X54893924Y-32840771D02*
X54941543Y-32936009D01*
X54941543Y-32936009D02*
X54941543Y-33459819D01*
X54941543Y-32936009D02*
X54989162Y-32840771D01*
X54989162Y-32840771D02*
X55084400Y-32793152D01*
X55084400Y-32793152D02*
X55227257Y-32793152D01*
X55227257Y-32793152D02*
X55322496Y-32840771D01*
X55322496Y-32840771D02*
X55370115Y-32936009D01*
X55370115Y-32936009D02*
X55370115Y-33459819D01*
X5536779Y-9654819D02*
X5536779Y-8654819D01*
X5536779Y-8654819D02*
X5917731Y-8654819D01*
X5917731Y-8654819D02*
X6012969Y-8702438D01*
X6012969Y-8702438D02*
X6060588Y-8750057D01*
X6060588Y-8750057D02*
X6108207Y-8845295D01*
X6108207Y-8845295D02*
X6108207Y-8988152D01*
X6108207Y-8988152D02*
X6060588Y-9083390D01*
X6060588Y-9083390D02*
X6012969Y-9131009D01*
X6012969Y-9131009D02*
X5917731Y-9178628D01*
X5917731Y-9178628D02*
X5536779Y-9178628D01*
X7108207Y-9559580D02*
X7060588Y-9607200D01*
X7060588Y-9607200D02*
X6917731Y-9654819D01*
X6917731Y-9654819D02*
X6822493Y-9654819D01*
X6822493Y-9654819D02*
X6679636Y-9607200D01*
X6679636Y-9607200D02*
X6584398Y-9511961D01*
X6584398Y-9511961D02*
X6536779Y-9416723D01*
X6536779Y-9416723D02*
X6489160Y-9226247D01*
X6489160Y-9226247D02*
X6489160Y-9083390D01*
X6489160Y-9083390D02*
X6536779Y-8892914D01*
X6536779Y-8892914D02*
X6584398Y-8797676D01*
X6584398Y-8797676D02*
X6679636Y-8702438D01*
X6679636Y-8702438D02*
X6822493Y-8654819D01*
X6822493Y-8654819D02*
X6917731Y-8654819D01*
X6917731Y-8654819D02*
X7060588Y-8702438D01*
X7060588Y-8702438D02*
X7108207Y-8750057D01*
X7870112Y-9131009D02*
X8012969Y-9178628D01*
X8012969Y-9178628D02*
X8060588Y-9226247D01*
X8060588Y-9226247D02*
X8108207Y-9321485D01*
X8108207Y-9321485D02*
X8108207Y-9464342D01*
X8108207Y-9464342D02*
X8060588Y-9559580D01*
X8060588Y-9559580D02*
X8012969Y-9607200D01*
X8012969Y-9607200D02*
X7917731Y-9654819D01*
X7917731Y-9654819D02*
X7536779Y-9654819D01*
X7536779Y-9654819D02*
X7536779Y-8654819D01*
X7536779Y-8654819D02*
X7870112Y-8654819D01*
X7870112Y-8654819D02*
X7965350Y-8702438D01*
X7965350Y-8702438D02*
X8012969Y-8750057D01*
X8012969Y-8750057D02*
X8060588Y-8845295D01*
X8060588Y-8845295D02*
X8060588Y-8940533D01*
X8060588Y-8940533D02*
X8012969Y-9035771D01*
X8012969Y-9035771D02*
X7965350Y-9083390D01*
X7965350Y-9083390D02*
X7870112Y-9131009D01*
X7870112Y-9131009D02*
X7536779Y-9131009D01*
X9298684Y-9654819D02*
X9298684Y-8654819D01*
X9298684Y-8654819D02*
X9632017Y-9369104D01*
X9632017Y-9369104D02*
X9965350Y-8654819D01*
X9965350Y-8654819D02*
X9965350Y-9654819D01*
X10870112Y-9654819D02*
X10870112Y-9131009D01*
X10870112Y-9131009D02*
X10822493Y-9035771D01*
X10822493Y-9035771D02*
X10727255Y-8988152D01*
X10727255Y-8988152D02*
X10536779Y-8988152D01*
X10536779Y-8988152D02*
X10441541Y-9035771D01*
X10870112Y-9607200D02*
X10774874Y-9654819D01*
X10774874Y-9654819D02*
X10536779Y-9654819D01*
X10536779Y-9654819D02*
X10441541Y-9607200D01*
X10441541Y-9607200D02*
X10393922Y-9511961D01*
X10393922Y-9511961D02*
X10393922Y-9416723D01*
X10393922Y-9416723D02*
X10441541Y-9321485D01*
X10441541Y-9321485D02*
X10536779Y-9273866D01*
X10536779Y-9273866D02*
X10774874Y-9273866D01*
X10774874Y-9273866D02*
X10870112Y-9226247D01*
X11203446Y-8988152D02*
X11584398Y-8988152D01*
X11346303Y-8654819D02*
X11346303Y-9511961D01*
X11346303Y-9511961D02*
X11393922Y-9607200D01*
X11393922Y-9607200D02*
X11489160Y-9654819D01*
X11489160Y-9654819D02*
X11584398Y-9654819D01*
X12298684Y-9607200D02*
X12203446Y-9654819D01*
X12203446Y-9654819D02*
X12012970Y-9654819D01*
X12012970Y-9654819D02*
X11917732Y-9607200D01*
X11917732Y-9607200D02*
X11870113Y-9511961D01*
X11870113Y-9511961D02*
X11870113Y-9131009D01*
X11870113Y-9131009D02*
X11917732Y-9035771D01*
X11917732Y-9035771D02*
X12012970Y-8988152D01*
X12012970Y-8988152D02*
X12203446Y-8988152D01*
X12203446Y-8988152D02*
X12298684Y-9035771D01*
X12298684Y-9035771D02*
X12346303Y-9131009D01*
X12346303Y-9131009D02*
X12346303Y-9226247D01*
X12346303Y-9226247D02*
X11870113Y-9321485D01*
X12774875Y-9654819D02*
X12774875Y-8988152D01*
X12774875Y-9178628D02*
X12822494Y-9083390D01*
X12822494Y-9083390D02*
X12870113Y-9035771D01*
X12870113Y-9035771D02*
X12965351Y-8988152D01*
X12965351Y-8988152D02*
X13060589Y-8988152D01*
X13393923Y-9654819D02*
X13393923Y-8988152D01*
X13393923Y-8654819D02*
X13346304Y-8702438D01*
X13346304Y-8702438D02*
X13393923Y-8750057D01*
X13393923Y-8750057D02*
X13441542Y-8702438D01*
X13441542Y-8702438D02*
X13393923Y-8654819D01*
X13393923Y-8654819D02*
X13393923Y-8750057D01*
X14298684Y-9654819D02*
X14298684Y-9131009D01*
X14298684Y-9131009D02*
X14251065Y-9035771D01*
X14251065Y-9035771D02*
X14155827Y-8988152D01*
X14155827Y-8988152D02*
X13965351Y-8988152D01*
X13965351Y-8988152D02*
X13870113Y-9035771D01*
X14298684Y-9607200D02*
X14203446Y-9654819D01*
X14203446Y-9654819D02*
X13965351Y-9654819D01*
X13965351Y-9654819D02*
X13870113Y-9607200D01*
X13870113Y-9607200D02*
X13822494Y-9511961D01*
X13822494Y-9511961D02*
X13822494Y-9416723D01*
X13822494Y-9416723D02*
X13870113Y-9321485D01*
X13870113Y-9321485D02*
X13965351Y-9273866D01*
X13965351Y-9273866D02*
X14203446Y-9273866D01*
X14203446Y-9273866D02*
X14298684Y-9226247D01*
X14917732Y-9654819D02*
X14822494Y-9607200D01*
X14822494Y-9607200D02*
X14774875Y-9511961D01*
X14774875Y-9511961D02*
X14774875Y-8654819D01*
X5536779Y-5654819D02*
X5536779Y-4654819D01*
X5536779Y-4654819D02*
X5774874Y-4654819D01*
X5774874Y-4654819D02*
X5917731Y-4702438D01*
X5917731Y-4702438D02*
X6012969Y-4797676D01*
X6012969Y-4797676D02*
X6060588Y-4892914D01*
X6060588Y-4892914D02*
X6108207Y-5083390D01*
X6108207Y-5083390D02*
X6108207Y-5226247D01*
X6108207Y-5226247D02*
X6060588Y-5416723D01*
X6060588Y-5416723D02*
X6012969Y-5511961D01*
X6012969Y-5511961D02*
X5917731Y-5607200D01*
X5917731Y-5607200D02*
X5774874Y-5654819D01*
X5774874Y-5654819D02*
X5536779Y-5654819D01*
X6536779Y-5654819D02*
X6536779Y-4988152D01*
X6536779Y-5178628D02*
X6584398Y-5083390D01*
X6584398Y-5083390D02*
X6632017Y-5035771D01*
X6632017Y-5035771D02*
X6727255Y-4988152D01*
X6727255Y-4988152D02*
X6822493Y-4988152D01*
X7155827Y-5654819D02*
X7155827Y-4988152D01*
X7155827Y-4654819D02*
X7108208Y-4702438D01*
X7108208Y-4702438D02*
X7155827Y-4750057D01*
X7155827Y-4750057D02*
X7203446Y-4702438D01*
X7203446Y-4702438D02*
X7155827Y-4654819D01*
X7155827Y-4654819D02*
X7155827Y-4750057D01*
X7774874Y-5654819D02*
X7679636Y-5607200D01*
X7679636Y-5607200D02*
X7632017Y-5511961D01*
X7632017Y-5511961D02*
X7632017Y-4654819D01*
X8298684Y-5654819D02*
X8203446Y-5607200D01*
X8203446Y-5607200D02*
X8155827Y-5511961D01*
X8155827Y-5511961D02*
X8155827Y-4654819D01*
X9298685Y-4988152D02*
X9679637Y-4988152D01*
X9441542Y-4654819D02*
X9441542Y-5511961D01*
X9441542Y-5511961D02*
X9489161Y-5607200D01*
X9489161Y-5607200D02*
X9584399Y-5654819D01*
X9584399Y-5654819D02*
X9679637Y-5654819D01*
X10155828Y-5654819D02*
X10060590Y-5607200D01*
X10060590Y-5607200D02*
X10012971Y-5559580D01*
X10012971Y-5559580D02*
X9965352Y-5464342D01*
X9965352Y-5464342D02*
X9965352Y-5178628D01*
X9965352Y-5178628D02*
X10012971Y-5083390D01*
X10012971Y-5083390D02*
X10060590Y-5035771D01*
X10060590Y-5035771D02*
X10155828Y-4988152D01*
X10155828Y-4988152D02*
X10298685Y-4988152D01*
X10298685Y-4988152D02*
X10393923Y-5035771D01*
X10393923Y-5035771D02*
X10441542Y-5083390D01*
X10441542Y-5083390D02*
X10489161Y-5178628D01*
X10489161Y-5178628D02*
X10489161Y-5464342D01*
X10489161Y-5464342D02*
X10441542Y-5559580D01*
X10441542Y-5559580D02*
X10393923Y-5607200D01*
X10393923Y-5607200D02*
X10298685Y-5654819D01*
X10298685Y-5654819D02*
X10155828Y-5654819D01*
X11060590Y-5654819D02*
X10965352Y-5607200D01*
X10965352Y-5607200D02*
X10917733Y-5511961D01*
X10917733Y-5511961D02*
X10917733Y-4654819D01*
X11822495Y-5607200D02*
X11727257Y-5654819D01*
X11727257Y-5654819D02*
X11536781Y-5654819D01*
X11536781Y-5654819D02*
X11441543Y-5607200D01*
X11441543Y-5607200D02*
X11393924Y-5511961D01*
X11393924Y-5511961D02*
X11393924Y-5131009D01*
X11393924Y-5131009D02*
X11441543Y-5035771D01*
X11441543Y-5035771D02*
X11536781Y-4988152D01*
X11536781Y-4988152D02*
X11727257Y-4988152D01*
X11727257Y-4988152D02*
X11822495Y-5035771D01*
X11822495Y-5035771D02*
X11870114Y-5131009D01*
X11870114Y-5131009D02*
X11870114Y-5226247D01*
X11870114Y-5226247D02*
X11393924Y-5321485D01*
X12298686Y-5654819D02*
X12298686Y-4988152D01*
X12298686Y-5178628D02*
X12346305Y-5083390D01*
X12346305Y-5083390D02*
X12393924Y-5035771D01*
X12393924Y-5035771D02*
X12489162Y-4988152D01*
X12489162Y-4988152D02*
X12584400Y-4988152D01*
X13346305Y-5654819D02*
X13346305Y-5131009D01*
X13346305Y-5131009D02*
X13298686Y-5035771D01*
X13298686Y-5035771D02*
X13203448Y-4988152D01*
X13203448Y-4988152D02*
X13012972Y-4988152D01*
X13012972Y-4988152D02*
X12917734Y-5035771D01*
X13346305Y-5607200D02*
X13251067Y-5654819D01*
X13251067Y-5654819D02*
X13012972Y-5654819D01*
X13012972Y-5654819D02*
X12917734Y-5607200D01*
X12917734Y-5607200D02*
X12870115Y-5511961D01*
X12870115Y-5511961D02*
X12870115Y-5416723D01*
X12870115Y-5416723D02*
X12917734Y-5321485D01*
X12917734Y-5321485D02*
X13012972Y-5273866D01*
X13012972Y-5273866D02*
X13251067Y-5273866D01*
X13251067Y-5273866D02*
X13346305Y-5226247D01*
X13822496Y-4988152D02*
X13822496Y-5654819D01*
X13822496Y-5083390D02*
X13870115Y-5035771D01*
X13870115Y-5035771D02*
X13965353Y-4988152D01*
X13965353Y-4988152D02*
X14108210Y-4988152D01*
X14108210Y-4988152D02*
X14203448Y-5035771D01*
X14203448Y-5035771D02*
X14251067Y-5131009D01*
X14251067Y-5131009D02*
X14251067Y-5654819D01*
X15155829Y-5607200D02*
X15060591Y-5654819D01*
X15060591Y-5654819D02*
X14870115Y-5654819D01*
X14870115Y-5654819D02*
X14774877Y-5607200D01*
X14774877Y-5607200D02*
X14727258Y-5559580D01*
X14727258Y-5559580D02*
X14679639Y-5464342D01*
X14679639Y-5464342D02*
X14679639Y-5178628D01*
X14679639Y-5178628D02*
X14727258Y-5083390D01*
X14727258Y-5083390D02*
X14774877Y-5035771D01*
X14774877Y-5035771D02*
X14870115Y-4988152D01*
X14870115Y-4988152D02*
X15060591Y-4988152D01*
X15060591Y-4988152D02*
X15155829Y-5035771D01*
X15965353Y-5607200D02*
X15870115Y-5654819D01*
X15870115Y-5654819D02*
X15679639Y-5654819D01*
X15679639Y-5654819D02*
X15584401Y-5607200D01*
X15584401Y-5607200D02*
X15536782Y-5511961D01*
X15536782Y-5511961D02*
X15536782Y-5131009D01*
X15536782Y-5131009D02*
X15584401Y-5035771D01*
X15584401Y-5035771D02*
X15679639Y-4988152D01*
X15679639Y-4988152D02*
X15870115Y-4988152D01*
X15870115Y-4988152D02*
X15965353Y-5035771D01*
X15965353Y-5035771D02*
X16012972Y-5131009D01*
X16012972Y-5131009D02*
X16012972Y-5226247D01*
X16012972Y-5226247D02*
X15536782Y-5321485D01*
X16393925Y-5607200D02*
X16489163Y-5654819D01*
X16489163Y-5654819D02*
X16679639Y-5654819D01*
X16679639Y-5654819D02*
X16774877Y-5607200D01*
X16774877Y-5607200D02*
X16822496Y-5511961D01*
X16822496Y-5511961D02*
X16822496Y-5464342D01*
X16822496Y-5464342D02*
X16774877Y-5369104D01*
X16774877Y-5369104D02*
X16679639Y-5321485D01*
X16679639Y-5321485D02*
X16536782Y-5321485D01*
X16536782Y-5321485D02*
X16441544Y-5273866D01*
X16441544Y-5273866D02*
X16393925Y-5178628D01*
X16393925Y-5178628D02*
X16393925Y-5131009D01*
X16393925Y-5131009D02*
X16441544Y-5035771D01*
X16441544Y-5035771D02*
X16536782Y-4988152D01*
X16536782Y-4988152D02*
X16679639Y-4988152D01*
X16679639Y-4988152D02*
X16774877Y-5035771D01*
X18774878Y-4988152D02*
X18012973Y-5273866D01*
X18012973Y-5273866D02*
X18774878Y-5559580D01*
X20536782Y-5654819D02*
X19965354Y-5654819D01*
X20251068Y-5654819D02*
X20251068Y-4654819D01*
X20251068Y-4654819D02*
X20155830Y-4797676D01*
X20155830Y-4797676D02*
X20060592Y-4892914D01*
X20060592Y-4892914D02*
X19965354Y-4940533D01*
X21727259Y-5654819D02*
X21727259Y-4988152D01*
X21727259Y-5083390D02*
X21774878Y-5035771D01*
X21774878Y-5035771D02*
X21870116Y-4988152D01*
X21870116Y-4988152D02*
X22012973Y-4988152D01*
X22012973Y-4988152D02*
X22108211Y-5035771D01*
X22108211Y-5035771D02*
X22155830Y-5131009D01*
X22155830Y-5131009D02*
X22155830Y-5654819D01*
X22155830Y-5131009D02*
X22203449Y-5035771D01*
X22203449Y-5035771D02*
X22298687Y-4988152D01*
X22298687Y-4988152D02*
X22441544Y-4988152D01*
X22441544Y-4988152D02*
X22536783Y-5035771D01*
X22536783Y-5035771D02*
X22584402Y-5131009D01*
X22584402Y-5131009D02*
X22584402Y-5654819D01*
X23060592Y-5654819D02*
X23060592Y-4988152D01*
X23060592Y-5083390D02*
X23108211Y-5035771D01*
X23108211Y-5035771D02*
X23203449Y-4988152D01*
X23203449Y-4988152D02*
X23346306Y-4988152D01*
X23346306Y-4988152D02*
X23441544Y-5035771D01*
X23441544Y-5035771D02*
X23489163Y-5131009D01*
X23489163Y-5131009D02*
X23489163Y-5654819D01*
X23489163Y-5131009D02*
X23536782Y-5035771D01*
X23536782Y-5035771D02*
X23632020Y-4988152D01*
X23632020Y-4988152D02*
X23774877Y-4988152D01*
X23774877Y-4988152D02*
X23870116Y-5035771D01*
X23870116Y-5035771D02*
X23917735Y-5131009D01*
X23917735Y-5131009D02*
X23917735Y-5654819D01*
X25584401Y-5654819D02*
X25584401Y-4654819D01*
X25584401Y-5607200D02*
X25489163Y-5654819D01*
X25489163Y-5654819D02*
X25298687Y-5654819D01*
X25298687Y-5654819D02*
X25203449Y-5607200D01*
X25203449Y-5607200D02*
X25155830Y-5559580D01*
X25155830Y-5559580D02*
X25108211Y-5464342D01*
X25108211Y-5464342D02*
X25108211Y-5178628D01*
X25108211Y-5178628D02*
X25155830Y-5083390D01*
X25155830Y-5083390D02*
X25203449Y-5035771D01*
X25203449Y-5035771D02*
X25298687Y-4988152D01*
X25298687Y-4988152D02*
X25489163Y-4988152D01*
X25489163Y-4988152D02*
X25584401Y-5035771D01*
X26060592Y-5654819D02*
X26060592Y-4988152D01*
X26060592Y-5178628D02*
X26108211Y-5083390D01*
X26108211Y-5083390D02*
X26155830Y-5035771D01*
X26155830Y-5035771D02*
X26251068Y-4988152D01*
X26251068Y-4988152D02*
X26346306Y-4988152D01*
X26679640Y-5654819D02*
X26679640Y-4988152D01*
X26679640Y-4654819D02*
X26632021Y-4702438D01*
X26632021Y-4702438D02*
X26679640Y-4750057D01*
X26679640Y-4750057D02*
X26727259Y-4702438D01*
X26727259Y-4702438D02*
X26679640Y-4654819D01*
X26679640Y-4654819D02*
X26679640Y-4750057D01*
X27298687Y-5654819D02*
X27203449Y-5607200D01*
X27203449Y-5607200D02*
X27155830Y-5511961D01*
X27155830Y-5511961D02*
X27155830Y-4654819D01*
X27822497Y-5654819D02*
X27727259Y-5607200D01*
X27727259Y-5607200D02*
X27679640Y-5511961D01*
X27679640Y-5511961D02*
X27679640Y-4654819D01*
X39036779Y-25044819D02*
X39036779Y-24044819D01*
X39608207Y-25044819D02*
X39179636Y-24473390D01*
X39608207Y-24044819D02*
X39036779Y-24616247D01*
X40417731Y-24997200D02*
X40322493Y-25044819D01*
X40322493Y-25044819D02*
X40132017Y-25044819D01*
X40132017Y-25044819D02*
X40036779Y-24997200D01*
X40036779Y-24997200D02*
X39989160Y-24901961D01*
X39989160Y-24901961D02*
X39989160Y-24521009D01*
X39989160Y-24521009D02*
X40036779Y-24425771D01*
X40036779Y-24425771D02*
X40132017Y-24378152D01*
X40132017Y-24378152D02*
X40322493Y-24378152D01*
X40322493Y-24378152D02*
X40417731Y-24425771D01*
X40417731Y-24425771D02*
X40465350Y-24521009D01*
X40465350Y-24521009D02*
X40465350Y-24616247D01*
X40465350Y-24616247D02*
X39989160Y-24711485D01*
X41274874Y-24997200D02*
X41179636Y-25044819D01*
X41179636Y-25044819D02*
X40989160Y-25044819D01*
X40989160Y-25044819D02*
X40893922Y-24997200D01*
X40893922Y-24997200D02*
X40846303Y-24901961D01*
X40846303Y-24901961D02*
X40846303Y-24521009D01*
X40846303Y-24521009D02*
X40893922Y-24425771D01*
X40893922Y-24425771D02*
X40989160Y-24378152D01*
X40989160Y-24378152D02*
X41179636Y-24378152D01*
X41179636Y-24378152D02*
X41274874Y-24425771D01*
X41274874Y-24425771D02*
X41322493Y-24521009D01*
X41322493Y-24521009D02*
X41322493Y-24616247D01*
X41322493Y-24616247D02*
X40846303Y-24711485D01*
X41751065Y-24378152D02*
X41751065Y-25378152D01*
X41751065Y-24425771D02*
X41846303Y-24378152D01*
X41846303Y-24378152D02*
X42036779Y-24378152D01*
X42036779Y-24378152D02*
X42132017Y-24425771D01*
X42132017Y-24425771D02*
X42179636Y-24473390D01*
X42179636Y-24473390D02*
X42227255Y-24568628D01*
X42227255Y-24568628D02*
X42227255Y-24854342D01*
X42227255Y-24854342D02*
X42179636Y-24949580D01*
X42179636Y-24949580D02*
X42132017Y-24997200D01*
X42132017Y-24997200D02*
X42036779Y-25044819D01*
X42036779Y-25044819D02*
X41846303Y-25044819D01*
X41846303Y-25044819D02*
X41751065Y-24997200D01*
X43846303Y-25044819D02*
X43846303Y-24044819D01*
X43846303Y-24997200D02*
X43751065Y-25044819D01*
X43751065Y-25044819D02*
X43560589Y-25044819D01*
X43560589Y-25044819D02*
X43465351Y-24997200D01*
X43465351Y-24997200D02*
X43417732Y-24949580D01*
X43417732Y-24949580D02*
X43370113Y-24854342D01*
X43370113Y-24854342D02*
X43370113Y-24568628D01*
X43370113Y-24568628D02*
X43417732Y-24473390D01*
X43417732Y-24473390D02*
X43465351Y-24425771D01*
X43465351Y-24425771D02*
X43560589Y-24378152D01*
X43560589Y-24378152D02*
X43751065Y-24378152D01*
X43751065Y-24378152D02*
X43846303Y-24425771D01*
X44322494Y-25044819D02*
X44322494Y-24378152D01*
X44322494Y-24044819D02*
X44274875Y-24092438D01*
X44274875Y-24092438D02*
X44322494Y-24140057D01*
X44322494Y-24140057D02*
X44370113Y-24092438D01*
X44370113Y-24092438D02*
X44322494Y-24044819D01*
X44322494Y-24044819D02*
X44322494Y-24140057D01*
X44751065Y-24997200D02*
X44846303Y-25044819D01*
X44846303Y-25044819D02*
X45036779Y-25044819D01*
X45036779Y-25044819D02*
X45132017Y-24997200D01*
X45132017Y-24997200D02*
X45179636Y-24901961D01*
X45179636Y-24901961D02*
X45179636Y-24854342D01*
X45179636Y-24854342D02*
X45132017Y-24759104D01*
X45132017Y-24759104D02*
X45036779Y-24711485D01*
X45036779Y-24711485D02*
X44893922Y-24711485D01*
X44893922Y-24711485D02*
X44798684Y-24663866D01*
X44798684Y-24663866D02*
X44751065Y-24568628D01*
X44751065Y-24568628D02*
X44751065Y-24521009D01*
X44751065Y-24521009D02*
X44798684Y-24425771D01*
X44798684Y-24425771D02*
X44893922Y-24378152D01*
X44893922Y-24378152D02*
X45036779Y-24378152D01*
X45036779Y-24378152D02*
X45132017Y-24425771D01*
X45465351Y-24378152D02*
X45846303Y-24378152D01*
X45608208Y-24044819D02*
X45608208Y-24901961D01*
X45608208Y-24901961D02*
X45655827Y-24997200D01*
X45655827Y-24997200D02*
X45751065Y-25044819D01*
X45751065Y-25044819D02*
X45846303Y-25044819D01*
X46608208Y-25044819D02*
X46608208Y-24521009D01*
X46608208Y-24521009D02*
X46560589Y-24425771D01*
X46560589Y-24425771D02*
X46465351Y-24378152D01*
X46465351Y-24378152D02*
X46274875Y-24378152D01*
X46274875Y-24378152D02*
X46179637Y-24425771D01*
X46608208Y-24997200D02*
X46512970Y-25044819D01*
X46512970Y-25044819D02*
X46274875Y-25044819D01*
X46274875Y-25044819D02*
X46179637Y-24997200D01*
X46179637Y-24997200D02*
X46132018Y-24901961D01*
X46132018Y-24901961D02*
X46132018Y-24806723D01*
X46132018Y-24806723D02*
X46179637Y-24711485D01*
X46179637Y-24711485D02*
X46274875Y-24663866D01*
X46274875Y-24663866D02*
X46512970Y-24663866D01*
X46512970Y-24663866D02*
X46608208Y-24616247D01*
X47084399Y-24378152D02*
X47084399Y-25044819D01*
X47084399Y-24473390D02*
X47132018Y-24425771D01*
X47132018Y-24425771D02*
X47227256Y-24378152D01*
X47227256Y-24378152D02*
X47370113Y-24378152D01*
X47370113Y-24378152D02*
X47465351Y-24425771D01*
X47465351Y-24425771D02*
X47512970Y-24521009D01*
X47512970Y-24521009D02*
X47512970Y-25044819D01*
X48417732Y-24997200D02*
X48322494Y-25044819D01*
X48322494Y-25044819D02*
X48132018Y-25044819D01*
X48132018Y-25044819D02*
X48036780Y-24997200D01*
X48036780Y-24997200D02*
X47989161Y-24949580D01*
X47989161Y-24949580D02*
X47941542Y-24854342D01*
X47941542Y-24854342D02*
X47941542Y-24568628D01*
X47941542Y-24568628D02*
X47989161Y-24473390D01*
X47989161Y-24473390D02*
X48036780Y-24425771D01*
X48036780Y-24425771D02*
X48132018Y-24378152D01*
X48132018Y-24378152D02*
X48322494Y-24378152D01*
X48322494Y-24378152D02*
X48417732Y-24425771D01*
X49227256Y-24997200D02*
X49132018Y-25044819D01*
X49132018Y-25044819D02*
X48941542Y-25044819D01*
X48941542Y-25044819D02*
X48846304Y-24997200D01*
X48846304Y-24997200D02*
X48798685Y-24901961D01*
X48798685Y-24901961D02*
X48798685Y-24521009D01*
X48798685Y-24521009D02*
X48846304Y-24425771D01*
X48846304Y-24425771D02*
X48941542Y-24378152D01*
X48941542Y-24378152D02*
X49132018Y-24378152D01*
X49132018Y-24378152D02*
X49227256Y-24425771D01*
X49227256Y-24425771D02*
X49274875Y-24521009D01*
X49274875Y-24521009D02*
X49274875Y-24616247D01*
X49274875Y-24616247D02*
X48798685Y-24711485D01*
X50465352Y-25044819D02*
X50465352Y-24044819D01*
X50465352Y-24425771D02*
X50560590Y-24378152D01*
X50560590Y-24378152D02*
X50751066Y-24378152D01*
X50751066Y-24378152D02*
X50846304Y-24425771D01*
X50846304Y-24425771D02*
X50893923Y-24473390D01*
X50893923Y-24473390D02*
X50941542Y-24568628D01*
X50941542Y-24568628D02*
X50941542Y-24854342D01*
X50941542Y-24854342D02*
X50893923Y-24949580D01*
X50893923Y-24949580D02*
X50846304Y-24997200D01*
X50846304Y-24997200D02*
X50751066Y-25044819D01*
X50751066Y-25044819D02*
X50560590Y-25044819D01*
X50560590Y-25044819D02*
X50465352Y-24997200D01*
X51751066Y-24997200D02*
X51655828Y-25044819D01*
X51655828Y-25044819D02*
X51465352Y-25044819D01*
X51465352Y-25044819D02*
X51370114Y-24997200D01*
X51370114Y-24997200D02*
X51322495Y-24901961D01*
X51322495Y-24901961D02*
X51322495Y-24521009D01*
X51322495Y-24521009D02*
X51370114Y-24425771D01*
X51370114Y-24425771D02*
X51465352Y-24378152D01*
X51465352Y-24378152D02*
X51655828Y-24378152D01*
X51655828Y-24378152D02*
X51751066Y-24425771D01*
X51751066Y-24425771D02*
X51798685Y-24521009D01*
X51798685Y-24521009D02*
X51798685Y-24616247D01*
X51798685Y-24616247D02*
X51322495Y-24711485D01*
X52084400Y-24378152D02*
X52465352Y-24378152D01*
X52227257Y-24044819D02*
X52227257Y-24901961D01*
X52227257Y-24901961D02*
X52274876Y-24997200D01*
X52274876Y-24997200D02*
X52370114Y-25044819D01*
X52370114Y-25044819D02*
X52465352Y-25044819D01*
X52703448Y-24378152D02*
X52893924Y-25044819D01*
X52893924Y-25044819D02*
X53084400Y-24568628D01*
X53084400Y-24568628D02*
X53274876Y-25044819D01*
X53274876Y-25044819D02*
X53465352Y-24378152D01*
X54227257Y-24997200D02*
X54132019Y-25044819D01*
X54132019Y-25044819D02*
X53941543Y-25044819D01*
X53941543Y-25044819D02*
X53846305Y-24997200D01*
X53846305Y-24997200D02*
X53798686Y-24901961D01*
X53798686Y-24901961D02*
X53798686Y-24521009D01*
X53798686Y-24521009D02*
X53846305Y-24425771D01*
X53846305Y-24425771D02*
X53941543Y-24378152D01*
X53941543Y-24378152D02*
X54132019Y-24378152D01*
X54132019Y-24378152D02*
X54227257Y-24425771D01*
X54227257Y-24425771D02*
X54274876Y-24521009D01*
X54274876Y-24521009D02*
X54274876Y-24616247D01*
X54274876Y-24616247D02*
X53798686Y-24711485D01*
X55084400Y-24997200D02*
X54989162Y-25044819D01*
X54989162Y-25044819D02*
X54798686Y-25044819D01*
X54798686Y-25044819D02*
X54703448Y-24997200D01*
X54703448Y-24997200D02*
X54655829Y-24901961D01*
X54655829Y-24901961D02*
X54655829Y-24521009D01*
X54655829Y-24521009D02*
X54703448Y-24425771D01*
X54703448Y-24425771D02*
X54798686Y-24378152D01*
X54798686Y-24378152D02*
X54989162Y-24378152D01*
X54989162Y-24378152D02*
X55084400Y-24425771D01*
X55084400Y-24425771D02*
X55132019Y-24521009D01*
X55132019Y-24521009D02*
X55132019Y-24616247D01*
X55132019Y-24616247D02*
X54655829Y-24711485D01*
X55560591Y-24378152D02*
X55560591Y-25044819D01*
X55560591Y-24473390D02*
X55608210Y-24425771D01*
X55608210Y-24425771D02*
X55703448Y-24378152D01*
X55703448Y-24378152D02*
X55846305Y-24378152D01*
X55846305Y-24378152D02*
X55941543Y-24425771D01*
X55941543Y-24425771D02*
X55989162Y-24521009D01*
X55989162Y-24521009D02*
X55989162Y-25044819D01*
X39512969Y-26654819D02*
X39036779Y-26654819D01*
X39036779Y-26654819D02*
X39036779Y-25654819D01*
X40370112Y-26654819D02*
X39798684Y-26654819D01*
X40084398Y-26654819D02*
X40084398Y-25654819D01*
X40084398Y-25654819D02*
X39989160Y-25797676D01*
X39989160Y-25797676D02*
X39893922Y-25892914D01*
X39893922Y-25892914D02*
X39798684Y-25940533D01*
X41989160Y-26654819D02*
X41989160Y-26131009D01*
X41989160Y-26131009D02*
X41941541Y-26035771D01*
X41941541Y-26035771D02*
X41846303Y-25988152D01*
X41846303Y-25988152D02*
X41655827Y-25988152D01*
X41655827Y-25988152D02*
X41560589Y-26035771D01*
X41989160Y-26607200D02*
X41893922Y-26654819D01*
X41893922Y-26654819D02*
X41655827Y-26654819D01*
X41655827Y-26654819D02*
X41560589Y-26607200D01*
X41560589Y-26607200D02*
X41512970Y-26511961D01*
X41512970Y-26511961D02*
X41512970Y-26416723D01*
X41512970Y-26416723D02*
X41560589Y-26321485D01*
X41560589Y-26321485D02*
X41655827Y-26273866D01*
X41655827Y-26273866D02*
X41893922Y-26273866D01*
X41893922Y-26273866D02*
X41989160Y-26226247D01*
X42465351Y-25988152D02*
X42465351Y-26654819D01*
X42465351Y-26083390D02*
X42512970Y-26035771D01*
X42512970Y-26035771D02*
X42608208Y-25988152D01*
X42608208Y-25988152D02*
X42751065Y-25988152D01*
X42751065Y-25988152D02*
X42846303Y-26035771D01*
X42846303Y-26035771D02*
X42893922Y-26131009D01*
X42893922Y-26131009D02*
X42893922Y-26654819D01*
X43798684Y-26654819D02*
X43798684Y-25654819D01*
X43798684Y-26607200D02*
X43703446Y-26654819D01*
X43703446Y-26654819D02*
X43512970Y-26654819D01*
X43512970Y-26654819D02*
X43417732Y-26607200D01*
X43417732Y-26607200D02*
X43370113Y-26559580D01*
X43370113Y-26559580D02*
X43322494Y-26464342D01*
X43322494Y-26464342D02*
X43322494Y-26178628D01*
X43322494Y-26178628D02*
X43370113Y-26083390D01*
X43370113Y-26083390D02*
X43417732Y-26035771D01*
X43417732Y-26035771D02*
X43512970Y-25988152D01*
X43512970Y-25988152D02*
X43703446Y-25988152D01*
X43703446Y-25988152D02*
X43798684Y-26035771D01*
X45512970Y-26654819D02*
X45036780Y-26654819D01*
X45036780Y-26654819D02*
X45036780Y-25654819D01*
X45798685Y-25750057D02*
X45846304Y-25702438D01*
X45846304Y-25702438D02*
X45941542Y-25654819D01*
X45941542Y-25654819D02*
X46179637Y-25654819D01*
X46179637Y-25654819D02*
X46274875Y-25702438D01*
X46274875Y-25702438D02*
X46322494Y-25750057D01*
X46322494Y-25750057D02*
X46370113Y-25845295D01*
X46370113Y-25845295D02*
X46370113Y-25940533D01*
X46370113Y-25940533D02*
X46322494Y-26083390D01*
X46322494Y-26083390D02*
X45751066Y-26654819D01*
X45751066Y-26654819D02*
X46370113Y-26654819D01*
X47989161Y-26654819D02*
X47989161Y-26131009D01*
X47989161Y-26131009D02*
X47941542Y-26035771D01*
X47941542Y-26035771D02*
X47846304Y-25988152D01*
X47846304Y-25988152D02*
X47655828Y-25988152D01*
X47655828Y-25988152D02*
X47560590Y-26035771D01*
X47989161Y-26607200D02*
X47893923Y-26654819D01*
X47893923Y-26654819D02*
X47655828Y-26654819D01*
X47655828Y-26654819D02*
X47560590Y-26607200D01*
X47560590Y-26607200D02*
X47512971Y-26511961D01*
X47512971Y-26511961D02*
X47512971Y-26416723D01*
X47512971Y-26416723D02*
X47560590Y-26321485D01*
X47560590Y-26321485D02*
X47655828Y-26273866D01*
X47655828Y-26273866D02*
X47893923Y-26273866D01*
X47893923Y-26273866D02*
X47989161Y-26226247D01*
X48322495Y-25988152D02*
X48703447Y-25988152D01*
X48465352Y-25654819D02*
X48465352Y-26511961D01*
X48465352Y-26511961D02*
X48512971Y-26607200D01*
X48512971Y-26607200D02*
X48608209Y-26654819D01*
X48608209Y-26654819D02*
X48703447Y-26654819D01*
X50322495Y-26654819D02*
X49751067Y-26654819D01*
X50036781Y-26654819D02*
X50036781Y-25654819D01*
X50036781Y-25654819D02*
X49941543Y-25797676D01*
X49941543Y-25797676D02*
X49846305Y-25892914D01*
X49846305Y-25892914D02*
X49751067Y-25940533D01*
X50893924Y-26083390D02*
X50798686Y-26035771D01*
X50798686Y-26035771D02*
X50751067Y-25988152D01*
X50751067Y-25988152D02*
X50703448Y-25892914D01*
X50703448Y-25892914D02*
X50703448Y-25845295D01*
X50703448Y-25845295D02*
X50751067Y-25750057D01*
X50751067Y-25750057D02*
X50798686Y-25702438D01*
X50798686Y-25702438D02*
X50893924Y-25654819D01*
X50893924Y-25654819D02*
X51084400Y-25654819D01*
X51084400Y-25654819D02*
X51179638Y-25702438D01*
X51179638Y-25702438D02*
X51227257Y-25750057D01*
X51227257Y-25750057D02*
X51274876Y-25845295D01*
X51274876Y-25845295D02*
X51274876Y-25892914D01*
X51274876Y-25892914D02*
X51227257Y-25988152D01*
X51227257Y-25988152D02*
X51179638Y-26035771D01*
X51179638Y-26035771D02*
X51084400Y-26083390D01*
X51084400Y-26083390D02*
X50893924Y-26083390D01*
X50893924Y-26083390D02*
X50798686Y-26131009D01*
X50798686Y-26131009D02*
X50751067Y-26178628D01*
X50751067Y-26178628D02*
X50703448Y-26273866D01*
X50703448Y-26273866D02*
X50703448Y-26464342D01*
X50703448Y-26464342D02*
X50751067Y-26559580D01*
X50751067Y-26559580D02*
X50798686Y-26607200D01*
X50798686Y-26607200D02*
X50893924Y-26654819D01*
X50893924Y-26654819D02*
X51084400Y-26654819D01*
X51084400Y-26654819D02*
X51179638Y-26607200D01*
X51179638Y-26607200D02*
X51227257Y-26559580D01*
X51227257Y-26559580D02*
X51274876Y-26464342D01*
X51274876Y-26464342D02*
X51274876Y-26273866D01*
X51274876Y-26273866D02*
X51227257Y-26178628D01*
X51227257Y-26178628D02*
X51179638Y-26131009D01*
X51179638Y-26131009D02*
X51084400Y-26083390D01*
X51893924Y-25654819D02*
X51989162Y-25654819D01*
X51989162Y-25654819D02*
X52084400Y-25702438D01*
X52084400Y-25702438D02*
X52132019Y-25750057D01*
X52132019Y-25750057D02*
X52179638Y-25845295D01*
X52179638Y-25845295D02*
X52227257Y-26035771D01*
X52227257Y-26035771D02*
X52227257Y-26273866D01*
X52227257Y-26273866D02*
X52179638Y-26464342D01*
X52179638Y-26464342D02*
X52132019Y-26559580D01*
X52132019Y-26559580D02*
X52084400Y-26607200D01*
X52084400Y-26607200D02*
X51989162Y-26654819D01*
X51989162Y-26654819D02*
X51893924Y-26654819D01*
X51893924Y-26654819D02*
X51798686Y-26607200D01*
X51798686Y-26607200D02*
X51751067Y-26559580D01*
X51751067Y-26559580D02*
X51703448Y-26464342D01*
X51703448Y-26464342D02*
X51655829Y-26273866D01*
X51655829Y-26273866D02*
X51655829Y-26035771D01*
X51655829Y-26035771D02*
X51703448Y-25845295D01*
X51703448Y-25845295D02*
X51751067Y-25750057D01*
X51751067Y-25750057D02*
X51798686Y-25702438D01*
X51798686Y-25702438D02*
X51893924Y-25654819D01*
X53846305Y-25988152D02*
X53846305Y-26654819D01*
X53417734Y-25988152D02*
X53417734Y-26511961D01*
X53417734Y-26511961D02*
X53465353Y-26607200D01*
X53465353Y-26607200D02*
X53560591Y-26654819D01*
X53560591Y-26654819D02*
X53703448Y-26654819D01*
X53703448Y-26654819D02*
X53798686Y-26607200D01*
X53798686Y-26607200D02*
X53846305Y-26559580D01*
X54322496Y-26654819D02*
X54322496Y-25988152D01*
X54322496Y-26083390D02*
X54370115Y-26035771D01*
X54370115Y-26035771D02*
X54465353Y-25988152D01*
X54465353Y-25988152D02*
X54608210Y-25988152D01*
X54608210Y-25988152D02*
X54703448Y-26035771D01*
X54703448Y-26035771D02*
X54751067Y-26131009D01*
X54751067Y-26131009D02*
X54751067Y-26654819D01*
X54751067Y-26131009D02*
X54798686Y-26035771D01*
X54798686Y-26035771D02*
X54893924Y-25988152D01*
X54893924Y-25988152D02*
X55036781Y-25988152D01*
X55036781Y-25988152D02*
X55132020Y-26035771D01*
X55132020Y-26035771D02*
X55179639Y-26131009D01*
X55179639Y-26131009D02*
X55179639Y-26654819D01*
X56274877Y-25988152D02*
X56655829Y-25988152D01*
X56417734Y-26654819D02*
X56417734Y-25797676D01*
X56417734Y-25797676D02*
X56465353Y-25702438D01*
X56465353Y-25702438D02*
X56560591Y-25654819D01*
X56560591Y-25654819D02*
X56655829Y-25654819D01*
X57132020Y-26654819D02*
X57036782Y-26607200D01*
X57036782Y-26607200D02*
X56989163Y-26559580D01*
X56989163Y-26559580D02*
X56941544Y-26464342D01*
X56941544Y-26464342D02*
X56941544Y-26178628D01*
X56941544Y-26178628D02*
X56989163Y-26083390D01*
X56989163Y-26083390D02*
X57036782Y-26035771D01*
X57036782Y-26035771D02*
X57132020Y-25988152D01*
X57132020Y-25988152D02*
X57274877Y-25988152D01*
X57274877Y-25988152D02*
X57370115Y-26035771D01*
X57370115Y-26035771D02*
X57417734Y-26083390D01*
X57417734Y-26083390D02*
X57465353Y-26178628D01*
X57465353Y-26178628D02*
X57465353Y-26464342D01*
X57465353Y-26464342D02*
X57417734Y-26559580D01*
X57417734Y-26559580D02*
X57370115Y-26607200D01*
X57370115Y-26607200D02*
X57274877Y-26654819D01*
X57274877Y-26654819D02*
X57132020Y-26654819D01*
X57893925Y-26654819D02*
X57893925Y-25988152D01*
X57893925Y-26178628D02*
X57941544Y-26083390D01*
X57941544Y-26083390D02*
X57989163Y-26035771D01*
X57989163Y-26035771D02*
X58084401Y-25988152D01*
X58084401Y-25988152D02*
X58179639Y-25988152D01*
X39465350Y-28264819D02*
X39465350Y-27264819D01*
X39465350Y-28217200D02*
X39370112Y-28264819D01*
X39370112Y-28264819D02*
X39179636Y-28264819D01*
X39179636Y-28264819D02*
X39084398Y-28217200D01*
X39084398Y-28217200D02*
X39036779Y-28169580D01*
X39036779Y-28169580D02*
X38989160Y-28074342D01*
X38989160Y-28074342D02*
X38989160Y-27788628D01*
X38989160Y-27788628D02*
X39036779Y-27693390D01*
X39036779Y-27693390D02*
X39084398Y-27645771D01*
X39084398Y-27645771D02*
X39179636Y-27598152D01*
X39179636Y-27598152D02*
X39370112Y-27598152D01*
X39370112Y-27598152D02*
X39465350Y-27645771D01*
X39941541Y-28264819D02*
X39941541Y-27598152D01*
X39941541Y-27264819D02*
X39893922Y-27312438D01*
X39893922Y-27312438D02*
X39941541Y-27360057D01*
X39941541Y-27360057D02*
X39989160Y-27312438D01*
X39989160Y-27312438D02*
X39941541Y-27264819D01*
X39941541Y-27264819D02*
X39941541Y-27360057D01*
X40274874Y-27598152D02*
X40655826Y-27598152D01*
X40417731Y-28264819D02*
X40417731Y-27407676D01*
X40417731Y-27407676D02*
X40465350Y-27312438D01*
X40465350Y-27312438D02*
X40560588Y-27264819D01*
X40560588Y-27264819D02*
X40655826Y-27264819D01*
X40846303Y-27598152D02*
X41227255Y-27598152D01*
X40989160Y-28264819D02*
X40989160Y-27407676D01*
X40989160Y-27407676D02*
X41036779Y-27312438D01*
X41036779Y-27312438D02*
X41132017Y-27264819D01*
X41132017Y-27264819D02*
X41227255Y-27264819D01*
X41941541Y-28217200D02*
X41846303Y-28264819D01*
X41846303Y-28264819D02*
X41655827Y-28264819D01*
X41655827Y-28264819D02*
X41560589Y-28217200D01*
X41560589Y-28217200D02*
X41512970Y-28121961D01*
X41512970Y-28121961D02*
X41512970Y-27741009D01*
X41512970Y-27741009D02*
X41560589Y-27645771D01*
X41560589Y-27645771D02*
X41655827Y-27598152D01*
X41655827Y-27598152D02*
X41846303Y-27598152D01*
X41846303Y-27598152D02*
X41941541Y-27645771D01*
X41941541Y-27645771D02*
X41989160Y-27741009D01*
X41989160Y-27741009D02*
X41989160Y-27836247D01*
X41989160Y-27836247D02*
X41512970Y-27931485D01*
X42417732Y-28264819D02*
X42417732Y-27598152D01*
X42417732Y-27788628D02*
X42465351Y-27693390D01*
X42465351Y-27693390D02*
X42512970Y-27645771D01*
X42512970Y-27645771D02*
X42608208Y-27598152D01*
X42608208Y-27598152D02*
X42703446Y-27598152D01*
X43417732Y-28217200D02*
X43322494Y-28264819D01*
X43322494Y-28264819D02*
X43132018Y-28264819D01*
X43132018Y-28264819D02*
X43036780Y-28217200D01*
X43036780Y-28217200D02*
X42989161Y-28121961D01*
X42989161Y-28121961D02*
X42989161Y-27741009D01*
X42989161Y-27741009D02*
X43036780Y-27645771D01*
X43036780Y-27645771D02*
X43132018Y-27598152D01*
X43132018Y-27598152D02*
X43322494Y-27598152D01*
X43322494Y-27598152D02*
X43417732Y-27645771D01*
X43417732Y-27645771D02*
X43465351Y-27741009D01*
X43465351Y-27741009D02*
X43465351Y-27836247D01*
X43465351Y-27836247D02*
X42989161Y-27931485D01*
X43893923Y-27598152D02*
X43893923Y-28264819D01*
X43893923Y-27693390D02*
X43941542Y-27645771D01*
X43941542Y-27645771D02*
X44036780Y-27598152D01*
X44036780Y-27598152D02*
X44179637Y-27598152D01*
X44179637Y-27598152D02*
X44274875Y-27645771D01*
X44274875Y-27645771D02*
X44322494Y-27741009D01*
X44322494Y-27741009D02*
X44322494Y-28264819D01*
X44655828Y-27598152D02*
X45036780Y-27598152D01*
X44798685Y-27264819D02*
X44798685Y-28121961D01*
X44798685Y-28121961D02*
X44846304Y-28217200D01*
X44846304Y-28217200D02*
X44941542Y-28264819D01*
X44941542Y-28264819D02*
X45036780Y-28264819D01*
X45370114Y-28264819D02*
X45370114Y-27598152D01*
X45370114Y-27264819D02*
X45322495Y-27312438D01*
X45322495Y-27312438D02*
X45370114Y-27360057D01*
X45370114Y-27360057D02*
X45417733Y-27312438D01*
X45417733Y-27312438D02*
X45370114Y-27264819D01*
X45370114Y-27264819D02*
X45370114Y-27360057D01*
X46274875Y-28264819D02*
X46274875Y-27741009D01*
X46274875Y-27741009D02*
X46227256Y-27645771D01*
X46227256Y-27645771D02*
X46132018Y-27598152D01*
X46132018Y-27598152D02*
X45941542Y-27598152D01*
X45941542Y-27598152D02*
X45846304Y-27645771D01*
X46274875Y-28217200D02*
X46179637Y-28264819D01*
X46179637Y-28264819D02*
X45941542Y-28264819D01*
X45941542Y-28264819D02*
X45846304Y-28217200D01*
X45846304Y-28217200D02*
X45798685Y-28121961D01*
X45798685Y-28121961D02*
X45798685Y-28026723D01*
X45798685Y-28026723D02*
X45846304Y-27931485D01*
X45846304Y-27931485D02*
X45941542Y-27883866D01*
X45941542Y-27883866D02*
X46179637Y-27883866D01*
X46179637Y-27883866D02*
X46274875Y-27836247D01*
X46893923Y-28264819D02*
X46798685Y-28217200D01*
X46798685Y-28217200D02*
X46751066Y-28121961D01*
X46751066Y-28121961D02*
X46751066Y-27264819D01*
X48036781Y-27598152D02*
X48036781Y-28598152D01*
X48036781Y-27645771D02*
X48132019Y-27598152D01*
X48132019Y-27598152D02*
X48322495Y-27598152D01*
X48322495Y-27598152D02*
X48417733Y-27645771D01*
X48417733Y-27645771D02*
X48465352Y-27693390D01*
X48465352Y-27693390D02*
X48512971Y-27788628D01*
X48512971Y-27788628D02*
X48512971Y-28074342D01*
X48512971Y-28074342D02*
X48465352Y-28169580D01*
X48465352Y-28169580D02*
X48417733Y-28217200D01*
X48417733Y-28217200D02*
X48322495Y-28264819D01*
X48322495Y-28264819D02*
X48132019Y-28264819D01*
X48132019Y-28264819D02*
X48036781Y-28217200D01*
X49370114Y-28264819D02*
X49370114Y-27741009D01*
X49370114Y-27741009D02*
X49322495Y-27645771D01*
X49322495Y-27645771D02*
X49227257Y-27598152D01*
X49227257Y-27598152D02*
X49036781Y-27598152D01*
X49036781Y-27598152D02*
X48941543Y-27645771D01*
X49370114Y-28217200D02*
X49274876Y-28264819D01*
X49274876Y-28264819D02*
X49036781Y-28264819D01*
X49036781Y-28264819D02*
X48941543Y-28217200D01*
X48941543Y-28217200D02*
X48893924Y-28121961D01*
X48893924Y-28121961D02*
X48893924Y-28026723D01*
X48893924Y-28026723D02*
X48941543Y-27931485D01*
X48941543Y-27931485D02*
X49036781Y-27883866D01*
X49036781Y-27883866D02*
X49274876Y-27883866D01*
X49274876Y-27883866D02*
X49370114Y-27836247D01*
X49846305Y-28264819D02*
X49846305Y-27598152D01*
X49846305Y-27264819D02*
X49798686Y-27312438D01*
X49798686Y-27312438D02*
X49846305Y-27360057D01*
X49846305Y-27360057D02*
X49893924Y-27312438D01*
X49893924Y-27312438D02*
X49846305Y-27264819D01*
X49846305Y-27264819D02*
X49846305Y-27360057D01*
X50322495Y-28264819D02*
X50322495Y-27598152D01*
X50322495Y-27788628D02*
X50370114Y-27693390D01*
X50370114Y-27693390D02*
X50417733Y-27645771D01*
X50417733Y-27645771D02*
X50512971Y-27598152D01*
X50512971Y-27598152D02*
X50608209Y-27598152D01*
X50893924Y-28217200D02*
X50989162Y-28264819D01*
X50989162Y-28264819D02*
X51179638Y-28264819D01*
X51179638Y-28264819D02*
X51274876Y-28217200D01*
X51274876Y-28217200D02*
X51322495Y-28121961D01*
X51322495Y-28121961D02*
X51322495Y-28074342D01*
X51322495Y-28074342D02*
X51274876Y-27979104D01*
X51274876Y-27979104D02*
X51179638Y-27931485D01*
X51179638Y-27931485D02*
X51036781Y-27931485D01*
X51036781Y-27931485D02*
X50941543Y-27883866D01*
X50941543Y-27883866D02*
X50893924Y-27788628D01*
X50893924Y-27788628D02*
X50893924Y-27741009D01*
X50893924Y-27741009D02*
X50941543Y-27645771D01*
X50941543Y-27645771D02*
X51036781Y-27598152D01*
X51036781Y-27598152D02*
X51179638Y-27598152D01*
X51179638Y-27598152D02*
X51274876Y-27645771D01*
X12410838Y-26035771D02*
X12363219Y-25988152D01*
X12363219Y-25988152D02*
X12267981Y-25845295D01*
X12267981Y-25845295D02*
X12220362Y-25750057D01*
X12220362Y-25750057D02*
X12172743Y-25607200D01*
X12172743Y-25607200D02*
X12125124Y-25369104D01*
X12125124Y-25369104D02*
X12125124Y-25178628D01*
X12125124Y-25178628D02*
X12172743Y-24940533D01*
X12172743Y-24940533D02*
X12220362Y-24797676D01*
X12220362Y-24797676D02*
X12267981Y-24702438D01*
X12267981Y-24702438D02*
X12363219Y-24559580D01*
X12363219Y-24559580D02*
X12410838Y-24511961D01*
X13125124Y-25131009D02*
X12791791Y-25131009D01*
X12791791Y-25654819D02*
X12791791Y-24654819D01*
X12791791Y-24654819D02*
X13267981Y-24654819D01*
X13553696Y-26035771D02*
X13601315Y-25988152D01*
X13601315Y-25988152D02*
X13696553Y-25845295D01*
X13696553Y-25845295D02*
X13744172Y-25750057D01*
X13744172Y-25750057D02*
X13791791Y-25607200D01*
X13791791Y-25607200D02*
X13839410Y-25369104D01*
X13839410Y-25369104D02*
X13839410Y-25178628D01*
X13839410Y-25178628D02*
X13791791Y-24940533D01*
X13791791Y-24940533D02*
X13744172Y-24797676D01*
X13744172Y-24797676D02*
X13696553Y-24702438D01*
X13696553Y-24702438D02*
X13601315Y-24559580D01*
X13601315Y-24559580D02*
X13553696Y-24511961D01*
X15553696Y-25654819D02*
X15077506Y-25654819D01*
X15077506Y-25654819D02*
X15077506Y-24654819D01*
X16410839Y-25654819D02*
X15839411Y-25654819D01*
X16125125Y-25654819D02*
X16125125Y-24654819D01*
X16125125Y-24654819D02*
X16029887Y-24797676D01*
X16029887Y-24797676D02*
X15934649Y-24892914D01*
X15934649Y-24892914D02*
X15839411Y-24940533D01*
X10934648Y-32035771D02*
X10887029Y-31988152D01*
X10887029Y-31988152D02*
X10791791Y-31845295D01*
X10791791Y-31845295D02*
X10744172Y-31750057D01*
X10744172Y-31750057D02*
X10696553Y-31607200D01*
X10696553Y-31607200D02*
X10648934Y-31369104D01*
X10648934Y-31369104D02*
X10648934Y-31178628D01*
X10648934Y-31178628D02*
X10696553Y-30940533D01*
X10696553Y-30940533D02*
X10744172Y-30797676D01*
X10744172Y-30797676D02*
X10791791Y-30702438D01*
X10791791Y-30702438D02*
X10887029Y-30559580D01*
X10887029Y-30559580D02*
X10934648Y-30511961D01*
X11315601Y-31654819D02*
X11315601Y-30654819D01*
X11791791Y-30988152D02*
X11791791Y-31654819D01*
X11791791Y-31083390D02*
X11839410Y-31035771D01*
X11839410Y-31035771D02*
X11934648Y-30988152D01*
X11934648Y-30988152D02*
X12077505Y-30988152D01*
X12077505Y-30988152D02*
X12172743Y-31035771D01*
X12172743Y-31035771D02*
X12220362Y-31131009D01*
X12220362Y-31131009D02*
X12220362Y-31654819D01*
X13220362Y-31654819D02*
X12648934Y-31654819D01*
X12934648Y-31654819D02*
X12934648Y-30654819D01*
X12934648Y-30654819D02*
X12839410Y-30797676D01*
X12839410Y-30797676D02*
X12744172Y-30892914D01*
X12744172Y-30892914D02*
X12648934Y-30940533D01*
X13553696Y-32035771D02*
X13601315Y-31988152D01*
X13601315Y-31988152D02*
X13696553Y-31845295D01*
X13696553Y-31845295D02*
X13744172Y-31750057D01*
X13744172Y-31750057D02*
X13791791Y-31607200D01*
X13791791Y-31607200D02*
X13839410Y-31369104D01*
X13839410Y-31369104D02*
X13839410Y-31178628D01*
X13839410Y-31178628D02*
X13791791Y-30940533D01*
X13791791Y-30940533D02*
X13744172Y-30797676D01*
X13744172Y-30797676D02*
X13696553Y-30702438D01*
X13696553Y-30702438D02*
X13601315Y-30559580D01*
X13601315Y-30559580D02*
X13553696Y-30511961D01*
X15553696Y-31654819D02*
X15077506Y-31654819D01*
X15077506Y-31654819D02*
X15077506Y-30654819D01*
X15839411Y-30750057D02*
X15887030Y-30702438D01*
X15887030Y-30702438D02*
X15982268Y-30654819D01*
X15982268Y-30654819D02*
X16220363Y-30654819D01*
X16220363Y-30654819D02*
X16315601Y-30702438D01*
X16315601Y-30702438D02*
X16363220Y-30750057D01*
X16363220Y-30750057D02*
X16410839Y-30845295D01*
X16410839Y-30845295D02*
X16410839Y-30940533D01*
X16410839Y-30940533D02*
X16363220Y-31083390D01*
X16363220Y-31083390D02*
X15791792Y-31654819D01*
X15791792Y-31654819D02*
X16410839Y-31654819D01*
X19536779Y-28654819D02*
X19536779Y-27654819D01*
X19536779Y-27654819D02*
X19917731Y-27654819D01*
X19917731Y-27654819D02*
X20012969Y-27702438D01*
X20012969Y-27702438D02*
X20060588Y-27750057D01*
X20060588Y-27750057D02*
X20108207Y-27845295D01*
X20108207Y-27845295D02*
X20108207Y-27988152D01*
X20108207Y-27988152D02*
X20060588Y-28083390D01*
X20060588Y-28083390D02*
X20012969Y-28131009D01*
X20012969Y-28131009D02*
X19917731Y-28178628D01*
X19917731Y-28178628D02*
X19536779Y-28178628D01*
X20536779Y-28654819D02*
X20536779Y-27988152D01*
X20536779Y-28178628D02*
X20584398Y-28083390D01*
X20584398Y-28083390D02*
X20632017Y-28035771D01*
X20632017Y-28035771D02*
X20727255Y-27988152D01*
X20727255Y-27988152D02*
X20822493Y-27988152D01*
X21536779Y-28607200D02*
X21441541Y-28654819D01*
X21441541Y-28654819D02*
X21251065Y-28654819D01*
X21251065Y-28654819D02*
X21155827Y-28607200D01*
X21155827Y-28607200D02*
X21108208Y-28511961D01*
X21108208Y-28511961D02*
X21108208Y-28131009D01*
X21108208Y-28131009D02*
X21155827Y-28035771D01*
X21155827Y-28035771D02*
X21251065Y-27988152D01*
X21251065Y-27988152D02*
X21441541Y-27988152D01*
X21441541Y-27988152D02*
X21536779Y-28035771D01*
X21536779Y-28035771D02*
X21584398Y-28131009D01*
X21584398Y-28131009D02*
X21584398Y-28226247D01*
X21584398Y-28226247D02*
X21108208Y-28321485D01*
X22012970Y-28273866D02*
X22774875Y-28273866D01*
X23251065Y-28654819D02*
X23251065Y-27654819D01*
X23251065Y-27654819D02*
X23632017Y-27654819D01*
X23632017Y-27654819D02*
X23727255Y-27702438D01*
X23727255Y-27702438D02*
X23774874Y-27750057D01*
X23774874Y-27750057D02*
X23822493Y-27845295D01*
X23822493Y-27845295D02*
X23822493Y-27988152D01*
X23822493Y-27988152D02*
X23774874Y-28083390D01*
X23774874Y-28083390D02*
X23727255Y-28131009D01*
X23727255Y-28131009D02*
X23632017Y-28178628D01*
X23632017Y-28178628D02*
X23251065Y-28178628D01*
X24251065Y-28654819D02*
X24251065Y-27988152D01*
X24251065Y-28178628D02*
X24298684Y-28083390D01*
X24298684Y-28083390D02*
X24346303Y-28035771D01*
X24346303Y-28035771D02*
X24441541Y-27988152D01*
X24441541Y-27988152D02*
X24536779Y-27988152D01*
X25251065Y-28607200D02*
X25155827Y-28654819D01*
X25155827Y-28654819D02*
X24965351Y-28654819D01*
X24965351Y-28654819D02*
X24870113Y-28607200D01*
X24870113Y-28607200D02*
X24822494Y-28511961D01*
X24822494Y-28511961D02*
X24822494Y-28131009D01*
X24822494Y-28131009D02*
X24870113Y-28035771D01*
X24870113Y-28035771D02*
X24965351Y-27988152D01*
X24965351Y-27988152D02*
X25155827Y-27988152D01*
X25155827Y-27988152D02*
X25251065Y-28035771D01*
X25251065Y-28035771D02*
X25298684Y-28131009D01*
X25298684Y-28131009D02*
X25298684Y-28226247D01*
X25298684Y-28226247D02*
X24822494Y-28321485D01*
X26155827Y-27988152D02*
X26155827Y-28797676D01*
X26155827Y-28797676D02*
X26108208Y-28892914D01*
X26108208Y-28892914D02*
X26060589Y-28940533D01*
X26060589Y-28940533D02*
X25965351Y-28988152D01*
X25965351Y-28988152D02*
X25822494Y-28988152D01*
X25822494Y-28988152D02*
X25727256Y-28940533D01*
X26155827Y-28607200D02*
X26060589Y-28654819D01*
X26060589Y-28654819D02*
X25870113Y-28654819D01*
X25870113Y-28654819D02*
X25774875Y-28607200D01*
X25774875Y-28607200D02*
X25727256Y-28559580D01*
X25727256Y-28559580D02*
X25679637Y-28464342D01*
X25679637Y-28464342D02*
X25679637Y-28178628D01*
X25679637Y-28178628D02*
X25727256Y-28083390D01*
X25727256Y-28083390D02*
X25774875Y-28035771D01*
X25774875Y-28035771D02*
X25870113Y-27988152D01*
X25870113Y-27988152D02*
X26060589Y-27988152D01*
X26060589Y-27988152D02*
X26155827Y-28035771D01*
X27917732Y-28654819D02*
X27346304Y-28654819D01*
X27632018Y-28654819D02*
X27632018Y-27654819D01*
X27632018Y-27654819D02*
X27536780Y-27797676D01*
X27536780Y-27797676D02*
X27441542Y-27892914D01*
X27441542Y-27892914D02*
X27346304Y-27940533D01*
X28489161Y-28083390D02*
X28393923Y-28035771D01*
X28393923Y-28035771D02*
X28346304Y-27988152D01*
X28346304Y-27988152D02*
X28298685Y-27892914D01*
X28298685Y-27892914D02*
X28298685Y-27845295D01*
X28298685Y-27845295D02*
X28346304Y-27750057D01*
X28346304Y-27750057D02*
X28393923Y-27702438D01*
X28393923Y-27702438D02*
X28489161Y-27654819D01*
X28489161Y-27654819D02*
X28679637Y-27654819D01*
X28679637Y-27654819D02*
X28774875Y-27702438D01*
X28774875Y-27702438D02*
X28822494Y-27750057D01*
X28822494Y-27750057D02*
X28870113Y-27845295D01*
X28870113Y-27845295D02*
X28870113Y-27892914D01*
X28870113Y-27892914D02*
X28822494Y-27988152D01*
X28822494Y-27988152D02*
X28774875Y-28035771D01*
X28774875Y-28035771D02*
X28679637Y-28083390D01*
X28679637Y-28083390D02*
X28489161Y-28083390D01*
X28489161Y-28083390D02*
X28393923Y-28131009D01*
X28393923Y-28131009D02*
X28346304Y-28178628D01*
X28346304Y-28178628D02*
X28298685Y-28273866D01*
X28298685Y-28273866D02*
X28298685Y-28464342D01*
X28298685Y-28464342D02*
X28346304Y-28559580D01*
X28346304Y-28559580D02*
X28393923Y-28607200D01*
X28393923Y-28607200D02*
X28489161Y-28654819D01*
X28489161Y-28654819D02*
X28679637Y-28654819D01*
X28679637Y-28654819D02*
X28774875Y-28607200D01*
X28774875Y-28607200D02*
X28822494Y-28559580D01*
X28822494Y-28559580D02*
X28870113Y-28464342D01*
X28870113Y-28464342D02*
X28870113Y-28273866D01*
X28870113Y-28273866D02*
X28822494Y-28178628D01*
X28822494Y-28178628D02*
X28774875Y-28131009D01*
X28774875Y-28131009D02*
X28679637Y-28083390D01*
X29489161Y-27654819D02*
X29584399Y-27654819D01*
X29584399Y-27654819D02*
X29679637Y-27702438D01*
X29679637Y-27702438D02*
X29727256Y-27750057D01*
X29727256Y-27750057D02*
X29774875Y-27845295D01*
X29774875Y-27845295D02*
X29822494Y-28035771D01*
X29822494Y-28035771D02*
X29822494Y-28273866D01*
X29822494Y-28273866D02*
X29774875Y-28464342D01*
X29774875Y-28464342D02*
X29727256Y-28559580D01*
X29727256Y-28559580D02*
X29679637Y-28607200D01*
X29679637Y-28607200D02*
X29584399Y-28654819D01*
X29584399Y-28654819D02*
X29489161Y-28654819D01*
X29489161Y-28654819D02*
X29393923Y-28607200D01*
X29393923Y-28607200D02*
X29346304Y-28559580D01*
X29346304Y-28559580D02*
X29298685Y-28464342D01*
X29298685Y-28464342D02*
X29251066Y-28273866D01*
X29251066Y-28273866D02*
X29251066Y-28035771D01*
X29251066Y-28035771D02*
X29298685Y-27845295D01*
X29298685Y-27845295D02*
X29346304Y-27750057D01*
X29346304Y-27750057D02*
X29393923Y-27702438D01*
X29393923Y-27702438D02*
X29489161Y-27654819D01*
X31441542Y-27988152D02*
X31441542Y-28654819D01*
X31012971Y-27988152D02*
X31012971Y-28511961D01*
X31012971Y-28511961D02*
X31060590Y-28607200D01*
X31060590Y-28607200D02*
X31155828Y-28654819D01*
X31155828Y-28654819D02*
X31298685Y-28654819D01*
X31298685Y-28654819D02*
X31393923Y-28607200D01*
X31393923Y-28607200D02*
X31441542Y-28559580D01*
X31917733Y-28654819D02*
X31917733Y-27988152D01*
X31917733Y-28083390D02*
X31965352Y-28035771D01*
X31965352Y-28035771D02*
X32060590Y-27988152D01*
X32060590Y-27988152D02*
X32203447Y-27988152D01*
X32203447Y-27988152D02*
X32298685Y-28035771D01*
X32298685Y-28035771D02*
X32346304Y-28131009D01*
X32346304Y-28131009D02*
X32346304Y-28654819D01*
X32346304Y-28131009D02*
X32393923Y-28035771D01*
X32393923Y-28035771D02*
X32489161Y-27988152D01*
X32489161Y-27988152D02*
X32632018Y-27988152D01*
X32632018Y-27988152D02*
X32727257Y-28035771D01*
X32727257Y-28035771D02*
X32774876Y-28131009D01*
X32774876Y-28131009D02*
X32774876Y-28654819D01*
X5536779Y-11654819D02*
X5536779Y-10654819D01*
X5536779Y-10654819D02*
X5917731Y-10654819D01*
X5917731Y-10654819D02*
X6012969Y-10702438D01*
X6012969Y-10702438D02*
X6060588Y-10750057D01*
X6060588Y-10750057D02*
X6108207Y-10845295D01*
X6108207Y-10845295D02*
X6108207Y-10988152D01*
X6108207Y-10988152D02*
X6060588Y-11083390D01*
X6060588Y-11083390D02*
X6012969Y-11131009D01*
X6012969Y-11131009D02*
X5917731Y-11178628D01*
X5917731Y-11178628D02*
X5536779Y-11178628D01*
X7108207Y-11559580D02*
X7060588Y-11607200D01*
X7060588Y-11607200D02*
X6917731Y-11654819D01*
X6917731Y-11654819D02*
X6822493Y-11654819D01*
X6822493Y-11654819D02*
X6679636Y-11607200D01*
X6679636Y-11607200D02*
X6584398Y-11511961D01*
X6584398Y-11511961D02*
X6536779Y-11416723D01*
X6536779Y-11416723D02*
X6489160Y-11226247D01*
X6489160Y-11226247D02*
X6489160Y-11083390D01*
X6489160Y-11083390D02*
X6536779Y-10892914D01*
X6536779Y-10892914D02*
X6584398Y-10797676D01*
X6584398Y-10797676D02*
X6679636Y-10702438D01*
X6679636Y-10702438D02*
X6822493Y-10654819D01*
X6822493Y-10654819D02*
X6917731Y-10654819D01*
X6917731Y-10654819D02*
X7060588Y-10702438D01*
X7060588Y-10702438D02*
X7108207Y-10750057D01*
X7870112Y-11131009D02*
X8012969Y-11178628D01*
X8012969Y-11178628D02*
X8060588Y-11226247D01*
X8060588Y-11226247D02*
X8108207Y-11321485D01*
X8108207Y-11321485D02*
X8108207Y-11464342D01*
X8108207Y-11464342D02*
X8060588Y-11559580D01*
X8060588Y-11559580D02*
X8012969Y-11607200D01*
X8012969Y-11607200D02*
X7917731Y-11654819D01*
X7917731Y-11654819D02*
X7536779Y-11654819D01*
X7536779Y-11654819D02*
X7536779Y-10654819D01*
X7536779Y-10654819D02*
X7870112Y-10654819D01*
X7870112Y-10654819D02*
X7965350Y-10702438D01*
X7965350Y-10702438D02*
X8012969Y-10750057D01*
X8012969Y-10750057D02*
X8060588Y-10845295D01*
X8060588Y-10845295D02*
X8060588Y-10940533D01*
X8060588Y-10940533D02*
X8012969Y-11035771D01*
X8012969Y-11035771D02*
X7965350Y-11083390D01*
X7965350Y-11083390D02*
X7870112Y-11131009D01*
X7870112Y-11131009D02*
X7536779Y-11131009D01*
X9251065Y-11607200D02*
X9393922Y-11654819D01*
X9393922Y-11654819D02*
X9632017Y-11654819D01*
X9632017Y-11654819D02*
X9727255Y-11607200D01*
X9727255Y-11607200D02*
X9774874Y-11559580D01*
X9774874Y-11559580D02*
X9822493Y-11464342D01*
X9822493Y-11464342D02*
X9822493Y-11369104D01*
X9822493Y-11369104D02*
X9774874Y-11273866D01*
X9774874Y-11273866D02*
X9727255Y-11226247D01*
X9727255Y-11226247D02*
X9632017Y-11178628D01*
X9632017Y-11178628D02*
X9441541Y-11131009D01*
X9441541Y-11131009D02*
X9346303Y-11083390D01*
X9346303Y-11083390D02*
X9298684Y-11035771D01*
X9298684Y-11035771D02*
X9251065Y-10940533D01*
X9251065Y-10940533D02*
X9251065Y-10845295D01*
X9251065Y-10845295D02*
X9298684Y-10750057D01*
X9298684Y-10750057D02*
X9346303Y-10702438D01*
X9346303Y-10702438D02*
X9441541Y-10654819D01*
X9441541Y-10654819D02*
X9679636Y-10654819D01*
X9679636Y-10654819D02*
X9822493Y-10702438D01*
X10108208Y-10988152D02*
X10489160Y-10988152D01*
X10251065Y-10654819D02*
X10251065Y-11511961D01*
X10251065Y-11511961D02*
X10298684Y-11607200D01*
X10298684Y-11607200D02*
X10393922Y-11654819D01*
X10393922Y-11654819D02*
X10489160Y-11654819D01*
X11251065Y-11654819D02*
X11251065Y-11131009D01*
X11251065Y-11131009D02*
X11203446Y-11035771D01*
X11203446Y-11035771D02*
X11108208Y-10988152D01*
X11108208Y-10988152D02*
X10917732Y-10988152D01*
X10917732Y-10988152D02*
X10822494Y-11035771D01*
X11251065Y-11607200D02*
X11155827Y-11654819D01*
X11155827Y-11654819D02*
X10917732Y-11654819D01*
X10917732Y-11654819D02*
X10822494Y-11607200D01*
X10822494Y-11607200D02*
X10774875Y-11511961D01*
X10774875Y-11511961D02*
X10774875Y-11416723D01*
X10774875Y-11416723D02*
X10822494Y-11321485D01*
X10822494Y-11321485D02*
X10917732Y-11273866D01*
X10917732Y-11273866D02*
X11155827Y-11273866D01*
X11155827Y-11273866D02*
X11251065Y-11226247D01*
X12155827Y-11607200D02*
X12060589Y-11654819D01*
X12060589Y-11654819D02*
X11870113Y-11654819D01*
X11870113Y-11654819D02*
X11774875Y-11607200D01*
X11774875Y-11607200D02*
X11727256Y-11559580D01*
X11727256Y-11559580D02*
X11679637Y-11464342D01*
X11679637Y-11464342D02*
X11679637Y-11178628D01*
X11679637Y-11178628D02*
X11727256Y-11083390D01*
X11727256Y-11083390D02*
X11774875Y-11035771D01*
X11774875Y-11035771D02*
X11870113Y-10988152D01*
X11870113Y-10988152D02*
X12060589Y-10988152D01*
X12060589Y-10988152D02*
X12155827Y-11035771D01*
X12584399Y-11654819D02*
X12584399Y-10654819D01*
X12679637Y-11273866D02*
X12965351Y-11654819D01*
X12965351Y-10988152D02*
X12584399Y-11369104D01*
X13393923Y-11273866D02*
X14155828Y-11273866D01*
X15060589Y-10988152D02*
X15060589Y-11654819D01*
X14632018Y-10988152D02*
X14632018Y-11511961D01*
X14632018Y-11511961D02*
X14679637Y-11607200D01*
X14679637Y-11607200D02*
X14774875Y-11654819D01*
X14774875Y-11654819D02*
X14917732Y-11654819D01*
X14917732Y-11654819D02*
X15012970Y-11607200D01*
X15012970Y-11607200D02*
X15060589Y-11559580D01*
X15536780Y-10988152D02*
X15536780Y-11988152D01*
X15536780Y-11035771D02*
X15632018Y-10988152D01*
X15632018Y-10988152D02*
X15822494Y-10988152D01*
X15822494Y-10988152D02*
X15917732Y-11035771D01*
X15917732Y-11035771D02*
X15965351Y-11083390D01*
X15965351Y-11083390D02*
X16012970Y-11178628D01*
X16012970Y-11178628D02*
X16012970Y-11464342D01*
X16012970Y-11464342D02*
X15965351Y-11559580D01*
X15965351Y-11559580D02*
X15917732Y-11607200D01*
X15917732Y-11607200D02*
X15822494Y-11654819D01*
X15822494Y-11654819D02*
X15632018Y-11654819D01*
X15632018Y-11654819D02*
X15536780Y-11607200D01*
X5536779Y-7654819D02*
X5536779Y-6654819D01*
X5536779Y-6654819D02*
X5774874Y-6654819D01*
X5774874Y-6654819D02*
X5917731Y-6702438D01*
X5917731Y-6702438D02*
X6012969Y-6797676D01*
X6012969Y-6797676D02*
X6060588Y-6892914D01*
X6060588Y-6892914D02*
X6108207Y-7083390D01*
X6108207Y-7083390D02*
X6108207Y-7226247D01*
X6108207Y-7226247D02*
X6060588Y-7416723D01*
X6060588Y-7416723D02*
X6012969Y-7511961D01*
X6012969Y-7511961D02*
X5917731Y-7607200D01*
X5917731Y-7607200D02*
X5774874Y-7654819D01*
X5774874Y-7654819D02*
X5536779Y-7654819D01*
X6536779Y-7654819D02*
X6536779Y-6988152D01*
X6536779Y-7178628D02*
X6584398Y-7083390D01*
X6584398Y-7083390D02*
X6632017Y-7035771D01*
X6632017Y-7035771D02*
X6727255Y-6988152D01*
X6727255Y-6988152D02*
X6822493Y-6988152D01*
X7155827Y-7654819D02*
X7155827Y-6988152D01*
X7155827Y-6654819D02*
X7108208Y-6702438D01*
X7108208Y-6702438D02*
X7155827Y-6750057D01*
X7155827Y-6750057D02*
X7203446Y-6702438D01*
X7203446Y-6702438D02*
X7155827Y-6654819D01*
X7155827Y-6654819D02*
X7155827Y-6750057D01*
X7774874Y-7654819D02*
X7679636Y-7607200D01*
X7679636Y-7607200D02*
X7632017Y-7511961D01*
X7632017Y-7511961D02*
X7632017Y-6654819D01*
X8298684Y-7654819D02*
X8203446Y-7607200D01*
X8203446Y-7607200D02*
X8155827Y-7511961D01*
X8155827Y-7511961D02*
X8155827Y-6654819D01*
X9298685Y-6988152D02*
X9679637Y-6988152D01*
X9441542Y-6654819D02*
X9441542Y-7511961D01*
X9441542Y-7511961D02*
X9489161Y-7607200D01*
X9489161Y-7607200D02*
X9584399Y-7654819D01*
X9584399Y-7654819D02*
X9679637Y-7654819D01*
X10155828Y-7654819D02*
X10060590Y-7607200D01*
X10060590Y-7607200D02*
X10012971Y-7559580D01*
X10012971Y-7559580D02*
X9965352Y-7464342D01*
X9965352Y-7464342D02*
X9965352Y-7178628D01*
X9965352Y-7178628D02*
X10012971Y-7083390D01*
X10012971Y-7083390D02*
X10060590Y-7035771D01*
X10060590Y-7035771D02*
X10155828Y-6988152D01*
X10155828Y-6988152D02*
X10298685Y-6988152D01*
X10298685Y-6988152D02*
X10393923Y-7035771D01*
X10393923Y-7035771D02*
X10441542Y-7083390D01*
X10441542Y-7083390D02*
X10489161Y-7178628D01*
X10489161Y-7178628D02*
X10489161Y-7464342D01*
X10489161Y-7464342D02*
X10441542Y-7559580D01*
X10441542Y-7559580D02*
X10393923Y-7607200D01*
X10393923Y-7607200D02*
X10298685Y-7654819D01*
X10298685Y-7654819D02*
X10155828Y-7654819D01*
X11060590Y-7654819D02*
X10965352Y-7607200D01*
X10965352Y-7607200D02*
X10917733Y-7511961D01*
X10917733Y-7511961D02*
X10917733Y-6654819D01*
X11822495Y-7607200D02*
X11727257Y-7654819D01*
X11727257Y-7654819D02*
X11536781Y-7654819D01*
X11536781Y-7654819D02*
X11441543Y-7607200D01*
X11441543Y-7607200D02*
X11393924Y-7511961D01*
X11393924Y-7511961D02*
X11393924Y-7131009D01*
X11393924Y-7131009D02*
X11441543Y-7035771D01*
X11441543Y-7035771D02*
X11536781Y-6988152D01*
X11536781Y-6988152D02*
X11727257Y-6988152D01*
X11727257Y-6988152D02*
X11822495Y-7035771D01*
X11822495Y-7035771D02*
X11870114Y-7131009D01*
X11870114Y-7131009D02*
X11870114Y-7226247D01*
X11870114Y-7226247D02*
X11393924Y-7321485D01*
X12298686Y-7654819D02*
X12298686Y-6988152D01*
X12298686Y-7178628D02*
X12346305Y-7083390D01*
X12346305Y-7083390D02*
X12393924Y-7035771D01*
X12393924Y-7035771D02*
X12489162Y-6988152D01*
X12489162Y-6988152D02*
X12584400Y-6988152D01*
X13346305Y-7654819D02*
X13346305Y-7131009D01*
X13346305Y-7131009D02*
X13298686Y-7035771D01*
X13298686Y-7035771D02*
X13203448Y-6988152D01*
X13203448Y-6988152D02*
X13012972Y-6988152D01*
X13012972Y-6988152D02*
X12917734Y-7035771D01*
X13346305Y-7607200D02*
X13251067Y-7654819D01*
X13251067Y-7654819D02*
X13012972Y-7654819D01*
X13012972Y-7654819D02*
X12917734Y-7607200D01*
X12917734Y-7607200D02*
X12870115Y-7511961D01*
X12870115Y-7511961D02*
X12870115Y-7416723D01*
X12870115Y-7416723D02*
X12917734Y-7321485D01*
X12917734Y-7321485D02*
X13012972Y-7273866D01*
X13012972Y-7273866D02*
X13251067Y-7273866D01*
X13251067Y-7273866D02*
X13346305Y-7226247D01*
X13822496Y-6988152D02*
X13822496Y-7654819D01*
X13822496Y-7083390D02*
X13870115Y-7035771D01*
X13870115Y-7035771D02*
X13965353Y-6988152D01*
X13965353Y-6988152D02*
X14108210Y-6988152D01*
X14108210Y-6988152D02*
X14203448Y-7035771D01*
X14203448Y-7035771D02*
X14251067Y-7131009D01*
X14251067Y-7131009D02*
X14251067Y-7654819D01*
X15155829Y-7607200D02*
X15060591Y-7654819D01*
X15060591Y-7654819D02*
X14870115Y-7654819D01*
X14870115Y-7654819D02*
X14774877Y-7607200D01*
X14774877Y-7607200D02*
X14727258Y-7559580D01*
X14727258Y-7559580D02*
X14679639Y-7464342D01*
X14679639Y-7464342D02*
X14679639Y-7178628D01*
X14679639Y-7178628D02*
X14727258Y-7083390D01*
X14727258Y-7083390D02*
X14774877Y-7035771D01*
X14774877Y-7035771D02*
X14870115Y-6988152D01*
X14870115Y-6988152D02*
X15060591Y-6988152D01*
X15060591Y-6988152D02*
X15155829Y-7035771D01*
X15965353Y-7607200D02*
X15870115Y-7654819D01*
X15870115Y-7654819D02*
X15679639Y-7654819D01*
X15679639Y-7654819D02*
X15584401Y-7607200D01*
X15584401Y-7607200D02*
X15536782Y-7511961D01*
X15536782Y-7511961D02*
X15536782Y-7131009D01*
X15536782Y-7131009D02*
X15584401Y-7035771D01*
X15584401Y-7035771D02*
X15679639Y-6988152D01*
X15679639Y-6988152D02*
X15870115Y-6988152D01*
X15870115Y-6988152D02*
X15965353Y-7035771D01*
X15965353Y-7035771D02*
X16012972Y-7131009D01*
X16012972Y-7131009D02*
X16012972Y-7226247D01*
X16012972Y-7226247D02*
X15536782Y-7321485D01*
X16393925Y-7607200D02*
X16489163Y-7654819D01*
X16489163Y-7654819D02*
X16679639Y-7654819D01*
X16679639Y-7654819D02*
X16774877Y-7607200D01*
X16774877Y-7607200D02*
X16822496Y-7511961D01*
X16822496Y-7511961D02*
X16822496Y-7464342D01*
X16822496Y-7464342D02*
X16774877Y-7369104D01*
X16774877Y-7369104D02*
X16679639Y-7321485D01*
X16679639Y-7321485D02*
X16536782Y-7321485D01*
X16536782Y-7321485D02*
X16441544Y-7273866D01*
X16441544Y-7273866D02*
X16393925Y-7178628D01*
X16393925Y-7178628D02*
X16393925Y-7131009D01*
X16393925Y-7131009D02*
X16441544Y-7035771D01*
X16441544Y-7035771D02*
X16536782Y-6988152D01*
X16536782Y-6988152D02*
X16679639Y-6988152D01*
X16679639Y-6988152D02*
X16774877Y-7035771D01*
X18012973Y-6988152D02*
X18774878Y-7273866D01*
X18774878Y-7273866D02*
X18012973Y-7559580D01*
X20536782Y-7654819D02*
X19965354Y-7654819D01*
X20251068Y-7654819D02*
X20251068Y-6654819D01*
X20251068Y-6654819D02*
X20155830Y-6797676D01*
X20155830Y-6797676D02*
X20060592Y-6892914D01*
X20060592Y-6892914D02*
X19965354Y-6940533D01*
X21727259Y-7654819D02*
X21727259Y-6988152D01*
X21727259Y-7083390D02*
X21774878Y-7035771D01*
X21774878Y-7035771D02*
X21870116Y-6988152D01*
X21870116Y-6988152D02*
X22012973Y-6988152D01*
X22012973Y-6988152D02*
X22108211Y-7035771D01*
X22108211Y-7035771D02*
X22155830Y-7131009D01*
X22155830Y-7131009D02*
X22155830Y-7654819D01*
X22155830Y-7131009D02*
X22203449Y-7035771D01*
X22203449Y-7035771D02*
X22298687Y-6988152D01*
X22298687Y-6988152D02*
X22441544Y-6988152D01*
X22441544Y-6988152D02*
X22536783Y-7035771D01*
X22536783Y-7035771D02*
X22584402Y-7131009D01*
X22584402Y-7131009D02*
X22584402Y-7654819D01*
X23060592Y-7654819D02*
X23060592Y-6988152D01*
X23060592Y-7083390D02*
X23108211Y-7035771D01*
X23108211Y-7035771D02*
X23203449Y-6988152D01*
X23203449Y-6988152D02*
X23346306Y-6988152D01*
X23346306Y-6988152D02*
X23441544Y-7035771D01*
X23441544Y-7035771D02*
X23489163Y-7131009D01*
X23489163Y-7131009D02*
X23489163Y-7654819D01*
X23489163Y-7131009D02*
X23536782Y-7035771D01*
X23536782Y-7035771D02*
X23632020Y-6988152D01*
X23632020Y-6988152D02*
X23774877Y-6988152D01*
X23774877Y-6988152D02*
X23870116Y-7035771D01*
X23870116Y-7035771D02*
X23917735Y-7131009D01*
X23917735Y-7131009D02*
X23917735Y-7654819D01*
X25584401Y-7654819D02*
X25584401Y-6654819D01*
X25584401Y-7607200D02*
X25489163Y-7654819D01*
X25489163Y-7654819D02*
X25298687Y-7654819D01*
X25298687Y-7654819D02*
X25203449Y-7607200D01*
X25203449Y-7607200D02*
X25155830Y-7559580D01*
X25155830Y-7559580D02*
X25108211Y-7464342D01*
X25108211Y-7464342D02*
X25108211Y-7178628D01*
X25108211Y-7178628D02*
X25155830Y-7083390D01*
X25155830Y-7083390D02*
X25203449Y-7035771D01*
X25203449Y-7035771D02*
X25298687Y-6988152D01*
X25298687Y-6988152D02*
X25489163Y-6988152D01*
X25489163Y-6988152D02*
X25584401Y-7035771D01*
X26060592Y-7654819D02*
X26060592Y-6988152D01*
X26060592Y-7178628D02*
X26108211Y-7083390D01*
X26108211Y-7083390D02*
X26155830Y-7035771D01*
X26155830Y-7035771D02*
X26251068Y-6988152D01*
X26251068Y-6988152D02*
X26346306Y-6988152D01*
X26679640Y-7654819D02*
X26679640Y-6988152D01*
X26679640Y-6654819D02*
X26632021Y-6702438D01*
X26632021Y-6702438D02*
X26679640Y-6750057D01*
X26679640Y-6750057D02*
X26727259Y-6702438D01*
X26727259Y-6702438D02*
X26679640Y-6654819D01*
X26679640Y-6654819D02*
X26679640Y-6750057D01*
X27298687Y-7654819D02*
X27203449Y-7607200D01*
X27203449Y-7607200D02*
X27155830Y-7511961D01*
X27155830Y-7511961D02*
X27155830Y-6654819D01*
X27822497Y-7654819D02*
X27727259Y-7607200D01*
X27727259Y-7607200D02*
X27679640Y-7511961D01*
X27679640Y-7511961D02*
X27679640Y-6654819D01*
X20108207Y-37559580D02*
X20060588Y-37607200D01*
X20060588Y-37607200D02*
X19917731Y-37654819D01*
X19917731Y-37654819D02*
X19822493Y-37654819D01*
X19822493Y-37654819D02*
X19679636Y-37607200D01*
X19679636Y-37607200D02*
X19584398Y-37511961D01*
X19584398Y-37511961D02*
X19536779Y-37416723D01*
X19536779Y-37416723D02*
X19489160Y-37226247D01*
X19489160Y-37226247D02*
X19489160Y-37083390D01*
X19489160Y-37083390D02*
X19536779Y-36892914D01*
X19536779Y-36892914D02*
X19584398Y-36797676D01*
X19584398Y-36797676D02*
X19679636Y-36702438D01*
X19679636Y-36702438D02*
X19822493Y-36654819D01*
X19822493Y-36654819D02*
X19917731Y-36654819D01*
X19917731Y-36654819D02*
X20060588Y-36702438D01*
X20060588Y-36702438D02*
X20108207Y-36750057D01*
X20679636Y-37654819D02*
X20584398Y-37607200D01*
X20584398Y-37607200D02*
X20536779Y-37559580D01*
X20536779Y-37559580D02*
X20489160Y-37464342D01*
X20489160Y-37464342D02*
X20489160Y-37178628D01*
X20489160Y-37178628D02*
X20536779Y-37083390D01*
X20536779Y-37083390D02*
X20584398Y-37035771D01*
X20584398Y-37035771D02*
X20679636Y-36988152D01*
X20679636Y-36988152D02*
X20822493Y-36988152D01*
X20822493Y-36988152D02*
X20917731Y-37035771D01*
X20917731Y-37035771D02*
X20965350Y-37083390D01*
X20965350Y-37083390D02*
X21012969Y-37178628D01*
X21012969Y-37178628D02*
X21012969Y-37464342D01*
X21012969Y-37464342D02*
X20965350Y-37559580D01*
X20965350Y-37559580D02*
X20917731Y-37607200D01*
X20917731Y-37607200D02*
X20822493Y-37654819D01*
X20822493Y-37654819D02*
X20679636Y-37654819D01*
X21441541Y-36988152D02*
X21441541Y-37988152D01*
X21441541Y-37035771D02*
X21536779Y-36988152D01*
X21536779Y-36988152D02*
X21727255Y-36988152D01*
X21727255Y-36988152D02*
X21822493Y-37035771D01*
X21822493Y-37035771D02*
X21870112Y-37083390D01*
X21870112Y-37083390D02*
X21917731Y-37178628D01*
X21917731Y-37178628D02*
X21917731Y-37464342D01*
X21917731Y-37464342D02*
X21870112Y-37559580D01*
X21870112Y-37559580D02*
X21822493Y-37607200D01*
X21822493Y-37607200D02*
X21727255Y-37654819D01*
X21727255Y-37654819D02*
X21536779Y-37654819D01*
X21536779Y-37654819D02*
X21441541Y-37607200D01*
X22346303Y-36988152D02*
X22346303Y-37988152D01*
X22346303Y-37035771D02*
X22441541Y-36988152D01*
X22441541Y-36988152D02*
X22632017Y-36988152D01*
X22632017Y-36988152D02*
X22727255Y-37035771D01*
X22727255Y-37035771D02*
X22774874Y-37083390D01*
X22774874Y-37083390D02*
X22822493Y-37178628D01*
X22822493Y-37178628D02*
X22822493Y-37464342D01*
X22822493Y-37464342D02*
X22774874Y-37559580D01*
X22774874Y-37559580D02*
X22727255Y-37607200D01*
X22727255Y-37607200D02*
X22632017Y-37654819D01*
X22632017Y-37654819D02*
X22441541Y-37654819D01*
X22441541Y-37654819D02*
X22346303Y-37607200D01*
X23632017Y-37607200D02*
X23536779Y-37654819D01*
X23536779Y-37654819D02*
X23346303Y-37654819D01*
X23346303Y-37654819D02*
X23251065Y-37607200D01*
X23251065Y-37607200D02*
X23203446Y-37511961D01*
X23203446Y-37511961D02*
X23203446Y-37131009D01*
X23203446Y-37131009D02*
X23251065Y-37035771D01*
X23251065Y-37035771D02*
X23346303Y-36988152D01*
X23346303Y-36988152D02*
X23536779Y-36988152D01*
X23536779Y-36988152D02*
X23632017Y-37035771D01*
X23632017Y-37035771D02*
X23679636Y-37131009D01*
X23679636Y-37131009D02*
X23679636Y-37226247D01*
X23679636Y-37226247D02*
X23203446Y-37321485D01*
X24108208Y-37654819D02*
X24108208Y-36988152D01*
X24108208Y-37178628D02*
X24155827Y-37083390D01*
X24155827Y-37083390D02*
X24203446Y-37035771D01*
X24203446Y-37035771D02*
X24298684Y-36988152D01*
X24298684Y-36988152D02*
X24393922Y-36988152D01*
X26012970Y-37654819D02*
X25441542Y-37654819D01*
X25727256Y-37654819D02*
X25727256Y-36654819D01*
X25727256Y-36654819D02*
X25632018Y-36797676D01*
X25632018Y-36797676D02*
X25536780Y-36892914D01*
X25536780Y-36892914D02*
X25441542Y-36940533D01*
X26584399Y-37083390D02*
X26489161Y-37035771D01*
X26489161Y-37035771D02*
X26441542Y-36988152D01*
X26441542Y-36988152D02*
X26393923Y-36892914D01*
X26393923Y-36892914D02*
X26393923Y-36845295D01*
X26393923Y-36845295D02*
X26441542Y-36750057D01*
X26441542Y-36750057D02*
X26489161Y-36702438D01*
X26489161Y-36702438D02*
X26584399Y-36654819D01*
X26584399Y-36654819D02*
X26774875Y-36654819D01*
X26774875Y-36654819D02*
X26870113Y-36702438D01*
X26870113Y-36702438D02*
X26917732Y-36750057D01*
X26917732Y-36750057D02*
X26965351Y-36845295D01*
X26965351Y-36845295D02*
X26965351Y-36892914D01*
X26965351Y-36892914D02*
X26917732Y-36988152D01*
X26917732Y-36988152D02*
X26870113Y-37035771D01*
X26870113Y-37035771D02*
X26774875Y-37083390D01*
X26774875Y-37083390D02*
X26584399Y-37083390D01*
X26584399Y-37083390D02*
X26489161Y-37131009D01*
X26489161Y-37131009D02*
X26441542Y-37178628D01*
X26441542Y-37178628D02*
X26393923Y-37273866D01*
X26393923Y-37273866D02*
X26393923Y-37464342D01*
X26393923Y-37464342D02*
X26441542Y-37559580D01*
X26441542Y-37559580D02*
X26489161Y-37607200D01*
X26489161Y-37607200D02*
X26584399Y-37654819D01*
X26584399Y-37654819D02*
X26774875Y-37654819D01*
X26774875Y-37654819D02*
X26870113Y-37607200D01*
X26870113Y-37607200D02*
X26917732Y-37559580D01*
X26917732Y-37559580D02*
X26965351Y-37464342D01*
X26965351Y-37464342D02*
X26965351Y-37273866D01*
X26965351Y-37273866D02*
X26917732Y-37178628D01*
X26917732Y-37178628D02*
X26870113Y-37131009D01*
X26870113Y-37131009D02*
X26774875Y-37083390D01*
X28584399Y-36988152D02*
X28584399Y-37654819D01*
X28155828Y-36988152D02*
X28155828Y-37511961D01*
X28155828Y-37511961D02*
X28203447Y-37607200D01*
X28203447Y-37607200D02*
X28298685Y-37654819D01*
X28298685Y-37654819D02*
X28441542Y-37654819D01*
X28441542Y-37654819D02*
X28536780Y-37607200D01*
X28536780Y-37607200D02*
X28584399Y-37559580D01*
X29060590Y-37654819D02*
X29060590Y-36988152D01*
X29060590Y-37083390D02*
X29108209Y-37035771D01*
X29108209Y-37035771D02*
X29203447Y-36988152D01*
X29203447Y-36988152D02*
X29346304Y-36988152D01*
X29346304Y-36988152D02*
X29441542Y-37035771D01*
X29441542Y-37035771D02*
X29489161Y-37131009D01*
X29489161Y-37131009D02*
X29489161Y-37654819D01*
X29489161Y-37131009D02*
X29536780Y-37035771D01*
X29536780Y-37035771D02*
X29632018Y-36988152D01*
X29632018Y-36988152D02*
X29774875Y-36988152D01*
X29774875Y-36988152D02*
X29870114Y-37035771D01*
X29870114Y-37035771D02*
X29917733Y-37131009D01*
X29917733Y-37131009D02*
X29917733Y-37654819D01*
X35536779Y-7273866D02*
X36298684Y-7273866D01*
X35917731Y-7654819D02*
X35917731Y-6892914D01*
X36774874Y-7273866D02*
X37536779Y-7273866D01*
X39298683Y-7654819D02*
X38727255Y-7654819D01*
X39012969Y-7654819D02*
X39012969Y-6654819D01*
X39012969Y-6654819D02*
X38917731Y-6797676D01*
X38917731Y-6797676D02*
X38822493Y-6892914D01*
X38822493Y-6892914D02*
X38727255Y-6940533D01*
X39917731Y-6654819D02*
X40012969Y-6654819D01*
X40012969Y-6654819D02*
X40108207Y-6702438D01*
X40108207Y-6702438D02*
X40155826Y-6750057D01*
X40155826Y-6750057D02*
X40203445Y-6845295D01*
X40203445Y-6845295D02*
X40251064Y-7035771D01*
X40251064Y-7035771D02*
X40251064Y-7273866D01*
X40251064Y-7273866D02*
X40203445Y-7464342D01*
X40203445Y-7464342D02*
X40155826Y-7559580D01*
X40155826Y-7559580D02*
X40108207Y-7607200D01*
X40108207Y-7607200D02*
X40012969Y-7654819D01*
X40012969Y-7654819D02*
X39917731Y-7654819D01*
X39917731Y-7654819D02*
X39822493Y-7607200D01*
X39822493Y-7607200D02*
X39774874Y-7559580D01*
X39774874Y-7559580D02*
X39727255Y-7464342D01*
X39727255Y-7464342D02*
X39679636Y-7273866D01*
X39679636Y-7273866D02*
X39679636Y-7035771D01*
X39679636Y-7035771D02*
X39727255Y-6845295D01*
X39727255Y-6845295D02*
X39774874Y-6750057D01*
X39774874Y-6750057D02*
X39822493Y-6702438D01*
X39822493Y-6702438D02*
X39917731Y-6654819D01*
X41393922Y-7654819D02*
X42155826Y-6654819D01*
X41536779Y-6654819D02*
X41632017Y-6702438D01*
X41632017Y-6702438D02*
X41679636Y-6797676D01*
X41679636Y-6797676D02*
X41632017Y-6892914D01*
X41632017Y-6892914D02*
X41536779Y-6940533D01*
X41536779Y-6940533D02*
X41441541Y-6892914D01*
X41441541Y-6892914D02*
X41393922Y-6797676D01*
X41393922Y-6797676D02*
X41441541Y-6702438D01*
X41441541Y-6702438D02*
X41536779Y-6654819D01*
X42108207Y-7607200D02*
X42155826Y-7511961D01*
X42155826Y-7511961D02*
X42108207Y-7416723D01*
X42108207Y-7416723D02*
X42012969Y-7369104D01*
X42012969Y-7369104D02*
X41917731Y-7416723D01*
X41917731Y-7416723D02*
X41870112Y-7511961D01*
X41870112Y-7511961D02*
X41917731Y-7607200D01*
X41917731Y-7607200D02*
X42012969Y-7654819D01*
X42012969Y-7654819D02*
X42108207Y-7607200D01*
X35536779Y-5273866D02*
X36298684Y-5273866D01*
X35917731Y-5654819D02*
X35917731Y-4892914D01*
X36774874Y-5273866D02*
X37536779Y-5273866D01*
X38965350Y-4654819D02*
X39060588Y-4654819D01*
X39060588Y-4654819D02*
X39155826Y-4702438D01*
X39155826Y-4702438D02*
X39203445Y-4750057D01*
X39203445Y-4750057D02*
X39251064Y-4845295D01*
X39251064Y-4845295D02*
X39298683Y-5035771D01*
X39298683Y-5035771D02*
X39298683Y-5273866D01*
X39298683Y-5273866D02*
X39251064Y-5464342D01*
X39251064Y-5464342D02*
X39203445Y-5559580D01*
X39203445Y-5559580D02*
X39155826Y-5607200D01*
X39155826Y-5607200D02*
X39060588Y-5654819D01*
X39060588Y-5654819D02*
X38965350Y-5654819D01*
X38965350Y-5654819D02*
X38870112Y-5607200D01*
X38870112Y-5607200D02*
X38822493Y-5559580D01*
X38822493Y-5559580D02*
X38774874Y-5464342D01*
X38774874Y-5464342D02*
X38727255Y-5273866D01*
X38727255Y-5273866D02*
X38727255Y-5035771D01*
X38727255Y-5035771D02*
X38774874Y-4845295D01*
X38774874Y-4845295D02*
X38822493Y-4750057D01*
X38822493Y-4750057D02*
X38870112Y-4702438D01*
X38870112Y-4702438D02*
X38965350Y-4654819D01*
X39727255Y-5559580D02*
X39774874Y-5607200D01*
X39774874Y-5607200D02*
X39727255Y-5654819D01*
X39727255Y-5654819D02*
X39679636Y-5607200D01*
X39679636Y-5607200D02*
X39727255Y-5559580D01*
X39727255Y-5559580D02*
X39727255Y-5654819D01*
X40727254Y-5654819D02*
X40155826Y-5654819D01*
X40441540Y-5654819D02*
X40441540Y-4654819D01*
X40441540Y-4654819D02*
X40346302Y-4797676D01*
X40346302Y-4797676D02*
X40251064Y-4892914D01*
X40251064Y-4892914D02*
X40155826Y-4940533D01*
X41917731Y-5654819D02*
X41917731Y-4988152D01*
X41917731Y-5083390D02*
X41965350Y-5035771D01*
X41965350Y-5035771D02*
X42060588Y-4988152D01*
X42060588Y-4988152D02*
X42203445Y-4988152D01*
X42203445Y-4988152D02*
X42298683Y-5035771D01*
X42298683Y-5035771D02*
X42346302Y-5131009D01*
X42346302Y-5131009D02*
X42346302Y-5654819D01*
X42346302Y-5131009D02*
X42393921Y-5035771D01*
X42393921Y-5035771D02*
X42489159Y-4988152D01*
X42489159Y-4988152D02*
X42632016Y-4988152D01*
X42632016Y-4988152D02*
X42727255Y-5035771D01*
X42727255Y-5035771D02*
X42774874Y-5131009D01*
X42774874Y-5131009D02*
X42774874Y-5654819D01*
X43251064Y-5654819D02*
X43251064Y-4988152D01*
X43251064Y-5083390D02*
X43298683Y-5035771D01*
X43298683Y-5035771D02*
X43393921Y-4988152D01*
X43393921Y-4988152D02*
X43536778Y-4988152D01*
X43536778Y-4988152D02*
X43632016Y-5035771D01*
X43632016Y-5035771D02*
X43679635Y-5131009D01*
X43679635Y-5131009D02*
X43679635Y-5654819D01*
X43679635Y-5131009D02*
X43727254Y-5035771D01*
X43727254Y-5035771D02*
X43822492Y-4988152D01*
X43822492Y-4988152D02*
X43965349Y-4988152D01*
X43965349Y-4988152D02*
X44060588Y-5035771D01*
X44060588Y-5035771D02*
X44108207Y-5131009D01*
X44108207Y-5131009D02*
X44108207Y-5654819D01*
X19536779Y-40654819D02*
X19536779Y-39654819D01*
X19536779Y-39654819D02*
X19917731Y-39654819D01*
X19917731Y-39654819D02*
X20012969Y-39702438D01*
X20012969Y-39702438D02*
X20060588Y-39750057D01*
X20060588Y-39750057D02*
X20108207Y-39845295D01*
X20108207Y-39845295D02*
X20108207Y-39988152D01*
X20108207Y-39988152D02*
X20060588Y-40083390D01*
X20060588Y-40083390D02*
X20012969Y-40131009D01*
X20012969Y-40131009D02*
X19917731Y-40178628D01*
X19917731Y-40178628D02*
X19536779Y-40178628D01*
X20536779Y-40654819D02*
X20536779Y-39988152D01*
X20536779Y-40178628D02*
X20584398Y-40083390D01*
X20584398Y-40083390D02*
X20632017Y-40035771D01*
X20632017Y-40035771D02*
X20727255Y-39988152D01*
X20727255Y-39988152D02*
X20822493Y-39988152D01*
X21536779Y-40607200D02*
X21441541Y-40654819D01*
X21441541Y-40654819D02*
X21251065Y-40654819D01*
X21251065Y-40654819D02*
X21155827Y-40607200D01*
X21155827Y-40607200D02*
X21108208Y-40511961D01*
X21108208Y-40511961D02*
X21108208Y-40131009D01*
X21108208Y-40131009D02*
X21155827Y-40035771D01*
X21155827Y-40035771D02*
X21251065Y-39988152D01*
X21251065Y-39988152D02*
X21441541Y-39988152D01*
X21441541Y-39988152D02*
X21536779Y-40035771D01*
X21536779Y-40035771D02*
X21584398Y-40131009D01*
X21584398Y-40131009D02*
X21584398Y-40226247D01*
X21584398Y-40226247D02*
X21108208Y-40321485D01*
X22012970Y-40273866D02*
X22774875Y-40273866D01*
X23251065Y-40654819D02*
X23251065Y-39654819D01*
X23251065Y-39654819D02*
X23632017Y-39654819D01*
X23632017Y-39654819D02*
X23727255Y-39702438D01*
X23727255Y-39702438D02*
X23774874Y-39750057D01*
X23774874Y-39750057D02*
X23822493Y-39845295D01*
X23822493Y-39845295D02*
X23822493Y-39988152D01*
X23822493Y-39988152D02*
X23774874Y-40083390D01*
X23774874Y-40083390D02*
X23727255Y-40131009D01*
X23727255Y-40131009D02*
X23632017Y-40178628D01*
X23632017Y-40178628D02*
X23251065Y-40178628D01*
X24251065Y-40654819D02*
X24251065Y-39988152D01*
X24251065Y-40178628D02*
X24298684Y-40083390D01*
X24298684Y-40083390D02*
X24346303Y-40035771D01*
X24346303Y-40035771D02*
X24441541Y-39988152D01*
X24441541Y-39988152D02*
X24536779Y-39988152D01*
X25251065Y-40607200D02*
X25155827Y-40654819D01*
X25155827Y-40654819D02*
X24965351Y-40654819D01*
X24965351Y-40654819D02*
X24870113Y-40607200D01*
X24870113Y-40607200D02*
X24822494Y-40511961D01*
X24822494Y-40511961D02*
X24822494Y-40131009D01*
X24822494Y-40131009D02*
X24870113Y-40035771D01*
X24870113Y-40035771D02*
X24965351Y-39988152D01*
X24965351Y-39988152D02*
X25155827Y-39988152D01*
X25155827Y-39988152D02*
X25251065Y-40035771D01*
X25251065Y-40035771D02*
X25298684Y-40131009D01*
X25298684Y-40131009D02*
X25298684Y-40226247D01*
X25298684Y-40226247D02*
X24822494Y-40321485D01*
X26155827Y-39988152D02*
X26155827Y-40797676D01*
X26155827Y-40797676D02*
X26108208Y-40892914D01*
X26108208Y-40892914D02*
X26060589Y-40940533D01*
X26060589Y-40940533D02*
X25965351Y-40988152D01*
X25965351Y-40988152D02*
X25822494Y-40988152D01*
X25822494Y-40988152D02*
X25727256Y-40940533D01*
X26155827Y-40607200D02*
X26060589Y-40654819D01*
X26060589Y-40654819D02*
X25870113Y-40654819D01*
X25870113Y-40654819D02*
X25774875Y-40607200D01*
X25774875Y-40607200D02*
X25727256Y-40559580D01*
X25727256Y-40559580D02*
X25679637Y-40464342D01*
X25679637Y-40464342D02*
X25679637Y-40178628D01*
X25679637Y-40178628D02*
X25727256Y-40083390D01*
X25727256Y-40083390D02*
X25774875Y-40035771D01*
X25774875Y-40035771D02*
X25870113Y-39988152D01*
X25870113Y-39988152D02*
X26060589Y-39988152D01*
X26060589Y-39988152D02*
X26155827Y-40035771D01*
X27917732Y-40654819D02*
X27346304Y-40654819D01*
X27632018Y-40654819D02*
X27632018Y-39654819D01*
X27632018Y-39654819D02*
X27536780Y-39797676D01*
X27536780Y-39797676D02*
X27441542Y-39892914D01*
X27441542Y-39892914D02*
X27346304Y-39940533D01*
X28489161Y-40083390D02*
X28393923Y-40035771D01*
X28393923Y-40035771D02*
X28346304Y-39988152D01*
X28346304Y-39988152D02*
X28298685Y-39892914D01*
X28298685Y-39892914D02*
X28298685Y-39845295D01*
X28298685Y-39845295D02*
X28346304Y-39750057D01*
X28346304Y-39750057D02*
X28393923Y-39702438D01*
X28393923Y-39702438D02*
X28489161Y-39654819D01*
X28489161Y-39654819D02*
X28679637Y-39654819D01*
X28679637Y-39654819D02*
X28774875Y-39702438D01*
X28774875Y-39702438D02*
X28822494Y-39750057D01*
X28822494Y-39750057D02*
X28870113Y-39845295D01*
X28870113Y-39845295D02*
X28870113Y-39892914D01*
X28870113Y-39892914D02*
X28822494Y-39988152D01*
X28822494Y-39988152D02*
X28774875Y-40035771D01*
X28774875Y-40035771D02*
X28679637Y-40083390D01*
X28679637Y-40083390D02*
X28489161Y-40083390D01*
X28489161Y-40083390D02*
X28393923Y-40131009D01*
X28393923Y-40131009D02*
X28346304Y-40178628D01*
X28346304Y-40178628D02*
X28298685Y-40273866D01*
X28298685Y-40273866D02*
X28298685Y-40464342D01*
X28298685Y-40464342D02*
X28346304Y-40559580D01*
X28346304Y-40559580D02*
X28393923Y-40607200D01*
X28393923Y-40607200D02*
X28489161Y-40654819D01*
X28489161Y-40654819D02*
X28679637Y-40654819D01*
X28679637Y-40654819D02*
X28774875Y-40607200D01*
X28774875Y-40607200D02*
X28822494Y-40559580D01*
X28822494Y-40559580D02*
X28870113Y-40464342D01*
X28870113Y-40464342D02*
X28870113Y-40273866D01*
X28870113Y-40273866D02*
X28822494Y-40178628D01*
X28822494Y-40178628D02*
X28774875Y-40131009D01*
X28774875Y-40131009D02*
X28679637Y-40083390D01*
X29489161Y-39654819D02*
X29584399Y-39654819D01*
X29584399Y-39654819D02*
X29679637Y-39702438D01*
X29679637Y-39702438D02*
X29727256Y-39750057D01*
X29727256Y-39750057D02*
X29774875Y-39845295D01*
X29774875Y-39845295D02*
X29822494Y-40035771D01*
X29822494Y-40035771D02*
X29822494Y-40273866D01*
X29822494Y-40273866D02*
X29774875Y-40464342D01*
X29774875Y-40464342D02*
X29727256Y-40559580D01*
X29727256Y-40559580D02*
X29679637Y-40607200D01*
X29679637Y-40607200D02*
X29584399Y-40654819D01*
X29584399Y-40654819D02*
X29489161Y-40654819D01*
X29489161Y-40654819D02*
X29393923Y-40607200D01*
X29393923Y-40607200D02*
X29346304Y-40559580D01*
X29346304Y-40559580D02*
X29298685Y-40464342D01*
X29298685Y-40464342D02*
X29251066Y-40273866D01*
X29251066Y-40273866D02*
X29251066Y-40035771D01*
X29251066Y-40035771D02*
X29298685Y-39845295D01*
X29298685Y-39845295D02*
X29346304Y-39750057D01*
X29346304Y-39750057D02*
X29393923Y-39702438D01*
X29393923Y-39702438D02*
X29489161Y-39654819D01*
X31441542Y-39988152D02*
X31441542Y-40654819D01*
X31012971Y-39988152D02*
X31012971Y-40511961D01*
X31012971Y-40511961D02*
X31060590Y-40607200D01*
X31060590Y-40607200D02*
X31155828Y-40654819D01*
X31155828Y-40654819D02*
X31298685Y-40654819D01*
X31298685Y-40654819D02*
X31393923Y-40607200D01*
X31393923Y-40607200D02*
X31441542Y-40559580D01*
X31917733Y-40654819D02*
X31917733Y-39988152D01*
X31917733Y-40083390D02*
X31965352Y-40035771D01*
X31965352Y-40035771D02*
X32060590Y-39988152D01*
X32060590Y-39988152D02*
X32203447Y-39988152D01*
X32203447Y-39988152D02*
X32298685Y-40035771D01*
X32298685Y-40035771D02*
X32346304Y-40131009D01*
X32346304Y-40131009D02*
X32346304Y-40654819D01*
X32346304Y-40131009D02*
X32393923Y-40035771D01*
X32393923Y-40035771D02*
X32489161Y-39988152D01*
X32489161Y-39988152D02*
X32632018Y-39988152D01*
X32632018Y-39988152D02*
X32727257Y-40035771D01*
X32727257Y-40035771D02*
X32774876Y-40131009D01*
X32774876Y-40131009D02*
X32774876Y-40654819D01*
X20108207Y-43559580D02*
X20060588Y-43607200D01*
X20060588Y-43607200D02*
X19917731Y-43654819D01*
X19917731Y-43654819D02*
X19822493Y-43654819D01*
X19822493Y-43654819D02*
X19679636Y-43607200D01*
X19679636Y-43607200D02*
X19584398Y-43511961D01*
X19584398Y-43511961D02*
X19536779Y-43416723D01*
X19536779Y-43416723D02*
X19489160Y-43226247D01*
X19489160Y-43226247D02*
X19489160Y-43083390D01*
X19489160Y-43083390D02*
X19536779Y-42892914D01*
X19536779Y-42892914D02*
X19584398Y-42797676D01*
X19584398Y-42797676D02*
X19679636Y-42702438D01*
X19679636Y-42702438D02*
X19822493Y-42654819D01*
X19822493Y-42654819D02*
X19917731Y-42654819D01*
X19917731Y-42654819D02*
X20060588Y-42702438D01*
X20060588Y-42702438D02*
X20108207Y-42750057D01*
X20679636Y-43654819D02*
X20584398Y-43607200D01*
X20584398Y-43607200D02*
X20536779Y-43559580D01*
X20536779Y-43559580D02*
X20489160Y-43464342D01*
X20489160Y-43464342D02*
X20489160Y-43178628D01*
X20489160Y-43178628D02*
X20536779Y-43083390D01*
X20536779Y-43083390D02*
X20584398Y-43035771D01*
X20584398Y-43035771D02*
X20679636Y-42988152D01*
X20679636Y-42988152D02*
X20822493Y-42988152D01*
X20822493Y-42988152D02*
X20917731Y-43035771D01*
X20917731Y-43035771D02*
X20965350Y-43083390D01*
X20965350Y-43083390D02*
X21012969Y-43178628D01*
X21012969Y-43178628D02*
X21012969Y-43464342D01*
X21012969Y-43464342D02*
X20965350Y-43559580D01*
X20965350Y-43559580D02*
X20917731Y-43607200D01*
X20917731Y-43607200D02*
X20822493Y-43654819D01*
X20822493Y-43654819D02*
X20679636Y-43654819D01*
X21441541Y-42988152D02*
X21441541Y-43988152D01*
X21441541Y-43035771D02*
X21536779Y-42988152D01*
X21536779Y-42988152D02*
X21727255Y-42988152D01*
X21727255Y-42988152D02*
X21822493Y-43035771D01*
X21822493Y-43035771D02*
X21870112Y-43083390D01*
X21870112Y-43083390D02*
X21917731Y-43178628D01*
X21917731Y-43178628D02*
X21917731Y-43464342D01*
X21917731Y-43464342D02*
X21870112Y-43559580D01*
X21870112Y-43559580D02*
X21822493Y-43607200D01*
X21822493Y-43607200D02*
X21727255Y-43654819D01*
X21727255Y-43654819D02*
X21536779Y-43654819D01*
X21536779Y-43654819D02*
X21441541Y-43607200D01*
X22346303Y-42988152D02*
X22346303Y-43988152D01*
X22346303Y-43035771D02*
X22441541Y-42988152D01*
X22441541Y-42988152D02*
X22632017Y-42988152D01*
X22632017Y-42988152D02*
X22727255Y-43035771D01*
X22727255Y-43035771D02*
X22774874Y-43083390D01*
X22774874Y-43083390D02*
X22822493Y-43178628D01*
X22822493Y-43178628D02*
X22822493Y-43464342D01*
X22822493Y-43464342D02*
X22774874Y-43559580D01*
X22774874Y-43559580D02*
X22727255Y-43607200D01*
X22727255Y-43607200D02*
X22632017Y-43654819D01*
X22632017Y-43654819D02*
X22441541Y-43654819D01*
X22441541Y-43654819D02*
X22346303Y-43607200D01*
X23632017Y-43607200D02*
X23536779Y-43654819D01*
X23536779Y-43654819D02*
X23346303Y-43654819D01*
X23346303Y-43654819D02*
X23251065Y-43607200D01*
X23251065Y-43607200D02*
X23203446Y-43511961D01*
X23203446Y-43511961D02*
X23203446Y-43131009D01*
X23203446Y-43131009D02*
X23251065Y-43035771D01*
X23251065Y-43035771D02*
X23346303Y-42988152D01*
X23346303Y-42988152D02*
X23536779Y-42988152D01*
X23536779Y-42988152D02*
X23632017Y-43035771D01*
X23632017Y-43035771D02*
X23679636Y-43131009D01*
X23679636Y-43131009D02*
X23679636Y-43226247D01*
X23679636Y-43226247D02*
X23203446Y-43321485D01*
X24108208Y-43654819D02*
X24108208Y-42988152D01*
X24108208Y-43178628D02*
X24155827Y-43083390D01*
X24155827Y-43083390D02*
X24203446Y-43035771D01*
X24203446Y-43035771D02*
X24298684Y-42988152D01*
X24298684Y-42988152D02*
X24393922Y-42988152D01*
X25393923Y-42654819D02*
X26012970Y-42654819D01*
X26012970Y-42654819D02*
X25679637Y-43035771D01*
X25679637Y-43035771D02*
X25822494Y-43035771D01*
X25822494Y-43035771D02*
X25917732Y-43083390D01*
X25917732Y-43083390D02*
X25965351Y-43131009D01*
X25965351Y-43131009D02*
X26012970Y-43226247D01*
X26012970Y-43226247D02*
X26012970Y-43464342D01*
X26012970Y-43464342D02*
X25965351Y-43559580D01*
X25965351Y-43559580D02*
X25917732Y-43607200D01*
X25917732Y-43607200D02*
X25822494Y-43654819D01*
X25822494Y-43654819D02*
X25536780Y-43654819D01*
X25536780Y-43654819D02*
X25441542Y-43607200D01*
X25441542Y-43607200D02*
X25393923Y-43559580D01*
X26917732Y-42654819D02*
X26441542Y-42654819D01*
X26441542Y-42654819D02*
X26393923Y-43131009D01*
X26393923Y-43131009D02*
X26441542Y-43083390D01*
X26441542Y-43083390D02*
X26536780Y-43035771D01*
X26536780Y-43035771D02*
X26774875Y-43035771D01*
X26774875Y-43035771D02*
X26870113Y-43083390D01*
X26870113Y-43083390D02*
X26917732Y-43131009D01*
X26917732Y-43131009D02*
X26965351Y-43226247D01*
X26965351Y-43226247D02*
X26965351Y-43464342D01*
X26965351Y-43464342D02*
X26917732Y-43559580D01*
X26917732Y-43559580D02*
X26870113Y-43607200D01*
X26870113Y-43607200D02*
X26774875Y-43654819D01*
X26774875Y-43654819D02*
X26536780Y-43654819D01*
X26536780Y-43654819D02*
X26441542Y-43607200D01*
X26441542Y-43607200D02*
X26393923Y-43559580D01*
X28584399Y-42988152D02*
X28584399Y-43654819D01*
X28155828Y-42988152D02*
X28155828Y-43511961D01*
X28155828Y-43511961D02*
X28203447Y-43607200D01*
X28203447Y-43607200D02*
X28298685Y-43654819D01*
X28298685Y-43654819D02*
X28441542Y-43654819D01*
X28441542Y-43654819D02*
X28536780Y-43607200D01*
X28536780Y-43607200D02*
X28584399Y-43559580D01*
X29060590Y-43654819D02*
X29060590Y-42988152D01*
X29060590Y-43083390D02*
X29108209Y-43035771D01*
X29108209Y-43035771D02*
X29203447Y-42988152D01*
X29203447Y-42988152D02*
X29346304Y-42988152D01*
X29346304Y-42988152D02*
X29441542Y-43035771D01*
X29441542Y-43035771D02*
X29489161Y-43131009D01*
X29489161Y-43131009D02*
X29489161Y-43654819D01*
X29489161Y-43131009D02*
X29536780Y-43035771D01*
X29536780Y-43035771D02*
X29632018Y-42988152D01*
X29632018Y-42988152D02*
X29774875Y-42988152D01*
X29774875Y-42988152D02*
X29870114Y-43035771D01*
X29870114Y-43035771D02*
X29917733Y-43131009D01*
X29917733Y-43131009D02*
X29917733Y-43654819D01*
X12267981Y-44035771D02*
X12220362Y-43988152D01*
X12220362Y-43988152D02*
X12125124Y-43845295D01*
X12125124Y-43845295D02*
X12077505Y-43750057D01*
X12077505Y-43750057D02*
X12029886Y-43607200D01*
X12029886Y-43607200D02*
X11982267Y-43369104D01*
X11982267Y-43369104D02*
X11982267Y-43178628D01*
X11982267Y-43178628D02*
X12029886Y-42940533D01*
X12029886Y-42940533D02*
X12077505Y-42797676D01*
X12077505Y-42797676D02*
X12125124Y-42702438D01*
X12125124Y-42702438D02*
X12220362Y-42559580D01*
X12220362Y-42559580D02*
X12267981Y-42511961D01*
X12982267Y-43131009D02*
X13125124Y-43178628D01*
X13125124Y-43178628D02*
X13172743Y-43226247D01*
X13172743Y-43226247D02*
X13220362Y-43321485D01*
X13220362Y-43321485D02*
X13220362Y-43464342D01*
X13220362Y-43464342D02*
X13172743Y-43559580D01*
X13172743Y-43559580D02*
X13125124Y-43607200D01*
X13125124Y-43607200D02*
X13029886Y-43654819D01*
X13029886Y-43654819D02*
X12648934Y-43654819D01*
X12648934Y-43654819D02*
X12648934Y-42654819D01*
X12648934Y-42654819D02*
X12982267Y-42654819D01*
X12982267Y-42654819D02*
X13077505Y-42702438D01*
X13077505Y-42702438D02*
X13125124Y-42750057D01*
X13125124Y-42750057D02*
X13172743Y-42845295D01*
X13172743Y-42845295D02*
X13172743Y-42940533D01*
X13172743Y-42940533D02*
X13125124Y-43035771D01*
X13125124Y-43035771D02*
X13077505Y-43083390D01*
X13077505Y-43083390D02*
X12982267Y-43131009D01*
X12982267Y-43131009D02*
X12648934Y-43131009D01*
X13553696Y-44035771D02*
X13601315Y-43988152D01*
X13601315Y-43988152D02*
X13696553Y-43845295D01*
X13696553Y-43845295D02*
X13744172Y-43750057D01*
X13744172Y-43750057D02*
X13791791Y-43607200D01*
X13791791Y-43607200D02*
X13839410Y-43369104D01*
X13839410Y-43369104D02*
X13839410Y-43178628D01*
X13839410Y-43178628D02*
X13791791Y-42940533D01*
X13791791Y-42940533D02*
X13744172Y-42797676D01*
X13744172Y-42797676D02*
X13696553Y-42702438D01*
X13696553Y-42702438D02*
X13601315Y-42559580D01*
X13601315Y-42559580D02*
X13553696Y-42511961D01*
X15553696Y-43654819D02*
X15077506Y-43654819D01*
X15077506Y-43654819D02*
X15077506Y-42654819D01*
X16315601Y-42988152D02*
X16315601Y-43654819D01*
X16077506Y-42607200D02*
X15839411Y-43321485D01*
X15839411Y-43321485D02*
X16458458Y-43321485D01*
X20108207Y-31559580D02*
X20060588Y-31607200D01*
X20060588Y-31607200D02*
X19917731Y-31654819D01*
X19917731Y-31654819D02*
X19822493Y-31654819D01*
X19822493Y-31654819D02*
X19679636Y-31607200D01*
X19679636Y-31607200D02*
X19584398Y-31511961D01*
X19584398Y-31511961D02*
X19536779Y-31416723D01*
X19536779Y-31416723D02*
X19489160Y-31226247D01*
X19489160Y-31226247D02*
X19489160Y-31083390D01*
X19489160Y-31083390D02*
X19536779Y-30892914D01*
X19536779Y-30892914D02*
X19584398Y-30797676D01*
X19584398Y-30797676D02*
X19679636Y-30702438D01*
X19679636Y-30702438D02*
X19822493Y-30654819D01*
X19822493Y-30654819D02*
X19917731Y-30654819D01*
X19917731Y-30654819D02*
X20060588Y-30702438D01*
X20060588Y-30702438D02*
X20108207Y-30750057D01*
X20679636Y-31654819D02*
X20584398Y-31607200D01*
X20584398Y-31607200D02*
X20536779Y-31559580D01*
X20536779Y-31559580D02*
X20489160Y-31464342D01*
X20489160Y-31464342D02*
X20489160Y-31178628D01*
X20489160Y-31178628D02*
X20536779Y-31083390D01*
X20536779Y-31083390D02*
X20584398Y-31035771D01*
X20584398Y-31035771D02*
X20679636Y-30988152D01*
X20679636Y-30988152D02*
X20822493Y-30988152D01*
X20822493Y-30988152D02*
X20917731Y-31035771D01*
X20917731Y-31035771D02*
X20965350Y-31083390D01*
X20965350Y-31083390D02*
X21012969Y-31178628D01*
X21012969Y-31178628D02*
X21012969Y-31464342D01*
X21012969Y-31464342D02*
X20965350Y-31559580D01*
X20965350Y-31559580D02*
X20917731Y-31607200D01*
X20917731Y-31607200D02*
X20822493Y-31654819D01*
X20822493Y-31654819D02*
X20679636Y-31654819D01*
X21441541Y-30988152D02*
X21441541Y-31988152D01*
X21441541Y-31035771D02*
X21536779Y-30988152D01*
X21536779Y-30988152D02*
X21727255Y-30988152D01*
X21727255Y-30988152D02*
X21822493Y-31035771D01*
X21822493Y-31035771D02*
X21870112Y-31083390D01*
X21870112Y-31083390D02*
X21917731Y-31178628D01*
X21917731Y-31178628D02*
X21917731Y-31464342D01*
X21917731Y-31464342D02*
X21870112Y-31559580D01*
X21870112Y-31559580D02*
X21822493Y-31607200D01*
X21822493Y-31607200D02*
X21727255Y-31654819D01*
X21727255Y-31654819D02*
X21536779Y-31654819D01*
X21536779Y-31654819D02*
X21441541Y-31607200D01*
X22346303Y-30988152D02*
X22346303Y-31988152D01*
X22346303Y-31035771D02*
X22441541Y-30988152D01*
X22441541Y-30988152D02*
X22632017Y-30988152D01*
X22632017Y-30988152D02*
X22727255Y-31035771D01*
X22727255Y-31035771D02*
X22774874Y-31083390D01*
X22774874Y-31083390D02*
X22822493Y-31178628D01*
X22822493Y-31178628D02*
X22822493Y-31464342D01*
X22822493Y-31464342D02*
X22774874Y-31559580D01*
X22774874Y-31559580D02*
X22727255Y-31607200D01*
X22727255Y-31607200D02*
X22632017Y-31654819D01*
X22632017Y-31654819D02*
X22441541Y-31654819D01*
X22441541Y-31654819D02*
X22346303Y-31607200D01*
X23632017Y-31607200D02*
X23536779Y-31654819D01*
X23536779Y-31654819D02*
X23346303Y-31654819D01*
X23346303Y-31654819D02*
X23251065Y-31607200D01*
X23251065Y-31607200D02*
X23203446Y-31511961D01*
X23203446Y-31511961D02*
X23203446Y-31131009D01*
X23203446Y-31131009D02*
X23251065Y-31035771D01*
X23251065Y-31035771D02*
X23346303Y-30988152D01*
X23346303Y-30988152D02*
X23536779Y-30988152D01*
X23536779Y-30988152D02*
X23632017Y-31035771D01*
X23632017Y-31035771D02*
X23679636Y-31131009D01*
X23679636Y-31131009D02*
X23679636Y-31226247D01*
X23679636Y-31226247D02*
X23203446Y-31321485D01*
X24108208Y-31654819D02*
X24108208Y-30988152D01*
X24108208Y-31178628D02*
X24155827Y-31083390D01*
X24155827Y-31083390D02*
X24203446Y-31035771D01*
X24203446Y-31035771D02*
X24298684Y-30988152D01*
X24298684Y-30988152D02*
X24393922Y-30988152D01*
X26012970Y-31654819D02*
X25441542Y-31654819D01*
X25727256Y-31654819D02*
X25727256Y-30654819D01*
X25727256Y-30654819D02*
X25632018Y-30797676D01*
X25632018Y-30797676D02*
X25536780Y-30892914D01*
X25536780Y-30892914D02*
X25441542Y-30940533D01*
X26584399Y-31083390D02*
X26489161Y-31035771D01*
X26489161Y-31035771D02*
X26441542Y-30988152D01*
X26441542Y-30988152D02*
X26393923Y-30892914D01*
X26393923Y-30892914D02*
X26393923Y-30845295D01*
X26393923Y-30845295D02*
X26441542Y-30750057D01*
X26441542Y-30750057D02*
X26489161Y-30702438D01*
X26489161Y-30702438D02*
X26584399Y-30654819D01*
X26584399Y-30654819D02*
X26774875Y-30654819D01*
X26774875Y-30654819D02*
X26870113Y-30702438D01*
X26870113Y-30702438D02*
X26917732Y-30750057D01*
X26917732Y-30750057D02*
X26965351Y-30845295D01*
X26965351Y-30845295D02*
X26965351Y-30892914D01*
X26965351Y-30892914D02*
X26917732Y-30988152D01*
X26917732Y-30988152D02*
X26870113Y-31035771D01*
X26870113Y-31035771D02*
X26774875Y-31083390D01*
X26774875Y-31083390D02*
X26584399Y-31083390D01*
X26584399Y-31083390D02*
X26489161Y-31131009D01*
X26489161Y-31131009D02*
X26441542Y-31178628D01*
X26441542Y-31178628D02*
X26393923Y-31273866D01*
X26393923Y-31273866D02*
X26393923Y-31464342D01*
X26393923Y-31464342D02*
X26441542Y-31559580D01*
X26441542Y-31559580D02*
X26489161Y-31607200D01*
X26489161Y-31607200D02*
X26584399Y-31654819D01*
X26584399Y-31654819D02*
X26774875Y-31654819D01*
X26774875Y-31654819D02*
X26870113Y-31607200D01*
X26870113Y-31607200D02*
X26917732Y-31559580D01*
X26917732Y-31559580D02*
X26965351Y-31464342D01*
X26965351Y-31464342D02*
X26965351Y-31273866D01*
X26965351Y-31273866D02*
X26917732Y-31178628D01*
X26917732Y-31178628D02*
X26870113Y-31131009D01*
X26870113Y-31131009D02*
X26774875Y-31083390D01*
X28584399Y-30988152D02*
X28584399Y-31654819D01*
X28155828Y-30988152D02*
X28155828Y-31511961D01*
X28155828Y-31511961D02*
X28203447Y-31607200D01*
X28203447Y-31607200D02*
X28298685Y-31654819D01*
X28298685Y-31654819D02*
X28441542Y-31654819D01*
X28441542Y-31654819D02*
X28536780Y-31607200D01*
X28536780Y-31607200D02*
X28584399Y-31559580D01*
X29060590Y-31654819D02*
X29060590Y-30988152D01*
X29060590Y-31083390D02*
X29108209Y-31035771D01*
X29108209Y-31035771D02*
X29203447Y-30988152D01*
X29203447Y-30988152D02*
X29346304Y-30988152D01*
X29346304Y-30988152D02*
X29441542Y-31035771D01*
X29441542Y-31035771D02*
X29489161Y-31131009D01*
X29489161Y-31131009D02*
X29489161Y-31654819D01*
X29489161Y-31131009D02*
X29536780Y-31035771D01*
X29536780Y-31035771D02*
X29632018Y-30988152D01*
X29632018Y-30988152D02*
X29774875Y-30988152D01*
X29774875Y-30988152D02*
X29870114Y-31035771D01*
X29870114Y-31035771D02*
X29917733Y-31131009D01*
X29917733Y-31131009D02*
X29917733Y-31654819D01*
X20108207Y-25559580D02*
X20060588Y-25607200D01*
X20060588Y-25607200D02*
X19917731Y-25654819D01*
X19917731Y-25654819D02*
X19822493Y-25654819D01*
X19822493Y-25654819D02*
X19679636Y-25607200D01*
X19679636Y-25607200D02*
X19584398Y-25511961D01*
X19584398Y-25511961D02*
X19536779Y-25416723D01*
X19536779Y-25416723D02*
X19489160Y-25226247D01*
X19489160Y-25226247D02*
X19489160Y-25083390D01*
X19489160Y-25083390D02*
X19536779Y-24892914D01*
X19536779Y-24892914D02*
X19584398Y-24797676D01*
X19584398Y-24797676D02*
X19679636Y-24702438D01*
X19679636Y-24702438D02*
X19822493Y-24654819D01*
X19822493Y-24654819D02*
X19917731Y-24654819D01*
X19917731Y-24654819D02*
X20060588Y-24702438D01*
X20060588Y-24702438D02*
X20108207Y-24750057D01*
X20679636Y-25654819D02*
X20584398Y-25607200D01*
X20584398Y-25607200D02*
X20536779Y-25559580D01*
X20536779Y-25559580D02*
X20489160Y-25464342D01*
X20489160Y-25464342D02*
X20489160Y-25178628D01*
X20489160Y-25178628D02*
X20536779Y-25083390D01*
X20536779Y-25083390D02*
X20584398Y-25035771D01*
X20584398Y-25035771D02*
X20679636Y-24988152D01*
X20679636Y-24988152D02*
X20822493Y-24988152D01*
X20822493Y-24988152D02*
X20917731Y-25035771D01*
X20917731Y-25035771D02*
X20965350Y-25083390D01*
X20965350Y-25083390D02*
X21012969Y-25178628D01*
X21012969Y-25178628D02*
X21012969Y-25464342D01*
X21012969Y-25464342D02*
X20965350Y-25559580D01*
X20965350Y-25559580D02*
X20917731Y-25607200D01*
X20917731Y-25607200D02*
X20822493Y-25654819D01*
X20822493Y-25654819D02*
X20679636Y-25654819D01*
X21441541Y-24988152D02*
X21441541Y-25988152D01*
X21441541Y-25035771D02*
X21536779Y-24988152D01*
X21536779Y-24988152D02*
X21727255Y-24988152D01*
X21727255Y-24988152D02*
X21822493Y-25035771D01*
X21822493Y-25035771D02*
X21870112Y-25083390D01*
X21870112Y-25083390D02*
X21917731Y-25178628D01*
X21917731Y-25178628D02*
X21917731Y-25464342D01*
X21917731Y-25464342D02*
X21870112Y-25559580D01*
X21870112Y-25559580D02*
X21822493Y-25607200D01*
X21822493Y-25607200D02*
X21727255Y-25654819D01*
X21727255Y-25654819D02*
X21536779Y-25654819D01*
X21536779Y-25654819D02*
X21441541Y-25607200D01*
X22346303Y-24988152D02*
X22346303Y-25988152D01*
X22346303Y-25035771D02*
X22441541Y-24988152D01*
X22441541Y-24988152D02*
X22632017Y-24988152D01*
X22632017Y-24988152D02*
X22727255Y-25035771D01*
X22727255Y-25035771D02*
X22774874Y-25083390D01*
X22774874Y-25083390D02*
X22822493Y-25178628D01*
X22822493Y-25178628D02*
X22822493Y-25464342D01*
X22822493Y-25464342D02*
X22774874Y-25559580D01*
X22774874Y-25559580D02*
X22727255Y-25607200D01*
X22727255Y-25607200D02*
X22632017Y-25654819D01*
X22632017Y-25654819D02*
X22441541Y-25654819D01*
X22441541Y-25654819D02*
X22346303Y-25607200D01*
X23632017Y-25607200D02*
X23536779Y-25654819D01*
X23536779Y-25654819D02*
X23346303Y-25654819D01*
X23346303Y-25654819D02*
X23251065Y-25607200D01*
X23251065Y-25607200D02*
X23203446Y-25511961D01*
X23203446Y-25511961D02*
X23203446Y-25131009D01*
X23203446Y-25131009D02*
X23251065Y-25035771D01*
X23251065Y-25035771D02*
X23346303Y-24988152D01*
X23346303Y-24988152D02*
X23536779Y-24988152D01*
X23536779Y-24988152D02*
X23632017Y-25035771D01*
X23632017Y-25035771D02*
X23679636Y-25131009D01*
X23679636Y-25131009D02*
X23679636Y-25226247D01*
X23679636Y-25226247D02*
X23203446Y-25321485D01*
X24108208Y-25654819D02*
X24108208Y-24988152D01*
X24108208Y-25178628D02*
X24155827Y-25083390D01*
X24155827Y-25083390D02*
X24203446Y-25035771D01*
X24203446Y-25035771D02*
X24298684Y-24988152D01*
X24298684Y-24988152D02*
X24393922Y-24988152D01*
X25393923Y-24654819D02*
X26012970Y-24654819D01*
X26012970Y-24654819D02*
X25679637Y-25035771D01*
X25679637Y-25035771D02*
X25822494Y-25035771D01*
X25822494Y-25035771D02*
X25917732Y-25083390D01*
X25917732Y-25083390D02*
X25965351Y-25131009D01*
X25965351Y-25131009D02*
X26012970Y-25226247D01*
X26012970Y-25226247D02*
X26012970Y-25464342D01*
X26012970Y-25464342D02*
X25965351Y-25559580D01*
X25965351Y-25559580D02*
X25917732Y-25607200D01*
X25917732Y-25607200D02*
X25822494Y-25654819D01*
X25822494Y-25654819D02*
X25536780Y-25654819D01*
X25536780Y-25654819D02*
X25441542Y-25607200D01*
X25441542Y-25607200D02*
X25393923Y-25559580D01*
X26917732Y-24654819D02*
X26441542Y-24654819D01*
X26441542Y-24654819D02*
X26393923Y-25131009D01*
X26393923Y-25131009D02*
X26441542Y-25083390D01*
X26441542Y-25083390D02*
X26536780Y-25035771D01*
X26536780Y-25035771D02*
X26774875Y-25035771D01*
X26774875Y-25035771D02*
X26870113Y-25083390D01*
X26870113Y-25083390D02*
X26917732Y-25131009D01*
X26917732Y-25131009D02*
X26965351Y-25226247D01*
X26965351Y-25226247D02*
X26965351Y-25464342D01*
X26965351Y-25464342D02*
X26917732Y-25559580D01*
X26917732Y-25559580D02*
X26870113Y-25607200D01*
X26870113Y-25607200D02*
X26774875Y-25654819D01*
X26774875Y-25654819D02*
X26536780Y-25654819D01*
X26536780Y-25654819D02*
X26441542Y-25607200D01*
X26441542Y-25607200D02*
X26393923Y-25559580D01*
X28584399Y-24988152D02*
X28584399Y-25654819D01*
X28155828Y-24988152D02*
X28155828Y-25511961D01*
X28155828Y-25511961D02*
X28203447Y-25607200D01*
X28203447Y-25607200D02*
X28298685Y-25654819D01*
X28298685Y-25654819D02*
X28441542Y-25654819D01*
X28441542Y-25654819D02*
X28536780Y-25607200D01*
X28536780Y-25607200D02*
X28584399Y-25559580D01*
X29060590Y-25654819D02*
X29060590Y-24988152D01*
X29060590Y-25083390D02*
X29108209Y-25035771D01*
X29108209Y-25035771D02*
X29203447Y-24988152D01*
X29203447Y-24988152D02*
X29346304Y-24988152D01*
X29346304Y-24988152D02*
X29441542Y-25035771D01*
X29441542Y-25035771D02*
X29489161Y-25131009D01*
X29489161Y-25131009D02*
X29489161Y-25654819D01*
X29489161Y-25131009D02*
X29536780Y-25035771D01*
X29536780Y-25035771D02*
X29632018Y-24988152D01*
X29632018Y-24988152D02*
X29774875Y-24988152D01*
X29774875Y-24988152D02*
X29870114Y-25035771D01*
X29870114Y-25035771D02*
X29917733Y-25131009D01*
X29917733Y-25131009D02*
X29917733Y-25654819D01*
D12*
X100079481Y-160835238D02*
X100100433Y-160772381D01*
X100100433Y-160772381D02*
X100100433Y-160667619D01*
X100100433Y-160667619D02*
X100079481Y-160625714D01*
X100079481Y-160625714D02*
X100058528Y-160604762D01*
X100058528Y-160604762D02*
X100016623Y-160583809D01*
X100016623Y-160583809D02*
X99974719Y-160583809D01*
X99974719Y-160583809D02*
X99932814Y-160604762D01*
X99932814Y-160604762D02*
X99911861Y-160625714D01*
X99911861Y-160625714D02*
X99890909Y-160667619D01*
X99890909Y-160667619D02*
X99869957Y-160751428D01*
X99869957Y-160751428D02*
X99849004Y-160793333D01*
X99849004Y-160793333D02*
X99828052Y-160814286D01*
X99828052Y-160814286D02*
X99786147Y-160835238D01*
X99786147Y-160835238D02*
X99744242Y-160835238D01*
X99744242Y-160835238D02*
X99702338Y-160814286D01*
X99702338Y-160814286D02*
X99681385Y-160793333D01*
X99681385Y-160793333D02*
X99660433Y-160751428D01*
X99660433Y-160751428D02*
X99660433Y-160646667D01*
X99660433Y-160646667D02*
X99681385Y-160583809D01*
X99660433Y-160437142D02*
X99660433Y-160164761D01*
X99660433Y-160164761D02*
X99828052Y-160311428D01*
X99828052Y-160311428D02*
X99828052Y-160248571D01*
X99828052Y-160248571D02*
X99849004Y-160206666D01*
X99849004Y-160206666D02*
X99869957Y-160185714D01*
X99869957Y-160185714D02*
X99911861Y-160164761D01*
X99911861Y-160164761D02*
X100016623Y-160164761D01*
X100016623Y-160164761D02*
X100058528Y-160185714D01*
X100058528Y-160185714D02*
X100079481Y-160206666D01*
X100079481Y-160206666D02*
X100100433Y-160248571D01*
X100100433Y-160248571D02*
X100100433Y-160374285D01*
X100100433Y-160374285D02*
X100079481Y-160416190D01*
X100079481Y-160416190D02*
X100058528Y-160437142D01*
X100079481Y-139835238D02*
X100100433Y-139772381D01*
X100100433Y-139772381D02*
X100100433Y-139667619D01*
X100100433Y-139667619D02*
X100079481Y-139625714D01*
X100079481Y-139625714D02*
X100058528Y-139604762D01*
X100058528Y-139604762D02*
X100016623Y-139583809D01*
X100016623Y-139583809D02*
X99974719Y-139583809D01*
X99974719Y-139583809D02*
X99932814Y-139604762D01*
X99932814Y-139604762D02*
X99911861Y-139625714D01*
X99911861Y-139625714D02*
X99890909Y-139667619D01*
X99890909Y-139667619D02*
X99869957Y-139751428D01*
X99869957Y-139751428D02*
X99849004Y-139793333D01*
X99849004Y-139793333D02*
X99828052Y-139814286D01*
X99828052Y-139814286D02*
X99786147Y-139835238D01*
X99786147Y-139835238D02*
X99744242Y-139835238D01*
X99744242Y-139835238D02*
X99702338Y-139814286D01*
X99702338Y-139814286D02*
X99681385Y-139793333D01*
X99681385Y-139793333D02*
X99660433Y-139751428D01*
X99660433Y-139751428D02*
X99660433Y-139646667D01*
X99660433Y-139646667D02*
X99681385Y-139583809D01*
X99660433Y-139437142D02*
X99660433Y-139143809D01*
X99660433Y-139143809D02*
X100100433Y-139332380D01*
X58079481Y-139835238D02*
X58100433Y-139772381D01*
X58100433Y-139772381D02*
X58100433Y-139667619D01*
X58100433Y-139667619D02*
X58079481Y-139625714D01*
X58079481Y-139625714D02*
X58058528Y-139604762D01*
X58058528Y-139604762D02*
X58016623Y-139583809D01*
X58016623Y-139583809D02*
X57974719Y-139583809D01*
X57974719Y-139583809D02*
X57932814Y-139604762D01*
X57932814Y-139604762D02*
X57911861Y-139625714D01*
X57911861Y-139625714D02*
X57890909Y-139667619D01*
X57890909Y-139667619D02*
X57869957Y-139751428D01*
X57869957Y-139751428D02*
X57849004Y-139793333D01*
X57849004Y-139793333D02*
X57828052Y-139814286D01*
X57828052Y-139814286D02*
X57786147Y-139835238D01*
X57786147Y-139835238D02*
X57744242Y-139835238D01*
X57744242Y-139835238D02*
X57702338Y-139814286D01*
X57702338Y-139814286D02*
X57681385Y-139793333D01*
X57681385Y-139793333D02*
X57660433Y-139751428D01*
X57660433Y-139751428D02*
X57660433Y-139646667D01*
X57660433Y-139646667D02*
X57681385Y-139583809D01*
X57660433Y-139185714D02*
X57660433Y-139395238D01*
X57660433Y-139395238D02*
X57869957Y-139416190D01*
X57869957Y-139416190D02*
X57849004Y-139395238D01*
X57849004Y-139395238D02*
X57828052Y-139353333D01*
X57828052Y-139353333D02*
X57828052Y-139248571D01*
X57828052Y-139248571D02*
X57849004Y-139206666D01*
X57849004Y-139206666D02*
X57869957Y-139185714D01*
X57869957Y-139185714D02*
X57911861Y-139164761D01*
X57911861Y-139164761D02*
X58016623Y-139164761D01*
X58016623Y-139164761D02*
X58058528Y-139185714D01*
X58058528Y-139185714D02*
X58079481Y-139206666D01*
X58079481Y-139206666D02*
X58100433Y-139248571D01*
X58100433Y-139248571D02*
X58100433Y-139353333D01*
X58100433Y-139353333D02*
X58079481Y-139395238D01*
X58079481Y-139395238D02*
X58058528Y-139416190D01*
D13*
X127388869Y-171772622D02*
X127305535Y-171772622D01*
X127305535Y-171903574D02*
X127305535Y-171653574D01*
X127305535Y-171653574D02*
X127424583Y-171653574D01*
X127519821Y-171903574D02*
X127519821Y-171653574D01*
X127519821Y-171653574D02*
X127579345Y-171653574D01*
X127579345Y-171653574D02*
X127615059Y-171665479D01*
X127615059Y-171665479D02*
X127638869Y-171689289D01*
X127638869Y-171689289D02*
X127650774Y-171713098D01*
X127650774Y-171713098D02*
X127662678Y-171760717D01*
X127662678Y-171760717D02*
X127662678Y-171796431D01*
X127662678Y-171796431D02*
X127650774Y-171844050D01*
X127650774Y-171844050D02*
X127638869Y-171867860D01*
X127638869Y-171867860D02*
X127615059Y-171891670D01*
X127615059Y-171891670D02*
X127579345Y-171903574D01*
X127579345Y-171903574D02*
X127519821Y-171903574D01*
X127746012Y-171653574D02*
X127900774Y-171653574D01*
X127900774Y-171653574D02*
X127817440Y-171748812D01*
X127817440Y-171748812D02*
X127853155Y-171748812D01*
X127853155Y-171748812D02*
X127876964Y-171760717D01*
X127876964Y-171760717D02*
X127888869Y-171772622D01*
X127888869Y-171772622D02*
X127900774Y-171796431D01*
X127900774Y-171796431D02*
X127900774Y-171855955D01*
X127900774Y-171855955D02*
X127888869Y-171879765D01*
X127888869Y-171879765D02*
X127876964Y-171891670D01*
X127876964Y-171891670D02*
X127853155Y-171903574D01*
X127853155Y-171903574D02*
X127781726Y-171903574D01*
X127781726Y-171903574D02*
X127757917Y-171891670D01*
X127757917Y-171891670D02*
X127746012Y-171879765D01*
D12*
X58079481Y-160835238D02*
X58100433Y-160772381D01*
X58100433Y-160772381D02*
X58100433Y-160667619D01*
X58100433Y-160667619D02*
X58079481Y-160625714D01*
X58079481Y-160625714D02*
X58058528Y-160604762D01*
X58058528Y-160604762D02*
X58016623Y-160583809D01*
X58016623Y-160583809D02*
X57974719Y-160583809D01*
X57974719Y-160583809D02*
X57932814Y-160604762D01*
X57932814Y-160604762D02*
X57911861Y-160625714D01*
X57911861Y-160625714D02*
X57890909Y-160667619D01*
X57890909Y-160667619D02*
X57869957Y-160751428D01*
X57869957Y-160751428D02*
X57849004Y-160793333D01*
X57849004Y-160793333D02*
X57828052Y-160814286D01*
X57828052Y-160814286D02*
X57786147Y-160835238D01*
X57786147Y-160835238D02*
X57744242Y-160835238D01*
X57744242Y-160835238D02*
X57702338Y-160814286D01*
X57702338Y-160814286D02*
X57681385Y-160793333D01*
X57681385Y-160793333D02*
X57660433Y-160751428D01*
X57660433Y-160751428D02*
X57660433Y-160646667D01*
X57660433Y-160646667D02*
X57681385Y-160583809D01*
X58100433Y-160164761D02*
X58100433Y-160416190D01*
X58100433Y-160290476D02*
X57660433Y-160290476D01*
X57660433Y-160290476D02*
X57723290Y-160332380D01*
X57723290Y-160332380D02*
X57765195Y-160374285D01*
X57765195Y-160374285D02*
X57786147Y-160416190D01*
D13*
X44138869Y-165572622D02*
X44055535Y-165572622D01*
X44055535Y-165703574D02*
X44055535Y-165453574D01*
X44055535Y-165453574D02*
X44174583Y-165453574D01*
X44269821Y-165703574D02*
X44269821Y-165453574D01*
X44269821Y-165453574D02*
X44329345Y-165453574D01*
X44329345Y-165453574D02*
X44365059Y-165465479D01*
X44365059Y-165465479D02*
X44388869Y-165489289D01*
X44388869Y-165489289D02*
X44400774Y-165513098D01*
X44400774Y-165513098D02*
X44412678Y-165560717D01*
X44412678Y-165560717D02*
X44412678Y-165596431D01*
X44412678Y-165596431D02*
X44400774Y-165644050D01*
X44400774Y-165644050D02*
X44388869Y-165667860D01*
X44388869Y-165667860D02*
X44365059Y-165691670D01*
X44365059Y-165691670D02*
X44329345Y-165703574D01*
X44329345Y-165703574D02*
X44269821Y-165703574D01*
X44650774Y-165703574D02*
X44507917Y-165703574D01*
X44579345Y-165703574D02*
X44579345Y-165453574D01*
X44579345Y-165453574D02*
X44555536Y-165489289D01*
X44555536Y-165489289D02*
X44531726Y-165513098D01*
X44531726Y-165513098D02*
X44507917Y-165525003D01*
D12*
X79079481Y-119044762D02*
X79100433Y-118981905D01*
X79100433Y-118981905D02*
X79100433Y-118877143D01*
X79100433Y-118877143D02*
X79079481Y-118835238D01*
X79079481Y-118835238D02*
X79058528Y-118814286D01*
X79058528Y-118814286D02*
X79016623Y-118793333D01*
X79016623Y-118793333D02*
X78974719Y-118793333D01*
X78974719Y-118793333D02*
X78932814Y-118814286D01*
X78932814Y-118814286D02*
X78911861Y-118835238D01*
X78911861Y-118835238D02*
X78890909Y-118877143D01*
X78890909Y-118877143D02*
X78869957Y-118960952D01*
X78869957Y-118960952D02*
X78849004Y-119002857D01*
X78849004Y-119002857D02*
X78828052Y-119023810D01*
X78828052Y-119023810D02*
X78786147Y-119044762D01*
X78786147Y-119044762D02*
X78744242Y-119044762D01*
X78744242Y-119044762D02*
X78702338Y-119023810D01*
X78702338Y-119023810D02*
X78681385Y-119002857D01*
X78681385Y-119002857D02*
X78660433Y-118960952D01*
X78660433Y-118960952D02*
X78660433Y-118856191D01*
X78660433Y-118856191D02*
X78681385Y-118793333D01*
X79100433Y-118374285D02*
X79100433Y-118625714D01*
X79100433Y-118500000D02*
X78660433Y-118500000D01*
X78660433Y-118500000D02*
X78723290Y-118541904D01*
X78723290Y-118541904D02*
X78765195Y-118583809D01*
X78765195Y-118583809D02*
X78786147Y-118625714D01*
X78660433Y-118101904D02*
X78660433Y-118059999D01*
X78660433Y-118059999D02*
X78681385Y-118018095D01*
X78681385Y-118018095D02*
X78702338Y-117997142D01*
X78702338Y-117997142D02*
X78744242Y-117976190D01*
X78744242Y-117976190D02*
X78828052Y-117955237D01*
X78828052Y-117955237D02*
X78932814Y-117955237D01*
X78932814Y-117955237D02*
X79016623Y-117976190D01*
X79016623Y-117976190D02*
X79058528Y-117997142D01*
X79058528Y-117997142D02*
X79079481Y-118018095D01*
X79079481Y-118018095D02*
X79100433Y-118059999D01*
X79100433Y-118059999D02*
X79100433Y-118101904D01*
X79100433Y-118101904D02*
X79079481Y-118143809D01*
X79079481Y-118143809D02*
X79058528Y-118164761D01*
X79058528Y-118164761D02*
X79016623Y-118185714D01*
X79016623Y-118185714D02*
X78932814Y-118206666D01*
X78932814Y-118206666D02*
X78828052Y-118206666D01*
X78828052Y-118206666D02*
X78744242Y-118185714D01*
X78744242Y-118185714D02*
X78702338Y-118164761D01*
X78702338Y-118164761D02*
X78681385Y-118143809D01*
X78681385Y-118143809D02*
X78660433Y-118101904D01*
D13*
X50488869Y-104672622D02*
X50405535Y-104672622D01*
X50405535Y-104803574D02*
X50405535Y-104553574D01*
X50405535Y-104553574D02*
X50524583Y-104553574D01*
X50619821Y-104803574D02*
X50619821Y-104553574D01*
X50619821Y-104553574D02*
X50679345Y-104553574D01*
X50679345Y-104553574D02*
X50715059Y-104565479D01*
X50715059Y-104565479D02*
X50738869Y-104589289D01*
X50738869Y-104589289D02*
X50750774Y-104613098D01*
X50750774Y-104613098D02*
X50762678Y-104660717D01*
X50762678Y-104660717D02*
X50762678Y-104696431D01*
X50762678Y-104696431D02*
X50750774Y-104744050D01*
X50750774Y-104744050D02*
X50738869Y-104767860D01*
X50738869Y-104767860D02*
X50715059Y-104791670D01*
X50715059Y-104791670D02*
X50679345Y-104803574D01*
X50679345Y-104803574D02*
X50619821Y-104803574D01*
X50988869Y-104553574D02*
X50869821Y-104553574D01*
X50869821Y-104553574D02*
X50857917Y-104672622D01*
X50857917Y-104672622D02*
X50869821Y-104660717D01*
X50869821Y-104660717D02*
X50893631Y-104648812D01*
X50893631Y-104648812D02*
X50953155Y-104648812D01*
X50953155Y-104648812D02*
X50976964Y-104660717D01*
X50976964Y-104660717D02*
X50988869Y-104672622D01*
X50988869Y-104672622D02*
X51000774Y-104696431D01*
X51000774Y-104696431D02*
X51000774Y-104755955D01*
X51000774Y-104755955D02*
X50988869Y-104779765D01*
X50988869Y-104779765D02*
X50976964Y-104791670D01*
X50976964Y-104791670D02*
X50953155Y-104803574D01*
X50953155Y-104803574D02*
X50893631Y-104803574D01*
X50893631Y-104803574D02*
X50869821Y-104791670D01*
X50869821Y-104791670D02*
X50857917Y-104779765D01*
D12*
X121079481Y-160835238D02*
X121100433Y-160772381D01*
X121100433Y-160772381D02*
X121100433Y-160667619D01*
X121100433Y-160667619D02*
X121079481Y-160625714D01*
X121079481Y-160625714D02*
X121058528Y-160604762D01*
X121058528Y-160604762D02*
X121016623Y-160583809D01*
X121016623Y-160583809D02*
X120974719Y-160583809D01*
X120974719Y-160583809D02*
X120932814Y-160604762D01*
X120932814Y-160604762D02*
X120911861Y-160625714D01*
X120911861Y-160625714D02*
X120890909Y-160667619D01*
X120890909Y-160667619D02*
X120869957Y-160751428D01*
X120869957Y-160751428D02*
X120849004Y-160793333D01*
X120849004Y-160793333D02*
X120828052Y-160814286D01*
X120828052Y-160814286D02*
X120786147Y-160835238D01*
X120786147Y-160835238D02*
X120744242Y-160835238D01*
X120744242Y-160835238D02*
X120702338Y-160814286D01*
X120702338Y-160814286D02*
X120681385Y-160793333D01*
X120681385Y-160793333D02*
X120660433Y-160751428D01*
X120660433Y-160751428D02*
X120660433Y-160646667D01*
X120660433Y-160646667D02*
X120681385Y-160583809D01*
X120807100Y-160206666D02*
X121100433Y-160206666D01*
X120639481Y-160311428D02*
X120953766Y-160416190D01*
X120953766Y-160416190D02*
X120953766Y-160143809D01*
X100079481Y-119044762D02*
X100100433Y-118981905D01*
X100100433Y-118981905D02*
X100100433Y-118877143D01*
X100100433Y-118877143D02*
X100079481Y-118835238D01*
X100079481Y-118835238D02*
X100058528Y-118814286D01*
X100058528Y-118814286D02*
X100016623Y-118793333D01*
X100016623Y-118793333D02*
X99974719Y-118793333D01*
X99974719Y-118793333D02*
X99932814Y-118814286D01*
X99932814Y-118814286D02*
X99911861Y-118835238D01*
X99911861Y-118835238D02*
X99890909Y-118877143D01*
X99890909Y-118877143D02*
X99869957Y-118960952D01*
X99869957Y-118960952D02*
X99849004Y-119002857D01*
X99849004Y-119002857D02*
X99828052Y-119023810D01*
X99828052Y-119023810D02*
X99786147Y-119044762D01*
X99786147Y-119044762D02*
X99744242Y-119044762D01*
X99744242Y-119044762D02*
X99702338Y-119023810D01*
X99702338Y-119023810D02*
X99681385Y-119002857D01*
X99681385Y-119002857D02*
X99660433Y-118960952D01*
X99660433Y-118960952D02*
X99660433Y-118856191D01*
X99660433Y-118856191D02*
X99681385Y-118793333D01*
X100100433Y-118374285D02*
X100100433Y-118625714D01*
X100100433Y-118500000D02*
X99660433Y-118500000D01*
X99660433Y-118500000D02*
X99723290Y-118541904D01*
X99723290Y-118541904D02*
X99765195Y-118583809D01*
X99765195Y-118583809D02*
X99786147Y-118625714D01*
X100100433Y-117955237D02*
X100100433Y-118206666D01*
X100100433Y-118080952D02*
X99660433Y-118080952D01*
X99660433Y-118080952D02*
X99723290Y-118122856D01*
X99723290Y-118122856D02*
X99765195Y-118164761D01*
X99765195Y-118164761D02*
X99786147Y-118206666D01*
X79079481Y-139835238D02*
X79100433Y-139772381D01*
X79100433Y-139772381D02*
X79100433Y-139667619D01*
X79100433Y-139667619D02*
X79079481Y-139625714D01*
X79079481Y-139625714D02*
X79058528Y-139604762D01*
X79058528Y-139604762D02*
X79016623Y-139583809D01*
X79016623Y-139583809D02*
X78974719Y-139583809D01*
X78974719Y-139583809D02*
X78932814Y-139604762D01*
X78932814Y-139604762D02*
X78911861Y-139625714D01*
X78911861Y-139625714D02*
X78890909Y-139667619D01*
X78890909Y-139667619D02*
X78869957Y-139751428D01*
X78869957Y-139751428D02*
X78849004Y-139793333D01*
X78849004Y-139793333D02*
X78828052Y-139814286D01*
X78828052Y-139814286D02*
X78786147Y-139835238D01*
X78786147Y-139835238D02*
X78744242Y-139835238D01*
X78744242Y-139835238D02*
X78702338Y-139814286D01*
X78702338Y-139814286D02*
X78681385Y-139793333D01*
X78681385Y-139793333D02*
X78660433Y-139751428D01*
X78660433Y-139751428D02*
X78660433Y-139646667D01*
X78660433Y-139646667D02*
X78681385Y-139583809D01*
X78660433Y-139206666D02*
X78660433Y-139290476D01*
X78660433Y-139290476D02*
X78681385Y-139332380D01*
X78681385Y-139332380D02*
X78702338Y-139353333D01*
X78702338Y-139353333D02*
X78765195Y-139395238D01*
X78765195Y-139395238D02*
X78849004Y-139416190D01*
X78849004Y-139416190D02*
X79016623Y-139416190D01*
X79016623Y-139416190D02*
X79058528Y-139395238D01*
X79058528Y-139395238D02*
X79079481Y-139374285D01*
X79079481Y-139374285D02*
X79100433Y-139332380D01*
X79100433Y-139332380D02*
X79100433Y-139248571D01*
X79100433Y-139248571D02*
X79079481Y-139206666D01*
X79079481Y-139206666D02*
X79058528Y-139185714D01*
X79058528Y-139185714D02*
X79016623Y-139164761D01*
X79016623Y-139164761D02*
X78911861Y-139164761D01*
X78911861Y-139164761D02*
X78869957Y-139185714D01*
X78869957Y-139185714D02*
X78849004Y-139206666D01*
X78849004Y-139206666D02*
X78828052Y-139248571D01*
X78828052Y-139248571D02*
X78828052Y-139332380D01*
X78828052Y-139332380D02*
X78849004Y-139374285D01*
X78849004Y-139374285D02*
X78869957Y-139395238D01*
X78869957Y-139395238D02*
X78911861Y-139416190D01*
X121079481Y-139835238D02*
X121100433Y-139772381D01*
X121100433Y-139772381D02*
X121100433Y-139667619D01*
X121100433Y-139667619D02*
X121079481Y-139625714D01*
X121079481Y-139625714D02*
X121058528Y-139604762D01*
X121058528Y-139604762D02*
X121016623Y-139583809D01*
X121016623Y-139583809D02*
X120974719Y-139583809D01*
X120974719Y-139583809D02*
X120932814Y-139604762D01*
X120932814Y-139604762D02*
X120911861Y-139625714D01*
X120911861Y-139625714D02*
X120890909Y-139667619D01*
X120890909Y-139667619D02*
X120869957Y-139751428D01*
X120869957Y-139751428D02*
X120849004Y-139793333D01*
X120849004Y-139793333D02*
X120828052Y-139814286D01*
X120828052Y-139814286D02*
X120786147Y-139835238D01*
X120786147Y-139835238D02*
X120744242Y-139835238D01*
X120744242Y-139835238D02*
X120702338Y-139814286D01*
X120702338Y-139814286D02*
X120681385Y-139793333D01*
X120681385Y-139793333D02*
X120660433Y-139751428D01*
X120660433Y-139751428D02*
X120660433Y-139646667D01*
X120660433Y-139646667D02*
X120681385Y-139583809D01*
X120849004Y-139332380D02*
X120828052Y-139374285D01*
X120828052Y-139374285D02*
X120807100Y-139395238D01*
X120807100Y-139395238D02*
X120765195Y-139416190D01*
X120765195Y-139416190D02*
X120744242Y-139416190D01*
X120744242Y-139416190D02*
X120702338Y-139395238D01*
X120702338Y-139395238D02*
X120681385Y-139374285D01*
X120681385Y-139374285D02*
X120660433Y-139332380D01*
X120660433Y-139332380D02*
X120660433Y-139248571D01*
X120660433Y-139248571D02*
X120681385Y-139206666D01*
X120681385Y-139206666D02*
X120702338Y-139185714D01*
X120702338Y-139185714D02*
X120744242Y-139164761D01*
X120744242Y-139164761D02*
X120765195Y-139164761D01*
X120765195Y-139164761D02*
X120807100Y-139185714D01*
X120807100Y-139185714D02*
X120828052Y-139206666D01*
X120828052Y-139206666D02*
X120849004Y-139248571D01*
X120849004Y-139248571D02*
X120849004Y-139332380D01*
X120849004Y-139332380D02*
X120869957Y-139374285D01*
X120869957Y-139374285D02*
X120890909Y-139395238D01*
X120890909Y-139395238D02*
X120932814Y-139416190D01*
X120932814Y-139416190D02*
X121016623Y-139416190D01*
X121016623Y-139416190D02*
X121058528Y-139395238D01*
X121058528Y-139395238D02*
X121079481Y-139374285D01*
X121079481Y-139374285D02*
X121100433Y-139332380D01*
X121100433Y-139332380D02*
X121100433Y-139248571D01*
X121100433Y-139248571D02*
X121079481Y-139206666D01*
X121079481Y-139206666D02*
X121058528Y-139185714D01*
X121058528Y-139185714D02*
X121016623Y-139164761D01*
X121016623Y-139164761D02*
X120932814Y-139164761D01*
X120932814Y-139164761D02*
X120890909Y-139185714D01*
X120890909Y-139185714D02*
X120869957Y-139206666D01*
X120869957Y-139206666D02*
X120849004Y-139248571D01*
X79079481Y-160835238D02*
X79100433Y-160772381D01*
X79100433Y-160772381D02*
X79100433Y-160667619D01*
X79100433Y-160667619D02*
X79079481Y-160625714D01*
X79079481Y-160625714D02*
X79058528Y-160604762D01*
X79058528Y-160604762D02*
X79016623Y-160583809D01*
X79016623Y-160583809D02*
X78974719Y-160583809D01*
X78974719Y-160583809D02*
X78932814Y-160604762D01*
X78932814Y-160604762D02*
X78911861Y-160625714D01*
X78911861Y-160625714D02*
X78890909Y-160667619D01*
X78890909Y-160667619D02*
X78869957Y-160751428D01*
X78869957Y-160751428D02*
X78849004Y-160793333D01*
X78849004Y-160793333D02*
X78828052Y-160814286D01*
X78828052Y-160814286D02*
X78786147Y-160835238D01*
X78786147Y-160835238D02*
X78744242Y-160835238D01*
X78744242Y-160835238D02*
X78702338Y-160814286D01*
X78702338Y-160814286D02*
X78681385Y-160793333D01*
X78681385Y-160793333D02*
X78660433Y-160751428D01*
X78660433Y-160751428D02*
X78660433Y-160646667D01*
X78660433Y-160646667D02*
X78681385Y-160583809D01*
X78702338Y-160416190D02*
X78681385Y-160395238D01*
X78681385Y-160395238D02*
X78660433Y-160353333D01*
X78660433Y-160353333D02*
X78660433Y-160248571D01*
X78660433Y-160248571D02*
X78681385Y-160206666D01*
X78681385Y-160206666D02*
X78702338Y-160185714D01*
X78702338Y-160185714D02*
X78744242Y-160164761D01*
X78744242Y-160164761D02*
X78786147Y-160164761D01*
X78786147Y-160164761D02*
X78849004Y-160185714D01*
X78849004Y-160185714D02*
X79100433Y-160437142D01*
X79100433Y-160437142D02*
X79100433Y-160164761D01*
X58079481Y-118835238D02*
X58100433Y-118772381D01*
X58100433Y-118772381D02*
X58100433Y-118667619D01*
X58100433Y-118667619D02*
X58079481Y-118625714D01*
X58079481Y-118625714D02*
X58058528Y-118604762D01*
X58058528Y-118604762D02*
X58016623Y-118583809D01*
X58016623Y-118583809D02*
X57974719Y-118583809D01*
X57974719Y-118583809D02*
X57932814Y-118604762D01*
X57932814Y-118604762D02*
X57911861Y-118625714D01*
X57911861Y-118625714D02*
X57890909Y-118667619D01*
X57890909Y-118667619D02*
X57869957Y-118751428D01*
X57869957Y-118751428D02*
X57849004Y-118793333D01*
X57849004Y-118793333D02*
X57828052Y-118814286D01*
X57828052Y-118814286D02*
X57786147Y-118835238D01*
X57786147Y-118835238D02*
X57744242Y-118835238D01*
X57744242Y-118835238D02*
X57702338Y-118814286D01*
X57702338Y-118814286D02*
X57681385Y-118793333D01*
X57681385Y-118793333D02*
X57660433Y-118751428D01*
X57660433Y-118751428D02*
X57660433Y-118646667D01*
X57660433Y-118646667D02*
X57681385Y-118583809D01*
X58100433Y-118374285D02*
X58100433Y-118290476D01*
X58100433Y-118290476D02*
X58079481Y-118248571D01*
X58079481Y-118248571D02*
X58058528Y-118227619D01*
X58058528Y-118227619D02*
X57995671Y-118185714D01*
X57995671Y-118185714D02*
X57911861Y-118164761D01*
X57911861Y-118164761D02*
X57744242Y-118164761D01*
X57744242Y-118164761D02*
X57702338Y-118185714D01*
X57702338Y-118185714D02*
X57681385Y-118206666D01*
X57681385Y-118206666D02*
X57660433Y-118248571D01*
X57660433Y-118248571D02*
X57660433Y-118332380D01*
X57660433Y-118332380D02*
X57681385Y-118374285D01*
X57681385Y-118374285D02*
X57702338Y-118395238D01*
X57702338Y-118395238D02*
X57744242Y-118416190D01*
X57744242Y-118416190D02*
X57849004Y-118416190D01*
X57849004Y-118416190D02*
X57890909Y-118395238D01*
X57890909Y-118395238D02*
X57911861Y-118374285D01*
X57911861Y-118374285D02*
X57932814Y-118332380D01*
X57932814Y-118332380D02*
X57932814Y-118248571D01*
X57932814Y-118248571D02*
X57911861Y-118206666D01*
X57911861Y-118206666D02*
X57890909Y-118185714D01*
X57890909Y-118185714D02*
X57849004Y-118164761D01*
D11*
X119909523Y-118674200D02*
X120023809Y-118712295D01*
X120023809Y-118712295D02*
X120214285Y-118712295D01*
X120214285Y-118712295D02*
X120290476Y-118674200D01*
X120290476Y-118674200D02*
X120328571Y-118636104D01*
X120328571Y-118636104D02*
X120366666Y-118559914D01*
X120366666Y-118559914D02*
X120366666Y-118483723D01*
X120366666Y-118483723D02*
X120328571Y-118407533D01*
X120328571Y-118407533D02*
X120290476Y-118369438D01*
X120290476Y-118369438D02*
X120214285Y-118331342D01*
X120214285Y-118331342D02*
X120061904Y-118293247D01*
X120061904Y-118293247D02*
X119985714Y-118255152D01*
X119985714Y-118255152D02*
X119947619Y-118217057D01*
X119947619Y-118217057D02*
X119909523Y-118140866D01*
X119909523Y-118140866D02*
X119909523Y-118064676D01*
X119909523Y-118064676D02*
X119947619Y-117988485D01*
X119947619Y-117988485D02*
X119985714Y-117950390D01*
X119985714Y-117950390D02*
X120061904Y-117912295D01*
X120061904Y-117912295D02*
X120252381Y-117912295D01*
X120252381Y-117912295D02*
X120366666Y-117950390D01*
X120671428Y-117988485D02*
X120709524Y-117950390D01*
X120709524Y-117950390D02*
X120785714Y-117912295D01*
X120785714Y-117912295D02*
X120976190Y-117912295D01*
X120976190Y-117912295D02*
X121052381Y-117950390D01*
X121052381Y-117950390D02*
X121090476Y-117988485D01*
X121090476Y-117988485D02*
X121128571Y-118064676D01*
X121128571Y-118064676D02*
X121128571Y-118140866D01*
X121128571Y-118140866D02*
X121090476Y-118255152D01*
X121090476Y-118255152D02*
X120633333Y-118712295D01*
X120633333Y-118712295D02*
X121128571Y-118712295D01*
X121623810Y-117912295D02*
X121700000Y-117912295D01*
X121700000Y-117912295D02*
X121776191Y-117950390D01*
X121776191Y-117950390D02*
X121814286Y-117988485D01*
X121814286Y-117988485D02*
X121852381Y-118064676D01*
X121852381Y-118064676D02*
X121890476Y-118217057D01*
X121890476Y-118217057D02*
X121890476Y-118407533D01*
X121890476Y-118407533D02*
X121852381Y-118559914D01*
X121852381Y-118559914D02*
X121814286Y-118636104D01*
X121814286Y-118636104D02*
X121776191Y-118674200D01*
X121776191Y-118674200D02*
X121700000Y-118712295D01*
X121700000Y-118712295D02*
X121623810Y-118712295D01*
X121623810Y-118712295D02*
X121547619Y-118674200D01*
X121547619Y-118674200D02*
X121509524Y-118636104D01*
X121509524Y-118636104D02*
X121471429Y-118559914D01*
X121471429Y-118559914D02*
X121433333Y-118407533D01*
X121433333Y-118407533D02*
X121433333Y-118217057D01*
X121433333Y-118217057D02*
X121471429Y-118064676D01*
X121471429Y-118064676D02*
X121509524Y-117988485D01*
X121509524Y-117988485D02*
X121547619Y-117950390D01*
X121547619Y-117950390D02*
X121623810Y-117912295D01*
G04 #@! TO.C,S3*
X104300000Y-156000000D02*
X95500000Y-156000000D01*
X95600000Y-156300000D02*
X104200000Y-156300000D01*
X99400000Y-158500000D02*
X100358581Y-158500000D01*
X100500000Y-158641419D02*
X100500000Y-159900000D01*
X100500000Y-159900000D02*
X101800000Y-159900000D01*
X99300000Y-159900000D02*
X99300000Y-158600000D01*
X98000000Y-159900000D02*
X99300000Y-159900000D01*
X101900000Y-160000000D02*
X101900000Y-161000000D01*
X97900000Y-161000000D02*
X97900000Y-160000000D01*
X101800000Y-161100000D02*
X100500000Y-161100000D01*
X100500000Y-161100000D02*
X100500000Y-162400000D01*
X99300000Y-161100000D02*
X98000000Y-161100000D01*
X102700000Y-161400000D02*
X102700000Y-163000000D01*
X95200000Y-161900000D02*
X95200000Y-159100000D01*
X94900000Y-161900000D02*
X94900000Y-159100000D01*
X99300000Y-162400000D02*
X99300000Y-161100000D01*
X100400000Y-162500000D02*
X99400000Y-162500000D01*
D10*
X102900000Y-163000000D02*
X102700000Y-163000000D01*
D11*
X102400000Y-163300000D02*
X101800000Y-163300000D01*
D10*
X102400000Y-163500000D02*
X102400000Y-163300000D01*
D11*
X104600000Y-163800000D02*
X104600000Y-162200000D01*
X104900000Y-164600000D02*
X104900000Y-159100000D01*
X104600000Y-164800000D02*
X104600000Y-159100000D01*
X99300000Y-165700000D02*
X95600000Y-165700000D01*
X95500000Y-166000000D02*
X99300000Y-166000000D01*
D14*
X101900000Y-153000000D02*
X97900000Y-153000000D01*
X97900000Y-153000000D02*
X97900000Y-153500000D01*
X97900000Y-153500000D02*
X101900000Y-153500000D01*
X101900000Y-153500000D02*
X101900000Y-153000000D01*
D10*
X102900000Y-161100000D02*
X102700000Y-161100000D01*
X102700000Y-161100000D02*
X102700000Y-163000000D01*
X102700000Y-163000000D02*
X102900000Y-163000000D01*
X102900000Y-163000000D02*
X102900000Y-161100000D01*
G36*
X102900000Y-161100000D02*
G01*
X102700000Y-161100000D01*
X102700000Y-163000000D01*
X102900000Y-163000000D01*
X102900000Y-161100000D01*
G37*
X102400000Y-163500000D02*
X101800000Y-163500000D01*
X101800000Y-163500000D02*
X101800000Y-163300000D01*
X101800000Y-163300000D02*
X102400000Y-163300000D01*
X102400000Y-163300000D02*
X102400000Y-163500000D01*
G36*
X102400000Y-163500000D02*
G01*
X101800000Y-163500000D01*
X101800000Y-163300000D01*
X102400000Y-163300000D01*
X102400000Y-163500000D01*
G37*
D11*
X100500000Y-158641419D02*
G75*
G03*
X100358581Y-158500000I-141420J-1D01*
G01*
X99400000Y-158500000D02*
G75*
G03*
X99300000Y-158600000I-1J-99999D01*
G01*
X101900000Y-160000000D02*
G75*
G03*
X101800000Y-159900000I-99999J1D01*
G01*
X98000000Y-159900000D02*
G75*
G03*
X97900000Y-160000000I-1J-99999D01*
G01*
X101800000Y-161100000D02*
G75*
G03*
X101900000Y-161000000I0J100000D01*
G01*
X97900000Y-161000000D02*
G75*
G03*
X98000000Y-161100000I100000J0D01*
G01*
X100900000Y-163000000D02*
G75*
G03*
X102400000Y-161500000I0J1500000D01*
G01*
X100400000Y-162500000D02*
G75*
G03*
X100500000Y-162400000I0J100000D01*
G01*
X99300000Y-162400000D02*
G75*
G03*
X99400000Y-162500000I100000J0D01*
G01*
D10*
X102400000Y-163500000D02*
G75*
G03*
X102900000Y-163000000I0J500000D01*
G01*
X102400000Y-163400000D02*
G75*
G03*
X102800000Y-163000000I0J400000D01*
G01*
D11*
X102400000Y-163300000D02*
G75*
G03*
X102700000Y-163000000I0J300000D01*
G01*
X95200000Y-165300000D02*
G75*
G03*
X95600000Y-165700000I400000J0D01*
G01*
G04 #@! TO.C,S7*
X104300000Y-135000000D02*
X95500000Y-135000000D01*
X95600000Y-135300000D02*
X104200000Y-135300000D01*
X99400000Y-137500000D02*
X100358581Y-137500000D01*
X100500000Y-137641419D02*
X100500000Y-138900000D01*
X100500000Y-138900000D02*
X101800000Y-138900000D01*
X99300000Y-138900000D02*
X99300000Y-137600000D01*
X98000000Y-138900000D02*
X99300000Y-138900000D01*
X101900000Y-139000000D02*
X101900000Y-140000000D01*
X97900000Y-140000000D02*
X97900000Y-139000000D01*
X101800000Y-140100000D02*
X100500000Y-140100000D01*
X100500000Y-140100000D02*
X100500000Y-141400000D01*
X99300000Y-140100000D02*
X98000000Y-140100000D01*
X102700000Y-140400000D02*
X102700000Y-142000000D01*
X95200000Y-140900000D02*
X95200000Y-138100000D01*
X94900000Y-140900000D02*
X94900000Y-138100000D01*
X99300000Y-141400000D02*
X99300000Y-140100000D01*
X100400000Y-141500000D02*
X99400000Y-141500000D01*
D10*
X102900000Y-142000000D02*
X102700000Y-142000000D01*
D11*
X102400000Y-142300000D02*
X101800000Y-142300000D01*
D10*
X102400000Y-142500000D02*
X102400000Y-142300000D01*
D11*
X104600000Y-142800000D02*
X104600000Y-141200000D01*
X104900000Y-143600000D02*
X104900000Y-138100000D01*
X104600000Y-143800000D02*
X104600000Y-138100000D01*
X99300000Y-144700000D02*
X95600000Y-144700000D01*
X95500000Y-145000000D02*
X99300000Y-145000000D01*
D14*
X101900000Y-132000000D02*
X97900000Y-132000000D01*
X97900000Y-132000000D02*
X97900000Y-132500000D01*
X97900000Y-132500000D02*
X101900000Y-132500000D01*
X101900000Y-132500000D02*
X101900000Y-132000000D01*
D10*
X102900000Y-140100000D02*
X102700000Y-140100000D01*
X102700000Y-140100000D02*
X102700000Y-142000000D01*
X102700000Y-142000000D02*
X102900000Y-142000000D01*
X102900000Y-142000000D02*
X102900000Y-140100000D01*
G36*
X102900000Y-140100000D02*
G01*
X102700000Y-140100000D01*
X102700000Y-142000000D01*
X102900000Y-142000000D01*
X102900000Y-140100000D01*
G37*
X102400000Y-142500000D02*
X101800000Y-142500000D01*
X101800000Y-142500000D02*
X101800000Y-142300000D01*
X101800000Y-142300000D02*
X102400000Y-142300000D01*
X102400000Y-142300000D02*
X102400000Y-142500000D01*
G36*
X102400000Y-142500000D02*
G01*
X101800000Y-142500000D01*
X101800000Y-142300000D01*
X102400000Y-142300000D01*
X102400000Y-142500000D01*
G37*
D11*
X100500000Y-137641419D02*
G75*
G03*
X100358581Y-137500000I-141420J-1D01*
G01*
X99400000Y-137500000D02*
G75*
G03*
X99300000Y-137600000I-1J-99999D01*
G01*
X101900000Y-139000000D02*
G75*
G03*
X101800000Y-138900000I-99999J1D01*
G01*
X98000000Y-138900000D02*
G75*
G03*
X97900000Y-139000000I-1J-99999D01*
G01*
X101800000Y-140100000D02*
G75*
G03*
X101900000Y-140000000I0J100000D01*
G01*
X97900000Y-140000000D02*
G75*
G03*
X98000000Y-140100000I100000J0D01*
G01*
X100900000Y-142000000D02*
G75*
G03*
X102400000Y-140500000I0J1500000D01*
G01*
X100400000Y-141500000D02*
G75*
G03*
X100500000Y-141400000I0J100000D01*
G01*
X99300000Y-141400000D02*
G75*
G03*
X99400000Y-141500000I100000J0D01*
G01*
D10*
X102400000Y-142500000D02*
G75*
G03*
X102900000Y-142000000I0J500000D01*
G01*
X102400000Y-142400000D02*
G75*
G03*
X102800000Y-142000000I0J400000D01*
G01*
D11*
X102400000Y-142300000D02*
G75*
G03*
X102700000Y-142000000I0J300000D01*
G01*
X95200000Y-144300000D02*
G75*
G03*
X95600000Y-144700000I400000J0D01*
G01*
G04 #@! TO.C,S5*
X62300000Y-135000000D02*
X53500000Y-135000000D01*
X53600000Y-135300000D02*
X62200000Y-135300000D01*
X57400000Y-137500000D02*
X58358581Y-137500000D01*
X58500000Y-137641419D02*
X58500000Y-138900000D01*
X58500000Y-138900000D02*
X59800000Y-138900000D01*
X57300000Y-138900000D02*
X57300000Y-137600000D01*
X56000000Y-138900000D02*
X57300000Y-138900000D01*
X59900000Y-139000000D02*
X59900000Y-140000000D01*
X55900000Y-140000000D02*
X55900000Y-139000000D01*
X59800000Y-140100000D02*
X58500000Y-140100000D01*
X58500000Y-140100000D02*
X58500000Y-141400000D01*
X57300000Y-140100000D02*
X56000000Y-140100000D01*
X60700000Y-140400000D02*
X60700000Y-142000000D01*
X53200000Y-140900000D02*
X53200000Y-138100000D01*
X52900000Y-140900000D02*
X52900000Y-138100000D01*
X57300000Y-141400000D02*
X57300000Y-140100000D01*
X58400000Y-141500000D02*
X57400000Y-141500000D01*
D10*
X60900000Y-142000000D02*
X60700000Y-142000000D01*
D11*
X60400000Y-142300000D02*
X59800000Y-142300000D01*
D10*
X60400000Y-142500000D02*
X60400000Y-142300000D01*
D11*
X62600000Y-142800000D02*
X62600000Y-141200000D01*
X62900000Y-143600000D02*
X62900000Y-138100000D01*
X62600000Y-143800000D02*
X62600000Y-138100000D01*
X57300000Y-144700000D02*
X53600000Y-144700000D01*
X53500000Y-145000000D02*
X57300000Y-145000000D01*
D14*
X59900000Y-132000000D02*
X55900000Y-132000000D01*
X55900000Y-132000000D02*
X55900000Y-132500000D01*
X55900000Y-132500000D02*
X59900000Y-132500000D01*
X59900000Y-132500000D02*
X59900000Y-132000000D01*
D10*
X60900000Y-140100000D02*
X60700000Y-140100000D01*
X60700000Y-140100000D02*
X60700000Y-142000000D01*
X60700000Y-142000000D02*
X60900000Y-142000000D01*
X60900000Y-142000000D02*
X60900000Y-140100000D01*
G36*
X60900000Y-140100000D02*
G01*
X60700000Y-140100000D01*
X60700000Y-142000000D01*
X60900000Y-142000000D01*
X60900000Y-140100000D01*
G37*
X60400000Y-142500000D02*
X59800000Y-142500000D01*
X59800000Y-142500000D02*
X59800000Y-142300000D01*
X59800000Y-142300000D02*
X60400000Y-142300000D01*
X60400000Y-142300000D02*
X60400000Y-142500000D01*
G36*
X60400000Y-142500000D02*
G01*
X59800000Y-142500000D01*
X59800000Y-142300000D01*
X60400000Y-142300000D01*
X60400000Y-142500000D01*
G37*
D11*
X58500000Y-137641419D02*
G75*
G03*
X58358581Y-137500000I-141420J-1D01*
G01*
X57400000Y-137500000D02*
G75*
G03*
X57300000Y-137600000I-1J-99999D01*
G01*
X59900000Y-139000000D02*
G75*
G03*
X59800000Y-138900000I-99999J1D01*
G01*
X56000000Y-138900000D02*
G75*
G03*
X55900000Y-139000000I-1J-99999D01*
G01*
X59800000Y-140100000D02*
G75*
G03*
X59900000Y-140000000I0J100000D01*
G01*
X55900000Y-140000000D02*
G75*
G03*
X56000000Y-140100000I100000J0D01*
G01*
X58900000Y-142000000D02*
G75*
G03*
X60400000Y-140500000I0J1500000D01*
G01*
X58400000Y-141500000D02*
G75*
G03*
X58500000Y-141400000I0J100000D01*
G01*
X57300000Y-141400000D02*
G75*
G03*
X57400000Y-141500000I100000J0D01*
G01*
D10*
X60400000Y-142500000D02*
G75*
G03*
X60900000Y-142000000I0J500000D01*
G01*
X60400000Y-142400000D02*
G75*
G03*
X60800000Y-142000000I0J400000D01*
G01*
D11*
X60400000Y-142300000D02*
G75*
G03*
X60700000Y-142000000I0J300000D01*
G01*
X53200000Y-144300000D02*
G75*
G03*
X53600000Y-144700000I400000J0D01*
G01*
D10*
G04 #@! TO.C,FD3*
X128097202Y-171790000D02*
G75*
G03*
X128097202Y-171790000I-500000J0D01*
G01*
D11*
G04 #@! TO.C,S1*
X62300000Y-156000000D02*
X53500000Y-156000000D01*
X53600000Y-156300000D02*
X62200000Y-156300000D01*
X57400000Y-158500000D02*
X58358581Y-158500000D01*
X58500000Y-158641419D02*
X58500000Y-159900000D01*
X58500000Y-159900000D02*
X59800000Y-159900000D01*
X57300000Y-159900000D02*
X57300000Y-158600000D01*
X56000000Y-159900000D02*
X57300000Y-159900000D01*
X59900000Y-160000000D02*
X59900000Y-161000000D01*
X55900000Y-161000000D02*
X55900000Y-160000000D01*
X59800000Y-161100000D02*
X58500000Y-161100000D01*
X58500000Y-161100000D02*
X58500000Y-162400000D01*
X57300000Y-161100000D02*
X56000000Y-161100000D01*
X60700000Y-161400000D02*
X60700000Y-163000000D01*
X53200000Y-161900000D02*
X53200000Y-159100000D01*
X52900000Y-161900000D02*
X52900000Y-159100000D01*
X57300000Y-162400000D02*
X57300000Y-161100000D01*
X58400000Y-162500000D02*
X57400000Y-162500000D01*
D10*
X60900000Y-163000000D02*
X60700000Y-163000000D01*
D11*
X60400000Y-163300000D02*
X59800000Y-163300000D01*
D10*
X60400000Y-163500000D02*
X60400000Y-163300000D01*
D11*
X62600000Y-163800000D02*
X62600000Y-162200000D01*
X62900000Y-164600000D02*
X62900000Y-159100000D01*
X62600000Y-164800000D02*
X62600000Y-159100000D01*
X57300000Y-165700000D02*
X53600000Y-165700000D01*
X53500000Y-166000000D02*
X57300000Y-166000000D01*
D14*
X59900000Y-153000000D02*
X55900000Y-153000000D01*
X55900000Y-153000000D02*
X55900000Y-153500000D01*
X55900000Y-153500000D02*
X59900000Y-153500000D01*
X59900000Y-153500000D02*
X59900000Y-153000000D01*
D10*
X60900000Y-161100000D02*
X60700000Y-161100000D01*
X60700000Y-161100000D02*
X60700000Y-163000000D01*
X60700000Y-163000000D02*
X60900000Y-163000000D01*
X60900000Y-163000000D02*
X60900000Y-161100000D01*
G36*
X60900000Y-161100000D02*
G01*
X60700000Y-161100000D01*
X60700000Y-163000000D01*
X60900000Y-163000000D01*
X60900000Y-161100000D01*
G37*
X60400000Y-163500000D02*
X59800000Y-163500000D01*
X59800000Y-163500000D02*
X59800000Y-163300000D01*
X59800000Y-163300000D02*
X60400000Y-163300000D01*
X60400000Y-163300000D02*
X60400000Y-163500000D01*
G36*
X60400000Y-163500000D02*
G01*
X59800000Y-163500000D01*
X59800000Y-163300000D01*
X60400000Y-163300000D01*
X60400000Y-163500000D01*
G37*
D11*
X58500000Y-158641419D02*
G75*
G03*
X58358581Y-158500000I-141420J-1D01*
G01*
X57400000Y-158500000D02*
G75*
G03*
X57300000Y-158600000I-1J-99999D01*
G01*
X59900000Y-160000000D02*
G75*
G03*
X59800000Y-159900000I-99999J1D01*
G01*
X56000000Y-159900000D02*
G75*
G03*
X55900000Y-160000000I-1J-99999D01*
G01*
X59800000Y-161100000D02*
G75*
G03*
X59900000Y-161000000I0J100000D01*
G01*
X55900000Y-161000000D02*
G75*
G03*
X56000000Y-161100000I100000J0D01*
G01*
X58900000Y-163000000D02*
G75*
G03*
X60400000Y-161500000I0J1500000D01*
G01*
X58400000Y-162500000D02*
G75*
G03*
X58500000Y-162400000I0J100000D01*
G01*
X57300000Y-162400000D02*
G75*
G03*
X57400000Y-162500000I100000J0D01*
G01*
D10*
X60400000Y-163500000D02*
G75*
G03*
X60900000Y-163000000I0J500000D01*
G01*
X60400000Y-163400000D02*
G75*
G03*
X60800000Y-163000000I0J400000D01*
G01*
D11*
X60400000Y-163300000D02*
G75*
G03*
X60700000Y-163000000I0J300000D01*
G01*
X53200000Y-165300000D02*
G75*
G03*
X53600000Y-165700000I400000J0D01*
G01*
D10*
G04 #@! TO.C,FD1*
X44847202Y-165590000D02*
G75*
G03*
X44847202Y-165590000I-500000J0D01*
G01*
D11*
G04 #@! TO.C,S10*
X83300000Y-114000000D02*
X74500000Y-114000000D01*
X74600000Y-114300000D02*
X83200000Y-114300000D01*
X78400000Y-116500000D02*
X79358581Y-116500000D01*
X79500000Y-116641419D02*
X79500000Y-117900000D01*
X79500000Y-117900000D02*
X80800000Y-117900000D01*
X78300000Y-117900000D02*
X78300000Y-116600000D01*
X77000000Y-117900000D02*
X78300000Y-117900000D01*
X80900000Y-118000000D02*
X80900000Y-119000000D01*
X76900000Y-119000000D02*
X76900000Y-118000000D01*
X80800000Y-119100000D02*
X79500000Y-119100000D01*
X79500000Y-119100000D02*
X79500000Y-120400000D01*
X78300000Y-119100000D02*
X77000000Y-119100000D01*
X81700000Y-119400000D02*
X81700000Y-121000000D01*
X74200000Y-119900000D02*
X74200000Y-117100000D01*
X73900000Y-119900000D02*
X73900000Y-117100000D01*
X78300000Y-120400000D02*
X78300000Y-119100000D01*
X79400000Y-120500000D02*
X78400000Y-120500000D01*
D10*
X81900000Y-121000000D02*
X81700000Y-121000000D01*
D11*
X81400000Y-121300000D02*
X80800000Y-121300000D01*
D10*
X81400000Y-121500000D02*
X81400000Y-121300000D01*
D11*
X83600000Y-121800000D02*
X83600000Y-120200000D01*
X83900000Y-122600000D02*
X83900000Y-117100000D01*
X83600000Y-122800000D02*
X83600000Y-117100000D01*
X78300000Y-123700000D02*
X74600000Y-123700000D01*
X74500000Y-124000000D02*
X78300000Y-124000000D01*
D14*
X80900000Y-111000000D02*
X76900000Y-111000000D01*
X76900000Y-111000000D02*
X76900000Y-111500000D01*
X76900000Y-111500000D02*
X80900000Y-111500000D01*
X80900000Y-111500000D02*
X80900000Y-111000000D01*
D10*
X81900000Y-119100000D02*
X81700000Y-119100000D01*
X81700000Y-119100000D02*
X81700000Y-121000000D01*
X81700000Y-121000000D02*
X81900000Y-121000000D01*
X81900000Y-121000000D02*
X81900000Y-119100000D01*
G36*
X81900000Y-119100000D02*
G01*
X81700000Y-119100000D01*
X81700000Y-121000000D01*
X81900000Y-121000000D01*
X81900000Y-119100000D01*
G37*
X81400000Y-121500000D02*
X80800000Y-121500000D01*
X80800000Y-121500000D02*
X80800000Y-121300000D01*
X80800000Y-121300000D02*
X81400000Y-121300000D01*
X81400000Y-121300000D02*
X81400000Y-121500000D01*
G36*
X81400000Y-121500000D02*
G01*
X80800000Y-121500000D01*
X80800000Y-121300000D01*
X81400000Y-121300000D01*
X81400000Y-121500000D01*
G37*
D11*
X79500000Y-116641419D02*
G75*
G03*
X79358581Y-116500000I-141420J-1D01*
G01*
X78400000Y-116500000D02*
G75*
G03*
X78300000Y-116600000I-1J-99999D01*
G01*
X80900000Y-118000000D02*
G75*
G03*
X80800000Y-117900000I-99999J1D01*
G01*
X77000000Y-117900000D02*
G75*
G03*
X76900000Y-118000000I-1J-99999D01*
G01*
X80800000Y-119100000D02*
G75*
G03*
X80900000Y-119000000I0J100000D01*
G01*
X76900000Y-119000000D02*
G75*
G03*
X77000000Y-119100000I100000J0D01*
G01*
X79900000Y-121000000D02*
G75*
G03*
X81400000Y-119500000I0J1500000D01*
G01*
X79400000Y-120500000D02*
G75*
G03*
X79500000Y-120400000I0J100000D01*
G01*
X78300000Y-120400000D02*
G75*
G03*
X78400000Y-120500000I100000J0D01*
G01*
D10*
X81400000Y-121500000D02*
G75*
G03*
X81900000Y-121000000I0J500000D01*
G01*
X81400000Y-121400000D02*
G75*
G03*
X81800000Y-121000000I0J400000D01*
G01*
D11*
X81400000Y-121300000D02*
G75*
G03*
X81700000Y-121000000I0J300000D01*
G01*
X74200000Y-123300000D02*
G75*
G03*
X74600000Y-123700000I400000J0D01*
G01*
D10*
G04 #@! TO.C,FD5*
X51197202Y-104690000D02*
G75*
G03*
X51197202Y-104690000I-500000J0D01*
G01*
D11*
G04 #@! TO.C,S4*
X125300000Y-156000000D02*
X116500000Y-156000000D01*
X116600000Y-156300000D02*
X125200000Y-156300000D01*
X120400000Y-158500000D02*
X121358581Y-158500000D01*
X121500000Y-158641419D02*
X121500000Y-159900000D01*
X121500000Y-159900000D02*
X122800000Y-159900000D01*
X120300000Y-159900000D02*
X120300000Y-158600000D01*
X119000000Y-159900000D02*
X120300000Y-159900000D01*
X122900000Y-160000000D02*
X122900000Y-161000000D01*
X118900000Y-161000000D02*
X118900000Y-160000000D01*
X122800000Y-161100000D02*
X121500000Y-161100000D01*
X121500000Y-161100000D02*
X121500000Y-162400000D01*
X120300000Y-161100000D02*
X119000000Y-161100000D01*
X123700000Y-161400000D02*
X123700000Y-163000000D01*
X116200000Y-161900000D02*
X116200000Y-159100000D01*
X115900000Y-161900000D02*
X115900000Y-159100000D01*
X120300000Y-162400000D02*
X120300000Y-161100000D01*
X121400000Y-162500000D02*
X120400000Y-162500000D01*
D10*
X123900000Y-163000000D02*
X123700000Y-163000000D01*
D11*
X123400000Y-163300000D02*
X122800000Y-163300000D01*
D10*
X123400000Y-163500000D02*
X123400000Y-163300000D01*
D11*
X125600000Y-163800000D02*
X125600000Y-162200000D01*
X125900000Y-164600000D02*
X125900000Y-159100000D01*
X125600000Y-164800000D02*
X125600000Y-159100000D01*
X120300000Y-165700000D02*
X116600000Y-165700000D01*
X116500000Y-166000000D02*
X120300000Y-166000000D01*
D14*
X122900000Y-153000000D02*
X118900000Y-153000000D01*
X118900000Y-153000000D02*
X118900000Y-153500000D01*
X118900000Y-153500000D02*
X122900000Y-153500000D01*
X122900000Y-153500000D02*
X122900000Y-153000000D01*
D10*
X123900000Y-161100000D02*
X123700000Y-161100000D01*
X123700000Y-161100000D02*
X123700000Y-163000000D01*
X123700000Y-163000000D02*
X123900000Y-163000000D01*
X123900000Y-163000000D02*
X123900000Y-161100000D01*
G36*
X123900000Y-161100000D02*
G01*
X123700000Y-161100000D01*
X123700000Y-163000000D01*
X123900000Y-163000000D01*
X123900000Y-161100000D01*
G37*
X123400000Y-163500000D02*
X122800000Y-163500000D01*
X122800000Y-163500000D02*
X122800000Y-163300000D01*
X122800000Y-163300000D02*
X123400000Y-163300000D01*
X123400000Y-163300000D02*
X123400000Y-163500000D01*
G36*
X123400000Y-163500000D02*
G01*
X122800000Y-163500000D01*
X122800000Y-163300000D01*
X123400000Y-163300000D01*
X123400000Y-163500000D01*
G37*
D11*
X121500000Y-158641419D02*
G75*
G03*
X121358581Y-158500000I-141420J-1D01*
G01*
X120400000Y-158500000D02*
G75*
G03*
X120300000Y-158600000I-1J-99999D01*
G01*
X122900000Y-160000000D02*
G75*
G03*
X122800000Y-159900000I-99999J1D01*
G01*
X119000000Y-159900000D02*
G75*
G03*
X118900000Y-160000000I-1J-99999D01*
G01*
X122800000Y-161100000D02*
G75*
G03*
X122900000Y-161000000I0J100000D01*
G01*
X118900000Y-161000000D02*
G75*
G03*
X119000000Y-161100000I100000J0D01*
G01*
X121900000Y-163000000D02*
G75*
G03*
X123400000Y-161500000I0J1500000D01*
G01*
X121400000Y-162500000D02*
G75*
G03*
X121500000Y-162400000I0J100000D01*
G01*
X120300000Y-162400000D02*
G75*
G03*
X120400000Y-162500000I100000J0D01*
G01*
D10*
X123400000Y-163500000D02*
G75*
G03*
X123900000Y-163000000I0J500000D01*
G01*
X123400000Y-163400000D02*
G75*
G03*
X123800000Y-163000000I0J400000D01*
G01*
D11*
X123400000Y-163300000D02*
G75*
G03*
X123700000Y-163000000I0J300000D01*
G01*
X116200000Y-165300000D02*
G75*
G03*
X116600000Y-165700000I400000J0D01*
G01*
G04 #@! TO.C,S11*
X104300000Y-114000000D02*
X95500000Y-114000000D01*
X95600000Y-114300000D02*
X104200000Y-114300000D01*
X99400000Y-116500000D02*
X100358581Y-116500000D01*
X100500000Y-116641419D02*
X100500000Y-117900000D01*
X100500000Y-117900000D02*
X101800000Y-117900000D01*
X99300000Y-117900000D02*
X99300000Y-116600000D01*
X98000000Y-117900000D02*
X99300000Y-117900000D01*
X101900000Y-118000000D02*
X101900000Y-119000000D01*
X97900000Y-119000000D02*
X97900000Y-118000000D01*
X101800000Y-119100000D02*
X100500000Y-119100000D01*
X100500000Y-119100000D02*
X100500000Y-120400000D01*
X99300000Y-119100000D02*
X98000000Y-119100000D01*
X102700000Y-119400000D02*
X102700000Y-121000000D01*
X95200000Y-119900000D02*
X95200000Y-117100000D01*
X94900000Y-119900000D02*
X94900000Y-117100000D01*
X99300000Y-120400000D02*
X99300000Y-119100000D01*
X100400000Y-120500000D02*
X99400000Y-120500000D01*
D10*
X102900000Y-121000000D02*
X102700000Y-121000000D01*
D11*
X102400000Y-121300000D02*
X101800000Y-121300000D01*
D10*
X102400000Y-121500000D02*
X102400000Y-121300000D01*
D11*
X104600000Y-121800000D02*
X104600000Y-120200000D01*
X104900000Y-122600000D02*
X104900000Y-117100000D01*
X104600000Y-122800000D02*
X104600000Y-117100000D01*
X99300000Y-123700000D02*
X95600000Y-123700000D01*
X95500000Y-124000000D02*
X99300000Y-124000000D01*
D14*
X101900000Y-111000000D02*
X97900000Y-111000000D01*
X97900000Y-111000000D02*
X97900000Y-111500000D01*
X97900000Y-111500000D02*
X101900000Y-111500000D01*
X101900000Y-111500000D02*
X101900000Y-111000000D01*
D10*
X102900000Y-119100000D02*
X102700000Y-119100000D01*
X102700000Y-119100000D02*
X102700000Y-121000000D01*
X102700000Y-121000000D02*
X102900000Y-121000000D01*
X102900000Y-121000000D02*
X102900000Y-119100000D01*
G36*
X102900000Y-119100000D02*
G01*
X102700000Y-119100000D01*
X102700000Y-121000000D01*
X102900000Y-121000000D01*
X102900000Y-119100000D01*
G37*
X102400000Y-121500000D02*
X101800000Y-121500000D01*
X101800000Y-121500000D02*
X101800000Y-121300000D01*
X101800000Y-121300000D02*
X102400000Y-121300000D01*
X102400000Y-121300000D02*
X102400000Y-121500000D01*
G36*
X102400000Y-121500000D02*
G01*
X101800000Y-121500000D01*
X101800000Y-121300000D01*
X102400000Y-121300000D01*
X102400000Y-121500000D01*
G37*
D11*
X100500000Y-116641419D02*
G75*
G03*
X100358581Y-116500000I-141420J-1D01*
G01*
X99400000Y-116500000D02*
G75*
G03*
X99300000Y-116600000I-1J-99999D01*
G01*
X101900000Y-118000000D02*
G75*
G03*
X101800000Y-117900000I-99999J1D01*
G01*
X98000000Y-117900000D02*
G75*
G03*
X97900000Y-118000000I-1J-99999D01*
G01*
X101800000Y-119100000D02*
G75*
G03*
X101900000Y-119000000I0J100000D01*
G01*
X97900000Y-119000000D02*
G75*
G03*
X98000000Y-119100000I100000J0D01*
G01*
X100900000Y-121000000D02*
G75*
G03*
X102400000Y-119500000I0J1500000D01*
G01*
X100400000Y-120500000D02*
G75*
G03*
X100500000Y-120400000I0J100000D01*
G01*
X99300000Y-120400000D02*
G75*
G03*
X99400000Y-120500000I100000J0D01*
G01*
D10*
X102400000Y-121500000D02*
G75*
G03*
X102900000Y-121000000I0J500000D01*
G01*
X102400000Y-121400000D02*
G75*
G03*
X102800000Y-121000000I0J400000D01*
G01*
D11*
X102400000Y-121300000D02*
G75*
G03*
X102700000Y-121000000I0J300000D01*
G01*
X95200000Y-123300000D02*
G75*
G03*
X95600000Y-123700000I400000J0D01*
G01*
G04 #@! TO.C,S6*
X83300000Y-135000000D02*
X74500000Y-135000000D01*
X74600000Y-135300000D02*
X83200000Y-135300000D01*
X78400000Y-137500000D02*
X79358581Y-137500000D01*
X79500000Y-137641419D02*
X79500000Y-138900000D01*
X79500000Y-138900000D02*
X80800000Y-138900000D01*
X78300000Y-138900000D02*
X78300000Y-137600000D01*
X77000000Y-138900000D02*
X78300000Y-138900000D01*
X80900000Y-139000000D02*
X80900000Y-140000000D01*
X76900000Y-140000000D02*
X76900000Y-139000000D01*
X80800000Y-140100000D02*
X79500000Y-140100000D01*
X79500000Y-140100000D02*
X79500000Y-141400000D01*
X78300000Y-140100000D02*
X77000000Y-140100000D01*
X81700000Y-140400000D02*
X81700000Y-142000000D01*
X74200000Y-140900000D02*
X74200000Y-138100000D01*
X73900000Y-140900000D02*
X73900000Y-138100000D01*
X78300000Y-141400000D02*
X78300000Y-140100000D01*
X79400000Y-141500000D02*
X78400000Y-141500000D01*
D10*
X81900000Y-142000000D02*
X81700000Y-142000000D01*
D11*
X81400000Y-142300000D02*
X80800000Y-142300000D01*
D10*
X81400000Y-142500000D02*
X81400000Y-142300000D01*
D11*
X83600000Y-142800000D02*
X83600000Y-141200000D01*
X83900000Y-143600000D02*
X83900000Y-138100000D01*
X83600000Y-143800000D02*
X83600000Y-138100000D01*
X78300000Y-144700000D02*
X74600000Y-144700000D01*
X74500000Y-145000000D02*
X78300000Y-145000000D01*
D14*
X80900000Y-132000000D02*
X76900000Y-132000000D01*
X76900000Y-132000000D02*
X76900000Y-132500000D01*
X76900000Y-132500000D02*
X80900000Y-132500000D01*
X80900000Y-132500000D02*
X80900000Y-132000000D01*
D10*
X81900000Y-140100000D02*
X81700000Y-140100000D01*
X81700000Y-140100000D02*
X81700000Y-142000000D01*
X81700000Y-142000000D02*
X81900000Y-142000000D01*
X81900000Y-142000000D02*
X81900000Y-140100000D01*
G36*
X81900000Y-140100000D02*
G01*
X81700000Y-140100000D01*
X81700000Y-142000000D01*
X81900000Y-142000000D01*
X81900000Y-140100000D01*
G37*
X81400000Y-142500000D02*
X80800000Y-142500000D01*
X80800000Y-142500000D02*
X80800000Y-142300000D01*
X80800000Y-142300000D02*
X81400000Y-142300000D01*
X81400000Y-142300000D02*
X81400000Y-142500000D01*
G36*
X81400000Y-142500000D02*
G01*
X80800000Y-142500000D01*
X80800000Y-142300000D01*
X81400000Y-142300000D01*
X81400000Y-142500000D01*
G37*
D11*
X79500000Y-137641419D02*
G75*
G03*
X79358581Y-137500000I-141420J-1D01*
G01*
X78400000Y-137500000D02*
G75*
G03*
X78300000Y-137600000I-1J-99999D01*
G01*
X80900000Y-139000000D02*
G75*
G03*
X80800000Y-138900000I-99999J1D01*
G01*
X77000000Y-138900000D02*
G75*
G03*
X76900000Y-139000000I-1J-99999D01*
G01*
X80800000Y-140100000D02*
G75*
G03*
X80900000Y-140000000I0J100000D01*
G01*
X76900000Y-140000000D02*
G75*
G03*
X77000000Y-140100000I100000J0D01*
G01*
X79900000Y-142000000D02*
G75*
G03*
X81400000Y-140500000I0J1500000D01*
G01*
X79400000Y-141500000D02*
G75*
G03*
X79500000Y-141400000I0J100000D01*
G01*
X78300000Y-141400000D02*
G75*
G03*
X78400000Y-141500000I100000J0D01*
G01*
D10*
X81400000Y-142500000D02*
G75*
G03*
X81900000Y-142000000I0J500000D01*
G01*
X81400000Y-142400000D02*
G75*
G03*
X81800000Y-142000000I0J400000D01*
G01*
D11*
X81400000Y-142300000D02*
G75*
G03*
X81700000Y-142000000I0J300000D01*
G01*
X74200000Y-144300000D02*
G75*
G03*
X74600000Y-144700000I400000J0D01*
G01*
G04 #@! TO.C,S8*
X125300000Y-135000000D02*
X116500000Y-135000000D01*
X116600000Y-135300000D02*
X125200000Y-135300000D01*
X120400000Y-137500000D02*
X121358581Y-137500000D01*
X121500000Y-137641419D02*
X121500000Y-138900000D01*
X121500000Y-138900000D02*
X122800000Y-138900000D01*
X120300000Y-138900000D02*
X120300000Y-137600000D01*
X119000000Y-138900000D02*
X120300000Y-138900000D01*
X122900000Y-139000000D02*
X122900000Y-140000000D01*
X118900000Y-140000000D02*
X118900000Y-139000000D01*
X122800000Y-140100000D02*
X121500000Y-140100000D01*
X121500000Y-140100000D02*
X121500000Y-141400000D01*
X120300000Y-140100000D02*
X119000000Y-140100000D01*
X123700000Y-140400000D02*
X123700000Y-142000000D01*
X116200000Y-140900000D02*
X116200000Y-138100000D01*
X115900000Y-140900000D02*
X115900000Y-138100000D01*
X120300000Y-141400000D02*
X120300000Y-140100000D01*
X121400000Y-141500000D02*
X120400000Y-141500000D01*
D10*
X123900000Y-142000000D02*
X123700000Y-142000000D01*
D11*
X123400000Y-142300000D02*
X122800000Y-142300000D01*
D10*
X123400000Y-142500000D02*
X123400000Y-142300000D01*
D11*
X125600000Y-142800000D02*
X125600000Y-141200000D01*
X125900000Y-143600000D02*
X125900000Y-138100000D01*
X125600000Y-143800000D02*
X125600000Y-138100000D01*
X120300000Y-144700000D02*
X116600000Y-144700000D01*
X116500000Y-145000000D02*
X120300000Y-145000000D01*
D14*
X122900000Y-132000000D02*
X118900000Y-132000000D01*
X118900000Y-132000000D02*
X118900000Y-132500000D01*
X118900000Y-132500000D02*
X122900000Y-132500000D01*
X122900000Y-132500000D02*
X122900000Y-132000000D01*
D10*
X123900000Y-140100000D02*
X123700000Y-140100000D01*
X123700000Y-140100000D02*
X123700000Y-142000000D01*
X123700000Y-142000000D02*
X123900000Y-142000000D01*
X123900000Y-142000000D02*
X123900000Y-140100000D01*
G36*
X123900000Y-140100000D02*
G01*
X123700000Y-140100000D01*
X123700000Y-142000000D01*
X123900000Y-142000000D01*
X123900000Y-140100000D01*
G37*
X123400000Y-142500000D02*
X122800000Y-142500000D01*
X122800000Y-142500000D02*
X122800000Y-142300000D01*
X122800000Y-142300000D02*
X123400000Y-142300000D01*
X123400000Y-142300000D02*
X123400000Y-142500000D01*
G36*
X123400000Y-142500000D02*
G01*
X122800000Y-142500000D01*
X122800000Y-142300000D01*
X123400000Y-142300000D01*
X123400000Y-142500000D01*
G37*
D11*
X121500000Y-137641419D02*
G75*
G03*
X121358581Y-137500000I-141420J-1D01*
G01*
X120400000Y-137500000D02*
G75*
G03*
X120300000Y-137600000I-1J-99999D01*
G01*
X122900000Y-139000000D02*
G75*
G03*
X122800000Y-138900000I-99999J1D01*
G01*
X119000000Y-138900000D02*
G75*
G03*
X118900000Y-139000000I-1J-99999D01*
G01*
X122800000Y-140100000D02*
G75*
G03*
X122900000Y-140000000I0J100000D01*
G01*
X118900000Y-140000000D02*
G75*
G03*
X119000000Y-140100000I100000J0D01*
G01*
X121900000Y-142000000D02*
G75*
G03*
X123400000Y-140500000I0J1500000D01*
G01*
X121400000Y-141500000D02*
G75*
G03*
X121500000Y-141400000I0J100000D01*
G01*
X120300000Y-141400000D02*
G75*
G03*
X120400000Y-141500000I100000J0D01*
G01*
D10*
X123400000Y-142500000D02*
G75*
G03*
X123900000Y-142000000I0J500000D01*
G01*
X123400000Y-142400000D02*
G75*
G03*
X123800000Y-142000000I0J400000D01*
G01*
D11*
X123400000Y-142300000D02*
G75*
G03*
X123700000Y-142000000I0J300000D01*
G01*
X116200000Y-144300000D02*
G75*
G03*
X116600000Y-144700000I400000J0D01*
G01*
G04 #@! TO.C,S2*
X83300000Y-156000000D02*
X74500000Y-156000000D01*
X74600000Y-156300000D02*
X83200000Y-156300000D01*
X78400000Y-158500000D02*
X79358581Y-158500000D01*
X79500000Y-158641419D02*
X79500000Y-159900000D01*
X79500000Y-159900000D02*
X80800000Y-159900000D01*
X78300000Y-159900000D02*
X78300000Y-158600000D01*
X77000000Y-159900000D02*
X78300000Y-159900000D01*
X80900000Y-160000000D02*
X80900000Y-161000000D01*
X76900000Y-161000000D02*
X76900000Y-160000000D01*
X80800000Y-161100000D02*
X79500000Y-161100000D01*
X79500000Y-161100000D02*
X79500000Y-162400000D01*
X78300000Y-161100000D02*
X77000000Y-161100000D01*
X81700000Y-161400000D02*
X81700000Y-163000000D01*
X74200000Y-161900000D02*
X74200000Y-159100000D01*
X73900000Y-161900000D02*
X73900000Y-159100000D01*
X78300000Y-162400000D02*
X78300000Y-161100000D01*
X79400000Y-162500000D02*
X78400000Y-162500000D01*
D10*
X81900000Y-163000000D02*
X81700000Y-163000000D01*
D11*
X81400000Y-163300000D02*
X80800000Y-163300000D01*
D10*
X81400000Y-163500000D02*
X81400000Y-163300000D01*
D11*
X83600000Y-163800000D02*
X83600000Y-162200000D01*
X83900000Y-164600000D02*
X83900000Y-159100000D01*
X83600000Y-164800000D02*
X83600000Y-159100000D01*
X78300000Y-165700000D02*
X74600000Y-165700000D01*
X74500000Y-166000000D02*
X78300000Y-166000000D01*
D14*
X80900000Y-153000000D02*
X76900000Y-153000000D01*
X76900000Y-153000000D02*
X76900000Y-153500000D01*
X76900000Y-153500000D02*
X80900000Y-153500000D01*
X80900000Y-153500000D02*
X80900000Y-153000000D01*
D10*
X81900000Y-161100000D02*
X81700000Y-161100000D01*
X81700000Y-161100000D02*
X81700000Y-163000000D01*
X81700000Y-163000000D02*
X81900000Y-163000000D01*
X81900000Y-163000000D02*
X81900000Y-161100000D01*
G36*
X81900000Y-161100000D02*
G01*
X81700000Y-161100000D01*
X81700000Y-163000000D01*
X81900000Y-163000000D01*
X81900000Y-161100000D01*
G37*
X81400000Y-163500000D02*
X80800000Y-163500000D01*
X80800000Y-163500000D02*
X80800000Y-163300000D01*
X80800000Y-163300000D02*
X81400000Y-163300000D01*
X81400000Y-163300000D02*
X81400000Y-163500000D01*
G36*
X81400000Y-163500000D02*
G01*
X80800000Y-163500000D01*
X80800000Y-163300000D01*
X81400000Y-163300000D01*
X81400000Y-163500000D01*
G37*
D11*
X79500000Y-158641419D02*
G75*
G03*
X79358581Y-158500000I-141420J-1D01*
G01*
X78400000Y-158500000D02*
G75*
G03*
X78300000Y-158600000I-1J-99999D01*
G01*
X80900000Y-160000000D02*
G75*
G03*
X80800000Y-159900000I-99999J1D01*
G01*
X77000000Y-159900000D02*
G75*
G03*
X76900000Y-160000000I-1J-99999D01*
G01*
X80800000Y-161100000D02*
G75*
G03*
X80900000Y-161000000I0J100000D01*
G01*
X76900000Y-161000000D02*
G75*
G03*
X77000000Y-161100000I100000J0D01*
G01*
X79900000Y-163000000D02*
G75*
G03*
X81400000Y-161500000I0J1500000D01*
G01*
X79400000Y-162500000D02*
G75*
G03*
X79500000Y-162400000I0J100000D01*
G01*
X78300000Y-162400000D02*
G75*
G03*
X78400000Y-162500000I100000J0D01*
G01*
D10*
X81400000Y-163500000D02*
G75*
G03*
X81900000Y-163000000I0J500000D01*
G01*
X81400000Y-163400000D02*
G75*
G03*
X81800000Y-163000000I0J400000D01*
G01*
D11*
X81400000Y-163300000D02*
G75*
G03*
X81700000Y-163000000I0J300000D01*
G01*
X74200000Y-165300000D02*
G75*
G03*
X74600000Y-165700000I400000J0D01*
G01*
G04 #@! TO.C,S9*
X62300000Y-114000000D02*
X53500000Y-114000000D01*
X53600000Y-114300000D02*
X62200000Y-114300000D01*
X57400000Y-116500000D02*
X58358581Y-116500000D01*
X58500000Y-116641419D02*
X58500000Y-117900000D01*
X58500000Y-117900000D02*
X59800000Y-117900000D01*
X57300000Y-117900000D02*
X57300000Y-116600000D01*
X56000000Y-117900000D02*
X57300000Y-117900000D01*
X59900000Y-118000000D02*
X59900000Y-119000000D01*
X55900000Y-119000000D02*
X55900000Y-118000000D01*
X59800000Y-119100000D02*
X58500000Y-119100000D01*
X58500000Y-119100000D02*
X58500000Y-120400000D01*
X57300000Y-119100000D02*
X56000000Y-119100000D01*
X60700000Y-119400000D02*
X60700000Y-121000000D01*
X53200000Y-119900000D02*
X53200000Y-117100000D01*
X52900000Y-119900000D02*
X52900000Y-117100000D01*
X57300000Y-120400000D02*
X57300000Y-119100000D01*
X58400000Y-120500000D02*
X57400000Y-120500000D01*
D10*
X60900000Y-121000000D02*
X60700000Y-121000000D01*
D11*
X60400000Y-121300000D02*
X59800000Y-121300000D01*
D10*
X60400000Y-121500000D02*
X60400000Y-121300000D01*
D11*
X62600000Y-121800000D02*
X62600000Y-120200000D01*
X62900000Y-122600000D02*
X62900000Y-117100000D01*
X62600000Y-122800000D02*
X62600000Y-117100000D01*
X57300000Y-123700000D02*
X53600000Y-123700000D01*
X53500000Y-124000000D02*
X57300000Y-124000000D01*
D14*
X59900000Y-111000000D02*
X55900000Y-111000000D01*
X55900000Y-111000000D02*
X55900000Y-111500000D01*
X55900000Y-111500000D02*
X59900000Y-111500000D01*
X59900000Y-111500000D02*
X59900000Y-111000000D01*
D10*
X60900000Y-119100000D02*
X60700000Y-119100000D01*
X60700000Y-119100000D02*
X60700000Y-121000000D01*
X60700000Y-121000000D02*
X60900000Y-121000000D01*
X60900000Y-121000000D02*
X60900000Y-119100000D01*
G36*
X60900000Y-119100000D02*
G01*
X60700000Y-119100000D01*
X60700000Y-121000000D01*
X60900000Y-121000000D01*
X60900000Y-119100000D01*
G37*
X60400000Y-121500000D02*
X59800000Y-121500000D01*
X59800000Y-121500000D02*
X59800000Y-121300000D01*
X59800000Y-121300000D02*
X60400000Y-121300000D01*
X60400000Y-121300000D02*
X60400000Y-121500000D01*
G36*
X60400000Y-121500000D02*
G01*
X59800000Y-121500000D01*
X59800000Y-121300000D01*
X60400000Y-121300000D01*
X60400000Y-121500000D01*
G37*
D11*
X58500000Y-116641419D02*
G75*
G03*
X58358581Y-116500000I-141420J-1D01*
G01*
X57400000Y-116500000D02*
G75*
G03*
X57300000Y-116600000I-1J-99999D01*
G01*
X59900000Y-118000000D02*
G75*
G03*
X59800000Y-117900000I-99999J1D01*
G01*
X56000000Y-117900000D02*
G75*
G03*
X55900000Y-118000000I-1J-99999D01*
G01*
X59800000Y-119100000D02*
G75*
G03*
X59900000Y-119000000I0J100000D01*
G01*
X55900000Y-119000000D02*
G75*
G03*
X56000000Y-119100000I100000J0D01*
G01*
X58900000Y-121000000D02*
G75*
G03*
X60400000Y-119500000I0J1500000D01*
G01*
X58400000Y-120500000D02*
G75*
G03*
X58500000Y-120400000I0J100000D01*
G01*
X57300000Y-120400000D02*
G75*
G03*
X57400000Y-120500000I100000J0D01*
G01*
D10*
X60400000Y-121500000D02*
G75*
G03*
X60900000Y-121000000I0J500000D01*
G01*
X60400000Y-121400000D02*
G75*
G03*
X60800000Y-121000000I0J400000D01*
G01*
D11*
X60400000Y-121300000D02*
G75*
G03*
X60700000Y-121000000I0J300000D01*
G01*
X53200000Y-123300000D02*
G75*
G03*
X53600000Y-123700000I400000J0D01*
G01*
D10*
G04 #@! TO.C,S20*
X114700000Y-116350000D02*
X114700000Y-120450000D01*
X117400000Y-111750000D02*
X119400000Y-111750000D01*
X117600000Y-125150000D02*
X119200000Y-125150000D01*
X121700000Y-125150000D02*
X120100000Y-125150000D01*
X122400000Y-111750000D02*
X124400000Y-111750000D01*
X124200000Y-125150000D02*
X122600000Y-125150000D01*
X127100000Y-116350000D02*
X127100000Y-120450000D01*
X114000000Y-117250000D02*
X114700000Y-117250000D01*
X114700000Y-117250000D02*
X114700000Y-119650000D01*
X114700000Y-119650000D02*
X114000000Y-119650000D01*
X114000000Y-119650000D02*
X114000000Y-117250000D01*
G36*
X114000000Y-117250000D02*
G01*
X114700000Y-117250000D01*
X114700000Y-119650000D01*
X114000000Y-119650000D01*
X114000000Y-117250000D01*
G37*
X118100000Y-111250000D02*
X118700000Y-111250000D01*
X118700000Y-111250000D02*
X118700000Y-111750000D01*
X118700000Y-111750000D02*
X118100000Y-111750000D01*
X118100000Y-111750000D02*
X118100000Y-111250000D01*
G36*
X118100000Y-111250000D02*
G01*
X118700000Y-111250000D01*
X118700000Y-111750000D01*
X118100000Y-111750000D01*
X118100000Y-111250000D01*
G37*
X118100000Y-125150000D02*
X118700000Y-125150000D01*
X118700000Y-125150000D02*
X118700000Y-126150000D01*
X118700000Y-126150000D02*
X118100000Y-126150000D01*
X118100000Y-126150000D02*
X118100000Y-125150000D01*
G36*
X118100000Y-125150000D02*
G01*
X118700000Y-125150000D01*
X118700000Y-126150000D01*
X118100000Y-126150000D01*
X118100000Y-125150000D01*
G37*
X120600000Y-125150000D02*
X121200000Y-125150000D01*
X121200000Y-125150000D02*
X121200000Y-126150000D01*
X121200000Y-126150000D02*
X120600000Y-126150000D01*
X120600000Y-126150000D02*
X120600000Y-125150000D01*
G36*
X120600000Y-125150000D02*
G01*
X121200000Y-125150000D01*
X121200000Y-126150000D01*
X120600000Y-126150000D01*
X120600000Y-125150000D01*
G37*
X123100000Y-111250000D02*
X123700000Y-111250000D01*
X123700000Y-111250000D02*
X123700000Y-111750000D01*
X123700000Y-111750000D02*
X123100000Y-111750000D01*
X123100000Y-111750000D02*
X123100000Y-111250000D01*
G36*
X123100000Y-111250000D02*
G01*
X123700000Y-111250000D01*
X123700000Y-111750000D01*
X123100000Y-111750000D01*
X123100000Y-111250000D01*
G37*
X123100000Y-125150000D02*
X123700000Y-125150000D01*
X123700000Y-125150000D02*
X123700000Y-126150000D01*
X123700000Y-126150000D02*
X123100000Y-126150000D01*
X123100000Y-126150000D02*
X123100000Y-125150000D01*
G36*
X123100000Y-125150000D02*
G01*
X123700000Y-125150000D01*
X123700000Y-126150000D01*
X123100000Y-126150000D01*
X123100000Y-125150000D01*
G37*
X127100000Y-117250000D02*
X127800000Y-117250000D01*
X127800000Y-117250000D02*
X127800000Y-119650000D01*
X127800000Y-119650000D02*
X127100000Y-119650000D01*
X127100000Y-119650000D02*
X127100000Y-117250000D01*
G36*
X127100000Y-117250000D02*
G01*
X127800000Y-117250000D01*
X127800000Y-119650000D01*
X127100000Y-119650000D01*
X127100000Y-117250000D01*
G37*
G04 #@! TD*
M02*
