M48
; DRILL file {KiCad 8.0.7} date 2025-01-08T02:37:32+0200
; FORMAT={-:-/ absolute / inch / decimal}
; #@! TF.CreationDate,2025-01-08T02:37:32+02:00
; #@! TF.GenerationSoftware,Kicad,Pcbnew,8.0.7
; #@! TF.FileFunction,NonPlated,1,4,NPTH
FMAT,2
INCH
; #@! TA.AperFunction,NonPlated,NPTH,ComponentDrill
T1C0.0669
; #@! TA.AperFunction,NonPlated,NPTH,ComponentDrill
T2C0.1260
; #@! TA.AperFunction,NonPlated,NPTH,ComponentDrill
T3C0.1575
%
G90
G05
T1
X2.0795Y-4.6654
X2.0795Y-5.4921
X2.0795Y-6.3189
X2.4795Y-4.6654
X2.4795Y-5.4921
X2.4795Y-6.3189
X2.9063Y-4.6654
X2.9063Y-5.4921
X2.9063Y-6.3189
X3.3063Y-4.6654
X3.3063Y-5.4921
X3.3063Y-6.3189
X3.7331Y-4.6654
X3.7331Y-5.4921
X3.7331Y-6.3189
X4.1331Y-4.6654
X4.1331Y-5.4921
X4.1331Y-6.3189
X4.5598Y-5.4921
X4.5598Y-6.3189
X4.9598Y-5.4921
X4.9598Y-6.3189
T2
X1.8169Y-4.2028
X1.8169Y-6.7815
X2.1795Y-4.8654
X2.1795Y-5.6921
X2.1795Y-6.5189
X2.4295Y-4.7654
X2.4295Y-5.5921
X2.4295Y-6.4189
X3.0063Y-4.8654
X3.0063Y-5.6921
X3.0063Y-6.5189
X3.2563Y-4.7654
X3.2563Y-5.5921
X3.2563Y-6.4189
X3.8331Y-4.8654
X3.8331Y-5.6921
X3.8331Y-6.5189
X4.0831Y-4.7654
X4.0831Y-5.5921
X4.0831Y-6.4189
X4.6598Y-5.6921
X4.6598Y-6.5189
X4.9098Y-5.5921
X4.9098Y-6.4189
X5.2224Y-4.2028
X5.2224Y-6.7815
T3
X2.2795Y-4.6654
X2.2795Y-5.4921
X2.2795Y-6.3189
X3.1063Y-4.6654
X3.1063Y-5.4921
X3.1063Y-6.3189
X3.9331Y-4.6654
X3.9331Y-5.4921
X3.9331Y-6.3189
X4.7598Y-5.4921
X4.7598Y-6.3189
M30
