G04 #@! TF.GenerationSoftware,KiCad,Pcbnew,8.0.7*
G04 #@! TF.CreationDate,2025-01-08T02:37:30+02:00*
G04 #@! TF.ProjectId,000018 PGKB,30303030-3138-4205-9047-4b422e6b6963,3.0*
G04 #@! TF.SameCoordinates,Original*
G04 #@! TF.FileFunction,Legend,Top*
G04 #@! TF.FilePolarity,Positive*
%FSLAX46Y46*%
G04 Gerber Fmt 4.6, Leading zero omitted, Abs format (unit mm)*
G04 Created by KiCad (PCBNEW 8.0.7) date 2025-01-08 02:37:30*
%MOMM*%
%LPD*%
G01*
G04 APERTURE LIST*
%ADD10C,0.150000*%
%ADD11C,0.400000*%
%ADD12C,0.100000*%
%ADD13C,0.250000*%
%ADD14C,0.300000*%
%ADD15C,0.200000*%
G04 APERTURE END LIST*
D10*
X129336779Y-129869819D02*
X129336779Y-128869819D01*
X129336779Y-128869819D02*
X129717731Y-128869819D01*
X129717731Y-128869819D02*
X129812969Y-128917438D01*
X129812969Y-128917438D02*
X129860588Y-128965057D01*
X129860588Y-128965057D02*
X129908207Y-129060295D01*
X129908207Y-129060295D02*
X129908207Y-129203152D01*
X129908207Y-129203152D02*
X129860588Y-129298390D01*
X129860588Y-129298390D02*
X129812969Y-129346009D01*
X129812969Y-129346009D02*
X129717731Y-129393628D01*
X129717731Y-129393628D02*
X129336779Y-129393628D01*
X130860588Y-128917438D02*
X130765350Y-128869819D01*
X130765350Y-128869819D02*
X130622493Y-128869819D01*
X130622493Y-128869819D02*
X130479636Y-128917438D01*
X130479636Y-128917438D02*
X130384398Y-129012676D01*
X130384398Y-129012676D02*
X130336779Y-129107914D01*
X130336779Y-129107914D02*
X130289160Y-129298390D01*
X130289160Y-129298390D02*
X130289160Y-129441247D01*
X130289160Y-129441247D02*
X130336779Y-129631723D01*
X130336779Y-129631723D02*
X130384398Y-129726961D01*
X130384398Y-129726961D02*
X130479636Y-129822200D01*
X130479636Y-129822200D02*
X130622493Y-129869819D01*
X130622493Y-129869819D02*
X130717731Y-129869819D01*
X130717731Y-129869819D02*
X130860588Y-129822200D01*
X130860588Y-129822200D02*
X130908207Y-129774580D01*
X130908207Y-129774580D02*
X130908207Y-129441247D01*
X130908207Y-129441247D02*
X130717731Y-129441247D01*
X95227255Y-171059875D02*
X95322493Y-171059875D01*
X95322493Y-171059875D02*
X95417731Y-171107494D01*
X95417731Y-171107494D02*
X95465350Y-171155113D01*
X95465350Y-171155113D02*
X95512969Y-171250351D01*
X95512969Y-171250351D02*
X95560588Y-171440827D01*
X95560588Y-171440827D02*
X95560588Y-171678922D01*
X95560588Y-171678922D02*
X95512969Y-171869398D01*
X95512969Y-171869398D02*
X95465350Y-171964636D01*
X95465350Y-171964636D02*
X95417731Y-172012256D01*
X95417731Y-172012256D02*
X95322493Y-172059875D01*
X95322493Y-172059875D02*
X95227255Y-172059875D01*
X95227255Y-172059875D02*
X95132017Y-172012256D01*
X95132017Y-172012256D02*
X95084398Y-171964636D01*
X95084398Y-171964636D02*
X95036779Y-171869398D01*
X95036779Y-171869398D02*
X94989160Y-171678922D01*
X94989160Y-171678922D02*
X94989160Y-171440827D01*
X94989160Y-171440827D02*
X95036779Y-171250351D01*
X95036779Y-171250351D02*
X95084398Y-171155113D01*
X95084398Y-171155113D02*
X95132017Y-171107494D01*
X95132017Y-171107494D02*
X95227255Y-171059875D01*
X96179636Y-171059875D02*
X96274874Y-171059875D01*
X96274874Y-171059875D02*
X96370112Y-171107494D01*
X96370112Y-171107494D02*
X96417731Y-171155113D01*
X96417731Y-171155113D02*
X96465350Y-171250351D01*
X96465350Y-171250351D02*
X96512969Y-171440827D01*
X96512969Y-171440827D02*
X96512969Y-171678922D01*
X96512969Y-171678922D02*
X96465350Y-171869398D01*
X96465350Y-171869398D02*
X96417731Y-171964636D01*
X96417731Y-171964636D02*
X96370112Y-172012256D01*
X96370112Y-172012256D02*
X96274874Y-172059875D01*
X96274874Y-172059875D02*
X96179636Y-172059875D01*
X96179636Y-172059875D02*
X96084398Y-172012256D01*
X96084398Y-172012256D02*
X96036779Y-171964636D01*
X96036779Y-171964636D02*
X95989160Y-171869398D01*
X95989160Y-171869398D02*
X95941541Y-171678922D01*
X95941541Y-171678922D02*
X95941541Y-171440827D01*
X95941541Y-171440827D02*
X95989160Y-171250351D01*
X95989160Y-171250351D02*
X96036779Y-171155113D01*
X96036779Y-171155113D02*
X96084398Y-171107494D01*
X96084398Y-171107494D02*
X96179636Y-171059875D01*
X97132017Y-171059875D02*
X97227255Y-171059875D01*
X97227255Y-171059875D02*
X97322493Y-171107494D01*
X97322493Y-171107494D02*
X97370112Y-171155113D01*
X97370112Y-171155113D02*
X97417731Y-171250351D01*
X97417731Y-171250351D02*
X97465350Y-171440827D01*
X97465350Y-171440827D02*
X97465350Y-171678922D01*
X97465350Y-171678922D02*
X97417731Y-171869398D01*
X97417731Y-171869398D02*
X97370112Y-171964636D01*
X97370112Y-171964636D02*
X97322493Y-172012256D01*
X97322493Y-172012256D02*
X97227255Y-172059875D01*
X97227255Y-172059875D02*
X97132017Y-172059875D01*
X97132017Y-172059875D02*
X97036779Y-172012256D01*
X97036779Y-172012256D02*
X96989160Y-171964636D01*
X96989160Y-171964636D02*
X96941541Y-171869398D01*
X96941541Y-171869398D02*
X96893922Y-171678922D01*
X96893922Y-171678922D02*
X96893922Y-171440827D01*
X96893922Y-171440827D02*
X96941541Y-171250351D01*
X96941541Y-171250351D02*
X96989160Y-171155113D01*
X96989160Y-171155113D02*
X97036779Y-171107494D01*
X97036779Y-171107494D02*
X97132017Y-171059875D01*
X98084398Y-171059875D02*
X98179636Y-171059875D01*
X98179636Y-171059875D02*
X98274874Y-171107494D01*
X98274874Y-171107494D02*
X98322493Y-171155113D01*
X98322493Y-171155113D02*
X98370112Y-171250351D01*
X98370112Y-171250351D02*
X98417731Y-171440827D01*
X98417731Y-171440827D02*
X98417731Y-171678922D01*
X98417731Y-171678922D02*
X98370112Y-171869398D01*
X98370112Y-171869398D02*
X98322493Y-171964636D01*
X98322493Y-171964636D02*
X98274874Y-172012256D01*
X98274874Y-172012256D02*
X98179636Y-172059875D01*
X98179636Y-172059875D02*
X98084398Y-172059875D01*
X98084398Y-172059875D02*
X97989160Y-172012256D01*
X97989160Y-172012256D02*
X97941541Y-171964636D01*
X97941541Y-171964636D02*
X97893922Y-171869398D01*
X97893922Y-171869398D02*
X97846303Y-171678922D01*
X97846303Y-171678922D02*
X97846303Y-171440827D01*
X97846303Y-171440827D02*
X97893922Y-171250351D01*
X97893922Y-171250351D02*
X97941541Y-171155113D01*
X97941541Y-171155113D02*
X97989160Y-171107494D01*
X97989160Y-171107494D02*
X98084398Y-171059875D01*
X99370112Y-172059875D02*
X98798684Y-172059875D01*
X99084398Y-172059875D02*
X99084398Y-171059875D01*
X99084398Y-171059875D02*
X98989160Y-171202732D01*
X98989160Y-171202732D02*
X98893922Y-171297970D01*
X98893922Y-171297970D02*
X98798684Y-171345589D01*
X99941541Y-171488446D02*
X99846303Y-171440827D01*
X99846303Y-171440827D02*
X99798684Y-171393208D01*
X99798684Y-171393208D02*
X99751065Y-171297970D01*
X99751065Y-171297970D02*
X99751065Y-171250351D01*
X99751065Y-171250351D02*
X99798684Y-171155113D01*
X99798684Y-171155113D02*
X99846303Y-171107494D01*
X99846303Y-171107494D02*
X99941541Y-171059875D01*
X99941541Y-171059875D02*
X100132017Y-171059875D01*
X100132017Y-171059875D02*
X100227255Y-171107494D01*
X100227255Y-171107494D02*
X100274874Y-171155113D01*
X100274874Y-171155113D02*
X100322493Y-171250351D01*
X100322493Y-171250351D02*
X100322493Y-171297970D01*
X100322493Y-171297970D02*
X100274874Y-171393208D01*
X100274874Y-171393208D02*
X100227255Y-171440827D01*
X100227255Y-171440827D02*
X100132017Y-171488446D01*
X100132017Y-171488446D02*
X99941541Y-171488446D01*
X99941541Y-171488446D02*
X99846303Y-171536065D01*
X99846303Y-171536065D02*
X99798684Y-171583684D01*
X99798684Y-171583684D02*
X99751065Y-171678922D01*
X99751065Y-171678922D02*
X99751065Y-171869398D01*
X99751065Y-171869398D02*
X99798684Y-171964636D01*
X99798684Y-171964636D02*
X99846303Y-172012256D01*
X99846303Y-172012256D02*
X99941541Y-172059875D01*
X99941541Y-172059875D02*
X100132017Y-172059875D01*
X100132017Y-172059875D02*
X100227255Y-172012256D01*
X100227255Y-172012256D02*
X100274874Y-171964636D01*
X100274874Y-171964636D02*
X100322493Y-171869398D01*
X100322493Y-171869398D02*
X100322493Y-171678922D01*
X100322493Y-171678922D02*
X100274874Y-171583684D01*
X100274874Y-171583684D02*
X100227255Y-171536065D01*
X100227255Y-171536065D02*
X100132017Y-171488446D01*
X101512970Y-172059875D02*
X101512970Y-171059875D01*
X101512970Y-171059875D02*
X101893922Y-171059875D01*
X101893922Y-171059875D02*
X101989160Y-171107494D01*
X101989160Y-171107494D02*
X102036779Y-171155113D01*
X102036779Y-171155113D02*
X102084398Y-171250351D01*
X102084398Y-171250351D02*
X102084398Y-171393208D01*
X102084398Y-171393208D02*
X102036779Y-171488446D01*
X102036779Y-171488446D02*
X101989160Y-171536065D01*
X101989160Y-171536065D02*
X101893922Y-171583684D01*
X101893922Y-171583684D02*
X101512970Y-171583684D01*
X103084398Y-171964636D02*
X103036779Y-172012256D01*
X103036779Y-172012256D02*
X102893922Y-172059875D01*
X102893922Y-172059875D02*
X102798684Y-172059875D01*
X102798684Y-172059875D02*
X102655827Y-172012256D01*
X102655827Y-172012256D02*
X102560589Y-171917017D01*
X102560589Y-171917017D02*
X102512970Y-171821779D01*
X102512970Y-171821779D02*
X102465351Y-171631303D01*
X102465351Y-171631303D02*
X102465351Y-171488446D01*
X102465351Y-171488446D02*
X102512970Y-171297970D01*
X102512970Y-171297970D02*
X102560589Y-171202732D01*
X102560589Y-171202732D02*
X102655827Y-171107494D01*
X102655827Y-171107494D02*
X102798684Y-171059875D01*
X102798684Y-171059875D02*
X102893922Y-171059875D01*
X102893922Y-171059875D02*
X103036779Y-171107494D01*
X103036779Y-171107494D02*
X103084398Y-171155113D01*
X103846303Y-171536065D02*
X103989160Y-171583684D01*
X103989160Y-171583684D02*
X104036779Y-171631303D01*
X104036779Y-171631303D02*
X104084398Y-171726541D01*
X104084398Y-171726541D02*
X104084398Y-171869398D01*
X104084398Y-171869398D02*
X104036779Y-171964636D01*
X104036779Y-171964636D02*
X103989160Y-172012256D01*
X103989160Y-172012256D02*
X103893922Y-172059875D01*
X103893922Y-172059875D02*
X103512970Y-172059875D01*
X103512970Y-172059875D02*
X103512970Y-171059875D01*
X103512970Y-171059875D02*
X103846303Y-171059875D01*
X103846303Y-171059875D02*
X103941541Y-171107494D01*
X103941541Y-171107494D02*
X103989160Y-171155113D01*
X103989160Y-171155113D02*
X104036779Y-171250351D01*
X104036779Y-171250351D02*
X104036779Y-171345589D01*
X104036779Y-171345589D02*
X103989160Y-171440827D01*
X103989160Y-171440827D02*
X103941541Y-171488446D01*
X103941541Y-171488446D02*
X103846303Y-171536065D01*
X103846303Y-171536065D02*
X103512970Y-171536065D01*
X104465351Y-171774160D02*
X104941541Y-171774160D01*
X104370113Y-172059875D02*
X104703446Y-171059875D01*
X104703446Y-171059875D02*
X105036779Y-172059875D01*
X106703446Y-172059875D02*
X106370113Y-171583684D01*
X106132018Y-172059875D02*
X106132018Y-171059875D01*
X106132018Y-171059875D02*
X106512970Y-171059875D01*
X106512970Y-171059875D02*
X106608208Y-171107494D01*
X106608208Y-171107494D02*
X106655827Y-171155113D01*
X106655827Y-171155113D02*
X106703446Y-171250351D01*
X106703446Y-171250351D02*
X106703446Y-171393208D01*
X106703446Y-171393208D02*
X106655827Y-171488446D01*
X106655827Y-171488446D02*
X106608208Y-171536065D01*
X106608208Y-171536065D02*
X106512970Y-171583684D01*
X106512970Y-171583684D02*
X106132018Y-171583684D01*
X107512970Y-172012256D02*
X107417732Y-172059875D01*
X107417732Y-172059875D02*
X107227256Y-172059875D01*
X107227256Y-172059875D02*
X107132018Y-172012256D01*
X107132018Y-172012256D02*
X107084399Y-171917017D01*
X107084399Y-171917017D02*
X107084399Y-171536065D01*
X107084399Y-171536065D02*
X107132018Y-171440827D01*
X107132018Y-171440827D02*
X107227256Y-171393208D01*
X107227256Y-171393208D02*
X107417732Y-171393208D01*
X107417732Y-171393208D02*
X107512970Y-171440827D01*
X107512970Y-171440827D02*
X107560589Y-171536065D01*
X107560589Y-171536065D02*
X107560589Y-171631303D01*
X107560589Y-171631303D02*
X107084399Y-171726541D01*
X107893923Y-171393208D02*
X108132018Y-172059875D01*
X108132018Y-172059875D02*
X108370113Y-171393208D01*
X109417733Y-171059875D02*
X110036780Y-171059875D01*
X110036780Y-171059875D02*
X109703447Y-171440827D01*
X109703447Y-171440827D02*
X109846304Y-171440827D01*
X109846304Y-171440827D02*
X109941542Y-171488446D01*
X109941542Y-171488446D02*
X109989161Y-171536065D01*
X109989161Y-171536065D02*
X110036780Y-171631303D01*
X110036780Y-171631303D02*
X110036780Y-171869398D01*
X110036780Y-171869398D02*
X109989161Y-171964636D01*
X109989161Y-171964636D02*
X109941542Y-172012256D01*
X109941542Y-172012256D02*
X109846304Y-172059875D01*
X109846304Y-172059875D02*
X109560590Y-172059875D01*
X109560590Y-172059875D02*
X109465352Y-172012256D01*
X109465352Y-172012256D02*
X109417733Y-171964636D01*
X110465352Y-171964636D02*
X110512971Y-172012256D01*
X110512971Y-172012256D02*
X110465352Y-172059875D01*
X110465352Y-172059875D02*
X110417733Y-172012256D01*
X110417733Y-172012256D02*
X110465352Y-171964636D01*
X110465352Y-171964636D02*
X110465352Y-172059875D01*
X111132018Y-171059875D02*
X111227256Y-171059875D01*
X111227256Y-171059875D02*
X111322494Y-171107494D01*
X111322494Y-171107494D02*
X111370113Y-171155113D01*
X111370113Y-171155113D02*
X111417732Y-171250351D01*
X111417732Y-171250351D02*
X111465351Y-171440827D01*
X111465351Y-171440827D02*
X111465351Y-171678922D01*
X111465351Y-171678922D02*
X111417732Y-171869398D01*
X111417732Y-171869398D02*
X111370113Y-171964636D01*
X111370113Y-171964636D02*
X111322494Y-172012256D01*
X111322494Y-172012256D02*
X111227256Y-172059875D01*
X111227256Y-172059875D02*
X111132018Y-172059875D01*
X111132018Y-172059875D02*
X111036780Y-172012256D01*
X111036780Y-172012256D02*
X110989161Y-171964636D01*
X110989161Y-171964636D02*
X110941542Y-171869398D01*
X110941542Y-171869398D02*
X110893923Y-171678922D01*
X110893923Y-171678922D02*
X110893923Y-171440827D01*
X110893923Y-171440827D02*
X110941542Y-171250351D01*
X110941542Y-171250351D02*
X110989161Y-171155113D01*
X110989161Y-171155113D02*
X111036780Y-171107494D01*
X111036780Y-171107494D02*
X111132018Y-171059875D01*
X94989160Y-172765057D02*
X95036779Y-172717438D01*
X95036779Y-172717438D02*
X95132017Y-172669819D01*
X95132017Y-172669819D02*
X95370112Y-172669819D01*
X95370112Y-172669819D02*
X95465350Y-172717438D01*
X95465350Y-172717438D02*
X95512969Y-172765057D01*
X95512969Y-172765057D02*
X95560588Y-172860295D01*
X95560588Y-172860295D02*
X95560588Y-172955533D01*
X95560588Y-172955533D02*
X95512969Y-173098390D01*
X95512969Y-173098390D02*
X94941541Y-173669819D01*
X94941541Y-173669819D02*
X95560588Y-173669819D01*
X96179636Y-172669819D02*
X96274874Y-172669819D01*
X96274874Y-172669819D02*
X96370112Y-172717438D01*
X96370112Y-172717438D02*
X96417731Y-172765057D01*
X96417731Y-172765057D02*
X96465350Y-172860295D01*
X96465350Y-172860295D02*
X96512969Y-173050771D01*
X96512969Y-173050771D02*
X96512969Y-173288866D01*
X96512969Y-173288866D02*
X96465350Y-173479342D01*
X96465350Y-173479342D02*
X96417731Y-173574580D01*
X96417731Y-173574580D02*
X96370112Y-173622200D01*
X96370112Y-173622200D02*
X96274874Y-173669819D01*
X96274874Y-173669819D02*
X96179636Y-173669819D01*
X96179636Y-173669819D02*
X96084398Y-173622200D01*
X96084398Y-173622200D02*
X96036779Y-173574580D01*
X96036779Y-173574580D02*
X95989160Y-173479342D01*
X95989160Y-173479342D02*
X95941541Y-173288866D01*
X95941541Y-173288866D02*
X95941541Y-173050771D01*
X95941541Y-173050771D02*
X95989160Y-172860295D01*
X95989160Y-172860295D02*
X96036779Y-172765057D01*
X96036779Y-172765057D02*
X96084398Y-172717438D01*
X96084398Y-172717438D02*
X96179636Y-172669819D01*
X96893922Y-172765057D02*
X96941541Y-172717438D01*
X96941541Y-172717438D02*
X97036779Y-172669819D01*
X97036779Y-172669819D02*
X97274874Y-172669819D01*
X97274874Y-172669819D02*
X97370112Y-172717438D01*
X97370112Y-172717438D02*
X97417731Y-172765057D01*
X97417731Y-172765057D02*
X97465350Y-172860295D01*
X97465350Y-172860295D02*
X97465350Y-172955533D01*
X97465350Y-172955533D02*
X97417731Y-173098390D01*
X97417731Y-173098390D02*
X96846303Y-173669819D01*
X96846303Y-173669819D02*
X97465350Y-173669819D01*
X98370112Y-172669819D02*
X97893922Y-172669819D01*
X97893922Y-172669819D02*
X97846303Y-173146009D01*
X97846303Y-173146009D02*
X97893922Y-173098390D01*
X97893922Y-173098390D02*
X97989160Y-173050771D01*
X97989160Y-173050771D02*
X98227255Y-173050771D01*
X98227255Y-173050771D02*
X98322493Y-173098390D01*
X98322493Y-173098390D02*
X98370112Y-173146009D01*
X98370112Y-173146009D02*
X98417731Y-173241247D01*
X98417731Y-173241247D02*
X98417731Y-173479342D01*
X98417731Y-173479342D02*
X98370112Y-173574580D01*
X98370112Y-173574580D02*
X98322493Y-173622200D01*
X98322493Y-173622200D02*
X98227255Y-173669819D01*
X98227255Y-173669819D02*
X97989160Y-173669819D01*
X97989160Y-173669819D02*
X97893922Y-173622200D01*
X97893922Y-173622200D02*
X97846303Y-173574580D01*
X98846303Y-173288866D02*
X99608208Y-173288866D01*
X100274874Y-172669819D02*
X100370112Y-172669819D01*
X100370112Y-172669819D02*
X100465350Y-172717438D01*
X100465350Y-172717438D02*
X100512969Y-172765057D01*
X100512969Y-172765057D02*
X100560588Y-172860295D01*
X100560588Y-172860295D02*
X100608207Y-173050771D01*
X100608207Y-173050771D02*
X100608207Y-173288866D01*
X100608207Y-173288866D02*
X100560588Y-173479342D01*
X100560588Y-173479342D02*
X100512969Y-173574580D01*
X100512969Y-173574580D02*
X100465350Y-173622200D01*
X100465350Y-173622200D02*
X100370112Y-173669819D01*
X100370112Y-173669819D02*
X100274874Y-173669819D01*
X100274874Y-173669819D02*
X100179636Y-173622200D01*
X100179636Y-173622200D02*
X100132017Y-173574580D01*
X100132017Y-173574580D02*
X100084398Y-173479342D01*
X100084398Y-173479342D02*
X100036779Y-173288866D01*
X100036779Y-173288866D02*
X100036779Y-173050771D01*
X100036779Y-173050771D02*
X100084398Y-172860295D01*
X100084398Y-172860295D02*
X100132017Y-172765057D01*
X100132017Y-172765057D02*
X100179636Y-172717438D01*
X100179636Y-172717438D02*
X100274874Y-172669819D01*
X101560588Y-173669819D02*
X100989160Y-173669819D01*
X101274874Y-173669819D02*
X101274874Y-172669819D01*
X101274874Y-172669819D02*
X101179636Y-172812676D01*
X101179636Y-172812676D02*
X101084398Y-172907914D01*
X101084398Y-172907914D02*
X100989160Y-172955533D01*
X101989160Y-173288866D02*
X102751065Y-173288866D01*
X103417731Y-172669819D02*
X103512969Y-172669819D01*
X103512969Y-172669819D02*
X103608207Y-172717438D01*
X103608207Y-172717438D02*
X103655826Y-172765057D01*
X103655826Y-172765057D02*
X103703445Y-172860295D01*
X103703445Y-172860295D02*
X103751064Y-173050771D01*
X103751064Y-173050771D02*
X103751064Y-173288866D01*
X103751064Y-173288866D02*
X103703445Y-173479342D01*
X103703445Y-173479342D02*
X103655826Y-173574580D01*
X103655826Y-173574580D02*
X103608207Y-173622200D01*
X103608207Y-173622200D02*
X103512969Y-173669819D01*
X103512969Y-173669819D02*
X103417731Y-173669819D01*
X103417731Y-173669819D02*
X103322493Y-173622200D01*
X103322493Y-173622200D02*
X103274874Y-173574580D01*
X103274874Y-173574580D02*
X103227255Y-173479342D01*
X103227255Y-173479342D02*
X103179636Y-173288866D01*
X103179636Y-173288866D02*
X103179636Y-173050771D01*
X103179636Y-173050771D02*
X103227255Y-172860295D01*
X103227255Y-172860295D02*
X103274874Y-172765057D01*
X103274874Y-172765057D02*
X103322493Y-172717438D01*
X103322493Y-172717438D02*
X103417731Y-172669819D01*
X104608207Y-172669819D02*
X104417731Y-172669819D01*
X104417731Y-172669819D02*
X104322493Y-172717438D01*
X104322493Y-172717438D02*
X104274874Y-172765057D01*
X104274874Y-172765057D02*
X104179636Y-172907914D01*
X104179636Y-172907914D02*
X104132017Y-173098390D01*
X104132017Y-173098390D02*
X104132017Y-173479342D01*
X104132017Y-173479342D02*
X104179636Y-173574580D01*
X104179636Y-173574580D02*
X104227255Y-173622200D01*
X104227255Y-173622200D02*
X104322493Y-173669819D01*
X104322493Y-173669819D02*
X104512969Y-173669819D01*
X104512969Y-173669819D02*
X104608207Y-173622200D01*
X104608207Y-173622200D02*
X104655826Y-173574580D01*
X104655826Y-173574580D02*
X104703445Y-173479342D01*
X104703445Y-173479342D02*
X104703445Y-173241247D01*
X104703445Y-173241247D02*
X104655826Y-173146009D01*
X104655826Y-173146009D02*
X104608207Y-173098390D01*
X104608207Y-173098390D02*
X104512969Y-173050771D01*
X104512969Y-173050771D02*
X104322493Y-173050771D01*
X104322493Y-173050771D02*
X104227255Y-173098390D01*
X104227255Y-173098390D02*
X104179636Y-173146009D01*
X104179636Y-173146009D02*
X104132017Y-173241247D01*
X105179636Y-173622200D02*
X105179636Y-173669819D01*
X105179636Y-173669819D02*
X105132017Y-173765057D01*
X105132017Y-173765057D02*
X105084398Y-173812676D01*
X105465350Y-172669819D02*
X106036778Y-172669819D01*
X105751064Y-173669819D02*
X105751064Y-172669819D01*
X106751064Y-173622200D02*
X106655826Y-173669819D01*
X106655826Y-173669819D02*
X106465350Y-173669819D01*
X106465350Y-173669819D02*
X106370112Y-173622200D01*
X106370112Y-173622200D02*
X106322493Y-173526961D01*
X106322493Y-173526961D02*
X106322493Y-173146009D01*
X106322493Y-173146009D02*
X106370112Y-173050771D01*
X106370112Y-173050771D02*
X106465350Y-173003152D01*
X106465350Y-173003152D02*
X106655826Y-173003152D01*
X106655826Y-173003152D02*
X106751064Y-173050771D01*
X106751064Y-173050771D02*
X106798683Y-173146009D01*
X106798683Y-173146009D02*
X106798683Y-173241247D01*
X106798683Y-173241247D02*
X106322493Y-173336485D01*
X107608207Y-173622200D02*
X107512969Y-173669819D01*
X107512969Y-173669819D02*
X107322493Y-173669819D01*
X107322493Y-173669819D02*
X107227255Y-173622200D01*
X107227255Y-173622200D02*
X107179636Y-173526961D01*
X107179636Y-173526961D02*
X107179636Y-173146009D01*
X107179636Y-173146009D02*
X107227255Y-173050771D01*
X107227255Y-173050771D02*
X107322493Y-173003152D01*
X107322493Y-173003152D02*
X107512969Y-173003152D01*
X107512969Y-173003152D02*
X107608207Y-173050771D01*
X107608207Y-173050771D02*
X107655826Y-173146009D01*
X107655826Y-173146009D02*
X107655826Y-173241247D01*
X107655826Y-173241247D02*
X107179636Y-173336485D01*
X108084398Y-173669819D02*
X108084398Y-173003152D01*
X108084398Y-173098390D02*
X108132017Y-173050771D01*
X108132017Y-173050771D02*
X108227255Y-173003152D01*
X108227255Y-173003152D02*
X108370112Y-173003152D01*
X108370112Y-173003152D02*
X108465350Y-173050771D01*
X108465350Y-173050771D02*
X108512969Y-173146009D01*
X108512969Y-173146009D02*
X108512969Y-173669819D01*
X108512969Y-173146009D02*
X108560588Y-173050771D01*
X108560588Y-173050771D02*
X108655826Y-173003152D01*
X108655826Y-173003152D02*
X108798683Y-173003152D01*
X108798683Y-173003152D02*
X108893922Y-173050771D01*
X108893922Y-173050771D02*
X108941541Y-173146009D01*
X108941541Y-173146009D02*
X108941541Y-173669819D01*
X109846302Y-173003152D02*
X109846302Y-173669819D01*
X109417731Y-173003152D02*
X109417731Y-173526961D01*
X109417731Y-173526961D02*
X109465350Y-173622200D01*
X109465350Y-173622200D02*
X109560588Y-173669819D01*
X109560588Y-173669819D02*
X109703445Y-173669819D01*
X109703445Y-173669819D02*
X109798683Y-173622200D01*
X109798683Y-173622200D02*
X109846302Y-173574580D01*
X111560588Y-173669819D02*
X111084398Y-173669819D01*
X111084398Y-173669819D02*
X111084398Y-172669819D01*
X112322493Y-173669819D02*
X112322493Y-173146009D01*
X112322493Y-173146009D02*
X112274874Y-173050771D01*
X112274874Y-173050771D02*
X112179636Y-173003152D01*
X112179636Y-173003152D02*
X111989160Y-173003152D01*
X111989160Y-173003152D02*
X111893922Y-173050771D01*
X112322493Y-173622200D02*
X112227255Y-173669819D01*
X112227255Y-173669819D02*
X111989160Y-173669819D01*
X111989160Y-173669819D02*
X111893922Y-173622200D01*
X111893922Y-173622200D02*
X111846303Y-173526961D01*
X111846303Y-173526961D02*
X111846303Y-173431723D01*
X111846303Y-173431723D02*
X111893922Y-173336485D01*
X111893922Y-173336485D02*
X111989160Y-173288866D01*
X111989160Y-173288866D02*
X112227255Y-173288866D01*
X112227255Y-173288866D02*
X112322493Y-173241247D01*
X112655827Y-173003152D02*
X113036779Y-173003152D01*
X112798684Y-172669819D02*
X112798684Y-173526961D01*
X112798684Y-173526961D02*
X112846303Y-173622200D01*
X112846303Y-173622200D02*
X112941541Y-173669819D01*
X112941541Y-173669819D02*
X113036779Y-173669819D01*
X113512970Y-173669819D02*
X113417732Y-173622200D01*
X113417732Y-173622200D02*
X113370113Y-173574580D01*
X113370113Y-173574580D02*
X113322494Y-173479342D01*
X113322494Y-173479342D02*
X113322494Y-173193628D01*
X113322494Y-173193628D02*
X113370113Y-173098390D01*
X113370113Y-173098390D02*
X113417732Y-173050771D01*
X113417732Y-173050771D02*
X113512970Y-173003152D01*
X113512970Y-173003152D02*
X113655827Y-173003152D01*
X113655827Y-173003152D02*
X113751065Y-173050771D01*
X113751065Y-173050771D02*
X113798684Y-173098390D01*
X113798684Y-173098390D02*
X113846303Y-173193628D01*
X113846303Y-173193628D02*
X113846303Y-173479342D01*
X113846303Y-173479342D02*
X113798684Y-173574580D01*
X113798684Y-173574580D02*
X113751065Y-173622200D01*
X113751065Y-173622200D02*
X113655827Y-173669819D01*
X113655827Y-173669819D02*
X113512970Y-173669819D01*
X114274875Y-173003152D02*
X114274875Y-173669819D01*
X114274875Y-173098390D02*
X114322494Y-173050771D01*
X114322494Y-173050771D02*
X114417732Y-173003152D01*
X114417732Y-173003152D02*
X114560589Y-173003152D01*
X114560589Y-173003152D02*
X114655827Y-173050771D01*
X114655827Y-173050771D02*
X114703446Y-173146009D01*
X114703446Y-173146009D02*
X114703446Y-173669819D01*
X115560589Y-173622200D02*
X115465351Y-173669819D01*
X115465351Y-173669819D02*
X115274875Y-173669819D01*
X115274875Y-173669819D02*
X115179637Y-173622200D01*
X115179637Y-173622200D02*
X115132018Y-173526961D01*
X115132018Y-173526961D02*
X115132018Y-173146009D01*
X115132018Y-173146009D02*
X115179637Y-173050771D01*
X115179637Y-173050771D02*
X115274875Y-173003152D01*
X115274875Y-173003152D02*
X115465351Y-173003152D01*
X115465351Y-173003152D02*
X115560589Y-173050771D01*
X115560589Y-173050771D02*
X115608208Y-173146009D01*
X115608208Y-173146009D02*
X115608208Y-173241247D01*
X115608208Y-173241247D02*
X115132018Y-173336485D01*
X116036780Y-173003152D02*
X116036780Y-173669819D01*
X116036780Y-173098390D02*
X116084399Y-173050771D01*
X116084399Y-173050771D02*
X116179637Y-173003152D01*
X116179637Y-173003152D02*
X116322494Y-173003152D01*
X116322494Y-173003152D02*
X116417732Y-173050771D01*
X116417732Y-173050771D02*
X116465351Y-173146009D01*
X116465351Y-173146009D02*
X116465351Y-173669819D01*
X132836779Y-129869819D02*
X132836779Y-128869819D01*
X132836779Y-128869819D02*
X133217731Y-128869819D01*
X133217731Y-128869819D02*
X133312969Y-128917438D01*
X133312969Y-128917438D02*
X133360588Y-128965057D01*
X133360588Y-128965057D02*
X133408207Y-129060295D01*
X133408207Y-129060295D02*
X133408207Y-129203152D01*
X133408207Y-129203152D02*
X133360588Y-129298390D01*
X133360588Y-129298390D02*
X133312969Y-129346009D01*
X133312969Y-129346009D02*
X133217731Y-129393628D01*
X133217731Y-129393628D02*
X132836779Y-129393628D01*
X134170112Y-129346009D02*
X134312969Y-129393628D01*
X134312969Y-129393628D02*
X134360588Y-129441247D01*
X134360588Y-129441247D02*
X134408207Y-129536485D01*
X134408207Y-129536485D02*
X134408207Y-129679342D01*
X134408207Y-129679342D02*
X134360588Y-129774580D01*
X134360588Y-129774580D02*
X134312969Y-129822200D01*
X134312969Y-129822200D02*
X134217731Y-129869819D01*
X134217731Y-129869819D02*
X133836779Y-129869819D01*
X133836779Y-129869819D02*
X133836779Y-128869819D01*
X133836779Y-128869819D02*
X134170112Y-128869819D01*
X134170112Y-128869819D02*
X134265350Y-128917438D01*
X134265350Y-128917438D02*
X134312969Y-128965057D01*
X134312969Y-128965057D02*
X134360588Y-129060295D01*
X134360588Y-129060295D02*
X134360588Y-129155533D01*
X134360588Y-129155533D02*
X134312969Y-129250771D01*
X134312969Y-129250771D02*
X134265350Y-129298390D01*
X134265350Y-129298390D02*
X134170112Y-129346009D01*
X134170112Y-129346009D02*
X133836779Y-129346009D01*
X99290475Y-151856200D02*
X99404761Y-151894295D01*
X99404761Y-151894295D02*
X99595237Y-151894295D01*
X99595237Y-151894295D02*
X99671428Y-151856200D01*
X99671428Y-151856200D02*
X99709523Y-151818104D01*
X99709523Y-151818104D02*
X99747618Y-151741914D01*
X99747618Y-151741914D02*
X99747618Y-151665723D01*
X99747618Y-151665723D02*
X99709523Y-151589533D01*
X99709523Y-151589533D02*
X99671428Y-151551438D01*
X99671428Y-151551438D02*
X99595237Y-151513342D01*
X99595237Y-151513342D02*
X99442856Y-151475247D01*
X99442856Y-151475247D02*
X99366666Y-151437152D01*
X99366666Y-151437152D02*
X99328571Y-151399057D01*
X99328571Y-151399057D02*
X99290475Y-151322866D01*
X99290475Y-151322866D02*
X99290475Y-151246676D01*
X99290475Y-151246676D02*
X99328571Y-151170485D01*
X99328571Y-151170485D02*
X99366666Y-151132390D01*
X99366666Y-151132390D02*
X99442856Y-151094295D01*
X99442856Y-151094295D02*
X99633333Y-151094295D01*
X99633333Y-151094295D02*
X99747618Y-151132390D01*
X100014285Y-151094295D02*
X100509523Y-151094295D01*
X100509523Y-151094295D02*
X100242857Y-151399057D01*
X100242857Y-151399057D02*
X100357142Y-151399057D01*
X100357142Y-151399057D02*
X100433333Y-151437152D01*
X100433333Y-151437152D02*
X100471428Y-151475247D01*
X100471428Y-151475247D02*
X100509523Y-151551438D01*
X100509523Y-151551438D02*
X100509523Y-151741914D01*
X100509523Y-151741914D02*
X100471428Y-151818104D01*
X100471428Y-151818104D02*
X100433333Y-151856200D01*
X100433333Y-151856200D02*
X100357142Y-151894295D01*
X100357142Y-151894295D02*
X100128571Y-151894295D01*
X100128571Y-151894295D02*
X100052380Y-151856200D01*
X100052380Y-151856200D02*
X100014285Y-151818104D01*
X99290475Y-130856200D02*
X99404761Y-130894295D01*
X99404761Y-130894295D02*
X99595237Y-130894295D01*
X99595237Y-130894295D02*
X99671428Y-130856200D01*
X99671428Y-130856200D02*
X99709523Y-130818104D01*
X99709523Y-130818104D02*
X99747618Y-130741914D01*
X99747618Y-130741914D02*
X99747618Y-130665723D01*
X99747618Y-130665723D02*
X99709523Y-130589533D01*
X99709523Y-130589533D02*
X99671428Y-130551438D01*
X99671428Y-130551438D02*
X99595237Y-130513342D01*
X99595237Y-130513342D02*
X99442856Y-130475247D01*
X99442856Y-130475247D02*
X99366666Y-130437152D01*
X99366666Y-130437152D02*
X99328571Y-130399057D01*
X99328571Y-130399057D02*
X99290475Y-130322866D01*
X99290475Y-130322866D02*
X99290475Y-130246676D01*
X99290475Y-130246676D02*
X99328571Y-130170485D01*
X99328571Y-130170485D02*
X99366666Y-130132390D01*
X99366666Y-130132390D02*
X99442856Y-130094295D01*
X99442856Y-130094295D02*
X99633333Y-130094295D01*
X99633333Y-130094295D02*
X99747618Y-130132390D01*
X100014285Y-130094295D02*
X100547619Y-130094295D01*
X100547619Y-130094295D02*
X100204761Y-130894295D01*
X57290475Y-130856200D02*
X57404761Y-130894295D01*
X57404761Y-130894295D02*
X57595237Y-130894295D01*
X57595237Y-130894295D02*
X57671428Y-130856200D01*
X57671428Y-130856200D02*
X57709523Y-130818104D01*
X57709523Y-130818104D02*
X57747618Y-130741914D01*
X57747618Y-130741914D02*
X57747618Y-130665723D01*
X57747618Y-130665723D02*
X57709523Y-130589533D01*
X57709523Y-130589533D02*
X57671428Y-130551438D01*
X57671428Y-130551438D02*
X57595237Y-130513342D01*
X57595237Y-130513342D02*
X57442856Y-130475247D01*
X57442856Y-130475247D02*
X57366666Y-130437152D01*
X57366666Y-130437152D02*
X57328571Y-130399057D01*
X57328571Y-130399057D02*
X57290475Y-130322866D01*
X57290475Y-130322866D02*
X57290475Y-130246676D01*
X57290475Y-130246676D02*
X57328571Y-130170485D01*
X57328571Y-130170485D02*
X57366666Y-130132390D01*
X57366666Y-130132390D02*
X57442856Y-130094295D01*
X57442856Y-130094295D02*
X57633333Y-130094295D01*
X57633333Y-130094295D02*
X57747618Y-130132390D01*
X58471428Y-130094295D02*
X58090476Y-130094295D01*
X58090476Y-130094295D02*
X58052380Y-130475247D01*
X58052380Y-130475247D02*
X58090476Y-130437152D01*
X58090476Y-130437152D02*
X58166666Y-130399057D01*
X58166666Y-130399057D02*
X58357142Y-130399057D01*
X58357142Y-130399057D02*
X58433333Y-130437152D01*
X58433333Y-130437152D02*
X58471428Y-130475247D01*
X58471428Y-130475247D02*
X58509523Y-130551438D01*
X58509523Y-130551438D02*
X58509523Y-130741914D01*
X58509523Y-130741914D02*
X58471428Y-130818104D01*
X58471428Y-130818104D02*
X58433333Y-130856200D01*
X58433333Y-130856200D02*
X58357142Y-130894295D01*
X58357142Y-130894295D02*
X58166666Y-130894295D01*
X58166666Y-130894295D02*
X58090476Y-130856200D01*
X58090476Y-130856200D02*
X58052380Y-130818104D01*
X57290475Y-151856200D02*
X57404761Y-151894295D01*
X57404761Y-151894295D02*
X57595237Y-151894295D01*
X57595237Y-151894295D02*
X57671428Y-151856200D01*
X57671428Y-151856200D02*
X57709523Y-151818104D01*
X57709523Y-151818104D02*
X57747618Y-151741914D01*
X57747618Y-151741914D02*
X57747618Y-151665723D01*
X57747618Y-151665723D02*
X57709523Y-151589533D01*
X57709523Y-151589533D02*
X57671428Y-151551438D01*
X57671428Y-151551438D02*
X57595237Y-151513342D01*
X57595237Y-151513342D02*
X57442856Y-151475247D01*
X57442856Y-151475247D02*
X57366666Y-151437152D01*
X57366666Y-151437152D02*
X57328571Y-151399057D01*
X57328571Y-151399057D02*
X57290475Y-151322866D01*
X57290475Y-151322866D02*
X57290475Y-151246676D01*
X57290475Y-151246676D02*
X57328571Y-151170485D01*
X57328571Y-151170485D02*
X57366666Y-151132390D01*
X57366666Y-151132390D02*
X57442856Y-151094295D01*
X57442856Y-151094295D02*
X57633333Y-151094295D01*
X57633333Y-151094295D02*
X57747618Y-151132390D01*
X58509523Y-151894295D02*
X58052380Y-151894295D01*
X58280952Y-151894295D02*
X58280952Y-151094295D01*
X58280952Y-151094295D02*
X58204761Y-151208580D01*
X58204761Y-151208580D02*
X58128571Y-151284771D01*
X58128571Y-151284771D02*
X58052380Y-151322866D01*
X77909523Y-109856200D02*
X78023809Y-109894295D01*
X78023809Y-109894295D02*
X78214285Y-109894295D01*
X78214285Y-109894295D02*
X78290476Y-109856200D01*
X78290476Y-109856200D02*
X78328571Y-109818104D01*
X78328571Y-109818104D02*
X78366666Y-109741914D01*
X78366666Y-109741914D02*
X78366666Y-109665723D01*
X78366666Y-109665723D02*
X78328571Y-109589533D01*
X78328571Y-109589533D02*
X78290476Y-109551438D01*
X78290476Y-109551438D02*
X78214285Y-109513342D01*
X78214285Y-109513342D02*
X78061904Y-109475247D01*
X78061904Y-109475247D02*
X77985714Y-109437152D01*
X77985714Y-109437152D02*
X77947619Y-109399057D01*
X77947619Y-109399057D02*
X77909523Y-109322866D01*
X77909523Y-109322866D02*
X77909523Y-109246676D01*
X77909523Y-109246676D02*
X77947619Y-109170485D01*
X77947619Y-109170485D02*
X77985714Y-109132390D01*
X77985714Y-109132390D02*
X78061904Y-109094295D01*
X78061904Y-109094295D02*
X78252381Y-109094295D01*
X78252381Y-109094295D02*
X78366666Y-109132390D01*
X79128571Y-109894295D02*
X78671428Y-109894295D01*
X78900000Y-109894295D02*
X78900000Y-109094295D01*
X78900000Y-109094295D02*
X78823809Y-109208580D01*
X78823809Y-109208580D02*
X78747619Y-109284771D01*
X78747619Y-109284771D02*
X78671428Y-109322866D01*
X79623810Y-109094295D02*
X79700000Y-109094295D01*
X79700000Y-109094295D02*
X79776191Y-109132390D01*
X79776191Y-109132390D02*
X79814286Y-109170485D01*
X79814286Y-109170485D02*
X79852381Y-109246676D01*
X79852381Y-109246676D02*
X79890476Y-109399057D01*
X79890476Y-109399057D02*
X79890476Y-109589533D01*
X79890476Y-109589533D02*
X79852381Y-109741914D01*
X79852381Y-109741914D02*
X79814286Y-109818104D01*
X79814286Y-109818104D02*
X79776191Y-109856200D01*
X79776191Y-109856200D02*
X79700000Y-109894295D01*
X79700000Y-109894295D02*
X79623810Y-109894295D01*
X79623810Y-109894295D02*
X79547619Y-109856200D01*
X79547619Y-109856200D02*
X79509524Y-109818104D01*
X79509524Y-109818104D02*
X79471429Y-109741914D01*
X79471429Y-109741914D02*
X79433333Y-109589533D01*
X79433333Y-109589533D02*
X79433333Y-109399057D01*
X79433333Y-109399057D02*
X79471429Y-109246676D01*
X79471429Y-109246676D02*
X79509524Y-109170485D01*
X79509524Y-109170485D02*
X79547619Y-109132390D01*
X79547619Y-109132390D02*
X79623810Y-109094295D01*
X120290475Y-152056200D02*
X120404761Y-152094295D01*
X120404761Y-152094295D02*
X120595237Y-152094295D01*
X120595237Y-152094295D02*
X120671428Y-152056200D01*
X120671428Y-152056200D02*
X120709523Y-152018104D01*
X120709523Y-152018104D02*
X120747618Y-151941914D01*
X120747618Y-151941914D02*
X120747618Y-151865723D01*
X120747618Y-151865723D02*
X120709523Y-151789533D01*
X120709523Y-151789533D02*
X120671428Y-151751438D01*
X120671428Y-151751438D02*
X120595237Y-151713342D01*
X120595237Y-151713342D02*
X120442856Y-151675247D01*
X120442856Y-151675247D02*
X120366666Y-151637152D01*
X120366666Y-151637152D02*
X120328571Y-151599057D01*
X120328571Y-151599057D02*
X120290475Y-151522866D01*
X120290475Y-151522866D02*
X120290475Y-151446676D01*
X120290475Y-151446676D02*
X120328571Y-151370485D01*
X120328571Y-151370485D02*
X120366666Y-151332390D01*
X120366666Y-151332390D02*
X120442856Y-151294295D01*
X120442856Y-151294295D02*
X120633333Y-151294295D01*
X120633333Y-151294295D02*
X120747618Y-151332390D01*
X121433333Y-151560961D02*
X121433333Y-152094295D01*
X121242857Y-151256200D02*
X121052380Y-151827628D01*
X121052380Y-151827628D02*
X121547619Y-151827628D01*
X98909523Y-109856200D02*
X99023809Y-109894295D01*
X99023809Y-109894295D02*
X99214285Y-109894295D01*
X99214285Y-109894295D02*
X99290476Y-109856200D01*
X99290476Y-109856200D02*
X99328571Y-109818104D01*
X99328571Y-109818104D02*
X99366666Y-109741914D01*
X99366666Y-109741914D02*
X99366666Y-109665723D01*
X99366666Y-109665723D02*
X99328571Y-109589533D01*
X99328571Y-109589533D02*
X99290476Y-109551438D01*
X99290476Y-109551438D02*
X99214285Y-109513342D01*
X99214285Y-109513342D02*
X99061904Y-109475247D01*
X99061904Y-109475247D02*
X98985714Y-109437152D01*
X98985714Y-109437152D02*
X98947619Y-109399057D01*
X98947619Y-109399057D02*
X98909523Y-109322866D01*
X98909523Y-109322866D02*
X98909523Y-109246676D01*
X98909523Y-109246676D02*
X98947619Y-109170485D01*
X98947619Y-109170485D02*
X98985714Y-109132390D01*
X98985714Y-109132390D02*
X99061904Y-109094295D01*
X99061904Y-109094295D02*
X99252381Y-109094295D01*
X99252381Y-109094295D02*
X99366666Y-109132390D01*
X100128571Y-109894295D02*
X99671428Y-109894295D01*
X99900000Y-109894295D02*
X99900000Y-109094295D01*
X99900000Y-109094295D02*
X99823809Y-109208580D01*
X99823809Y-109208580D02*
X99747619Y-109284771D01*
X99747619Y-109284771D02*
X99671428Y-109322866D01*
X100890476Y-109894295D02*
X100433333Y-109894295D01*
X100661905Y-109894295D02*
X100661905Y-109094295D01*
X100661905Y-109094295D02*
X100585714Y-109208580D01*
X100585714Y-109208580D02*
X100509524Y-109284771D01*
X100509524Y-109284771D02*
X100433333Y-109322866D01*
X78290475Y-130856200D02*
X78404761Y-130894295D01*
X78404761Y-130894295D02*
X78595237Y-130894295D01*
X78595237Y-130894295D02*
X78671428Y-130856200D01*
X78671428Y-130856200D02*
X78709523Y-130818104D01*
X78709523Y-130818104D02*
X78747618Y-130741914D01*
X78747618Y-130741914D02*
X78747618Y-130665723D01*
X78747618Y-130665723D02*
X78709523Y-130589533D01*
X78709523Y-130589533D02*
X78671428Y-130551438D01*
X78671428Y-130551438D02*
X78595237Y-130513342D01*
X78595237Y-130513342D02*
X78442856Y-130475247D01*
X78442856Y-130475247D02*
X78366666Y-130437152D01*
X78366666Y-130437152D02*
X78328571Y-130399057D01*
X78328571Y-130399057D02*
X78290475Y-130322866D01*
X78290475Y-130322866D02*
X78290475Y-130246676D01*
X78290475Y-130246676D02*
X78328571Y-130170485D01*
X78328571Y-130170485D02*
X78366666Y-130132390D01*
X78366666Y-130132390D02*
X78442856Y-130094295D01*
X78442856Y-130094295D02*
X78633333Y-130094295D01*
X78633333Y-130094295D02*
X78747618Y-130132390D01*
X79433333Y-130094295D02*
X79280952Y-130094295D01*
X79280952Y-130094295D02*
X79204761Y-130132390D01*
X79204761Y-130132390D02*
X79166666Y-130170485D01*
X79166666Y-130170485D02*
X79090476Y-130284771D01*
X79090476Y-130284771D02*
X79052380Y-130437152D01*
X79052380Y-130437152D02*
X79052380Y-130741914D01*
X79052380Y-130741914D02*
X79090476Y-130818104D01*
X79090476Y-130818104D02*
X79128571Y-130856200D01*
X79128571Y-130856200D02*
X79204761Y-130894295D01*
X79204761Y-130894295D02*
X79357142Y-130894295D01*
X79357142Y-130894295D02*
X79433333Y-130856200D01*
X79433333Y-130856200D02*
X79471428Y-130818104D01*
X79471428Y-130818104D02*
X79509523Y-130741914D01*
X79509523Y-130741914D02*
X79509523Y-130551438D01*
X79509523Y-130551438D02*
X79471428Y-130475247D01*
X79471428Y-130475247D02*
X79433333Y-130437152D01*
X79433333Y-130437152D02*
X79357142Y-130399057D01*
X79357142Y-130399057D02*
X79204761Y-130399057D01*
X79204761Y-130399057D02*
X79128571Y-130437152D01*
X79128571Y-130437152D02*
X79090476Y-130475247D01*
X79090476Y-130475247D02*
X79052380Y-130551438D01*
X120290475Y-130856200D02*
X120404761Y-130894295D01*
X120404761Y-130894295D02*
X120595237Y-130894295D01*
X120595237Y-130894295D02*
X120671428Y-130856200D01*
X120671428Y-130856200D02*
X120709523Y-130818104D01*
X120709523Y-130818104D02*
X120747618Y-130741914D01*
X120747618Y-130741914D02*
X120747618Y-130665723D01*
X120747618Y-130665723D02*
X120709523Y-130589533D01*
X120709523Y-130589533D02*
X120671428Y-130551438D01*
X120671428Y-130551438D02*
X120595237Y-130513342D01*
X120595237Y-130513342D02*
X120442856Y-130475247D01*
X120442856Y-130475247D02*
X120366666Y-130437152D01*
X120366666Y-130437152D02*
X120328571Y-130399057D01*
X120328571Y-130399057D02*
X120290475Y-130322866D01*
X120290475Y-130322866D02*
X120290475Y-130246676D01*
X120290475Y-130246676D02*
X120328571Y-130170485D01*
X120328571Y-130170485D02*
X120366666Y-130132390D01*
X120366666Y-130132390D02*
X120442856Y-130094295D01*
X120442856Y-130094295D02*
X120633333Y-130094295D01*
X120633333Y-130094295D02*
X120747618Y-130132390D01*
X121204761Y-130437152D02*
X121128571Y-130399057D01*
X121128571Y-130399057D02*
X121090476Y-130360961D01*
X121090476Y-130360961D02*
X121052380Y-130284771D01*
X121052380Y-130284771D02*
X121052380Y-130246676D01*
X121052380Y-130246676D02*
X121090476Y-130170485D01*
X121090476Y-130170485D02*
X121128571Y-130132390D01*
X121128571Y-130132390D02*
X121204761Y-130094295D01*
X121204761Y-130094295D02*
X121357142Y-130094295D01*
X121357142Y-130094295D02*
X121433333Y-130132390D01*
X121433333Y-130132390D02*
X121471428Y-130170485D01*
X121471428Y-130170485D02*
X121509523Y-130246676D01*
X121509523Y-130246676D02*
X121509523Y-130284771D01*
X121509523Y-130284771D02*
X121471428Y-130360961D01*
X121471428Y-130360961D02*
X121433333Y-130399057D01*
X121433333Y-130399057D02*
X121357142Y-130437152D01*
X121357142Y-130437152D02*
X121204761Y-130437152D01*
X121204761Y-130437152D02*
X121128571Y-130475247D01*
X121128571Y-130475247D02*
X121090476Y-130513342D01*
X121090476Y-130513342D02*
X121052380Y-130589533D01*
X121052380Y-130589533D02*
X121052380Y-130741914D01*
X121052380Y-130741914D02*
X121090476Y-130818104D01*
X121090476Y-130818104D02*
X121128571Y-130856200D01*
X121128571Y-130856200D02*
X121204761Y-130894295D01*
X121204761Y-130894295D02*
X121357142Y-130894295D01*
X121357142Y-130894295D02*
X121433333Y-130856200D01*
X121433333Y-130856200D02*
X121471428Y-130818104D01*
X121471428Y-130818104D02*
X121509523Y-130741914D01*
X121509523Y-130741914D02*
X121509523Y-130589533D01*
X121509523Y-130589533D02*
X121471428Y-130513342D01*
X121471428Y-130513342D02*
X121433333Y-130475247D01*
X121433333Y-130475247D02*
X121357142Y-130437152D01*
X132112295Y-159916666D02*
X132683723Y-159916666D01*
X132683723Y-159916666D02*
X132798009Y-159954761D01*
X132798009Y-159954761D02*
X132874200Y-160030952D01*
X132874200Y-160030952D02*
X132912295Y-160145237D01*
X132912295Y-160145237D02*
X132912295Y-160221428D01*
X132112295Y-159611904D02*
X132112295Y-159116666D01*
X132112295Y-159116666D02*
X132417057Y-159383332D01*
X132417057Y-159383332D02*
X132417057Y-159269047D01*
X132417057Y-159269047D02*
X132455152Y-159192856D01*
X132455152Y-159192856D02*
X132493247Y-159154761D01*
X132493247Y-159154761D02*
X132569438Y-159116666D01*
X132569438Y-159116666D02*
X132759914Y-159116666D01*
X132759914Y-159116666D02*
X132836104Y-159154761D01*
X132836104Y-159154761D02*
X132874200Y-159192856D01*
X132874200Y-159192856D02*
X132912295Y-159269047D01*
X132912295Y-159269047D02*
X132912295Y-159497618D01*
X132912295Y-159497618D02*
X132874200Y-159573809D01*
X132874200Y-159573809D02*
X132836104Y-159611904D01*
X78290475Y-151856200D02*
X78404761Y-151894295D01*
X78404761Y-151894295D02*
X78595237Y-151894295D01*
X78595237Y-151894295D02*
X78671428Y-151856200D01*
X78671428Y-151856200D02*
X78709523Y-151818104D01*
X78709523Y-151818104D02*
X78747618Y-151741914D01*
X78747618Y-151741914D02*
X78747618Y-151665723D01*
X78747618Y-151665723D02*
X78709523Y-151589533D01*
X78709523Y-151589533D02*
X78671428Y-151551438D01*
X78671428Y-151551438D02*
X78595237Y-151513342D01*
X78595237Y-151513342D02*
X78442856Y-151475247D01*
X78442856Y-151475247D02*
X78366666Y-151437152D01*
X78366666Y-151437152D02*
X78328571Y-151399057D01*
X78328571Y-151399057D02*
X78290475Y-151322866D01*
X78290475Y-151322866D02*
X78290475Y-151246676D01*
X78290475Y-151246676D02*
X78328571Y-151170485D01*
X78328571Y-151170485D02*
X78366666Y-151132390D01*
X78366666Y-151132390D02*
X78442856Y-151094295D01*
X78442856Y-151094295D02*
X78633333Y-151094295D01*
X78633333Y-151094295D02*
X78747618Y-151132390D01*
X79052380Y-151170485D02*
X79090476Y-151132390D01*
X79090476Y-151132390D02*
X79166666Y-151094295D01*
X79166666Y-151094295D02*
X79357142Y-151094295D01*
X79357142Y-151094295D02*
X79433333Y-151132390D01*
X79433333Y-151132390D02*
X79471428Y-151170485D01*
X79471428Y-151170485D02*
X79509523Y-151246676D01*
X79509523Y-151246676D02*
X79509523Y-151322866D01*
X79509523Y-151322866D02*
X79471428Y-151437152D01*
X79471428Y-151437152D02*
X79014285Y-151894295D01*
X79014285Y-151894295D02*
X79509523Y-151894295D01*
X57290475Y-109856200D02*
X57404761Y-109894295D01*
X57404761Y-109894295D02*
X57595237Y-109894295D01*
X57595237Y-109894295D02*
X57671428Y-109856200D01*
X57671428Y-109856200D02*
X57709523Y-109818104D01*
X57709523Y-109818104D02*
X57747618Y-109741914D01*
X57747618Y-109741914D02*
X57747618Y-109665723D01*
X57747618Y-109665723D02*
X57709523Y-109589533D01*
X57709523Y-109589533D02*
X57671428Y-109551438D01*
X57671428Y-109551438D02*
X57595237Y-109513342D01*
X57595237Y-109513342D02*
X57442856Y-109475247D01*
X57442856Y-109475247D02*
X57366666Y-109437152D01*
X57366666Y-109437152D02*
X57328571Y-109399057D01*
X57328571Y-109399057D02*
X57290475Y-109322866D01*
X57290475Y-109322866D02*
X57290475Y-109246676D01*
X57290475Y-109246676D02*
X57328571Y-109170485D01*
X57328571Y-109170485D02*
X57366666Y-109132390D01*
X57366666Y-109132390D02*
X57442856Y-109094295D01*
X57442856Y-109094295D02*
X57633333Y-109094295D01*
X57633333Y-109094295D02*
X57747618Y-109132390D01*
X58128571Y-109894295D02*
X58280952Y-109894295D01*
X58280952Y-109894295D02*
X58357142Y-109856200D01*
X58357142Y-109856200D02*
X58395238Y-109818104D01*
X58395238Y-109818104D02*
X58471428Y-109703819D01*
X58471428Y-109703819D02*
X58509523Y-109551438D01*
X58509523Y-109551438D02*
X58509523Y-109246676D01*
X58509523Y-109246676D02*
X58471428Y-109170485D01*
X58471428Y-109170485D02*
X58433333Y-109132390D01*
X58433333Y-109132390D02*
X58357142Y-109094295D01*
X58357142Y-109094295D02*
X58204761Y-109094295D01*
X58204761Y-109094295D02*
X58128571Y-109132390D01*
X58128571Y-109132390D02*
X58090476Y-109170485D01*
X58090476Y-109170485D02*
X58052380Y-109246676D01*
X58052380Y-109246676D02*
X58052380Y-109437152D01*
X58052380Y-109437152D02*
X58090476Y-109513342D01*
X58090476Y-109513342D02*
X58128571Y-109551438D01*
X58128571Y-109551438D02*
X58204761Y-109589533D01*
X58204761Y-109589533D02*
X58357142Y-109589533D01*
X58357142Y-109589533D02*
X58433333Y-109551438D01*
X58433333Y-109551438D02*
X58471428Y-109513342D01*
X58471428Y-109513342D02*
X58509523Y-109437152D01*
X119909523Y-109874200D02*
X120023809Y-109912295D01*
X120023809Y-109912295D02*
X120214285Y-109912295D01*
X120214285Y-109912295D02*
X120290476Y-109874200D01*
X120290476Y-109874200D02*
X120328571Y-109836104D01*
X120328571Y-109836104D02*
X120366666Y-109759914D01*
X120366666Y-109759914D02*
X120366666Y-109683723D01*
X120366666Y-109683723D02*
X120328571Y-109607533D01*
X120328571Y-109607533D02*
X120290476Y-109569438D01*
X120290476Y-109569438D02*
X120214285Y-109531342D01*
X120214285Y-109531342D02*
X120061904Y-109493247D01*
X120061904Y-109493247D02*
X119985714Y-109455152D01*
X119985714Y-109455152D02*
X119947619Y-109417057D01*
X119947619Y-109417057D02*
X119909523Y-109340866D01*
X119909523Y-109340866D02*
X119909523Y-109264676D01*
X119909523Y-109264676D02*
X119947619Y-109188485D01*
X119947619Y-109188485D02*
X119985714Y-109150390D01*
X119985714Y-109150390D02*
X120061904Y-109112295D01*
X120061904Y-109112295D02*
X120252381Y-109112295D01*
X120252381Y-109112295D02*
X120366666Y-109150390D01*
X120671428Y-109188485D02*
X120709524Y-109150390D01*
X120709524Y-109150390D02*
X120785714Y-109112295D01*
X120785714Y-109112295D02*
X120976190Y-109112295D01*
X120976190Y-109112295D02*
X121052381Y-109150390D01*
X121052381Y-109150390D02*
X121090476Y-109188485D01*
X121090476Y-109188485D02*
X121128571Y-109264676D01*
X121128571Y-109264676D02*
X121128571Y-109340866D01*
X121128571Y-109340866D02*
X121090476Y-109455152D01*
X121090476Y-109455152D02*
X120633333Y-109912295D01*
X120633333Y-109912295D02*
X121128571Y-109912295D01*
X121623810Y-109112295D02*
X121700000Y-109112295D01*
X121700000Y-109112295D02*
X121776191Y-109150390D01*
X121776191Y-109150390D02*
X121814286Y-109188485D01*
X121814286Y-109188485D02*
X121852381Y-109264676D01*
X121852381Y-109264676D02*
X121890476Y-109417057D01*
X121890476Y-109417057D02*
X121890476Y-109607533D01*
X121890476Y-109607533D02*
X121852381Y-109759914D01*
X121852381Y-109759914D02*
X121814286Y-109836104D01*
X121814286Y-109836104D02*
X121776191Y-109874200D01*
X121776191Y-109874200D02*
X121700000Y-109912295D01*
X121700000Y-109912295D02*
X121623810Y-109912295D01*
X121623810Y-109912295D02*
X121547619Y-109874200D01*
X121547619Y-109874200D02*
X121509524Y-109836104D01*
X121509524Y-109836104D02*
X121471429Y-109759914D01*
X121471429Y-109759914D02*
X121433333Y-109607533D01*
X121433333Y-109607533D02*
X121433333Y-109417057D01*
X121433333Y-109417057D02*
X121471429Y-109264676D01*
X121471429Y-109264676D02*
X121509524Y-109188485D01*
X121509524Y-109188485D02*
X121547619Y-109150390D01*
X121547619Y-109150390D02*
X121623810Y-109112295D01*
D11*
G04 #@! TO.C,S3*
X93100000Y-167500000D02*
X93100000Y-153500000D01*
X93700000Y-152900000D02*
X106100000Y-152900000D01*
D10*
X94900000Y-156600000D02*
X93100000Y-154050000D01*
X94900000Y-156600000D02*
X94900000Y-159100000D01*
X94900000Y-161900000D02*
X94900000Y-165400000D01*
X94900000Y-165500000D02*
X93100000Y-166800000D01*
X95200000Y-156700000D02*
X95200000Y-159100000D01*
X95200000Y-165300000D02*
X95200000Y-161900000D01*
X95500000Y-156000000D02*
X94700000Y-152950000D01*
X95500000Y-166000000D02*
X94400000Y-168100000D01*
D12*
X96900000Y-158000000D02*
X97100000Y-158000000D01*
X96900000Y-163000000D02*
X97100000Y-163000000D01*
D10*
X97100000Y-163000000D02*
X97100000Y-158000000D01*
D12*
X97400000Y-157500000D02*
X97400000Y-157700000D01*
D10*
X97400000Y-157700000D02*
X102400000Y-157700000D01*
X97400000Y-161500000D02*
X97400000Y-159500000D01*
D12*
X97400000Y-163500000D02*
X97400000Y-163300000D01*
D10*
X98900000Y-158000000D02*
X100900000Y-158000000D01*
X99300000Y-166000000D02*
X104300000Y-166000000D01*
X100900000Y-163000000D02*
X98900000Y-163000000D01*
X101800000Y-163300000D02*
X97400000Y-163300000D01*
D12*
X102400000Y-157500000D02*
X102400000Y-157700000D01*
D10*
X102400000Y-159500000D02*
X102400000Y-161500000D01*
X102700000Y-158000000D02*
X102700000Y-161400000D01*
D12*
X102900000Y-158000000D02*
X102700000Y-158000000D01*
D10*
X104200000Y-165700000D02*
X99300000Y-165700000D01*
X104300000Y-156000000D02*
X105100000Y-152950000D01*
X104300000Y-166000000D02*
X105400000Y-168100000D01*
X104600000Y-156700000D02*
X104600000Y-159100000D01*
X104600000Y-165300000D02*
X104600000Y-164800000D01*
X104900000Y-156600000D02*
X106700000Y-154050000D01*
X104900000Y-159100000D02*
X104900000Y-156600000D01*
X104900000Y-165400000D02*
X104900000Y-164600000D01*
X104900000Y-165500000D02*
X106700000Y-166800000D01*
D11*
X106100000Y-168100000D02*
X93700000Y-168100000D01*
X106700000Y-153500000D02*
X106700000Y-167500000D01*
D10*
X93900000Y-157500000D02*
X93100000Y-157500000D01*
X93100000Y-159500000D01*
X93900000Y-159500000D01*
X93900000Y-157500000D01*
G36*
X93900000Y-157500000D02*
G01*
X93100000Y-157500000D01*
X93100000Y-159500000D01*
X93900000Y-159500000D01*
X93900000Y-157500000D01*
G37*
X93900000Y-162500000D02*
X93100000Y-162500000D01*
X93100000Y-164500000D01*
X93900000Y-164500000D01*
X93900000Y-162500000D01*
G36*
X93900000Y-162500000D02*
G01*
X93100000Y-162500000D01*
X93100000Y-164500000D01*
X93900000Y-164500000D01*
X93900000Y-162500000D01*
G37*
D12*
X97100000Y-158000000D02*
X96900000Y-158000000D01*
X96900000Y-160400000D01*
X97100000Y-160400000D01*
X97100000Y-158000000D01*
G36*
X97100000Y-158000000D02*
G01*
X96900000Y-158000000D01*
X96900000Y-160400000D01*
X97100000Y-160400000D01*
X97100000Y-158000000D01*
G37*
X97100000Y-160800000D02*
X96900000Y-160800000D01*
X96900000Y-163000000D01*
X97100000Y-163000000D01*
X97100000Y-160800000D01*
G36*
X97100000Y-160800000D02*
G01*
X96900000Y-160800000D01*
X96900000Y-163000000D01*
X97100000Y-163000000D01*
X97100000Y-160800000D01*
G37*
D13*
X98900000Y-167500000D02*
X96900000Y-167500000D01*
X96900000Y-168000000D01*
X98900000Y-168000000D01*
X98900000Y-167500000D01*
D12*
X99462700Y-163300000D02*
X97337300Y-163300000D01*
X97337300Y-163500000D01*
X99462700Y-163500000D01*
X99462700Y-163300000D01*
G36*
X99462700Y-163300000D02*
G01*
X97337300Y-163300000D01*
X97337300Y-163500000D01*
X99462700Y-163500000D01*
X99462700Y-163300000D01*
G37*
X99525400Y-157500000D02*
X97400000Y-157500000D01*
X97400000Y-157700000D01*
X99525400Y-157700000D01*
X99525400Y-157500000D01*
G36*
X99525400Y-157500000D02*
G01*
X97400000Y-157500000D01*
X97400000Y-157700000D01*
X99525400Y-157700000D01*
X99525400Y-157500000D01*
G37*
X101862700Y-163300000D02*
X100237300Y-163300000D01*
X100237300Y-163500000D01*
X101862700Y-163500000D01*
X101862700Y-163300000D01*
G36*
X101862700Y-163300000D02*
G01*
X100237300Y-163300000D01*
X100237300Y-163500000D01*
X101862700Y-163500000D01*
X101862700Y-163300000D01*
G37*
X102425400Y-157500000D02*
X100300000Y-157500000D01*
X100300000Y-157700000D01*
X102425400Y-157700000D01*
X102425400Y-157500000D01*
G36*
X102425400Y-157500000D02*
G01*
X100300000Y-157500000D01*
X100300000Y-157700000D01*
X102425400Y-157700000D01*
X102425400Y-157500000D01*
G37*
X102900000Y-158000000D02*
X102700000Y-158000000D01*
X102700000Y-160300000D01*
X102900000Y-160300000D01*
X102900000Y-158000000D01*
G36*
X102900000Y-158000000D02*
G01*
X102700000Y-158000000D01*
X102700000Y-160300000D01*
X102900000Y-160300000D01*
X102900000Y-158000000D01*
G37*
X102900000Y-160700000D02*
X102700000Y-160700000D01*
X102700000Y-161200000D01*
X102900000Y-161200000D01*
X102900000Y-160700000D01*
G36*
X102900000Y-160700000D02*
G01*
X102700000Y-160700000D01*
X102700000Y-161200000D01*
X102900000Y-161200000D01*
X102900000Y-160700000D01*
G37*
D13*
X102900000Y-167500000D02*
X100900000Y-167500000D01*
X100900000Y-168000000D01*
X102900000Y-168000000D01*
X102900000Y-167500000D01*
D10*
X105900000Y-159500000D02*
X106700000Y-159500000D01*
X106700000Y-157500000D01*
X105900000Y-157500000D01*
X105900000Y-159500000D01*
G36*
X105900000Y-159500000D02*
G01*
X106700000Y-159500000D01*
X106700000Y-157500000D01*
X105900000Y-157500000D01*
X105900000Y-159500000D01*
G37*
X105900000Y-164500000D02*
X106700000Y-164500000D01*
X106700000Y-162500000D01*
X105900000Y-162500000D01*
X105900000Y-164500000D01*
G36*
X105900000Y-164500000D02*
G01*
X106700000Y-164500000D01*
X106700000Y-162500000D01*
X105900000Y-162500000D01*
X105900000Y-164500000D01*
G37*
D14*
X93097102Y-154058518D02*
G75*
G02*
X94700000Y-152950001I1355926J-247507D01*
G01*
D11*
X93100000Y-153500000D02*
G75*
G02*
X93700000Y-152900000I600000J0D01*
G01*
X93700000Y-168100000D02*
G75*
G02*
X93100000Y-167500000I0J600000D01*
G01*
D14*
X94399999Y-168099999D02*
G75*
G02*
X93100001Y-166800000I1J1299999D01*
G01*
D10*
X94900000Y-156600000D02*
G75*
G02*
X95500000Y-156000000I600000J0D01*
G01*
X95200000Y-156700000D02*
G75*
G02*
X95600000Y-156300000I399999J1D01*
G01*
X95500000Y-166000000D02*
G75*
G02*
X94900000Y-165400000I0J600000D01*
G01*
D12*
X96900000Y-158000000D02*
G75*
G02*
X97400000Y-157500000I499998J2D01*
G01*
X97000000Y-158000000D02*
G75*
G02*
X97400000Y-157600000I399999J1D01*
G01*
D10*
X97100000Y-158000000D02*
G75*
G02*
X97400000Y-157700000I300000J0D01*
G01*
X97400000Y-159500000D02*
G75*
G02*
X98900000Y-158000000I1500001J-1D01*
G01*
X97400000Y-163300000D02*
G75*
G02*
X97100000Y-163000000I0J300000D01*
G01*
D12*
X97400000Y-163400000D02*
G75*
G02*
X97000000Y-163000000I0J400000D01*
G01*
X97400000Y-163500000D02*
G75*
G02*
X96900000Y-163000000I0J500000D01*
G01*
D10*
X98900000Y-163000000D02*
G75*
G02*
X97400000Y-161500000I0J1500000D01*
G01*
X100900000Y-158000000D02*
G75*
G02*
X102400000Y-159500000I-1J-1500001D01*
G01*
D12*
X102400000Y-157500000D02*
G75*
G02*
X102900000Y-158000000I2J-499998D01*
G01*
X102400000Y-157600000D02*
G75*
G02*
X102800000Y-158000000I-2J-400002D01*
G01*
D10*
X102400000Y-157700000D02*
G75*
G02*
X102700000Y-158000000I0J-300000D01*
G01*
X104200000Y-156300000D02*
G75*
G02*
X104600000Y-156700000I1J-399999D01*
G01*
X104300000Y-156000000D02*
G75*
G02*
X104900000Y-156600000I0J-600000D01*
G01*
X104600384Y-165317157D02*
G75*
G02*
X104200000Y-165699998I-383184J-43D01*
G01*
X104900000Y-165400000D02*
G75*
G02*
X104300000Y-166000000I-600000J0D01*
G01*
D14*
X105100000Y-152950001D02*
G75*
G02*
X106702898Y-154058518I246974J-1356020D01*
G01*
D11*
X106100000Y-152900000D02*
G75*
G02*
X106700000Y-153500000I0J-600000D01*
G01*
D14*
X106700000Y-166800000D02*
G75*
G02*
X105400001Y-168100000I-1300000J0D01*
G01*
D11*
X106700000Y-167500000D02*
G75*
G02*
X106100000Y-168100000I-600000J0D01*
G01*
G04 #@! TO.C,S7*
X93100000Y-146500000D02*
X93100000Y-132500000D01*
X93700000Y-131900000D02*
X106100000Y-131900000D01*
D10*
X94900000Y-135600000D02*
X93100000Y-133050000D01*
X94900000Y-135600000D02*
X94900000Y-138100000D01*
X94900000Y-140900000D02*
X94900000Y-144400000D01*
X94900000Y-144500000D02*
X93100000Y-145800000D01*
X95200000Y-135700000D02*
X95200000Y-138100000D01*
X95200000Y-144300000D02*
X95200000Y-140900000D01*
X95500000Y-135000000D02*
X94700000Y-131950000D01*
X95500000Y-145000000D02*
X94400000Y-147100000D01*
D12*
X96900000Y-137000000D02*
X97100000Y-137000000D01*
X96900000Y-142000000D02*
X97100000Y-142000000D01*
D10*
X97100000Y-142000000D02*
X97100000Y-137000000D01*
D12*
X97400000Y-136500000D02*
X97400000Y-136700000D01*
D10*
X97400000Y-136700000D02*
X102400000Y-136700000D01*
X97400000Y-140500000D02*
X97400000Y-138500000D01*
D12*
X97400000Y-142500000D02*
X97400000Y-142300000D01*
D10*
X98900000Y-137000000D02*
X100900000Y-137000000D01*
X99300000Y-145000000D02*
X104300000Y-145000000D01*
X100900000Y-142000000D02*
X98900000Y-142000000D01*
X101800000Y-142300000D02*
X97400000Y-142300000D01*
D12*
X102400000Y-136500000D02*
X102400000Y-136700000D01*
D10*
X102400000Y-138500000D02*
X102400000Y-140500000D01*
X102700000Y-137000000D02*
X102700000Y-140400000D01*
D12*
X102900000Y-137000000D02*
X102700000Y-137000000D01*
D10*
X104200000Y-144700000D02*
X99300000Y-144700000D01*
X104300000Y-135000000D02*
X105100000Y-131950000D01*
X104300000Y-145000000D02*
X105400000Y-147100000D01*
X104600000Y-135700000D02*
X104600000Y-138100000D01*
X104600000Y-144300000D02*
X104600000Y-143800000D01*
X104900000Y-135600000D02*
X106700000Y-133050000D01*
X104900000Y-138100000D02*
X104900000Y-135600000D01*
X104900000Y-144400000D02*
X104900000Y-143600000D01*
X104900000Y-144500000D02*
X106700000Y-145800000D01*
D11*
X106100000Y-147100000D02*
X93700000Y-147100000D01*
X106700000Y-132500000D02*
X106700000Y-146500000D01*
D10*
X93900000Y-136500000D02*
X93100000Y-136500000D01*
X93100000Y-138500000D01*
X93900000Y-138500000D01*
X93900000Y-136500000D01*
G36*
X93900000Y-136500000D02*
G01*
X93100000Y-136500000D01*
X93100000Y-138500000D01*
X93900000Y-138500000D01*
X93900000Y-136500000D01*
G37*
X93900000Y-141500000D02*
X93100000Y-141500000D01*
X93100000Y-143500000D01*
X93900000Y-143500000D01*
X93900000Y-141500000D01*
G36*
X93900000Y-141500000D02*
G01*
X93100000Y-141500000D01*
X93100000Y-143500000D01*
X93900000Y-143500000D01*
X93900000Y-141500000D01*
G37*
D12*
X97100000Y-137000000D02*
X96900000Y-137000000D01*
X96900000Y-139400000D01*
X97100000Y-139400000D01*
X97100000Y-137000000D01*
G36*
X97100000Y-137000000D02*
G01*
X96900000Y-137000000D01*
X96900000Y-139400000D01*
X97100000Y-139400000D01*
X97100000Y-137000000D01*
G37*
X97100000Y-139800000D02*
X96900000Y-139800000D01*
X96900000Y-142000000D01*
X97100000Y-142000000D01*
X97100000Y-139800000D01*
G36*
X97100000Y-139800000D02*
G01*
X96900000Y-139800000D01*
X96900000Y-142000000D01*
X97100000Y-142000000D01*
X97100000Y-139800000D01*
G37*
D13*
X98900000Y-146500000D02*
X96900000Y-146500000D01*
X96900000Y-147000000D01*
X98900000Y-147000000D01*
X98900000Y-146500000D01*
D12*
X99462700Y-142300000D02*
X97337300Y-142300000D01*
X97337300Y-142500000D01*
X99462700Y-142500000D01*
X99462700Y-142300000D01*
G36*
X99462700Y-142300000D02*
G01*
X97337300Y-142300000D01*
X97337300Y-142500000D01*
X99462700Y-142500000D01*
X99462700Y-142300000D01*
G37*
X99525400Y-136500000D02*
X97400000Y-136500000D01*
X97400000Y-136700000D01*
X99525400Y-136700000D01*
X99525400Y-136500000D01*
G36*
X99525400Y-136500000D02*
G01*
X97400000Y-136500000D01*
X97400000Y-136700000D01*
X99525400Y-136700000D01*
X99525400Y-136500000D01*
G37*
X101862700Y-142300000D02*
X100237300Y-142300000D01*
X100237300Y-142500000D01*
X101862700Y-142500000D01*
X101862700Y-142300000D01*
G36*
X101862700Y-142300000D02*
G01*
X100237300Y-142300000D01*
X100237300Y-142500000D01*
X101862700Y-142500000D01*
X101862700Y-142300000D01*
G37*
X102425400Y-136500000D02*
X100300000Y-136500000D01*
X100300000Y-136700000D01*
X102425400Y-136700000D01*
X102425400Y-136500000D01*
G36*
X102425400Y-136500000D02*
G01*
X100300000Y-136500000D01*
X100300000Y-136700000D01*
X102425400Y-136700000D01*
X102425400Y-136500000D01*
G37*
X102900000Y-137000000D02*
X102700000Y-137000000D01*
X102700000Y-139300000D01*
X102900000Y-139300000D01*
X102900000Y-137000000D01*
G36*
X102900000Y-137000000D02*
G01*
X102700000Y-137000000D01*
X102700000Y-139300000D01*
X102900000Y-139300000D01*
X102900000Y-137000000D01*
G37*
X102900000Y-139700000D02*
X102700000Y-139700000D01*
X102700000Y-140200000D01*
X102900000Y-140200000D01*
X102900000Y-139700000D01*
G36*
X102900000Y-139700000D02*
G01*
X102700000Y-139700000D01*
X102700000Y-140200000D01*
X102900000Y-140200000D01*
X102900000Y-139700000D01*
G37*
D13*
X102900000Y-146500000D02*
X100900000Y-146500000D01*
X100900000Y-147000000D01*
X102900000Y-147000000D01*
X102900000Y-146500000D01*
D10*
X105900000Y-138500000D02*
X106700000Y-138500000D01*
X106700000Y-136500000D01*
X105900000Y-136500000D01*
X105900000Y-138500000D01*
G36*
X105900000Y-138500000D02*
G01*
X106700000Y-138500000D01*
X106700000Y-136500000D01*
X105900000Y-136500000D01*
X105900000Y-138500000D01*
G37*
X105900000Y-143500000D02*
X106700000Y-143500000D01*
X106700000Y-141500000D01*
X105900000Y-141500000D01*
X105900000Y-143500000D01*
G36*
X105900000Y-143500000D02*
G01*
X106700000Y-143500000D01*
X106700000Y-141500000D01*
X105900000Y-141500000D01*
X105900000Y-143500000D01*
G37*
D14*
X93097102Y-133058518D02*
G75*
G02*
X94700000Y-131950001I1355926J-247507D01*
G01*
D11*
X93100000Y-132500000D02*
G75*
G02*
X93700000Y-131900000I600000J0D01*
G01*
X93700000Y-147100000D02*
G75*
G02*
X93100000Y-146500000I0J600000D01*
G01*
D14*
X94399999Y-147099999D02*
G75*
G02*
X93100001Y-145800000I1J1299999D01*
G01*
D10*
X94900000Y-135600000D02*
G75*
G02*
X95500000Y-135000000I600000J0D01*
G01*
X95200000Y-135700000D02*
G75*
G02*
X95600000Y-135300000I399999J1D01*
G01*
X95500000Y-145000000D02*
G75*
G02*
X94900000Y-144400000I0J600000D01*
G01*
D12*
X96900000Y-137000000D02*
G75*
G02*
X97400000Y-136500000I499998J2D01*
G01*
X97000000Y-137000000D02*
G75*
G02*
X97400000Y-136600000I399999J1D01*
G01*
D10*
X97100000Y-137000000D02*
G75*
G02*
X97400000Y-136700000I300000J0D01*
G01*
X97400000Y-138500000D02*
G75*
G02*
X98900000Y-137000000I1500001J-1D01*
G01*
X97400000Y-142300000D02*
G75*
G02*
X97100000Y-142000000I0J300000D01*
G01*
D12*
X97400000Y-142400000D02*
G75*
G02*
X97000000Y-142000000I0J400000D01*
G01*
X97400000Y-142500000D02*
G75*
G02*
X96900000Y-142000000I0J500000D01*
G01*
D10*
X98900000Y-142000000D02*
G75*
G02*
X97400000Y-140500000I0J1500000D01*
G01*
X100900000Y-137000000D02*
G75*
G02*
X102400000Y-138500000I-1J-1500001D01*
G01*
D12*
X102400000Y-136500000D02*
G75*
G02*
X102900000Y-137000000I2J-499998D01*
G01*
X102400000Y-136600000D02*
G75*
G02*
X102800000Y-137000000I-2J-400002D01*
G01*
D10*
X102400000Y-136700000D02*
G75*
G02*
X102700000Y-137000000I0J-300000D01*
G01*
X104200000Y-135300000D02*
G75*
G02*
X104600000Y-135700000I1J-399999D01*
G01*
X104300000Y-135000000D02*
G75*
G02*
X104900000Y-135600000I0J-600000D01*
G01*
X104600384Y-144317157D02*
G75*
G02*
X104200000Y-144699998I-383184J-43D01*
G01*
X104900000Y-144400000D02*
G75*
G02*
X104300000Y-145000000I-600000J0D01*
G01*
D14*
X105100000Y-131950001D02*
G75*
G02*
X106702898Y-133058518I246974J-1356020D01*
G01*
D11*
X106100000Y-131900000D02*
G75*
G02*
X106700000Y-132500000I0J-600000D01*
G01*
D14*
X106700000Y-145800000D02*
G75*
G02*
X105400001Y-147100000I-1300000J0D01*
G01*
D11*
X106700000Y-146500000D02*
G75*
G02*
X106100000Y-147100000I-600000J0D01*
G01*
G04 #@! TO.C,S5*
X51100000Y-146500000D02*
X51100000Y-132500000D01*
X51700000Y-131900000D02*
X64100000Y-131900000D01*
D10*
X52900000Y-135600000D02*
X51100000Y-133050000D01*
X52900000Y-135600000D02*
X52900000Y-138100000D01*
X52900000Y-140900000D02*
X52900000Y-144400000D01*
X52900000Y-144500000D02*
X51100000Y-145800000D01*
X53200000Y-135700000D02*
X53200000Y-138100000D01*
X53200000Y-144300000D02*
X53200000Y-140900000D01*
X53500000Y-135000000D02*
X52700000Y-131950000D01*
X53500000Y-145000000D02*
X52400000Y-147100000D01*
D12*
X54900000Y-137000000D02*
X55100000Y-137000000D01*
X54900000Y-142000000D02*
X55100000Y-142000000D01*
D10*
X55100000Y-142000000D02*
X55100000Y-137000000D01*
D12*
X55400000Y-136500000D02*
X55400000Y-136700000D01*
D10*
X55400000Y-136700000D02*
X60400000Y-136700000D01*
X55400000Y-140500000D02*
X55400000Y-138500000D01*
D12*
X55400000Y-142500000D02*
X55400000Y-142300000D01*
D10*
X56900000Y-137000000D02*
X58900000Y-137000000D01*
X57300000Y-145000000D02*
X62300000Y-145000000D01*
X58900000Y-142000000D02*
X56900000Y-142000000D01*
X59800000Y-142300000D02*
X55400000Y-142300000D01*
D12*
X60400000Y-136500000D02*
X60400000Y-136700000D01*
D10*
X60400000Y-138500000D02*
X60400000Y-140500000D01*
X60700000Y-137000000D02*
X60700000Y-140400000D01*
D12*
X60900000Y-137000000D02*
X60700000Y-137000000D01*
D10*
X62200000Y-144700000D02*
X57300000Y-144700000D01*
X62300000Y-135000000D02*
X63100000Y-131950000D01*
X62300000Y-145000000D02*
X63400000Y-147100000D01*
X62600000Y-135700000D02*
X62600000Y-138100000D01*
X62600000Y-144300000D02*
X62600000Y-143800000D01*
X62900000Y-135600000D02*
X64700000Y-133050000D01*
X62900000Y-138100000D02*
X62900000Y-135600000D01*
X62900000Y-144400000D02*
X62900000Y-143600000D01*
X62900000Y-144500000D02*
X64700000Y-145800000D01*
D11*
X64100000Y-147100000D02*
X51700000Y-147100000D01*
X64700000Y-132500000D02*
X64700000Y-146500000D01*
D10*
X51900000Y-136500000D02*
X51100000Y-136500000D01*
X51100000Y-138500000D01*
X51900000Y-138500000D01*
X51900000Y-136500000D01*
G36*
X51900000Y-136500000D02*
G01*
X51100000Y-136500000D01*
X51100000Y-138500000D01*
X51900000Y-138500000D01*
X51900000Y-136500000D01*
G37*
X51900000Y-141500000D02*
X51100000Y-141500000D01*
X51100000Y-143500000D01*
X51900000Y-143500000D01*
X51900000Y-141500000D01*
G36*
X51900000Y-141500000D02*
G01*
X51100000Y-141500000D01*
X51100000Y-143500000D01*
X51900000Y-143500000D01*
X51900000Y-141500000D01*
G37*
D12*
X55100000Y-137000000D02*
X54900000Y-137000000D01*
X54900000Y-139400000D01*
X55100000Y-139400000D01*
X55100000Y-137000000D01*
G36*
X55100000Y-137000000D02*
G01*
X54900000Y-137000000D01*
X54900000Y-139400000D01*
X55100000Y-139400000D01*
X55100000Y-137000000D01*
G37*
X55100000Y-139800000D02*
X54900000Y-139800000D01*
X54900000Y-142000000D01*
X55100000Y-142000000D01*
X55100000Y-139800000D01*
G36*
X55100000Y-139800000D02*
G01*
X54900000Y-139800000D01*
X54900000Y-142000000D01*
X55100000Y-142000000D01*
X55100000Y-139800000D01*
G37*
D13*
X56900000Y-146500000D02*
X54900000Y-146500000D01*
X54900000Y-147000000D01*
X56900000Y-147000000D01*
X56900000Y-146500000D01*
D12*
X57462700Y-142300000D02*
X55337300Y-142300000D01*
X55337300Y-142500000D01*
X57462700Y-142500000D01*
X57462700Y-142300000D01*
G36*
X57462700Y-142300000D02*
G01*
X55337300Y-142300000D01*
X55337300Y-142500000D01*
X57462700Y-142500000D01*
X57462700Y-142300000D01*
G37*
X57525400Y-136500000D02*
X55400000Y-136500000D01*
X55400000Y-136700000D01*
X57525400Y-136700000D01*
X57525400Y-136500000D01*
G36*
X57525400Y-136500000D02*
G01*
X55400000Y-136500000D01*
X55400000Y-136700000D01*
X57525400Y-136700000D01*
X57525400Y-136500000D01*
G37*
X59862700Y-142300000D02*
X58237300Y-142300000D01*
X58237300Y-142500000D01*
X59862700Y-142500000D01*
X59862700Y-142300000D01*
G36*
X59862700Y-142300000D02*
G01*
X58237300Y-142300000D01*
X58237300Y-142500000D01*
X59862700Y-142500000D01*
X59862700Y-142300000D01*
G37*
X60425400Y-136500000D02*
X58300000Y-136500000D01*
X58300000Y-136700000D01*
X60425400Y-136700000D01*
X60425400Y-136500000D01*
G36*
X60425400Y-136500000D02*
G01*
X58300000Y-136500000D01*
X58300000Y-136700000D01*
X60425400Y-136700000D01*
X60425400Y-136500000D01*
G37*
X60900000Y-137000000D02*
X60700000Y-137000000D01*
X60700000Y-139300000D01*
X60900000Y-139300000D01*
X60900000Y-137000000D01*
G36*
X60900000Y-137000000D02*
G01*
X60700000Y-137000000D01*
X60700000Y-139300000D01*
X60900000Y-139300000D01*
X60900000Y-137000000D01*
G37*
X60900000Y-139700000D02*
X60700000Y-139700000D01*
X60700000Y-140200000D01*
X60900000Y-140200000D01*
X60900000Y-139700000D01*
G36*
X60900000Y-139700000D02*
G01*
X60700000Y-139700000D01*
X60700000Y-140200000D01*
X60900000Y-140200000D01*
X60900000Y-139700000D01*
G37*
D13*
X60900000Y-146500000D02*
X58900000Y-146500000D01*
X58900000Y-147000000D01*
X60900000Y-147000000D01*
X60900000Y-146500000D01*
D10*
X63900000Y-138500000D02*
X64700000Y-138500000D01*
X64700000Y-136500000D01*
X63900000Y-136500000D01*
X63900000Y-138500000D01*
G36*
X63900000Y-138500000D02*
G01*
X64700000Y-138500000D01*
X64700000Y-136500000D01*
X63900000Y-136500000D01*
X63900000Y-138500000D01*
G37*
X63900000Y-143500000D02*
X64700000Y-143500000D01*
X64700000Y-141500000D01*
X63900000Y-141500000D01*
X63900000Y-143500000D01*
G36*
X63900000Y-143500000D02*
G01*
X64700000Y-143500000D01*
X64700000Y-141500000D01*
X63900000Y-141500000D01*
X63900000Y-143500000D01*
G37*
D14*
X51097102Y-133058518D02*
G75*
G02*
X52700000Y-131950001I1355926J-247507D01*
G01*
D11*
X51100000Y-132500000D02*
G75*
G02*
X51700000Y-131900000I600000J0D01*
G01*
X51700000Y-147100000D02*
G75*
G02*
X51100000Y-146500000I0J600000D01*
G01*
D14*
X52399999Y-147099999D02*
G75*
G02*
X51100001Y-145800000I1J1299999D01*
G01*
D10*
X52900000Y-135600000D02*
G75*
G02*
X53500000Y-135000000I600000J0D01*
G01*
X53200000Y-135700000D02*
G75*
G02*
X53600000Y-135300000I399999J1D01*
G01*
X53500000Y-145000000D02*
G75*
G02*
X52900000Y-144400000I0J600000D01*
G01*
D12*
X54900000Y-137000000D02*
G75*
G02*
X55400000Y-136500000I499998J2D01*
G01*
X55000000Y-137000000D02*
G75*
G02*
X55400000Y-136600000I399999J1D01*
G01*
D10*
X55100000Y-137000000D02*
G75*
G02*
X55400000Y-136700000I300000J0D01*
G01*
X55400000Y-138500000D02*
G75*
G02*
X56900000Y-137000000I1500001J-1D01*
G01*
X55400000Y-142300000D02*
G75*
G02*
X55100000Y-142000000I0J300000D01*
G01*
D12*
X55400000Y-142400000D02*
G75*
G02*
X55000000Y-142000000I0J400000D01*
G01*
X55400000Y-142500000D02*
G75*
G02*
X54900000Y-142000000I0J500000D01*
G01*
D10*
X56900000Y-142000000D02*
G75*
G02*
X55400000Y-140500000I0J1500000D01*
G01*
X58900000Y-137000000D02*
G75*
G02*
X60400000Y-138500000I-1J-1500001D01*
G01*
D12*
X60400000Y-136500000D02*
G75*
G02*
X60900000Y-137000000I2J-499998D01*
G01*
X60400000Y-136600000D02*
G75*
G02*
X60800000Y-137000000I-2J-400002D01*
G01*
D10*
X60400000Y-136700000D02*
G75*
G02*
X60700000Y-137000000I0J-300000D01*
G01*
X62200000Y-135300000D02*
G75*
G02*
X62600000Y-135700000I1J-399999D01*
G01*
X62300000Y-135000000D02*
G75*
G02*
X62900000Y-135600000I0J-600000D01*
G01*
X62600384Y-144317157D02*
G75*
G02*
X62200000Y-144699998I-383184J-43D01*
G01*
X62900000Y-144400000D02*
G75*
G02*
X62300000Y-145000000I-600000J0D01*
G01*
D14*
X63100000Y-131950001D02*
G75*
G02*
X64702898Y-133058518I246974J-1356020D01*
G01*
D11*
X64100000Y-131900000D02*
G75*
G02*
X64700000Y-132500000I0J-600000D01*
G01*
D14*
X64700000Y-145800000D02*
G75*
G02*
X63400001Y-147100000I-1300000J0D01*
G01*
D11*
X64700000Y-146500000D02*
G75*
G02*
X64100000Y-147100000I-600000J0D01*
G01*
G04 #@! TO.C,S1*
X51100000Y-167500000D02*
X51100000Y-153500000D01*
X51700000Y-152900000D02*
X64100000Y-152900000D01*
D10*
X52900000Y-156600000D02*
X51100000Y-154050000D01*
X52900000Y-156600000D02*
X52900000Y-159100000D01*
X52900000Y-161900000D02*
X52900000Y-165400000D01*
X52900000Y-165500000D02*
X51100000Y-166800000D01*
X53200000Y-156700000D02*
X53200000Y-159100000D01*
X53200000Y-165300000D02*
X53200000Y-161900000D01*
X53500000Y-156000000D02*
X52700000Y-152950000D01*
X53500000Y-166000000D02*
X52400000Y-168100000D01*
D12*
X54900000Y-158000000D02*
X55100000Y-158000000D01*
X54900000Y-163000000D02*
X55100000Y-163000000D01*
D10*
X55100000Y-163000000D02*
X55100000Y-158000000D01*
D12*
X55400000Y-157500000D02*
X55400000Y-157700000D01*
D10*
X55400000Y-157700000D02*
X60400000Y-157700000D01*
X55400000Y-161500000D02*
X55400000Y-159500000D01*
D12*
X55400000Y-163500000D02*
X55400000Y-163300000D01*
D10*
X56900000Y-158000000D02*
X58900000Y-158000000D01*
X57300000Y-166000000D02*
X62300000Y-166000000D01*
X58900000Y-163000000D02*
X56900000Y-163000000D01*
X59800000Y-163300000D02*
X55400000Y-163300000D01*
D12*
X60400000Y-157500000D02*
X60400000Y-157700000D01*
D10*
X60400000Y-159500000D02*
X60400000Y-161500000D01*
X60700000Y-158000000D02*
X60700000Y-161400000D01*
D12*
X60900000Y-158000000D02*
X60700000Y-158000000D01*
D10*
X62200000Y-165700000D02*
X57300000Y-165700000D01*
X62300000Y-156000000D02*
X63100000Y-152950000D01*
X62300000Y-166000000D02*
X63400000Y-168100000D01*
X62600000Y-156700000D02*
X62600000Y-159100000D01*
X62600000Y-165300000D02*
X62600000Y-164800000D01*
X62900000Y-156600000D02*
X64700000Y-154050000D01*
X62900000Y-159100000D02*
X62900000Y-156600000D01*
X62900000Y-165400000D02*
X62900000Y-164600000D01*
X62900000Y-165500000D02*
X64700000Y-166800000D01*
D11*
X64100000Y-168100000D02*
X51700000Y-168100000D01*
X64700000Y-153500000D02*
X64700000Y-167500000D01*
D10*
X51900000Y-157500000D02*
X51100000Y-157500000D01*
X51100000Y-159500000D01*
X51900000Y-159500000D01*
X51900000Y-157500000D01*
G36*
X51900000Y-157500000D02*
G01*
X51100000Y-157500000D01*
X51100000Y-159500000D01*
X51900000Y-159500000D01*
X51900000Y-157500000D01*
G37*
X51900000Y-162500000D02*
X51100000Y-162500000D01*
X51100000Y-164500000D01*
X51900000Y-164500000D01*
X51900000Y-162500000D01*
G36*
X51900000Y-162500000D02*
G01*
X51100000Y-162500000D01*
X51100000Y-164500000D01*
X51900000Y-164500000D01*
X51900000Y-162500000D01*
G37*
D12*
X55100000Y-158000000D02*
X54900000Y-158000000D01*
X54900000Y-160400000D01*
X55100000Y-160400000D01*
X55100000Y-158000000D01*
G36*
X55100000Y-158000000D02*
G01*
X54900000Y-158000000D01*
X54900000Y-160400000D01*
X55100000Y-160400000D01*
X55100000Y-158000000D01*
G37*
X55100000Y-160800000D02*
X54900000Y-160800000D01*
X54900000Y-163000000D01*
X55100000Y-163000000D01*
X55100000Y-160800000D01*
G36*
X55100000Y-160800000D02*
G01*
X54900000Y-160800000D01*
X54900000Y-163000000D01*
X55100000Y-163000000D01*
X55100000Y-160800000D01*
G37*
D13*
X56900000Y-167500000D02*
X54900000Y-167500000D01*
X54900000Y-168000000D01*
X56900000Y-168000000D01*
X56900000Y-167500000D01*
D12*
X57462700Y-163300000D02*
X55337300Y-163300000D01*
X55337300Y-163500000D01*
X57462700Y-163500000D01*
X57462700Y-163300000D01*
G36*
X57462700Y-163300000D02*
G01*
X55337300Y-163300000D01*
X55337300Y-163500000D01*
X57462700Y-163500000D01*
X57462700Y-163300000D01*
G37*
X57525400Y-157500000D02*
X55400000Y-157500000D01*
X55400000Y-157700000D01*
X57525400Y-157700000D01*
X57525400Y-157500000D01*
G36*
X57525400Y-157500000D02*
G01*
X55400000Y-157500000D01*
X55400000Y-157700000D01*
X57525400Y-157700000D01*
X57525400Y-157500000D01*
G37*
X59862700Y-163300000D02*
X58237300Y-163300000D01*
X58237300Y-163500000D01*
X59862700Y-163500000D01*
X59862700Y-163300000D01*
G36*
X59862700Y-163300000D02*
G01*
X58237300Y-163300000D01*
X58237300Y-163500000D01*
X59862700Y-163500000D01*
X59862700Y-163300000D01*
G37*
X60425400Y-157500000D02*
X58300000Y-157500000D01*
X58300000Y-157700000D01*
X60425400Y-157700000D01*
X60425400Y-157500000D01*
G36*
X60425400Y-157500000D02*
G01*
X58300000Y-157500000D01*
X58300000Y-157700000D01*
X60425400Y-157700000D01*
X60425400Y-157500000D01*
G37*
X60900000Y-158000000D02*
X60700000Y-158000000D01*
X60700000Y-160300000D01*
X60900000Y-160300000D01*
X60900000Y-158000000D01*
G36*
X60900000Y-158000000D02*
G01*
X60700000Y-158000000D01*
X60700000Y-160300000D01*
X60900000Y-160300000D01*
X60900000Y-158000000D01*
G37*
X60900000Y-160700000D02*
X60700000Y-160700000D01*
X60700000Y-161200000D01*
X60900000Y-161200000D01*
X60900000Y-160700000D01*
G36*
X60900000Y-160700000D02*
G01*
X60700000Y-160700000D01*
X60700000Y-161200000D01*
X60900000Y-161200000D01*
X60900000Y-160700000D01*
G37*
D13*
X60900000Y-167500000D02*
X58900000Y-167500000D01*
X58900000Y-168000000D01*
X60900000Y-168000000D01*
X60900000Y-167500000D01*
D10*
X63900000Y-159500000D02*
X64700000Y-159500000D01*
X64700000Y-157500000D01*
X63900000Y-157500000D01*
X63900000Y-159500000D01*
G36*
X63900000Y-159500000D02*
G01*
X64700000Y-159500000D01*
X64700000Y-157500000D01*
X63900000Y-157500000D01*
X63900000Y-159500000D01*
G37*
X63900000Y-164500000D02*
X64700000Y-164500000D01*
X64700000Y-162500000D01*
X63900000Y-162500000D01*
X63900000Y-164500000D01*
G36*
X63900000Y-164500000D02*
G01*
X64700000Y-164500000D01*
X64700000Y-162500000D01*
X63900000Y-162500000D01*
X63900000Y-164500000D01*
G37*
D14*
X51097102Y-154058518D02*
G75*
G02*
X52700000Y-152950001I1355926J-247507D01*
G01*
D11*
X51100000Y-153500000D02*
G75*
G02*
X51700000Y-152900000I600000J0D01*
G01*
X51700000Y-168100000D02*
G75*
G02*
X51100000Y-167500000I0J600000D01*
G01*
D14*
X52399999Y-168099999D02*
G75*
G02*
X51100001Y-166800000I1J1299999D01*
G01*
D10*
X52900000Y-156600000D02*
G75*
G02*
X53500000Y-156000000I600000J0D01*
G01*
X53200000Y-156700000D02*
G75*
G02*
X53600000Y-156300000I399999J1D01*
G01*
X53500000Y-166000000D02*
G75*
G02*
X52900000Y-165400000I0J600000D01*
G01*
D12*
X54900000Y-158000000D02*
G75*
G02*
X55400000Y-157500000I499998J2D01*
G01*
X55000000Y-158000000D02*
G75*
G02*
X55400000Y-157600000I399999J1D01*
G01*
D10*
X55100000Y-158000000D02*
G75*
G02*
X55400000Y-157700000I300000J0D01*
G01*
X55400000Y-159500000D02*
G75*
G02*
X56900000Y-158000000I1500001J-1D01*
G01*
X55400000Y-163300000D02*
G75*
G02*
X55100000Y-163000000I0J300000D01*
G01*
D12*
X55400000Y-163400000D02*
G75*
G02*
X55000000Y-163000000I0J400000D01*
G01*
X55400000Y-163500000D02*
G75*
G02*
X54900000Y-163000000I0J500000D01*
G01*
D10*
X56900000Y-163000000D02*
G75*
G02*
X55400000Y-161500000I0J1500000D01*
G01*
X58900000Y-158000000D02*
G75*
G02*
X60400000Y-159500000I-1J-1500001D01*
G01*
D12*
X60400000Y-157500000D02*
G75*
G02*
X60900000Y-158000000I2J-499998D01*
G01*
X60400000Y-157600000D02*
G75*
G02*
X60800000Y-158000000I-2J-400002D01*
G01*
D10*
X60400000Y-157700000D02*
G75*
G02*
X60700000Y-158000000I0J-300000D01*
G01*
X62200000Y-156300000D02*
G75*
G02*
X62600000Y-156700000I1J-399999D01*
G01*
X62300000Y-156000000D02*
G75*
G02*
X62900000Y-156600000I0J-600000D01*
G01*
X62600384Y-165317157D02*
G75*
G02*
X62200000Y-165699998I-383184J-43D01*
G01*
X62900000Y-165400000D02*
G75*
G02*
X62300000Y-166000000I-600000J0D01*
G01*
D14*
X63100000Y-152950001D02*
G75*
G02*
X64702898Y-154058518I246974J-1356020D01*
G01*
D11*
X64100000Y-152900000D02*
G75*
G02*
X64700000Y-153500000I0J-600000D01*
G01*
D14*
X64700000Y-166800000D02*
G75*
G02*
X63400001Y-168100000I-1300000J0D01*
G01*
D11*
X64700000Y-167500000D02*
G75*
G02*
X64100000Y-168100000I-600000J0D01*
G01*
G04 #@! TO.C,S10*
X72100000Y-125500000D02*
X72100000Y-111500000D01*
X72700000Y-110900000D02*
X85100000Y-110900000D01*
D10*
X73900000Y-114600000D02*
X72100000Y-112050000D01*
X73900000Y-114600000D02*
X73900000Y-117100000D01*
X73900000Y-119900000D02*
X73900000Y-123400000D01*
X73900000Y-123500000D02*
X72100000Y-124800000D01*
X74200000Y-114700000D02*
X74200000Y-117100000D01*
X74200000Y-123300000D02*
X74200000Y-119900000D01*
X74500000Y-114000000D02*
X73700000Y-110950000D01*
X74500000Y-124000000D02*
X73400000Y-126100000D01*
D12*
X75900000Y-116000000D02*
X76100000Y-116000000D01*
X75900000Y-121000000D02*
X76100000Y-121000000D01*
D10*
X76100000Y-121000000D02*
X76100000Y-116000000D01*
D12*
X76400000Y-115500000D02*
X76400000Y-115700000D01*
D10*
X76400000Y-115700000D02*
X81400000Y-115700000D01*
X76400000Y-119500000D02*
X76400000Y-117500000D01*
D12*
X76400000Y-121500000D02*
X76400000Y-121300000D01*
D10*
X77900000Y-116000000D02*
X79900000Y-116000000D01*
X78300000Y-124000000D02*
X83300000Y-124000000D01*
X79900000Y-121000000D02*
X77900000Y-121000000D01*
X80800000Y-121300000D02*
X76400000Y-121300000D01*
D12*
X81400000Y-115500000D02*
X81400000Y-115700000D01*
D10*
X81400000Y-117500000D02*
X81400000Y-119500000D01*
X81700000Y-116000000D02*
X81700000Y-119400000D01*
D12*
X81900000Y-116000000D02*
X81700000Y-116000000D01*
D10*
X83200000Y-123700000D02*
X78300000Y-123700000D01*
X83300000Y-114000000D02*
X84100000Y-110950000D01*
X83300000Y-124000000D02*
X84400000Y-126100000D01*
X83600000Y-114700000D02*
X83600000Y-117100000D01*
X83600000Y-123300000D02*
X83600000Y-122800000D01*
X83900000Y-114600000D02*
X85700000Y-112050000D01*
X83900000Y-117100000D02*
X83900000Y-114600000D01*
X83900000Y-123400000D02*
X83900000Y-122600000D01*
X83900000Y-123500000D02*
X85700000Y-124800000D01*
D11*
X85100000Y-126100000D02*
X72700000Y-126100000D01*
X85700000Y-111500000D02*
X85700000Y-125500000D01*
D10*
X72900000Y-115500000D02*
X72100000Y-115500000D01*
X72100000Y-117500000D01*
X72900000Y-117500000D01*
X72900000Y-115500000D01*
G36*
X72900000Y-115500000D02*
G01*
X72100000Y-115500000D01*
X72100000Y-117500000D01*
X72900000Y-117500000D01*
X72900000Y-115500000D01*
G37*
X72900000Y-120500000D02*
X72100000Y-120500000D01*
X72100000Y-122500000D01*
X72900000Y-122500000D01*
X72900000Y-120500000D01*
G36*
X72900000Y-120500000D02*
G01*
X72100000Y-120500000D01*
X72100000Y-122500000D01*
X72900000Y-122500000D01*
X72900000Y-120500000D01*
G37*
D12*
X76100000Y-116000000D02*
X75900000Y-116000000D01*
X75900000Y-118400000D01*
X76100000Y-118400000D01*
X76100000Y-116000000D01*
G36*
X76100000Y-116000000D02*
G01*
X75900000Y-116000000D01*
X75900000Y-118400000D01*
X76100000Y-118400000D01*
X76100000Y-116000000D01*
G37*
X76100000Y-118800000D02*
X75900000Y-118800000D01*
X75900000Y-121000000D01*
X76100000Y-121000000D01*
X76100000Y-118800000D01*
G36*
X76100000Y-118800000D02*
G01*
X75900000Y-118800000D01*
X75900000Y-121000000D01*
X76100000Y-121000000D01*
X76100000Y-118800000D01*
G37*
D13*
X77900000Y-125500000D02*
X75900000Y-125500000D01*
X75900000Y-126000000D01*
X77900000Y-126000000D01*
X77900000Y-125500000D01*
D12*
X78462700Y-121300000D02*
X76337300Y-121300000D01*
X76337300Y-121500000D01*
X78462700Y-121500000D01*
X78462700Y-121300000D01*
G36*
X78462700Y-121300000D02*
G01*
X76337300Y-121300000D01*
X76337300Y-121500000D01*
X78462700Y-121500000D01*
X78462700Y-121300000D01*
G37*
X78525400Y-115500000D02*
X76400000Y-115500000D01*
X76400000Y-115700000D01*
X78525400Y-115700000D01*
X78525400Y-115500000D01*
G36*
X78525400Y-115500000D02*
G01*
X76400000Y-115500000D01*
X76400000Y-115700000D01*
X78525400Y-115700000D01*
X78525400Y-115500000D01*
G37*
X80862700Y-121300000D02*
X79237300Y-121300000D01*
X79237300Y-121500000D01*
X80862700Y-121500000D01*
X80862700Y-121300000D01*
G36*
X80862700Y-121300000D02*
G01*
X79237300Y-121300000D01*
X79237300Y-121500000D01*
X80862700Y-121500000D01*
X80862700Y-121300000D01*
G37*
X81425400Y-115500000D02*
X79300000Y-115500000D01*
X79300000Y-115700000D01*
X81425400Y-115700000D01*
X81425400Y-115500000D01*
G36*
X81425400Y-115500000D02*
G01*
X79300000Y-115500000D01*
X79300000Y-115700000D01*
X81425400Y-115700000D01*
X81425400Y-115500000D01*
G37*
X81900000Y-116000000D02*
X81700000Y-116000000D01*
X81700000Y-118300000D01*
X81900000Y-118300000D01*
X81900000Y-116000000D01*
G36*
X81900000Y-116000000D02*
G01*
X81700000Y-116000000D01*
X81700000Y-118300000D01*
X81900000Y-118300000D01*
X81900000Y-116000000D01*
G37*
X81900000Y-118700000D02*
X81700000Y-118700000D01*
X81700000Y-119200000D01*
X81900000Y-119200000D01*
X81900000Y-118700000D01*
G36*
X81900000Y-118700000D02*
G01*
X81700000Y-118700000D01*
X81700000Y-119200000D01*
X81900000Y-119200000D01*
X81900000Y-118700000D01*
G37*
D13*
X81900000Y-125500000D02*
X79900000Y-125500000D01*
X79900000Y-126000000D01*
X81900000Y-126000000D01*
X81900000Y-125500000D01*
D10*
X84900000Y-117500000D02*
X85700000Y-117500000D01*
X85700000Y-115500000D01*
X84900000Y-115500000D01*
X84900000Y-117500000D01*
G36*
X84900000Y-117500000D02*
G01*
X85700000Y-117500000D01*
X85700000Y-115500000D01*
X84900000Y-115500000D01*
X84900000Y-117500000D01*
G37*
X84900000Y-122500000D02*
X85700000Y-122500000D01*
X85700000Y-120500000D01*
X84900000Y-120500000D01*
X84900000Y-122500000D01*
G36*
X84900000Y-122500000D02*
G01*
X85700000Y-122500000D01*
X85700000Y-120500000D01*
X84900000Y-120500000D01*
X84900000Y-122500000D01*
G37*
D14*
X72097102Y-112058518D02*
G75*
G02*
X73700000Y-110950001I1355926J-247507D01*
G01*
D11*
X72100000Y-111500000D02*
G75*
G02*
X72700000Y-110900000I600000J0D01*
G01*
X72700000Y-126100000D02*
G75*
G02*
X72100000Y-125500000I0J600000D01*
G01*
D14*
X73399999Y-126099999D02*
G75*
G02*
X72100001Y-124800000I1J1299999D01*
G01*
D10*
X73900000Y-114600000D02*
G75*
G02*
X74500000Y-114000000I600000J0D01*
G01*
X74200000Y-114700000D02*
G75*
G02*
X74600000Y-114300000I399999J1D01*
G01*
X74500000Y-124000000D02*
G75*
G02*
X73900000Y-123400000I0J600000D01*
G01*
D12*
X75900000Y-116000000D02*
G75*
G02*
X76400000Y-115500000I499998J2D01*
G01*
X76000000Y-116000000D02*
G75*
G02*
X76400000Y-115600000I399999J1D01*
G01*
D10*
X76100000Y-116000000D02*
G75*
G02*
X76400000Y-115700000I300000J0D01*
G01*
X76400000Y-117500000D02*
G75*
G02*
X77900000Y-116000000I1500001J-1D01*
G01*
X76400000Y-121300000D02*
G75*
G02*
X76100000Y-121000000I0J300000D01*
G01*
D12*
X76400000Y-121400000D02*
G75*
G02*
X76000000Y-121000000I0J400000D01*
G01*
X76400000Y-121500000D02*
G75*
G02*
X75900000Y-121000000I0J500000D01*
G01*
D10*
X77900000Y-121000000D02*
G75*
G02*
X76400000Y-119500000I0J1500000D01*
G01*
X79900000Y-116000000D02*
G75*
G02*
X81400000Y-117500000I-1J-1500001D01*
G01*
D12*
X81400000Y-115500000D02*
G75*
G02*
X81900000Y-116000000I2J-499998D01*
G01*
X81400000Y-115600000D02*
G75*
G02*
X81800000Y-116000000I-2J-400002D01*
G01*
D10*
X81400000Y-115700000D02*
G75*
G02*
X81700000Y-116000000I0J-300000D01*
G01*
X83200000Y-114300000D02*
G75*
G02*
X83600000Y-114700000I1J-399999D01*
G01*
X83300000Y-114000000D02*
G75*
G02*
X83900000Y-114600000I0J-600000D01*
G01*
X83600384Y-123317157D02*
G75*
G02*
X83200000Y-123699998I-383184J-43D01*
G01*
X83900000Y-123400000D02*
G75*
G02*
X83300000Y-124000000I-600000J0D01*
G01*
D14*
X84100000Y-110950001D02*
G75*
G02*
X85702898Y-112058518I246974J-1356020D01*
G01*
D11*
X85100000Y-110900000D02*
G75*
G02*
X85700000Y-111500000I0J-600000D01*
G01*
D14*
X85700000Y-124800000D02*
G75*
G02*
X84400001Y-126100000I-1300000J0D01*
G01*
D11*
X85700000Y-125500000D02*
G75*
G02*
X85100000Y-126100000I-600000J0D01*
G01*
D10*
G04 #@! TO.C,H1*
X43750000Y-106050000D02*
X43750000Y-107450000D01*
X43750000Y-107450000D02*
X44350000Y-107450000D01*
X44350000Y-106050000D02*
X43750000Y-106050000D01*
X45450000Y-104350000D02*
X45450000Y-104950000D01*
X45450000Y-108550000D02*
X45450000Y-109150000D01*
X45450000Y-109150000D02*
X46850000Y-109150000D01*
X46850000Y-104350000D02*
X45450000Y-104350000D01*
X46850000Y-104950000D02*
X46850000Y-104350000D01*
X46850000Y-109150000D02*
X46850000Y-108550000D01*
X47950000Y-107450000D02*
X48550000Y-107450000D01*
X48550000Y-106050000D02*
X47950000Y-106050000D01*
X48550000Y-107450000D02*
X48550000Y-106050000D01*
D13*
X49150000Y-106750000D02*
G75*
G02*
X43150000Y-106750000I-3000000J0D01*
G01*
X43150000Y-106750000D02*
G75*
G02*
X49150000Y-106750000I3000000J0D01*
G01*
D11*
G04 #@! TO.C,S4*
X114100000Y-167500000D02*
X114100000Y-153500000D01*
X114700000Y-152900000D02*
X127100000Y-152900000D01*
D10*
X115900000Y-156600000D02*
X114100000Y-154050000D01*
X115900000Y-156600000D02*
X115900000Y-159100000D01*
X115900000Y-161900000D02*
X115900000Y-165400000D01*
X115900000Y-165500000D02*
X114100000Y-166800000D01*
X116200000Y-156700000D02*
X116200000Y-159100000D01*
X116200000Y-165300000D02*
X116200000Y-161900000D01*
X116500000Y-156000000D02*
X115700000Y-152950000D01*
X116500000Y-166000000D02*
X115400000Y-168100000D01*
D12*
X117900000Y-158000000D02*
X118100000Y-158000000D01*
X117900000Y-163000000D02*
X118100000Y-163000000D01*
D10*
X118100000Y-163000000D02*
X118100000Y-158000000D01*
D12*
X118400000Y-157500000D02*
X118400000Y-157700000D01*
D10*
X118400000Y-157700000D02*
X123400000Y-157700000D01*
X118400000Y-161500000D02*
X118400000Y-159500000D01*
D12*
X118400000Y-163500000D02*
X118400000Y-163300000D01*
D10*
X119900000Y-158000000D02*
X121900000Y-158000000D01*
X120300000Y-166000000D02*
X125300000Y-166000000D01*
X121900000Y-163000000D02*
X119900000Y-163000000D01*
X122800000Y-163300000D02*
X118400000Y-163300000D01*
D12*
X123400000Y-157500000D02*
X123400000Y-157700000D01*
D10*
X123400000Y-159500000D02*
X123400000Y-161500000D01*
X123700000Y-158000000D02*
X123700000Y-161400000D01*
D12*
X123900000Y-158000000D02*
X123700000Y-158000000D01*
D10*
X125200000Y-165700000D02*
X120300000Y-165700000D01*
X125300000Y-156000000D02*
X126100000Y-152950000D01*
X125300000Y-166000000D02*
X126400000Y-168100000D01*
X125600000Y-156700000D02*
X125600000Y-159100000D01*
X125600000Y-165300000D02*
X125600000Y-164800000D01*
X125900000Y-156600000D02*
X127700000Y-154050000D01*
X125900000Y-159100000D02*
X125900000Y-156600000D01*
X125900000Y-165400000D02*
X125900000Y-164600000D01*
X125900000Y-165500000D02*
X127700000Y-166800000D01*
D11*
X127100000Y-168100000D02*
X114700000Y-168100000D01*
X127700000Y-153500000D02*
X127700000Y-167500000D01*
D10*
X114900000Y-157500000D02*
X114100000Y-157500000D01*
X114100000Y-159500000D01*
X114900000Y-159500000D01*
X114900000Y-157500000D01*
G36*
X114900000Y-157500000D02*
G01*
X114100000Y-157500000D01*
X114100000Y-159500000D01*
X114900000Y-159500000D01*
X114900000Y-157500000D01*
G37*
X114900000Y-162500000D02*
X114100000Y-162500000D01*
X114100000Y-164500000D01*
X114900000Y-164500000D01*
X114900000Y-162500000D01*
G36*
X114900000Y-162500000D02*
G01*
X114100000Y-162500000D01*
X114100000Y-164500000D01*
X114900000Y-164500000D01*
X114900000Y-162500000D01*
G37*
D12*
X118100000Y-158000000D02*
X117900000Y-158000000D01*
X117900000Y-160400000D01*
X118100000Y-160400000D01*
X118100000Y-158000000D01*
G36*
X118100000Y-158000000D02*
G01*
X117900000Y-158000000D01*
X117900000Y-160400000D01*
X118100000Y-160400000D01*
X118100000Y-158000000D01*
G37*
X118100000Y-160800000D02*
X117900000Y-160800000D01*
X117900000Y-163000000D01*
X118100000Y-163000000D01*
X118100000Y-160800000D01*
G36*
X118100000Y-160800000D02*
G01*
X117900000Y-160800000D01*
X117900000Y-163000000D01*
X118100000Y-163000000D01*
X118100000Y-160800000D01*
G37*
D13*
X119900000Y-167500000D02*
X117900000Y-167500000D01*
X117900000Y-168000000D01*
X119900000Y-168000000D01*
X119900000Y-167500000D01*
D12*
X120462700Y-163300000D02*
X118337300Y-163300000D01*
X118337300Y-163500000D01*
X120462700Y-163500000D01*
X120462700Y-163300000D01*
G36*
X120462700Y-163300000D02*
G01*
X118337300Y-163300000D01*
X118337300Y-163500000D01*
X120462700Y-163500000D01*
X120462700Y-163300000D01*
G37*
X120525400Y-157500000D02*
X118400000Y-157500000D01*
X118400000Y-157700000D01*
X120525400Y-157700000D01*
X120525400Y-157500000D01*
G36*
X120525400Y-157500000D02*
G01*
X118400000Y-157500000D01*
X118400000Y-157700000D01*
X120525400Y-157700000D01*
X120525400Y-157500000D01*
G37*
X122862700Y-163300000D02*
X121237300Y-163300000D01*
X121237300Y-163500000D01*
X122862700Y-163500000D01*
X122862700Y-163300000D01*
G36*
X122862700Y-163300000D02*
G01*
X121237300Y-163300000D01*
X121237300Y-163500000D01*
X122862700Y-163500000D01*
X122862700Y-163300000D01*
G37*
X123425400Y-157500000D02*
X121300000Y-157500000D01*
X121300000Y-157700000D01*
X123425400Y-157700000D01*
X123425400Y-157500000D01*
G36*
X123425400Y-157500000D02*
G01*
X121300000Y-157500000D01*
X121300000Y-157700000D01*
X123425400Y-157700000D01*
X123425400Y-157500000D01*
G37*
X123900000Y-158000000D02*
X123700000Y-158000000D01*
X123700000Y-160300000D01*
X123900000Y-160300000D01*
X123900000Y-158000000D01*
G36*
X123900000Y-158000000D02*
G01*
X123700000Y-158000000D01*
X123700000Y-160300000D01*
X123900000Y-160300000D01*
X123900000Y-158000000D01*
G37*
X123900000Y-160700000D02*
X123700000Y-160700000D01*
X123700000Y-161200000D01*
X123900000Y-161200000D01*
X123900000Y-160700000D01*
G36*
X123900000Y-160700000D02*
G01*
X123700000Y-160700000D01*
X123700000Y-161200000D01*
X123900000Y-161200000D01*
X123900000Y-160700000D01*
G37*
D13*
X123900000Y-167500000D02*
X121900000Y-167500000D01*
X121900000Y-168000000D01*
X123900000Y-168000000D01*
X123900000Y-167500000D01*
D10*
X126900000Y-159500000D02*
X127700000Y-159500000D01*
X127700000Y-157500000D01*
X126900000Y-157500000D01*
X126900000Y-159500000D01*
G36*
X126900000Y-159500000D02*
G01*
X127700000Y-159500000D01*
X127700000Y-157500000D01*
X126900000Y-157500000D01*
X126900000Y-159500000D01*
G37*
X126900000Y-164500000D02*
X127700000Y-164500000D01*
X127700000Y-162500000D01*
X126900000Y-162500000D01*
X126900000Y-164500000D01*
G36*
X126900000Y-164500000D02*
G01*
X127700000Y-164500000D01*
X127700000Y-162500000D01*
X126900000Y-162500000D01*
X126900000Y-164500000D01*
G37*
D14*
X114097102Y-154058518D02*
G75*
G02*
X115700000Y-152950001I1355926J-247507D01*
G01*
D11*
X114100000Y-153500000D02*
G75*
G02*
X114700000Y-152900000I600000J0D01*
G01*
X114700000Y-168100000D02*
G75*
G02*
X114100000Y-167500000I0J600000D01*
G01*
D14*
X115399999Y-168099999D02*
G75*
G02*
X114100001Y-166800000I1J1299999D01*
G01*
D10*
X115900000Y-156600000D02*
G75*
G02*
X116500000Y-156000000I600000J0D01*
G01*
X116200000Y-156700000D02*
G75*
G02*
X116600000Y-156300000I399999J1D01*
G01*
X116500000Y-166000000D02*
G75*
G02*
X115900000Y-165400000I0J600000D01*
G01*
D12*
X117900000Y-158000000D02*
G75*
G02*
X118400000Y-157500000I499998J2D01*
G01*
X118000000Y-158000000D02*
G75*
G02*
X118400000Y-157600000I399999J1D01*
G01*
D10*
X118100000Y-158000000D02*
G75*
G02*
X118400000Y-157700000I300000J0D01*
G01*
X118400000Y-159500000D02*
G75*
G02*
X119900000Y-158000000I1500001J-1D01*
G01*
X118400000Y-163300000D02*
G75*
G02*
X118100000Y-163000000I0J300000D01*
G01*
D12*
X118400000Y-163400000D02*
G75*
G02*
X118000000Y-163000000I0J400000D01*
G01*
X118400000Y-163500000D02*
G75*
G02*
X117900000Y-163000000I0J500000D01*
G01*
D10*
X119900000Y-163000000D02*
G75*
G02*
X118400000Y-161500000I0J1500000D01*
G01*
X121900000Y-158000000D02*
G75*
G02*
X123400000Y-159500000I-1J-1500001D01*
G01*
D12*
X123400000Y-157500000D02*
G75*
G02*
X123900000Y-158000000I2J-499998D01*
G01*
X123400000Y-157600000D02*
G75*
G02*
X123800000Y-158000000I-2J-400002D01*
G01*
D10*
X123400000Y-157700000D02*
G75*
G02*
X123700000Y-158000000I0J-300000D01*
G01*
X125200000Y-156300000D02*
G75*
G02*
X125600000Y-156700000I1J-399999D01*
G01*
X125300000Y-156000000D02*
G75*
G02*
X125900000Y-156600000I0J-600000D01*
G01*
X125600384Y-165317157D02*
G75*
G02*
X125200000Y-165699998I-383184J-43D01*
G01*
X125900000Y-165400000D02*
G75*
G02*
X125300000Y-166000000I-600000J0D01*
G01*
D14*
X126100000Y-152950001D02*
G75*
G02*
X127702898Y-154058518I246974J-1356020D01*
G01*
D11*
X127100000Y-152900000D02*
G75*
G02*
X127700000Y-153500000I0J-600000D01*
G01*
D14*
X127700000Y-166800000D02*
G75*
G02*
X126400001Y-168100000I-1300000J0D01*
G01*
D11*
X127700000Y-167500000D02*
G75*
G02*
X127100000Y-168100000I-600000J0D01*
G01*
G04 #@! TO.C,S11*
X93100000Y-125500000D02*
X93100000Y-111500000D01*
X93700000Y-110900000D02*
X106100000Y-110900000D01*
D10*
X94900000Y-114600000D02*
X93100000Y-112050000D01*
X94900000Y-114600000D02*
X94900000Y-117100000D01*
X94900000Y-119900000D02*
X94900000Y-123400000D01*
X94900000Y-123500000D02*
X93100000Y-124800000D01*
X95200000Y-114700000D02*
X95200000Y-117100000D01*
X95200000Y-123300000D02*
X95200000Y-119900000D01*
X95500000Y-114000000D02*
X94700000Y-110950000D01*
X95500000Y-124000000D02*
X94400000Y-126100000D01*
D12*
X96900000Y-116000000D02*
X97100000Y-116000000D01*
X96900000Y-121000000D02*
X97100000Y-121000000D01*
D10*
X97100000Y-121000000D02*
X97100000Y-116000000D01*
D12*
X97400000Y-115500000D02*
X97400000Y-115700000D01*
D10*
X97400000Y-115700000D02*
X102400000Y-115700000D01*
X97400000Y-119500000D02*
X97400000Y-117500000D01*
D12*
X97400000Y-121500000D02*
X97400000Y-121300000D01*
D10*
X98900000Y-116000000D02*
X100900000Y-116000000D01*
X99300000Y-124000000D02*
X104300000Y-124000000D01*
X100900000Y-121000000D02*
X98900000Y-121000000D01*
X101800000Y-121300000D02*
X97400000Y-121300000D01*
D12*
X102400000Y-115500000D02*
X102400000Y-115700000D01*
D10*
X102400000Y-117500000D02*
X102400000Y-119500000D01*
X102700000Y-116000000D02*
X102700000Y-119400000D01*
D12*
X102900000Y-116000000D02*
X102700000Y-116000000D01*
D10*
X104200000Y-123700000D02*
X99300000Y-123700000D01*
X104300000Y-114000000D02*
X105100000Y-110950000D01*
X104300000Y-124000000D02*
X105400000Y-126100000D01*
X104600000Y-114700000D02*
X104600000Y-117100000D01*
X104600000Y-123300000D02*
X104600000Y-122800000D01*
X104900000Y-114600000D02*
X106700000Y-112050000D01*
X104900000Y-117100000D02*
X104900000Y-114600000D01*
X104900000Y-123400000D02*
X104900000Y-122600000D01*
X104900000Y-123500000D02*
X106700000Y-124800000D01*
D11*
X106100000Y-126100000D02*
X93700000Y-126100000D01*
X106700000Y-111500000D02*
X106700000Y-125500000D01*
D10*
X93900000Y-115500000D02*
X93100000Y-115500000D01*
X93100000Y-117500000D01*
X93900000Y-117500000D01*
X93900000Y-115500000D01*
G36*
X93900000Y-115500000D02*
G01*
X93100000Y-115500000D01*
X93100000Y-117500000D01*
X93900000Y-117500000D01*
X93900000Y-115500000D01*
G37*
X93900000Y-120500000D02*
X93100000Y-120500000D01*
X93100000Y-122500000D01*
X93900000Y-122500000D01*
X93900000Y-120500000D01*
G36*
X93900000Y-120500000D02*
G01*
X93100000Y-120500000D01*
X93100000Y-122500000D01*
X93900000Y-122500000D01*
X93900000Y-120500000D01*
G37*
D12*
X97100000Y-116000000D02*
X96900000Y-116000000D01*
X96900000Y-118400000D01*
X97100000Y-118400000D01*
X97100000Y-116000000D01*
G36*
X97100000Y-116000000D02*
G01*
X96900000Y-116000000D01*
X96900000Y-118400000D01*
X97100000Y-118400000D01*
X97100000Y-116000000D01*
G37*
X97100000Y-118800000D02*
X96900000Y-118800000D01*
X96900000Y-121000000D01*
X97100000Y-121000000D01*
X97100000Y-118800000D01*
G36*
X97100000Y-118800000D02*
G01*
X96900000Y-118800000D01*
X96900000Y-121000000D01*
X97100000Y-121000000D01*
X97100000Y-118800000D01*
G37*
D13*
X98900000Y-125500000D02*
X96900000Y-125500000D01*
X96900000Y-126000000D01*
X98900000Y-126000000D01*
X98900000Y-125500000D01*
D12*
X99462700Y-121300000D02*
X97337300Y-121300000D01*
X97337300Y-121500000D01*
X99462700Y-121500000D01*
X99462700Y-121300000D01*
G36*
X99462700Y-121300000D02*
G01*
X97337300Y-121300000D01*
X97337300Y-121500000D01*
X99462700Y-121500000D01*
X99462700Y-121300000D01*
G37*
X99525400Y-115500000D02*
X97400000Y-115500000D01*
X97400000Y-115700000D01*
X99525400Y-115700000D01*
X99525400Y-115500000D01*
G36*
X99525400Y-115500000D02*
G01*
X97400000Y-115500000D01*
X97400000Y-115700000D01*
X99525400Y-115700000D01*
X99525400Y-115500000D01*
G37*
X101862700Y-121300000D02*
X100237300Y-121300000D01*
X100237300Y-121500000D01*
X101862700Y-121500000D01*
X101862700Y-121300000D01*
G36*
X101862700Y-121300000D02*
G01*
X100237300Y-121300000D01*
X100237300Y-121500000D01*
X101862700Y-121500000D01*
X101862700Y-121300000D01*
G37*
X102425400Y-115500000D02*
X100300000Y-115500000D01*
X100300000Y-115700000D01*
X102425400Y-115700000D01*
X102425400Y-115500000D01*
G36*
X102425400Y-115500000D02*
G01*
X100300000Y-115500000D01*
X100300000Y-115700000D01*
X102425400Y-115700000D01*
X102425400Y-115500000D01*
G37*
X102900000Y-116000000D02*
X102700000Y-116000000D01*
X102700000Y-118300000D01*
X102900000Y-118300000D01*
X102900000Y-116000000D01*
G36*
X102900000Y-116000000D02*
G01*
X102700000Y-116000000D01*
X102700000Y-118300000D01*
X102900000Y-118300000D01*
X102900000Y-116000000D01*
G37*
X102900000Y-118700000D02*
X102700000Y-118700000D01*
X102700000Y-119200000D01*
X102900000Y-119200000D01*
X102900000Y-118700000D01*
G36*
X102900000Y-118700000D02*
G01*
X102700000Y-118700000D01*
X102700000Y-119200000D01*
X102900000Y-119200000D01*
X102900000Y-118700000D01*
G37*
D13*
X102900000Y-125500000D02*
X100900000Y-125500000D01*
X100900000Y-126000000D01*
X102900000Y-126000000D01*
X102900000Y-125500000D01*
D10*
X105900000Y-117500000D02*
X106700000Y-117500000D01*
X106700000Y-115500000D01*
X105900000Y-115500000D01*
X105900000Y-117500000D01*
G36*
X105900000Y-117500000D02*
G01*
X106700000Y-117500000D01*
X106700000Y-115500000D01*
X105900000Y-115500000D01*
X105900000Y-117500000D01*
G37*
X105900000Y-122500000D02*
X106700000Y-122500000D01*
X106700000Y-120500000D01*
X105900000Y-120500000D01*
X105900000Y-122500000D01*
G36*
X105900000Y-122500000D02*
G01*
X106700000Y-122500000D01*
X106700000Y-120500000D01*
X105900000Y-120500000D01*
X105900000Y-122500000D01*
G37*
D14*
X93097102Y-112058518D02*
G75*
G02*
X94700000Y-110950001I1355926J-247507D01*
G01*
D11*
X93100000Y-111500000D02*
G75*
G02*
X93700000Y-110900000I600000J0D01*
G01*
X93700000Y-126100000D02*
G75*
G02*
X93100000Y-125500000I0J600000D01*
G01*
D14*
X94399999Y-126099999D02*
G75*
G02*
X93100001Y-124800000I1J1299999D01*
G01*
D10*
X94900000Y-114600000D02*
G75*
G02*
X95500000Y-114000000I600000J0D01*
G01*
X95200000Y-114700000D02*
G75*
G02*
X95600000Y-114300000I399999J1D01*
G01*
X95500000Y-124000000D02*
G75*
G02*
X94900000Y-123400000I0J600000D01*
G01*
D12*
X96900000Y-116000000D02*
G75*
G02*
X97400000Y-115500000I499998J2D01*
G01*
X97000000Y-116000000D02*
G75*
G02*
X97400000Y-115600000I399999J1D01*
G01*
D10*
X97100000Y-116000000D02*
G75*
G02*
X97400000Y-115700000I300000J0D01*
G01*
X97400000Y-117500000D02*
G75*
G02*
X98900000Y-116000000I1500001J-1D01*
G01*
X97400000Y-121300000D02*
G75*
G02*
X97100000Y-121000000I0J300000D01*
G01*
D12*
X97400000Y-121400000D02*
G75*
G02*
X97000000Y-121000000I0J400000D01*
G01*
X97400000Y-121500000D02*
G75*
G02*
X96900000Y-121000000I0J500000D01*
G01*
D10*
X98900000Y-121000000D02*
G75*
G02*
X97400000Y-119500000I0J1500000D01*
G01*
X100900000Y-116000000D02*
G75*
G02*
X102400000Y-117500000I-1J-1500001D01*
G01*
D12*
X102400000Y-115500000D02*
G75*
G02*
X102900000Y-116000000I2J-499998D01*
G01*
X102400000Y-115600000D02*
G75*
G02*
X102800000Y-116000000I-2J-400002D01*
G01*
D10*
X102400000Y-115700000D02*
G75*
G02*
X102700000Y-116000000I0J-300000D01*
G01*
X104200000Y-114300000D02*
G75*
G02*
X104600000Y-114700000I1J-399999D01*
G01*
X104300000Y-114000000D02*
G75*
G02*
X104900000Y-114600000I0J-600000D01*
G01*
X104600384Y-123317157D02*
G75*
G02*
X104200000Y-123699998I-383184J-43D01*
G01*
X104900000Y-123400000D02*
G75*
G02*
X104300000Y-124000000I-600000J0D01*
G01*
D14*
X105100000Y-110950001D02*
G75*
G02*
X106702898Y-112058518I246974J-1356020D01*
G01*
D11*
X106100000Y-110900000D02*
G75*
G02*
X106700000Y-111500000I0J-600000D01*
G01*
D14*
X106700000Y-124800000D02*
G75*
G02*
X105400001Y-126100000I-1300000J0D01*
G01*
D11*
X106700000Y-125500000D02*
G75*
G02*
X106100000Y-126100000I-600000J0D01*
G01*
G04 #@! TO.C,S6*
X72100000Y-146500000D02*
X72100000Y-132500000D01*
X72700000Y-131900000D02*
X85100000Y-131900000D01*
D10*
X73900000Y-135600000D02*
X72100000Y-133050000D01*
X73900000Y-135600000D02*
X73900000Y-138100000D01*
X73900000Y-140900000D02*
X73900000Y-144400000D01*
X73900000Y-144500000D02*
X72100000Y-145800000D01*
X74200000Y-135700000D02*
X74200000Y-138100000D01*
X74200000Y-144300000D02*
X74200000Y-140900000D01*
X74500000Y-135000000D02*
X73700000Y-131950000D01*
X74500000Y-145000000D02*
X73400000Y-147100000D01*
D12*
X75900000Y-137000000D02*
X76100000Y-137000000D01*
X75900000Y-142000000D02*
X76100000Y-142000000D01*
D10*
X76100000Y-142000000D02*
X76100000Y-137000000D01*
D12*
X76400000Y-136500000D02*
X76400000Y-136700000D01*
D10*
X76400000Y-136700000D02*
X81400000Y-136700000D01*
X76400000Y-140500000D02*
X76400000Y-138500000D01*
D12*
X76400000Y-142500000D02*
X76400000Y-142300000D01*
D10*
X77900000Y-137000000D02*
X79900000Y-137000000D01*
X78300000Y-145000000D02*
X83300000Y-145000000D01*
X79900000Y-142000000D02*
X77900000Y-142000000D01*
X80800000Y-142300000D02*
X76400000Y-142300000D01*
D12*
X81400000Y-136500000D02*
X81400000Y-136700000D01*
D10*
X81400000Y-138500000D02*
X81400000Y-140500000D01*
X81700000Y-137000000D02*
X81700000Y-140400000D01*
D12*
X81900000Y-137000000D02*
X81700000Y-137000000D01*
D10*
X83200000Y-144700000D02*
X78300000Y-144700000D01*
X83300000Y-135000000D02*
X84100000Y-131950000D01*
X83300000Y-145000000D02*
X84400000Y-147100000D01*
X83600000Y-135700000D02*
X83600000Y-138100000D01*
X83600000Y-144300000D02*
X83600000Y-143800000D01*
X83900000Y-135600000D02*
X85700000Y-133050000D01*
X83900000Y-138100000D02*
X83900000Y-135600000D01*
X83900000Y-144400000D02*
X83900000Y-143600000D01*
X83900000Y-144500000D02*
X85700000Y-145800000D01*
D11*
X85100000Y-147100000D02*
X72700000Y-147100000D01*
X85700000Y-132500000D02*
X85700000Y-146500000D01*
D10*
X72900000Y-136500000D02*
X72100000Y-136500000D01*
X72100000Y-138500000D01*
X72900000Y-138500000D01*
X72900000Y-136500000D01*
G36*
X72900000Y-136500000D02*
G01*
X72100000Y-136500000D01*
X72100000Y-138500000D01*
X72900000Y-138500000D01*
X72900000Y-136500000D01*
G37*
X72900000Y-141500000D02*
X72100000Y-141500000D01*
X72100000Y-143500000D01*
X72900000Y-143500000D01*
X72900000Y-141500000D01*
G36*
X72900000Y-141500000D02*
G01*
X72100000Y-141500000D01*
X72100000Y-143500000D01*
X72900000Y-143500000D01*
X72900000Y-141500000D01*
G37*
D12*
X76100000Y-137000000D02*
X75900000Y-137000000D01*
X75900000Y-139400000D01*
X76100000Y-139400000D01*
X76100000Y-137000000D01*
G36*
X76100000Y-137000000D02*
G01*
X75900000Y-137000000D01*
X75900000Y-139400000D01*
X76100000Y-139400000D01*
X76100000Y-137000000D01*
G37*
X76100000Y-139800000D02*
X75900000Y-139800000D01*
X75900000Y-142000000D01*
X76100000Y-142000000D01*
X76100000Y-139800000D01*
G36*
X76100000Y-139800000D02*
G01*
X75900000Y-139800000D01*
X75900000Y-142000000D01*
X76100000Y-142000000D01*
X76100000Y-139800000D01*
G37*
D13*
X77900000Y-146500000D02*
X75900000Y-146500000D01*
X75900000Y-147000000D01*
X77900000Y-147000000D01*
X77900000Y-146500000D01*
D12*
X78462700Y-142300000D02*
X76337300Y-142300000D01*
X76337300Y-142500000D01*
X78462700Y-142500000D01*
X78462700Y-142300000D01*
G36*
X78462700Y-142300000D02*
G01*
X76337300Y-142300000D01*
X76337300Y-142500000D01*
X78462700Y-142500000D01*
X78462700Y-142300000D01*
G37*
X78525400Y-136500000D02*
X76400000Y-136500000D01*
X76400000Y-136700000D01*
X78525400Y-136700000D01*
X78525400Y-136500000D01*
G36*
X78525400Y-136500000D02*
G01*
X76400000Y-136500000D01*
X76400000Y-136700000D01*
X78525400Y-136700000D01*
X78525400Y-136500000D01*
G37*
X80862700Y-142300000D02*
X79237300Y-142300000D01*
X79237300Y-142500000D01*
X80862700Y-142500000D01*
X80862700Y-142300000D01*
G36*
X80862700Y-142300000D02*
G01*
X79237300Y-142300000D01*
X79237300Y-142500000D01*
X80862700Y-142500000D01*
X80862700Y-142300000D01*
G37*
X81425400Y-136500000D02*
X79300000Y-136500000D01*
X79300000Y-136700000D01*
X81425400Y-136700000D01*
X81425400Y-136500000D01*
G36*
X81425400Y-136500000D02*
G01*
X79300000Y-136500000D01*
X79300000Y-136700000D01*
X81425400Y-136700000D01*
X81425400Y-136500000D01*
G37*
X81900000Y-137000000D02*
X81700000Y-137000000D01*
X81700000Y-139300000D01*
X81900000Y-139300000D01*
X81900000Y-137000000D01*
G36*
X81900000Y-137000000D02*
G01*
X81700000Y-137000000D01*
X81700000Y-139300000D01*
X81900000Y-139300000D01*
X81900000Y-137000000D01*
G37*
X81900000Y-139700000D02*
X81700000Y-139700000D01*
X81700000Y-140200000D01*
X81900000Y-140200000D01*
X81900000Y-139700000D01*
G36*
X81900000Y-139700000D02*
G01*
X81700000Y-139700000D01*
X81700000Y-140200000D01*
X81900000Y-140200000D01*
X81900000Y-139700000D01*
G37*
D13*
X81900000Y-146500000D02*
X79900000Y-146500000D01*
X79900000Y-147000000D01*
X81900000Y-147000000D01*
X81900000Y-146500000D01*
D10*
X84900000Y-138500000D02*
X85700000Y-138500000D01*
X85700000Y-136500000D01*
X84900000Y-136500000D01*
X84900000Y-138500000D01*
G36*
X84900000Y-138500000D02*
G01*
X85700000Y-138500000D01*
X85700000Y-136500000D01*
X84900000Y-136500000D01*
X84900000Y-138500000D01*
G37*
X84900000Y-143500000D02*
X85700000Y-143500000D01*
X85700000Y-141500000D01*
X84900000Y-141500000D01*
X84900000Y-143500000D01*
G36*
X84900000Y-143500000D02*
G01*
X85700000Y-143500000D01*
X85700000Y-141500000D01*
X84900000Y-141500000D01*
X84900000Y-143500000D01*
G37*
D14*
X72097102Y-133058518D02*
G75*
G02*
X73700000Y-131950001I1355926J-247507D01*
G01*
D11*
X72100000Y-132500000D02*
G75*
G02*
X72700000Y-131900000I600000J0D01*
G01*
X72700000Y-147100000D02*
G75*
G02*
X72100000Y-146500000I0J600000D01*
G01*
D14*
X73399999Y-147099999D02*
G75*
G02*
X72100001Y-145800000I1J1299999D01*
G01*
D10*
X73900000Y-135600000D02*
G75*
G02*
X74500000Y-135000000I600000J0D01*
G01*
X74200000Y-135700000D02*
G75*
G02*
X74600000Y-135300000I399999J1D01*
G01*
X74500000Y-145000000D02*
G75*
G02*
X73900000Y-144400000I0J600000D01*
G01*
D12*
X75900000Y-137000000D02*
G75*
G02*
X76400000Y-136500000I499998J2D01*
G01*
X76000000Y-137000000D02*
G75*
G02*
X76400000Y-136600000I399999J1D01*
G01*
D10*
X76100000Y-137000000D02*
G75*
G02*
X76400000Y-136700000I300000J0D01*
G01*
X76400000Y-138500000D02*
G75*
G02*
X77900000Y-137000000I1500001J-1D01*
G01*
X76400000Y-142300000D02*
G75*
G02*
X76100000Y-142000000I0J300000D01*
G01*
D12*
X76400000Y-142400000D02*
G75*
G02*
X76000000Y-142000000I0J400000D01*
G01*
X76400000Y-142500000D02*
G75*
G02*
X75900000Y-142000000I0J500000D01*
G01*
D10*
X77900000Y-142000000D02*
G75*
G02*
X76400000Y-140500000I0J1500000D01*
G01*
X79900000Y-137000000D02*
G75*
G02*
X81400000Y-138500000I-1J-1500001D01*
G01*
D12*
X81400000Y-136500000D02*
G75*
G02*
X81900000Y-137000000I2J-499998D01*
G01*
X81400000Y-136600000D02*
G75*
G02*
X81800000Y-137000000I-2J-400002D01*
G01*
D10*
X81400000Y-136700000D02*
G75*
G02*
X81700000Y-137000000I0J-300000D01*
G01*
X83200000Y-135300000D02*
G75*
G02*
X83600000Y-135700000I1J-399999D01*
G01*
X83300000Y-135000000D02*
G75*
G02*
X83900000Y-135600000I0J-600000D01*
G01*
X83600384Y-144317157D02*
G75*
G02*
X83200000Y-144699998I-383184J-43D01*
G01*
X83900000Y-144400000D02*
G75*
G02*
X83300000Y-145000000I-600000J0D01*
G01*
D14*
X84100000Y-131950001D02*
G75*
G02*
X85702898Y-133058518I246974J-1356020D01*
G01*
D11*
X85100000Y-131900000D02*
G75*
G02*
X85700000Y-132500000I0J-600000D01*
G01*
D14*
X85700000Y-145800000D02*
G75*
G02*
X84400001Y-147100000I-1300000J0D01*
G01*
D11*
X85700000Y-146500000D02*
G75*
G02*
X85100000Y-147100000I-600000J0D01*
G01*
G04 #@! TO.C,S8*
X114100000Y-146500000D02*
X114100000Y-132500000D01*
X114700000Y-131900000D02*
X127100000Y-131900000D01*
D10*
X115900000Y-135600000D02*
X114100000Y-133050000D01*
X115900000Y-135600000D02*
X115900000Y-138100000D01*
X115900000Y-140900000D02*
X115900000Y-144400000D01*
X115900000Y-144500000D02*
X114100000Y-145800000D01*
X116200000Y-135700000D02*
X116200000Y-138100000D01*
X116200000Y-144300000D02*
X116200000Y-140900000D01*
X116500000Y-135000000D02*
X115700000Y-131950000D01*
X116500000Y-145000000D02*
X115400000Y-147100000D01*
D12*
X117900000Y-137000000D02*
X118100000Y-137000000D01*
X117900000Y-142000000D02*
X118100000Y-142000000D01*
D10*
X118100000Y-142000000D02*
X118100000Y-137000000D01*
D12*
X118400000Y-136500000D02*
X118400000Y-136700000D01*
D10*
X118400000Y-136700000D02*
X123400000Y-136700000D01*
X118400000Y-140500000D02*
X118400000Y-138500000D01*
D12*
X118400000Y-142500000D02*
X118400000Y-142300000D01*
D10*
X119900000Y-137000000D02*
X121900000Y-137000000D01*
X120300000Y-145000000D02*
X125300000Y-145000000D01*
X121900000Y-142000000D02*
X119900000Y-142000000D01*
X122800000Y-142300000D02*
X118400000Y-142300000D01*
D12*
X123400000Y-136500000D02*
X123400000Y-136700000D01*
D10*
X123400000Y-138500000D02*
X123400000Y-140500000D01*
X123700000Y-137000000D02*
X123700000Y-140400000D01*
D12*
X123900000Y-137000000D02*
X123700000Y-137000000D01*
D10*
X125200000Y-144700000D02*
X120300000Y-144700000D01*
X125300000Y-135000000D02*
X126100000Y-131950000D01*
X125300000Y-145000000D02*
X126400000Y-147100000D01*
X125600000Y-135700000D02*
X125600000Y-138100000D01*
X125600000Y-144300000D02*
X125600000Y-143800000D01*
X125900000Y-135600000D02*
X127700000Y-133050000D01*
X125900000Y-138100000D02*
X125900000Y-135600000D01*
X125900000Y-144400000D02*
X125900000Y-143600000D01*
X125900000Y-144500000D02*
X127700000Y-145800000D01*
D11*
X127100000Y-147100000D02*
X114700000Y-147100000D01*
X127700000Y-132500000D02*
X127700000Y-146500000D01*
D10*
X114900000Y-136500000D02*
X114100000Y-136500000D01*
X114100000Y-138500000D01*
X114900000Y-138500000D01*
X114900000Y-136500000D01*
G36*
X114900000Y-136500000D02*
G01*
X114100000Y-136500000D01*
X114100000Y-138500000D01*
X114900000Y-138500000D01*
X114900000Y-136500000D01*
G37*
X114900000Y-141500000D02*
X114100000Y-141500000D01*
X114100000Y-143500000D01*
X114900000Y-143500000D01*
X114900000Y-141500000D01*
G36*
X114900000Y-141500000D02*
G01*
X114100000Y-141500000D01*
X114100000Y-143500000D01*
X114900000Y-143500000D01*
X114900000Y-141500000D01*
G37*
D12*
X118100000Y-137000000D02*
X117900000Y-137000000D01*
X117900000Y-139400000D01*
X118100000Y-139400000D01*
X118100000Y-137000000D01*
G36*
X118100000Y-137000000D02*
G01*
X117900000Y-137000000D01*
X117900000Y-139400000D01*
X118100000Y-139400000D01*
X118100000Y-137000000D01*
G37*
X118100000Y-139800000D02*
X117900000Y-139800000D01*
X117900000Y-142000000D01*
X118100000Y-142000000D01*
X118100000Y-139800000D01*
G36*
X118100000Y-139800000D02*
G01*
X117900000Y-139800000D01*
X117900000Y-142000000D01*
X118100000Y-142000000D01*
X118100000Y-139800000D01*
G37*
D13*
X119900000Y-146500000D02*
X117900000Y-146500000D01*
X117900000Y-147000000D01*
X119900000Y-147000000D01*
X119900000Y-146500000D01*
D12*
X120462700Y-142300000D02*
X118337300Y-142300000D01*
X118337300Y-142500000D01*
X120462700Y-142500000D01*
X120462700Y-142300000D01*
G36*
X120462700Y-142300000D02*
G01*
X118337300Y-142300000D01*
X118337300Y-142500000D01*
X120462700Y-142500000D01*
X120462700Y-142300000D01*
G37*
X120525400Y-136500000D02*
X118400000Y-136500000D01*
X118400000Y-136700000D01*
X120525400Y-136700000D01*
X120525400Y-136500000D01*
G36*
X120525400Y-136500000D02*
G01*
X118400000Y-136500000D01*
X118400000Y-136700000D01*
X120525400Y-136700000D01*
X120525400Y-136500000D01*
G37*
X122862700Y-142300000D02*
X121237300Y-142300000D01*
X121237300Y-142500000D01*
X122862700Y-142500000D01*
X122862700Y-142300000D01*
G36*
X122862700Y-142300000D02*
G01*
X121237300Y-142300000D01*
X121237300Y-142500000D01*
X122862700Y-142500000D01*
X122862700Y-142300000D01*
G37*
X123425400Y-136500000D02*
X121300000Y-136500000D01*
X121300000Y-136700000D01*
X123425400Y-136700000D01*
X123425400Y-136500000D01*
G36*
X123425400Y-136500000D02*
G01*
X121300000Y-136500000D01*
X121300000Y-136700000D01*
X123425400Y-136700000D01*
X123425400Y-136500000D01*
G37*
X123900000Y-137000000D02*
X123700000Y-137000000D01*
X123700000Y-139300000D01*
X123900000Y-139300000D01*
X123900000Y-137000000D01*
G36*
X123900000Y-137000000D02*
G01*
X123700000Y-137000000D01*
X123700000Y-139300000D01*
X123900000Y-139300000D01*
X123900000Y-137000000D01*
G37*
X123900000Y-139700000D02*
X123700000Y-139700000D01*
X123700000Y-140200000D01*
X123900000Y-140200000D01*
X123900000Y-139700000D01*
G36*
X123900000Y-139700000D02*
G01*
X123700000Y-139700000D01*
X123700000Y-140200000D01*
X123900000Y-140200000D01*
X123900000Y-139700000D01*
G37*
D13*
X123900000Y-146500000D02*
X121900000Y-146500000D01*
X121900000Y-147000000D01*
X123900000Y-147000000D01*
X123900000Y-146500000D01*
D10*
X126900000Y-138500000D02*
X127700000Y-138500000D01*
X127700000Y-136500000D01*
X126900000Y-136500000D01*
X126900000Y-138500000D01*
G36*
X126900000Y-138500000D02*
G01*
X127700000Y-138500000D01*
X127700000Y-136500000D01*
X126900000Y-136500000D01*
X126900000Y-138500000D01*
G37*
X126900000Y-143500000D02*
X127700000Y-143500000D01*
X127700000Y-141500000D01*
X126900000Y-141500000D01*
X126900000Y-143500000D01*
G36*
X126900000Y-143500000D02*
G01*
X127700000Y-143500000D01*
X127700000Y-141500000D01*
X126900000Y-141500000D01*
X126900000Y-143500000D01*
G37*
D14*
X114097102Y-133058518D02*
G75*
G02*
X115700000Y-131950001I1355926J-247507D01*
G01*
D11*
X114100000Y-132500000D02*
G75*
G02*
X114700000Y-131900000I600000J0D01*
G01*
X114700000Y-147100000D02*
G75*
G02*
X114100000Y-146500000I0J600000D01*
G01*
D14*
X115399999Y-147099999D02*
G75*
G02*
X114100001Y-145800000I1J1299999D01*
G01*
D10*
X115900000Y-135600000D02*
G75*
G02*
X116500000Y-135000000I600000J0D01*
G01*
X116200000Y-135700000D02*
G75*
G02*
X116600000Y-135300000I399999J1D01*
G01*
X116500000Y-145000000D02*
G75*
G02*
X115900000Y-144400000I0J600000D01*
G01*
D12*
X117900000Y-137000000D02*
G75*
G02*
X118400000Y-136500000I499998J2D01*
G01*
X118000000Y-137000000D02*
G75*
G02*
X118400000Y-136600000I399999J1D01*
G01*
D10*
X118100000Y-137000000D02*
G75*
G02*
X118400000Y-136700000I300000J0D01*
G01*
X118400000Y-138500000D02*
G75*
G02*
X119900000Y-137000000I1500001J-1D01*
G01*
X118400000Y-142300000D02*
G75*
G02*
X118100000Y-142000000I0J300000D01*
G01*
D12*
X118400000Y-142400000D02*
G75*
G02*
X118000000Y-142000000I0J400000D01*
G01*
X118400000Y-142500000D02*
G75*
G02*
X117900000Y-142000000I0J500000D01*
G01*
D10*
X119900000Y-142000000D02*
G75*
G02*
X118400000Y-140500000I0J1500000D01*
G01*
X121900000Y-137000000D02*
G75*
G02*
X123400000Y-138500000I-1J-1500001D01*
G01*
D12*
X123400000Y-136500000D02*
G75*
G02*
X123900000Y-137000000I2J-499998D01*
G01*
X123400000Y-136600000D02*
G75*
G02*
X123800000Y-137000000I-2J-400002D01*
G01*
D10*
X123400000Y-136700000D02*
G75*
G02*
X123700000Y-137000000I0J-300000D01*
G01*
X125200000Y-135300000D02*
G75*
G02*
X125600000Y-135700000I1J-399999D01*
G01*
X125300000Y-135000000D02*
G75*
G02*
X125900000Y-135600000I0J-600000D01*
G01*
X125600384Y-144317157D02*
G75*
G02*
X125200000Y-144699998I-383184J-43D01*
G01*
X125900000Y-144400000D02*
G75*
G02*
X125300000Y-145000000I-600000J0D01*
G01*
D14*
X126100000Y-131950001D02*
G75*
G02*
X127702898Y-133058518I246974J-1356020D01*
G01*
D11*
X127100000Y-131900000D02*
G75*
G02*
X127700000Y-132500000I0J-600000D01*
G01*
D14*
X127700000Y-145800000D02*
G75*
G02*
X126400001Y-147100000I-1300000J0D01*
G01*
D11*
X127700000Y-146500000D02*
G75*
G02*
X127100000Y-147100000I-600000J0D01*
G01*
D10*
G04 #@! TO.C,H4*
X43750000Y-171550000D02*
X43750000Y-172950000D01*
X43750000Y-172950000D02*
X44350000Y-172950000D01*
X44350000Y-171550000D02*
X43750000Y-171550000D01*
X45450000Y-169850000D02*
X45450000Y-170450000D01*
X45450000Y-174050000D02*
X45450000Y-174650000D01*
X45450000Y-174650000D02*
X46850000Y-174650000D01*
X46850000Y-169850000D02*
X45450000Y-169850000D01*
X46850000Y-170450000D02*
X46850000Y-169850000D01*
X46850000Y-174650000D02*
X46850000Y-174050000D01*
X47950000Y-172950000D02*
X48550000Y-172950000D01*
X48550000Y-171550000D02*
X47950000Y-171550000D01*
X48550000Y-172950000D02*
X48550000Y-171550000D01*
D13*
X49150000Y-172250000D02*
G75*
G02*
X43150000Y-172250000I-3000000J0D01*
G01*
X43150000Y-172250000D02*
G75*
G02*
X49150000Y-172250000I3000000J0D01*
G01*
D15*
G04 #@! TO.C,ART2*
X67689160Y-171200000D02*
X68017900Y-171200000D01*
X67689160Y-173700000D02*
X67689160Y-171200000D01*
X68017900Y-171200000D02*
X68017900Y-172436300D01*
X68017900Y-172436300D02*
X69125850Y-171200000D01*
X68017900Y-172855340D02*
X68017900Y-173700000D01*
X68017900Y-173700000D02*
X67689160Y-173700000D01*
X68322791Y-172537759D02*
X68017900Y-172855340D01*
X68541941Y-172303900D02*
X69600182Y-173700000D01*
X69125850Y-171200000D02*
X69523069Y-171200000D01*
X69206510Y-173700000D02*
X68322791Y-172537759D01*
X69523069Y-171200000D02*
X68541941Y-172303900D01*
X69600182Y-173700000D02*
X69206510Y-173700000D01*
X69799050Y-173179000D02*
X69811282Y-173048100D01*
X69811282Y-173048100D02*
X69851960Y-172923181D01*
X69851960Y-172923181D02*
X69923719Y-172813209D01*
X69923719Y-172813209D02*
X70020410Y-172724209D01*
X70020410Y-172724209D02*
X70133619Y-172657368D01*
X70128210Y-173066431D02*
X70115100Y-173159718D01*
X70133619Y-172657368D02*
X70296250Y-172600950D01*
X70155169Y-172352600D02*
X69836591Y-172352600D01*
X70169582Y-172275760D02*
X70155169Y-172352600D01*
X70171360Y-172982881D02*
X70128210Y-173066431D01*
X70210869Y-172209291D02*
X70169582Y-172275760D01*
X70241210Y-172919740D02*
X70171360Y-172982881D01*
X70269682Y-172157391D02*
X70210869Y-172209291D01*
X70296250Y-172600950D02*
X70466041Y-172572018D01*
X70325241Y-172876831D02*
X70241210Y-172919740D01*
X70405360Y-172094932D02*
X70269682Y-172157391D01*
X70446610Y-172843440D02*
X70325241Y-172876831D01*
X70466041Y-172572018D02*
X70638132Y-172563640D01*
X70553919Y-172076619D02*
X70405360Y-172094932D01*
X70571569Y-172827659D02*
X70446610Y-172843440D01*
X70638132Y-172563640D02*
X70946060Y-172563640D01*
X70697482Y-172823381D02*
X70571569Y-172827659D01*
X70945560Y-172823381D02*
X70697482Y-172823381D01*
X70945560Y-173198781D02*
X70945560Y-172823381D01*
X70946060Y-172563640D02*
X70946060Y-172424132D01*
X70951141Y-173503668D02*
X70995782Y-173700000D01*
X70964360Y-173591568D02*
X70951141Y-173503668D01*
X70995782Y-173700000D02*
X70964360Y-173591568D01*
X71263132Y-172416519D02*
X71263132Y-173267781D01*
X71328060Y-173672609D02*
X71328060Y-173700000D01*
X71328060Y-173700000D02*
X70995782Y-173700000D01*
X71790732Y-171070132D02*
X72107282Y-171070132D01*
X71790732Y-173700000D02*
X71790732Y-171070132D01*
X72107282Y-171070132D02*
X72107282Y-173700000D01*
X72107282Y-173700000D02*
X71790732Y-173700000D01*
X72634882Y-171070132D02*
X72951441Y-171070132D01*
X72634882Y-173700000D02*
X72634882Y-171070132D01*
X72951441Y-171070132D02*
X72951441Y-173700000D01*
X72951441Y-173700000D02*
X72634882Y-173700000D01*
X73450119Y-171347632D02*
X73462432Y-171275891D01*
X73462432Y-171275891D02*
X73501969Y-171214941D01*
X73462600Y-171419310D02*
X73450119Y-171347632D01*
X73475991Y-171849350D02*
X73792550Y-171849350D01*
X73475991Y-173700000D02*
X73475991Y-171849350D01*
X73501969Y-171214941D02*
X73564191Y-171177710D01*
X73502719Y-171479810D02*
X73462600Y-171419310D01*
X73564191Y-171177710D02*
X73636310Y-171167532D01*
X73565919Y-171515400D02*
X73502719Y-171479810D01*
X73636310Y-171167532D02*
X73708450Y-171177400D01*
X73638219Y-171524682D02*
X73565919Y-171515400D01*
X73708450Y-171177400D02*
X73771082Y-171213932D01*
X73710360Y-171514569D02*
X73638219Y-171524682D01*
X73771082Y-171213932D02*
X73811400Y-171274300D01*
X73773091Y-171478182D02*
X73710360Y-171514569D01*
X73792550Y-171849350D02*
X73792550Y-173700000D01*
X73792550Y-173700000D02*
X73475991Y-173700000D01*
X73811400Y-171274300D02*
X73825010Y-171345760D01*
X73812900Y-171417491D02*
X73773091Y-171478182D01*
X73825010Y-171345760D02*
X73812900Y-171417491D01*
X74218182Y-172779750D02*
X74218182Y-172757431D01*
X74543982Y-172648281D02*
X74536769Y-172794459D01*
X74568732Y-172504059D02*
X74543982Y-172648281D01*
X74617282Y-172366110D02*
X74568732Y-172504059D01*
X74691941Y-172248310D02*
X74617282Y-172366110D01*
X74794250Y-172153669D02*
X74691941Y-172248310D01*
X74920632Y-172095091D02*
X74794250Y-172153669D01*
X75058791Y-172076619D02*
X74920632Y-172095091D01*
X75062341Y-173472731D02*
X75200869Y-173455181D01*
X75200869Y-173455181D02*
X75327810Y-173397400D01*
X75327810Y-173397400D02*
X75430969Y-173303440D01*
X75430969Y-173303440D02*
X75505882Y-173185518D01*
X75505882Y-173185518D02*
X75555191Y-173047631D01*
X75555191Y-173047631D02*
X75580791Y-172903340D01*
X75580791Y-172903340D02*
X75587910Y-172756918D01*
X75904969Y-172773150D02*
X75904969Y-172794968D01*
X77234619Y-171200000D02*
X77938760Y-171200000D01*
X77234619Y-173700000D02*
X77234619Y-171200000D01*
X77563350Y-171459741D02*
X77563350Y-173440259D01*
X77563350Y-173440259D02*
X77909332Y-173440259D01*
X77925060Y-173700000D02*
X77234619Y-173700000D01*
X77946882Y-171459741D02*
X77563350Y-171459741D01*
X78712400Y-172518490D02*
X78712400Y-172370860D01*
X79037581Y-172365791D02*
X79037581Y-172525590D01*
X79406390Y-172825909D02*
X79406390Y-172768081D01*
X79733600Y-172596100D02*
X80661468Y-172596100D01*
X80661468Y-172596100D02*
X80661468Y-172572768D01*
X80760900Y-173225159D02*
X80954181Y-173375318D01*
X80978018Y-172725468D02*
X80978018Y-172855840D01*
X80978018Y-172855840D02*
X79722950Y-172855840D01*
X81269218Y-173128268D02*
X81585781Y-173128268D01*
X81348768Y-172482932D02*
X81332631Y-172358182D01*
X81402240Y-172596650D02*
X81348768Y-172482932D01*
X81488600Y-172688168D02*
X81402240Y-172596650D01*
X81594109Y-172757009D02*
X81488600Y-172688168D01*
X81649190Y-172347019D02*
X81656968Y-172409182D01*
X81656968Y-172409182D02*
X81683918Y-172465750D01*
X81683918Y-172465750D02*
X81727950Y-172510218D01*
X81709318Y-172808159D02*
X81594109Y-172757009D01*
X81727950Y-172510218D02*
X81811090Y-172553918D01*
X81811090Y-172553918D02*
X81899600Y-172585731D01*
X81829118Y-172847500D02*
X81709318Y-172808159D01*
X81899600Y-172585731D02*
X82081731Y-172632831D01*
X82012868Y-172892331D02*
X81829118Y-172847500D01*
X82027640Y-173472731D02*
X82160231Y-173461009D01*
X82081731Y-172632831D02*
X82263531Y-172681250D01*
X82175159Y-173723731D02*
X82027640Y-173732468D01*
X82194959Y-172943068D02*
X82012868Y-172892331D01*
X82263531Y-172681250D02*
X82381509Y-172723831D01*
X82281800Y-172980381D02*
X82194959Y-172943068D01*
X82286131Y-173418318D02*
X82341609Y-173381550D01*
X82319731Y-173693468D02*
X82175159Y-173723731D01*
X82341609Y-173381550D02*
X82386818Y-173332890D01*
X82358650Y-173035159D02*
X82281800Y-172980381D01*
X82381509Y-172723831D02*
X82494431Y-172778359D01*
X82386818Y-173332890D02*
X82415918Y-173273218D01*
X82409431Y-173114418D02*
X82358650Y-173035159D01*
X82415918Y-173273218D02*
X82424859Y-173207409D01*
X82424859Y-173207409D02*
X82409431Y-173114418D01*
X82456440Y-173637768D02*
X82319731Y-173693468D01*
X82494431Y-172778359D02*
X82596718Y-172850740D01*
X82572831Y-173558400D02*
X82456440Y-173637768D01*
X82596718Y-172850740D02*
X82678500Y-172945418D01*
X82666068Y-173453018D02*
X82572831Y-173558400D01*
X82678500Y-172945418D02*
X82727159Y-173060650D01*
X82723740Y-173324740D02*
X82666068Y-173453018D01*
X82724168Y-172395719D02*
X82406090Y-172395719D01*
X82727159Y-173060650D02*
X82741418Y-173185090D01*
X82741418Y-173185090D02*
X82723740Y-173324740D01*
X83157909Y-171347632D02*
X83170218Y-171275891D01*
X83170218Y-171275891D02*
X83209759Y-171214941D01*
X83170400Y-171419310D02*
X83157909Y-171347632D01*
X83183790Y-171849350D02*
X83500340Y-171849350D01*
X83183790Y-173700000D02*
X83183790Y-171849350D01*
X83209759Y-171214941D02*
X83271981Y-171177710D01*
X83210509Y-171479810D02*
X83170400Y-171419310D01*
X83271981Y-171177710D02*
X83344100Y-171167532D01*
X83273718Y-171515400D02*
X83210509Y-171479810D01*
X83344100Y-171167532D02*
X83416240Y-171177400D01*
X83346009Y-171524682D02*
X83273718Y-171515400D01*
X83416240Y-171177400D02*
X83478868Y-171213932D01*
X83418150Y-171514569D02*
X83346009Y-171524682D01*
X83478868Y-171213932D02*
X83519190Y-171274300D01*
X83480881Y-171478182D02*
X83418150Y-171514569D01*
X83500340Y-171849350D02*
X83500340Y-173700000D01*
X83500340Y-173700000D02*
X83183790Y-173700000D01*
X83519190Y-171274300D02*
X83532800Y-171345760D01*
X83520690Y-171417491D02*
X83480881Y-171478182D01*
X83532800Y-171345760D02*
X83520690Y-171417491D01*
X84028450Y-174100259D02*
X84192818Y-173914081D01*
X84253190Y-172795468D02*
X84264581Y-172970531D01*
X84260950Y-172631981D02*
X84253190Y-172795468D01*
X84264581Y-172970531D02*
X84304718Y-173141150D01*
X84288700Y-172470741D02*
X84260950Y-172631981D01*
X84304718Y-173141150D02*
X84384831Y-173296718D01*
X84346381Y-172317860D02*
X84288700Y-172470741D01*
X84384831Y-173296718D02*
X84481268Y-173394640D01*
X84415890Y-172216910D02*
X84346381Y-172317860D01*
X84481268Y-173394640D02*
X84604850Y-173454600D01*
X84509700Y-172138219D02*
X84415890Y-172216910D01*
X84604850Y-173454600D02*
X84741209Y-173472731D01*
X84622509Y-172090782D02*
X84509700Y-172138219D01*
X84744259Y-172076619D02*
X84622509Y-172090782D01*
X85180540Y-173669559D02*
X85180540Y-173513818D01*
X85181050Y-173197768D02*
X85181050Y-172344482D01*
X85194240Y-172055819D02*
X85209459Y-171849350D01*
X85209459Y-171849350D02*
X85499131Y-171849350D01*
X85499131Y-171849350D02*
X85499131Y-173645718D01*
X85991209Y-171849350D02*
X86290518Y-171849350D01*
X85991209Y-173700000D02*
X85991209Y-171849350D01*
X86290518Y-171849350D02*
X86300668Y-172083219D01*
X86307768Y-172375432D02*
X86307768Y-173700000D01*
X86307768Y-173700000D02*
X85991209Y-173700000D01*
X87131131Y-173700000D02*
X87131131Y-172469782D01*
X87448190Y-172478410D02*
X87448190Y-173700000D01*
X87448190Y-173700000D02*
X87131131Y-173700000D01*
X87860131Y-173128268D02*
X88176681Y-173128268D01*
X87939681Y-172482932D02*
X87923540Y-172358182D01*
X87993150Y-172596650D02*
X87939681Y-172482932D01*
X88079509Y-172688168D02*
X87993150Y-172596650D01*
X88185018Y-172757009D02*
X88079509Y-172688168D01*
X88240100Y-172347019D02*
X88247881Y-172409182D01*
X88247881Y-172409182D02*
X88274831Y-172465750D01*
X88274831Y-172465750D02*
X88318859Y-172510218D01*
X88300231Y-172808159D02*
X88185018Y-172757009D01*
X88318859Y-172510218D02*
X88402000Y-172553918D01*
X88402000Y-172553918D02*
X88490509Y-172585731D01*
X88420031Y-172847500D02*
X88300231Y-172808159D01*
X88490509Y-172585731D02*
X88672640Y-172632831D01*
X88603781Y-172892331D02*
X88420031Y-172847500D01*
X88618550Y-173472731D02*
X88751140Y-173461009D01*
X88672640Y-172632831D02*
X88854440Y-172681250D01*
X88751140Y-173461009D02*
X88877040Y-173418318D01*
X88766068Y-173723731D02*
X88618550Y-173732468D01*
X88785868Y-172943068D02*
X88603781Y-172892331D01*
X88854440Y-172681250D02*
X88972418Y-172723831D01*
X88872709Y-172980381D02*
X88785868Y-172943068D01*
X88877040Y-173418318D02*
X88932518Y-173381550D01*
X88910640Y-173693468D02*
X88766068Y-173723731D01*
X88932518Y-173381550D02*
X88977731Y-173332890D01*
X88949550Y-173035159D02*
X88872709Y-172980381D01*
X88972418Y-172723831D02*
X89085340Y-172778359D01*
X88977731Y-173332890D02*
X89006831Y-173273218D01*
X89000340Y-173114418D02*
X88949550Y-173035159D01*
X89006831Y-173273218D02*
X89015768Y-173207409D01*
X89015768Y-173207409D02*
X89000340Y-173114418D01*
X89047350Y-173637768D02*
X88910640Y-173693468D01*
X89085340Y-172778359D02*
X89187631Y-172850740D01*
X89163740Y-173558400D02*
X89047350Y-173637768D01*
X89187631Y-172850740D02*
X89269409Y-172945418D01*
X89256981Y-173453018D02*
X89163740Y-173558400D01*
X89269409Y-172945418D02*
X89318059Y-173060650D01*
X89314650Y-173324740D02*
X89256981Y-173453018D01*
X89315081Y-172395719D02*
X88997000Y-172395719D01*
X89318059Y-173060650D02*
X89332331Y-173185090D01*
X89332331Y-173185090D02*
X89314650Y-173324740D01*
X69836582Y-172352599D02*
G75*
G02*
X70572691Y-171816881I670249J-147375D01*
G01*
X70424052Y-173732468D02*
G75*
G02*
X69799050Y-173179000I-51876J571044D01*
G01*
X70469702Y-173472724D02*
G75*
G02*
X70115100Y-173159718I-34149J318679D01*
G01*
X70553919Y-172076627D02*
G75*
G02*
X70946060Y-172424132I44392J-344914D01*
G01*
X70572692Y-171816881D02*
G75*
G02*
X71263132Y-172416519I77659J-607896D01*
G01*
X70945561Y-173198781D02*
G75*
G02*
X70469700Y-173472731I-465492J258307D01*
G01*
X70951142Y-173503669D02*
G75*
G02*
X70424050Y-173732468I-522580J482345D01*
G01*
X71328066Y-173672606D02*
G75*
G02*
X71263132Y-173267781I921017J355351D01*
G01*
X74218182Y-172757432D02*
G75*
G02*
X75058791Y-171816882I854052J82617D01*
G01*
X75058791Y-171816885D02*
G75*
G02*
X75904969Y-172773150I-6383J-858163D01*
G01*
X75058792Y-172076620D02*
G75*
G02*
X75587910Y-172756918I-55479J-589066D01*
G01*
X75062342Y-173472726D02*
G75*
G02*
X74536769Y-172794459I54132J584706D01*
G01*
X75062343Y-173732469D02*
G75*
G02*
X74218182Y-172779750I7506J856997D01*
G01*
X75904974Y-172794969D02*
G75*
G02*
X75062341Y-173732468I-849154J-84205D01*
G01*
X77938760Y-171200006D02*
G75*
G02*
X79037581Y-172365791I14624J-1086960D01*
G01*
X77946882Y-171459742D02*
G75*
G02*
X78712400Y-172370860I-8397J-784207D01*
G01*
X78712399Y-172518489D02*
G75*
G02*
X77909332Y-173440259I-790015J-122431D01*
G01*
X79037582Y-172525590D02*
G75*
G02*
X77925060Y-173700000I-1084088J-87193D01*
G01*
X79406389Y-172768080D02*
G75*
G02*
X80216050Y-171816883I859359J88703D01*
G01*
X79733601Y-172596099D02*
G75*
G02*
X80216050Y-172076619I523901J-2786D01*
G01*
X80216050Y-171816886D02*
G75*
G02*
X80978023Y-172725469I-3520J-776754D01*
G01*
X80216050Y-172076621D02*
G75*
G02*
X80661467Y-172572768I-12530J-459259D01*
G01*
X80255618Y-173732463D02*
G75*
G02*
X79406392Y-172825909I-7938J843603D01*
G01*
X80272869Y-173472724D02*
G75*
G02*
X79722943Y-172855839I20881J572174D01*
G01*
X80760900Y-173225158D02*
G75*
G02*
X80272868Y-173472729I-482320J345978D01*
G01*
X80954185Y-173375320D02*
G75*
G02*
X80255618Y-173732468I-661935J432960D01*
G01*
X81332627Y-172358181D02*
G75*
G02*
X82017490Y-171816883I619013J-79289D01*
G01*
X81649186Y-172347019D02*
G75*
G02*
X82017489Y-172076623I311514J-38281D01*
G01*
X82017488Y-171816883D02*
G75*
G02*
X82724167Y-172395719I85382J-616557D01*
G01*
X82017488Y-172076619D02*
G75*
G02*
X82406074Y-172395721I34712J-353881D01*
G01*
X82027640Y-173472723D02*
G75*
G02*
X81585781Y-173128268I-50880J390363D01*
G01*
X82027640Y-173732463D02*
G75*
G02*
X81269223Y-173128268I-90250J664813D01*
G01*
X83934090Y-172759459D02*
G75*
G02*
X84665118Y-171816876I796510J137029D01*
G01*
X84661569Y-173732466D02*
G75*
G02*
X83934077Y-172759457I85731J822566D01*
G01*
X84665118Y-171816875D02*
G75*
G02*
X85194241Y-172055818I29082J-640925D01*
G01*
X84690990Y-174154542D02*
G75*
G02*
X84192816Y-173914083I-790J634642D01*
G01*
X84713309Y-174414283D02*
G75*
G02*
X84028451Y-174100259I-32049J833923D01*
G01*
X84744259Y-172076618D02*
G75*
G02*
X85181049Y-172344483I10041J-473682D01*
G01*
X85180538Y-173513814D02*
G75*
G02*
X84661569Y-173732445I-492338J443414D01*
G01*
X85180541Y-173669557D02*
G75*
G02*
X84690990Y-174154553I-456641J-28643D01*
G01*
X85181046Y-173197764D02*
G75*
G02*
X84741209Y-173472733I-428396J195994D01*
G01*
X85499128Y-173645716D02*
G75*
G02*
X84713309Y-174414288I-734418J-35114D01*
G01*
X86300665Y-172083216D02*
G75*
G02*
X86855659Y-171816869I541235J-416384D01*
G01*
X86307765Y-172375432D02*
G75*
G02*
X86759782Y-172076680I456835J-199868D01*
G01*
X86759779Y-172076620D02*
G75*
G02*
X87131156Y-172469785I23821J-349480D01*
G01*
X86855657Y-171816887D02*
G75*
G02*
X87448265Y-172478420I14943J-582813D01*
G01*
X87923535Y-172358181D02*
G75*
G02*
X88608400Y-171816882I619015J-79289D01*
G01*
X88240095Y-172347020D02*
G75*
G02*
X88608397Y-172076634I311505J-38280D01*
G01*
X88608398Y-171816875D02*
G75*
G02*
X89315070Y-172395720I85402J-616525D01*
G01*
X88608398Y-172076622D02*
G75*
G02*
X88997060Y-172395713I34702J-353978D01*
G01*
X88618550Y-173472726D02*
G75*
G02*
X88176669Y-173128269I-50850J390426D01*
G01*
X88618550Y-173732464D02*
G75*
G02*
X87860177Y-173128264I-90250J664764D01*
G01*
D10*
G04 #@! TO.C,J3*
X133400000Y-163050000D02*
X133400000Y-156250000D01*
X134300000Y-156250000D02*
X134300000Y-163050000D01*
D11*
G04 #@! TO.C,S2*
X72100000Y-167500000D02*
X72100000Y-153500000D01*
X72700000Y-152900000D02*
X85100000Y-152900000D01*
D10*
X73900000Y-156600000D02*
X72100000Y-154050000D01*
X73900000Y-156600000D02*
X73900000Y-159100000D01*
X73900000Y-161900000D02*
X73900000Y-165400000D01*
X73900000Y-165500000D02*
X72100000Y-166800000D01*
X74200000Y-156700000D02*
X74200000Y-159100000D01*
X74200000Y-165300000D02*
X74200000Y-161900000D01*
X74500000Y-156000000D02*
X73700000Y-152950000D01*
X74500000Y-166000000D02*
X73400000Y-168100000D01*
D12*
X75900000Y-158000000D02*
X76100000Y-158000000D01*
X75900000Y-163000000D02*
X76100000Y-163000000D01*
D10*
X76100000Y-163000000D02*
X76100000Y-158000000D01*
D12*
X76400000Y-157500000D02*
X76400000Y-157700000D01*
D10*
X76400000Y-157700000D02*
X81400000Y-157700000D01*
X76400000Y-161500000D02*
X76400000Y-159500000D01*
D12*
X76400000Y-163500000D02*
X76400000Y-163300000D01*
D10*
X77900000Y-158000000D02*
X79900000Y-158000000D01*
X78300000Y-166000000D02*
X83300000Y-166000000D01*
X79900000Y-163000000D02*
X77900000Y-163000000D01*
X80800000Y-163300000D02*
X76400000Y-163300000D01*
D12*
X81400000Y-157500000D02*
X81400000Y-157700000D01*
D10*
X81400000Y-159500000D02*
X81400000Y-161500000D01*
X81700000Y-158000000D02*
X81700000Y-161400000D01*
D12*
X81900000Y-158000000D02*
X81700000Y-158000000D01*
D10*
X83200000Y-165700000D02*
X78300000Y-165700000D01*
X83300000Y-156000000D02*
X84100000Y-152950000D01*
X83300000Y-166000000D02*
X84400000Y-168100000D01*
X83600000Y-156700000D02*
X83600000Y-159100000D01*
X83600000Y-165300000D02*
X83600000Y-164800000D01*
X83900000Y-156600000D02*
X85700000Y-154050000D01*
X83900000Y-159100000D02*
X83900000Y-156600000D01*
X83900000Y-165400000D02*
X83900000Y-164600000D01*
X83900000Y-165500000D02*
X85700000Y-166800000D01*
D11*
X85100000Y-168100000D02*
X72700000Y-168100000D01*
X85700000Y-153500000D02*
X85700000Y-167500000D01*
D10*
X72900000Y-157500000D02*
X72100000Y-157500000D01*
X72100000Y-159500000D01*
X72900000Y-159500000D01*
X72900000Y-157500000D01*
G36*
X72900000Y-157500000D02*
G01*
X72100000Y-157500000D01*
X72100000Y-159500000D01*
X72900000Y-159500000D01*
X72900000Y-157500000D01*
G37*
X72900000Y-162500000D02*
X72100000Y-162500000D01*
X72100000Y-164500000D01*
X72900000Y-164500000D01*
X72900000Y-162500000D01*
G36*
X72900000Y-162500000D02*
G01*
X72100000Y-162500000D01*
X72100000Y-164500000D01*
X72900000Y-164500000D01*
X72900000Y-162500000D01*
G37*
D12*
X76100000Y-158000000D02*
X75900000Y-158000000D01*
X75900000Y-160400000D01*
X76100000Y-160400000D01*
X76100000Y-158000000D01*
G36*
X76100000Y-158000000D02*
G01*
X75900000Y-158000000D01*
X75900000Y-160400000D01*
X76100000Y-160400000D01*
X76100000Y-158000000D01*
G37*
X76100000Y-160800000D02*
X75900000Y-160800000D01*
X75900000Y-163000000D01*
X76100000Y-163000000D01*
X76100000Y-160800000D01*
G36*
X76100000Y-160800000D02*
G01*
X75900000Y-160800000D01*
X75900000Y-163000000D01*
X76100000Y-163000000D01*
X76100000Y-160800000D01*
G37*
D13*
X77900000Y-167500000D02*
X75900000Y-167500000D01*
X75900000Y-168000000D01*
X77900000Y-168000000D01*
X77900000Y-167500000D01*
D12*
X78462700Y-163300000D02*
X76337300Y-163300000D01*
X76337300Y-163500000D01*
X78462700Y-163500000D01*
X78462700Y-163300000D01*
G36*
X78462700Y-163300000D02*
G01*
X76337300Y-163300000D01*
X76337300Y-163500000D01*
X78462700Y-163500000D01*
X78462700Y-163300000D01*
G37*
X78525400Y-157500000D02*
X76400000Y-157500000D01*
X76400000Y-157700000D01*
X78525400Y-157700000D01*
X78525400Y-157500000D01*
G36*
X78525400Y-157500000D02*
G01*
X76400000Y-157500000D01*
X76400000Y-157700000D01*
X78525400Y-157700000D01*
X78525400Y-157500000D01*
G37*
X80862700Y-163300000D02*
X79237300Y-163300000D01*
X79237300Y-163500000D01*
X80862700Y-163500000D01*
X80862700Y-163300000D01*
G36*
X80862700Y-163300000D02*
G01*
X79237300Y-163300000D01*
X79237300Y-163500000D01*
X80862700Y-163500000D01*
X80862700Y-163300000D01*
G37*
X81425400Y-157500000D02*
X79300000Y-157500000D01*
X79300000Y-157700000D01*
X81425400Y-157700000D01*
X81425400Y-157500000D01*
G36*
X81425400Y-157500000D02*
G01*
X79300000Y-157500000D01*
X79300000Y-157700000D01*
X81425400Y-157700000D01*
X81425400Y-157500000D01*
G37*
X81900000Y-158000000D02*
X81700000Y-158000000D01*
X81700000Y-160300000D01*
X81900000Y-160300000D01*
X81900000Y-158000000D01*
G36*
X81900000Y-158000000D02*
G01*
X81700000Y-158000000D01*
X81700000Y-160300000D01*
X81900000Y-160300000D01*
X81900000Y-158000000D01*
G37*
X81900000Y-160700000D02*
X81700000Y-160700000D01*
X81700000Y-161200000D01*
X81900000Y-161200000D01*
X81900000Y-160700000D01*
G36*
X81900000Y-160700000D02*
G01*
X81700000Y-160700000D01*
X81700000Y-161200000D01*
X81900000Y-161200000D01*
X81900000Y-160700000D01*
G37*
D13*
X81900000Y-167500000D02*
X79900000Y-167500000D01*
X79900000Y-168000000D01*
X81900000Y-168000000D01*
X81900000Y-167500000D01*
D10*
X84900000Y-159500000D02*
X85700000Y-159500000D01*
X85700000Y-157500000D01*
X84900000Y-157500000D01*
X84900000Y-159500000D01*
G36*
X84900000Y-159500000D02*
G01*
X85700000Y-159500000D01*
X85700000Y-157500000D01*
X84900000Y-157500000D01*
X84900000Y-159500000D01*
G37*
X84900000Y-164500000D02*
X85700000Y-164500000D01*
X85700000Y-162500000D01*
X84900000Y-162500000D01*
X84900000Y-164500000D01*
G36*
X84900000Y-164500000D02*
G01*
X85700000Y-164500000D01*
X85700000Y-162500000D01*
X84900000Y-162500000D01*
X84900000Y-164500000D01*
G37*
D14*
X72097102Y-154058518D02*
G75*
G02*
X73700000Y-152950001I1355926J-247507D01*
G01*
D11*
X72100000Y-153500000D02*
G75*
G02*
X72700000Y-152900000I600000J0D01*
G01*
X72700000Y-168100000D02*
G75*
G02*
X72100000Y-167500000I0J600000D01*
G01*
D14*
X73399999Y-168099999D02*
G75*
G02*
X72100001Y-166800000I1J1299999D01*
G01*
D10*
X73900000Y-156600000D02*
G75*
G02*
X74500000Y-156000000I600000J0D01*
G01*
X74200000Y-156700000D02*
G75*
G02*
X74600000Y-156300000I399999J1D01*
G01*
X74500000Y-166000000D02*
G75*
G02*
X73900000Y-165400000I0J600000D01*
G01*
D12*
X75900000Y-158000000D02*
G75*
G02*
X76400000Y-157500000I499998J2D01*
G01*
X76000000Y-158000000D02*
G75*
G02*
X76400000Y-157600000I399999J1D01*
G01*
D10*
X76100000Y-158000000D02*
G75*
G02*
X76400000Y-157700000I300000J0D01*
G01*
X76400000Y-159500000D02*
G75*
G02*
X77900000Y-158000000I1500001J-1D01*
G01*
X76400000Y-163300000D02*
G75*
G02*
X76100000Y-163000000I0J300000D01*
G01*
D12*
X76400000Y-163400000D02*
G75*
G02*
X76000000Y-163000000I0J400000D01*
G01*
X76400000Y-163500000D02*
G75*
G02*
X75900000Y-163000000I0J500000D01*
G01*
D10*
X77900000Y-163000000D02*
G75*
G02*
X76400000Y-161500000I0J1500000D01*
G01*
X79900000Y-158000000D02*
G75*
G02*
X81400000Y-159500000I-1J-1500001D01*
G01*
D12*
X81400000Y-157500000D02*
G75*
G02*
X81900000Y-158000000I2J-499998D01*
G01*
X81400000Y-157600000D02*
G75*
G02*
X81800000Y-158000000I-2J-400002D01*
G01*
D10*
X81400000Y-157700000D02*
G75*
G02*
X81700000Y-158000000I0J-300000D01*
G01*
X83200000Y-156300000D02*
G75*
G02*
X83600000Y-156700000I1J-399999D01*
G01*
X83300000Y-156000000D02*
G75*
G02*
X83900000Y-156600000I0J-600000D01*
G01*
X83600384Y-165317157D02*
G75*
G02*
X83200000Y-165699998I-383184J-43D01*
G01*
X83900000Y-165400000D02*
G75*
G02*
X83300000Y-166000000I-600000J0D01*
G01*
D14*
X84100000Y-152950001D02*
G75*
G02*
X85702898Y-154058518I246974J-1356020D01*
G01*
D11*
X85100000Y-152900000D02*
G75*
G02*
X85700000Y-153500000I0J-600000D01*
G01*
D14*
X85700000Y-166800000D02*
G75*
G02*
X84400001Y-168100000I-1300000J0D01*
G01*
D11*
X85700000Y-167500000D02*
G75*
G02*
X85100000Y-168100000I-600000J0D01*
G01*
D10*
G04 #@! TO.C,H2*
X130250000Y-171550000D02*
X130250000Y-172950000D01*
X130250000Y-172950000D02*
X130850000Y-172950000D01*
X130850000Y-171550000D02*
X130250000Y-171550000D01*
X131950000Y-169850000D02*
X131950000Y-170450000D01*
X131950000Y-174050000D02*
X131950000Y-174650000D01*
X131950000Y-174650000D02*
X133350000Y-174650000D01*
X133350000Y-169850000D02*
X131950000Y-169850000D01*
X133350000Y-170450000D02*
X133350000Y-169850000D01*
X133350000Y-174650000D02*
X133350000Y-174050000D01*
X134450000Y-172950000D02*
X135050000Y-172950000D01*
X135050000Y-171550000D02*
X134450000Y-171550000D01*
X135050000Y-172950000D02*
X135050000Y-171550000D01*
D13*
X135650000Y-172250000D02*
G75*
G02*
X129650000Y-172250000I-3000000J0D01*
G01*
X129650000Y-172250000D02*
G75*
G02*
X135650000Y-172250000I3000000J0D01*
G01*
D11*
G04 #@! TO.C,S9*
X51100000Y-125500000D02*
X51100000Y-111500000D01*
X51700000Y-110900000D02*
X64100000Y-110900000D01*
D10*
X52900000Y-114600000D02*
X51100000Y-112050000D01*
X52900000Y-114600000D02*
X52900000Y-117100000D01*
X52900000Y-119900000D02*
X52900000Y-123400000D01*
X52900000Y-123500000D02*
X51100000Y-124800000D01*
X53200000Y-114700000D02*
X53200000Y-117100000D01*
X53200000Y-123300000D02*
X53200000Y-119900000D01*
X53500000Y-114000000D02*
X52700000Y-110950000D01*
X53500000Y-124000000D02*
X52400000Y-126100000D01*
D12*
X54900000Y-116000000D02*
X55100000Y-116000000D01*
X54900000Y-121000000D02*
X55100000Y-121000000D01*
D10*
X55100000Y-121000000D02*
X55100000Y-116000000D01*
D12*
X55400000Y-115500000D02*
X55400000Y-115700000D01*
D10*
X55400000Y-115700000D02*
X60400000Y-115700000D01*
X55400000Y-119500000D02*
X55400000Y-117500000D01*
D12*
X55400000Y-121500000D02*
X55400000Y-121300000D01*
D10*
X56900000Y-116000000D02*
X58900000Y-116000000D01*
X57300000Y-124000000D02*
X62300000Y-124000000D01*
X58900000Y-121000000D02*
X56900000Y-121000000D01*
X59800000Y-121300000D02*
X55400000Y-121300000D01*
D12*
X60400000Y-115500000D02*
X60400000Y-115700000D01*
D10*
X60400000Y-117500000D02*
X60400000Y-119500000D01*
X60700000Y-116000000D02*
X60700000Y-119400000D01*
D12*
X60900000Y-116000000D02*
X60700000Y-116000000D01*
D10*
X62200000Y-123700000D02*
X57300000Y-123700000D01*
X62300000Y-114000000D02*
X63100000Y-110950000D01*
X62300000Y-124000000D02*
X63400000Y-126100000D01*
X62600000Y-114700000D02*
X62600000Y-117100000D01*
X62600000Y-123300000D02*
X62600000Y-122800000D01*
X62900000Y-114600000D02*
X64700000Y-112050000D01*
X62900000Y-117100000D02*
X62900000Y-114600000D01*
X62900000Y-123400000D02*
X62900000Y-122600000D01*
X62900000Y-123500000D02*
X64700000Y-124800000D01*
D11*
X64100000Y-126100000D02*
X51700000Y-126100000D01*
X64700000Y-111500000D02*
X64700000Y-125500000D01*
D10*
X51900000Y-115500000D02*
X51100000Y-115500000D01*
X51100000Y-117500000D01*
X51900000Y-117500000D01*
X51900000Y-115500000D01*
G36*
X51900000Y-115500000D02*
G01*
X51100000Y-115500000D01*
X51100000Y-117500000D01*
X51900000Y-117500000D01*
X51900000Y-115500000D01*
G37*
X51900000Y-120500000D02*
X51100000Y-120500000D01*
X51100000Y-122500000D01*
X51900000Y-122500000D01*
X51900000Y-120500000D01*
G36*
X51900000Y-120500000D02*
G01*
X51100000Y-120500000D01*
X51100000Y-122500000D01*
X51900000Y-122500000D01*
X51900000Y-120500000D01*
G37*
D12*
X55100000Y-116000000D02*
X54900000Y-116000000D01*
X54900000Y-118400000D01*
X55100000Y-118400000D01*
X55100000Y-116000000D01*
G36*
X55100000Y-116000000D02*
G01*
X54900000Y-116000000D01*
X54900000Y-118400000D01*
X55100000Y-118400000D01*
X55100000Y-116000000D01*
G37*
X55100000Y-118800000D02*
X54900000Y-118800000D01*
X54900000Y-121000000D01*
X55100000Y-121000000D01*
X55100000Y-118800000D01*
G36*
X55100000Y-118800000D02*
G01*
X54900000Y-118800000D01*
X54900000Y-121000000D01*
X55100000Y-121000000D01*
X55100000Y-118800000D01*
G37*
D13*
X56900000Y-125500000D02*
X54900000Y-125500000D01*
X54900000Y-126000000D01*
X56900000Y-126000000D01*
X56900000Y-125500000D01*
D12*
X57462700Y-121300000D02*
X55337300Y-121300000D01*
X55337300Y-121500000D01*
X57462700Y-121500000D01*
X57462700Y-121300000D01*
G36*
X57462700Y-121300000D02*
G01*
X55337300Y-121300000D01*
X55337300Y-121500000D01*
X57462700Y-121500000D01*
X57462700Y-121300000D01*
G37*
X57525400Y-115500000D02*
X55400000Y-115500000D01*
X55400000Y-115700000D01*
X57525400Y-115700000D01*
X57525400Y-115500000D01*
G36*
X57525400Y-115500000D02*
G01*
X55400000Y-115500000D01*
X55400000Y-115700000D01*
X57525400Y-115700000D01*
X57525400Y-115500000D01*
G37*
X59862700Y-121300000D02*
X58237300Y-121300000D01*
X58237300Y-121500000D01*
X59862700Y-121500000D01*
X59862700Y-121300000D01*
G36*
X59862700Y-121300000D02*
G01*
X58237300Y-121300000D01*
X58237300Y-121500000D01*
X59862700Y-121500000D01*
X59862700Y-121300000D01*
G37*
X60425400Y-115500000D02*
X58300000Y-115500000D01*
X58300000Y-115700000D01*
X60425400Y-115700000D01*
X60425400Y-115500000D01*
G36*
X60425400Y-115500000D02*
G01*
X58300000Y-115500000D01*
X58300000Y-115700000D01*
X60425400Y-115700000D01*
X60425400Y-115500000D01*
G37*
X60900000Y-116000000D02*
X60700000Y-116000000D01*
X60700000Y-118300000D01*
X60900000Y-118300000D01*
X60900000Y-116000000D01*
G36*
X60900000Y-116000000D02*
G01*
X60700000Y-116000000D01*
X60700000Y-118300000D01*
X60900000Y-118300000D01*
X60900000Y-116000000D01*
G37*
X60900000Y-118700000D02*
X60700000Y-118700000D01*
X60700000Y-119200000D01*
X60900000Y-119200000D01*
X60900000Y-118700000D01*
G36*
X60900000Y-118700000D02*
G01*
X60700000Y-118700000D01*
X60700000Y-119200000D01*
X60900000Y-119200000D01*
X60900000Y-118700000D01*
G37*
D13*
X60900000Y-125500000D02*
X58900000Y-125500000D01*
X58900000Y-126000000D01*
X60900000Y-126000000D01*
X60900000Y-125500000D01*
D10*
X63900000Y-117500000D02*
X64700000Y-117500000D01*
X64700000Y-115500000D01*
X63900000Y-115500000D01*
X63900000Y-117500000D01*
G36*
X63900000Y-117500000D02*
G01*
X64700000Y-117500000D01*
X64700000Y-115500000D01*
X63900000Y-115500000D01*
X63900000Y-117500000D01*
G37*
X63900000Y-122500000D02*
X64700000Y-122500000D01*
X64700000Y-120500000D01*
X63900000Y-120500000D01*
X63900000Y-122500000D01*
G36*
X63900000Y-122500000D02*
G01*
X64700000Y-122500000D01*
X64700000Y-120500000D01*
X63900000Y-120500000D01*
X63900000Y-122500000D01*
G37*
D14*
X51097102Y-112058518D02*
G75*
G02*
X52700000Y-110950001I1355926J-247507D01*
G01*
D11*
X51100000Y-111500000D02*
G75*
G02*
X51700000Y-110900000I600000J0D01*
G01*
X51700000Y-126100000D02*
G75*
G02*
X51100000Y-125500000I0J600000D01*
G01*
D14*
X52399999Y-126099999D02*
G75*
G02*
X51100001Y-124800000I1J1299999D01*
G01*
D10*
X52900000Y-114600000D02*
G75*
G02*
X53500000Y-114000000I600000J0D01*
G01*
X53200000Y-114700000D02*
G75*
G02*
X53600000Y-114300000I399999J1D01*
G01*
X53500000Y-124000000D02*
G75*
G02*
X52900000Y-123400000I0J600000D01*
G01*
D12*
X54900000Y-116000000D02*
G75*
G02*
X55400000Y-115500000I499998J2D01*
G01*
X55000000Y-116000000D02*
G75*
G02*
X55400000Y-115600000I399999J1D01*
G01*
D10*
X55100000Y-116000000D02*
G75*
G02*
X55400000Y-115700000I300000J0D01*
G01*
X55400000Y-117500000D02*
G75*
G02*
X56900000Y-116000000I1500001J-1D01*
G01*
X55400000Y-121300000D02*
G75*
G02*
X55100000Y-121000000I0J300000D01*
G01*
D12*
X55400000Y-121400000D02*
G75*
G02*
X55000000Y-121000000I0J400000D01*
G01*
X55400000Y-121500000D02*
G75*
G02*
X54900000Y-121000000I0J500000D01*
G01*
D10*
X56900000Y-121000000D02*
G75*
G02*
X55400000Y-119500000I0J1500000D01*
G01*
X58900000Y-116000000D02*
G75*
G02*
X60400000Y-117500000I-1J-1500001D01*
G01*
D12*
X60400000Y-115500000D02*
G75*
G02*
X60900000Y-116000000I2J-499998D01*
G01*
X60400000Y-115600000D02*
G75*
G02*
X60800000Y-116000000I-2J-400002D01*
G01*
D10*
X60400000Y-115700000D02*
G75*
G02*
X60700000Y-116000000I0J-300000D01*
G01*
X62200000Y-114300000D02*
G75*
G02*
X62600000Y-114700000I1J-399999D01*
G01*
X62300000Y-114000000D02*
G75*
G02*
X62900000Y-114600000I0J-600000D01*
G01*
X62600384Y-123317157D02*
G75*
G02*
X62200000Y-123699998I-383184J-43D01*
G01*
X62900000Y-123400000D02*
G75*
G02*
X62300000Y-124000000I-600000J0D01*
G01*
D14*
X63100000Y-110950001D02*
G75*
G02*
X64702898Y-112058518I246974J-1356020D01*
G01*
D11*
X64100000Y-110900000D02*
G75*
G02*
X64700000Y-111500000I0J-600000D01*
G01*
D14*
X64700000Y-124800000D02*
G75*
G02*
X63400001Y-126100000I-1300000J0D01*
G01*
D11*
X64700000Y-125500000D02*
G75*
G02*
X64100000Y-126100000I-600000J0D01*
G01*
D10*
G04 #@! TO.C,S20*
X114700000Y-112450000D02*
X114700000Y-116350000D01*
X114700000Y-112450000D02*
X115000000Y-112450000D01*
X114700000Y-120450000D02*
X114700000Y-124450000D01*
X114700000Y-124450000D02*
X115000000Y-124450000D01*
X115000000Y-112450000D02*
X115000000Y-111750000D01*
X115000000Y-125150000D02*
X115000000Y-124450000D01*
X116100000Y-117450000D02*
X116100000Y-119450000D01*
X116100000Y-119450000D02*
X116700000Y-119450000D01*
X116600000Y-117450000D02*
X116100000Y-117450000D01*
X117400000Y-111750000D02*
X115000000Y-111750000D01*
X117600000Y-125150000D02*
X115000000Y-125150000D01*
X119200000Y-125150000D02*
X120100000Y-125150000D01*
X119400000Y-111750000D02*
X122400000Y-111750000D01*
X121700000Y-125150000D02*
X122600000Y-125150000D01*
X124200000Y-125150000D02*
X126800000Y-125150000D01*
X124400000Y-111750000D02*
X126800000Y-111750000D01*
X125200000Y-119450000D02*
X125700000Y-119450000D01*
X125700000Y-117450000D02*
X125100000Y-117450000D01*
X125700000Y-119450000D02*
X125700000Y-117450000D01*
X126800000Y-112450000D02*
X126800000Y-111750000D01*
X126800000Y-125150000D02*
X126800000Y-124450000D01*
X127100000Y-112450000D02*
X126800000Y-112450000D01*
X127100000Y-112450000D02*
X127100000Y-116350000D01*
X127100000Y-120450000D02*
X127100000Y-124450000D01*
X127100000Y-124450000D02*
X126800000Y-124450000D01*
X117607107Y-113950000D02*
G75*
G02*
X116192893Y-113950000I-707107J0D01*
G01*
X116192893Y-113950000D02*
G75*
G02*
X117607107Y-113950000I707107J0D01*
G01*
X117607107Y-122950000D02*
G75*
G02*
X116192893Y-122950000I-707107J0D01*
G01*
X116192893Y-122950000D02*
G75*
G02*
X117607107Y-122950000I707107J0D01*
G01*
X123501922Y-118450000D02*
G75*
G02*
X118298078Y-118450000I-2601922J0D01*
G01*
X118298078Y-118450000D02*
G75*
G02*
X123501922Y-118450000I2601922J0D01*
G01*
D13*
X123900000Y-118450000D02*
G75*
G02*
X117900000Y-118450000I-3000000J0D01*
G01*
X117900000Y-118450000D02*
G75*
G02*
X123900000Y-118450000I3000000J0D01*
G01*
X125256604Y-118450000D02*
G75*
G02*
X116543396Y-118450000I-4356604J0D01*
G01*
X116543396Y-118450000D02*
G75*
G02*
X125256604Y-118450000I4356604J0D01*
G01*
D10*
X125607107Y-113950000D02*
G75*
G02*
X124192893Y-113950000I-707107J0D01*
G01*
X124192893Y-113950000D02*
G75*
G02*
X125607107Y-113950000I707107J0D01*
G01*
X125607107Y-122950000D02*
G75*
G02*
X124192893Y-122950000I-707107J0D01*
G01*
X124192893Y-122950000D02*
G75*
G02*
X125607107Y-122950000I707107J0D01*
G01*
G04 #@! TD*
M02*
