M48
; DRILL file {KiCad 8.0.7} date 2025-01-08T02:37:32+0200
; FORMAT={-:-/ absolute / inch / decimal}
; #@! TF.CreationDate,2025-01-08T02:37:32+02:00
; #@! TF.GenerationSoftware,Kicad,Pcbnew,8.0.7
; #@! TF.FileFunction,Plated,1,4,PTH
FMAT,2
INCH
; #@! TA.AperFunction,Plated,PTH,ViaDrill
T1C0.0118
; #@! TA.AperFunction,Plated,PTH,ViaDrill
T2C0.0157
; #@! TA.AperFunction,Plated,PTH,ComponentDrill
T3C0.0157
; #@! TA.AperFunction,Plated,PTH,ViaDrill
T4C0.0197
; #@! TA.AperFunction,Plated,PTH,ViaDrill
T5C0.0236
; #@! TA.AperFunction,Plated,PTH,ComponentDrill
T6C0.0236
; #@! TA.AperFunction,Plated,PTH,ViaDrill
T7C0.0276
; #@! TA.AperFunction,Plated,PTH,ComponentDrill
T8C0.0276
; #@! TA.AperFunction,Plated,PTH,ComponentDrill
T9C0.0354
; #@! TA.AperFunction,Plated,PTH,ComponentDrill
T10C0.0394
; #@! TA.AperFunction,Plated,PTH,ComponentDrill
T11C0.0472
; #@! TA.AperFunction,Plated,PTH,ComponentDrill
T12C0.0866
; #@! TA.AperFunction,Plated,PTH,ComponentDrill
T13C0.1260
%
G90
G05
T1
X1.7717Y-4.5472
X1.7874Y-5.0433
X1.7913Y-4.4094
X1.8268Y-4.3504
X1.8425Y-4.4094
X1.8661Y-4.8189
X1.8937Y-4.4094
X1.8937Y-4.6929
X1.9016Y-5.6063
X1.9213Y-5.2953
X1.9409Y-4.689
X1.9803Y-4.5984
X2.0Y-4.4803
X2.0118Y-5.6063
X2.0236Y-4.3661
X2.0433Y-4.2244
X2.0492Y-4.1122
X2.1063Y-4.4331
X2.1063Y-6.0906
X2.1102Y-5.2638
X2.1339Y-5.0669
X2.1457Y-5.3701
X2.25Y-4.1201
X2.3012Y-5.939
X2.3524Y-4.1142
X2.3583Y-4.9646
X2.378Y-5.0827
X2.3858Y-4.8858
X2.3898Y-5.1447
X2.3976Y-5.2244
X2.3976Y-5.7598
X2.4055Y-4.3858
X2.4055Y-5.8189
X2.4283Y-5.0796
X2.4291Y-5.1142
X2.4331Y-5.1732
X2.437Y-5.0197
X2.437Y-5.4124
X2.4488Y-6.0906
X2.4646Y-5.0531
X2.4661Y-5.2701
X2.4685Y-5.0039
X2.4724Y-4.4646
X2.4882Y-5.9055
X2.4902Y-5.3839
X2.4961Y-5.2008
X2.5Y-5.685
X2.5055Y-5.2614
X2.5079Y-4.9646
X2.5098Y-4.876
X2.5118Y-5.752
X2.5157Y-4.4291
X2.5294Y-4.9057
X2.5354Y-4.9409
X2.5394Y-4.8366
X2.5433Y-4.248
X2.5591Y-5.9921
X2.5709Y-4.5315
X2.5866Y-5.1063
X2.5945Y-5.1969
X2.5984Y-5.9331
X2.6102Y-4.6063
X2.6141Y-5.0202
X2.6248Y-5.2941
X2.626Y-4.689
X2.626Y-5.3425
X2.626Y-5.5276
X2.6417Y-5.4488
X2.6417Y-5.8819
X2.6457Y-5.6417
X2.6496Y-4.8917
X2.6496Y-4.8233
X2.6575Y-5.0206
X2.6811Y-5.1969
X2.685Y-4.8976
X2.7047Y-5.689
X2.7126Y-5.7441
X2.7283Y-4.3346
X2.7343Y-4.8782
X2.7441Y-6.5945
X2.7537Y-4.9179
X2.7577Y-4.8561
X2.7598Y-5.9173
X2.7638Y-4.6024
X2.7756Y-5.1063
X2.7786Y-4.8937
X2.7835Y-5.8898
X2.7992Y-4.9184
X2.8051Y-5.9291
X2.8071Y-4.3346
X2.8071Y-5.3504
X2.8228Y-4.9488
X2.8386Y-5.3465
X2.8465Y-5.7795
X2.8622Y-4.9528
X2.8661Y-5.2205
X2.8701Y-5.1063
X2.874Y-4.7362
X2.874Y-4.9882
X2.874Y-5.9173
X2.878Y-5.5512
X2.8819Y-5.4331
X2.8858Y-5.1929
X2.8898Y-5.0246
X2.8937Y-5.1457
X2.8976Y-5.3386
X2.9252Y-4.437
X2.9252Y-4.4961
X2.9291Y-5.7559
X2.9291Y-6.1496
X2.9331Y-6.1024
X2.937Y-5.0315
X2.937Y-5.3661
X2.9429Y-5.1712
X2.9449Y-4.6024
X2.9449Y-5.1161
X2.9449Y-5.2992
X2.9685Y-5.5512
X2.9803Y-5.9606
X3.0157Y-4.6024
X3.0945Y-4.1969
X3.0945Y-4.3346
X3.0945Y-5.1279
X3.1437Y-5.7303
X3.1488Y-4.9249
X3.1503Y-4.845
X3.1575Y-5.9449
X3.2233Y-4.8465
X3.2234Y-4.9173
X3.2323Y-4.6614
X3.2441Y-4.6142
X3.2672Y-5.2958
X3.2717Y-5.3937
X3.2717Y-5.7323
X3.2756Y-4.9173
X3.2795Y-5.0433
X3.3268Y-5.3721
X3.3268Y-6.1142
X3.3307Y-4.8307
X3.3504Y-4.3819
X3.3543Y-5.0
X3.3622Y-5.1378
X3.3701Y-4.689
X3.3937Y-6.0669
X3.3976Y-4.4724
X3.3976Y-4.5079
X3.4055Y-4.5748
X3.4449Y-4.9291
X3.4606Y-4.6496
X3.4646Y-5.5236
X3.4724Y-5.2933
X3.4882Y-4.5236
X3.4921Y-4.437
X3.4961Y-5.4823
X3.5079Y-5.2933
X3.5276Y-5.5039
X3.5354Y-6.1929
X3.5512Y-5.378
X3.5591Y-4.5472
X3.5669Y-6.5354
X3.5679Y-5.312
X3.5748Y-4.8976
X3.6181Y-5.6595
X3.6252Y-5.7293
X3.626Y-5.2598
X3.6339Y-4.7362
X3.689Y-5.8268
X3.6969Y-5.3169
X3.7338Y-5.2614
X3.7402Y-5.189
X3.7402Y-5.374
X3.7598Y-5.6299
X3.7598Y-6.1496
X3.7638Y-4.4685
X3.7677Y-6.0906
X3.815Y-4.3976
X3.8189Y-5.7795
X3.8189Y-5.8366
X3.8976Y-4.1339
X3.9016Y-5.063
X3.9049Y-5.1136
X3.9173Y-5.7677
X3.937Y-4.9213
X3.9409Y-4.8839
X3.9567Y-5.8937
X3.9606Y-5.8386
X3.9764Y-4.1339
X3.9941Y-5.9823
X4.0118Y-4.9173
X4.0315Y-5.8661
X4.0394Y-5.9173
X4.0551Y-4.1339
X4.0866Y-6.2283
X4.0886Y-5.0906
X4.0945Y-4.1732
X4.0945Y-4.252
X4.0945Y-5.0344
X4.1063Y-6.0906
X4.1142Y-5.7717
X4.1181Y-5.2638
X4.1339Y-4.1339
X4.1339Y-4.2126
X4.1339Y-4.2913
X4.1417Y-4.9331
X4.1732Y-4.1732
X4.1732Y-4.252
X4.1732Y-4.3307
X4.1732Y-5.063
X4.1811Y-5.4213
X4.1811Y-5.8425
X4.1929Y-4.4488
X4.1929Y-5.9409
X4.2126Y-4.1339
X4.2126Y-4.2126
X4.2126Y-4.2913
X4.2441Y-5.9055
X4.3947Y-5.1575
X4.4082Y-6.2296
X4.4232Y-5.2854
X4.4488Y-5.7717
X4.5236Y-5.5827
X4.5354Y-5.815
X4.5472Y-4.9567
X4.5551Y-5.2244
X4.5591Y-5.1693
X4.5669Y-4.1339
X4.5669Y-4.2126
X4.5669Y-4.2913
X4.5906Y-5.2638
X4.5906Y-5.3228
X4.5945Y-6.1417
X4.6063Y-4.1732
X4.6063Y-4.252
X4.6063Y-4.3307
X4.6181Y-4.6339
X4.626Y-4.8346
X4.6281Y-5.8215
X4.6417Y-5.5984
X4.6457Y-4.1339
X4.6457Y-4.2126
X4.6457Y-4.2913
X4.6575Y-5.9843
X4.6654Y-4.8898
X4.6732Y-5.0827
X4.685Y-4.1732
X4.685Y-4.252
X4.685Y-4.4606
X4.685Y-4.6575
X4.689Y-5.1575
X4.7205Y-4.7913
X4.7244Y-4.1339
X4.7244Y-4.2126
X4.7598Y-5.1575
X4.7638Y-4.1732
X4.8031Y-4.1339
X4.8031Y-4.2126
X4.811Y-4.6969
X4.8425Y-4.1732
X4.8504Y-5.126
X4.8622Y-4.8701
X4.878Y-5.2126
X4.8819Y-4.1339
X4.8819Y-4.2126
X4.9213Y-4.1732
X4.9331Y-6.0827
X4.9606Y-4.1339
X4.9606Y-4.2126
X4.9685Y-4.7913
X5.0Y-4.1732
X5.0394Y-5.1022
X5.0394Y-4.1339
X5.0394Y-4.2126
X5.0512Y-5.0315
X5.0787Y-4.1732
X5.0787Y-4.252
X5.0787Y-5.9409
X5.1181Y-4.1339
X5.1181Y-4.2126
X5.1181Y-4.2913
X5.1326Y-5.6508
X5.1457Y-6.1614
X5.1575Y-4.3307
X5.1811Y-4.5748
X5.1811Y-4.7283
X5.189Y-5.0157
X5.1969Y-4.2913
X5.2008Y-5.4724
X5.2047Y-4.7953
X5.2283Y-5.626
X5.2362Y-4.3307
X5.252Y-6.2756
X5.2638Y-5.4724
X5.277Y-4.2904
X5.315Y-4.1732
X5.315Y-4.252
X5.315Y-4.3307
T2
X2.5749Y-4.8899
X2.5899Y-4.8513
X3.185Y-4.8612
X3.185Y-4.9026
T3
X3.4018Y-4.276
X3.4018Y-4.3291
X3.4352Y-4.276
X3.4352Y-4.3291
X3.4687Y-4.276
X3.4687Y-4.3291
X3.5022Y-4.276
X3.5022Y-4.3291
X3.5356Y-4.276
X3.5356Y-4.3291
X3.5691Y-4.276
X3.5691Y-4.3291
X3.6026Y-4.276
X3.6026Y-4.3291
X3.636Y-4.276
X3.636Y-4.3291
T4
X1.878Y-5.7874
X2.0118Y-5.7874
X2.0394Y-6.6181
X2.4213Y-5.3661
X2.4646Y-4.5157
X2.8661Y-6.6693
X2.9331Y-6.2441
X2.9409Y-4.7441
X2.9803Y-4.3307
X3.1496Y-5.0
X3.2244Y-4.563
X3.2318Y-5.3942
X3.3465Y-6.2362
X3.378Y-5.689
X3.6201Y-5.5177
X3.6929Y-4.7756
X3.7677Y-5.5827
X3.7697Y-6.6122
X3.7756Y-6.2402
X3.8031Y-4.5945
X4.0512Y-5.3819
X4.126Y-4.5276
X4.3071Y-5.1654
X4.3809Y-5.6348
X4.4006Y-4.5875
X4.4262Y-5.3533
X4.4961Y-6.1801
T5
X3.5945Y-4.3819
T7
X4.3386Y-4.878
T8
X3.4291Y-5.9134
X3.4331Y-5.0748
X3.4567Y-5.8504
X3.4567Y-5.9764
X3.4606Y-5.0118
X3.4606Y-5.1378
X3.5197Y-5.8228
X3.5197Y-6.0039
X3.5236Y-4.9843
X3.5236Y-5.1654
X3.5787Y-5.9803
X3.5827Y-5.1417
X3.5827Y-5.8504
X3.5866Y-5.0118
X3.6102Y-5.9134
X3.6142Y-5.0748
T9
X1.9646Y-4.9882
X2.1732Y-4.1476
X2.374Y-4.1929
X2.5315Y-6.7008
X2.6142Y-6.2126
X2.6299Y-5.7165
X2.7224Y-6.3504
X3.1457Y-4.1476
X3.7717Y-5.9528
X3.7874Y-5.0512
X4.2677Y-5.252
X4.3542Y-6.6497
X4.9764Y-5.0079
X5.1063Y-5.2835
X5.1102Y-5.4606
X5.2756Y-4.4685
T10
X4.6614Y-4.3878
X4.6614Y-4.9587
X4.7598Y-4.9587
X4.8583Y-4.3878
X4.8583Y-4.9587
T11
X5.2697Y-6.0886
X5.2697Y-6.4823
T13
X3.5197Y-5.9134
X3.5236Y-5.0748
T6
G00X3.3486Y-4.1417
M15
G01X3.3486Y-4.1732
M16
G05
G00X3.3486Y-4.261
M15
G01X3.3486Y-4.3201
M16
G05
G00X3.6892Y-4.1417
M15
G01X3.6892Y-4.1732
M16
G05
G00X3.6892Y-4.261
M15
G01X3.6892Y-4.3201
M16
G05
T12
G00X4.5039Y-4.6516
M15
G01X4.5039Y-4.6752
M16
G05
G00X5.0157Y-4.6516
M15
G01X5.0157Y-4.6752
M16
G05
M30
