G04 #@! TF.GenerationSoftware,KiCad,Pcbnew,8.0.7*
G04 #@! TF.CreationDate,2025-01-08T02:37:30+02:00*
G04 #@! TF.ProjectId,000018 PGKB,30303030-3138-4205-9047-4b422e6b6963,3.0*
G04 #@! TF.SameCoordinates,Original*
G04 #@! TF.FileFunction,Paste,Bot*
G04 #@! TF.FilePolarity,Positive*
%FSLAX46Y46*%
G04 Gerber Fmt 4.6, Leading zero omitted, Abs format (unit mm)*
G04 Created by KiCad (PCBNEW 8.0.7) date 2025-01-08 02:37:30*
%MOMM*%
%LPD*%
G01*
G04 APERTURE LIST*
%ADD10R,0.600000X0.450000*%
%ADD11R,1.300000X1.200000*%
%ADD12R,1.300000X0.800000*%
%ADD13R,1.550000X1.000000*%
G04 APERTURE END LIST*
G04 #@! TO.C,S3*
G36*
G01*
X95085000Y-164830000D02*
X95085000Y-166330000D01*
G75*
G02*
X94585000Y-166830000I-500000J0D01*
G01*
X93035000Y-166830000D01*
G75*
G02*
X92535000Y-166330000I0J500000D01*
G01*
X92535000Y-164830000D01*
G75*
G02*
X93035000Y-164330000I500000J0D01*
G01*
X94585000Y-164330000D01*
G75*
G02*
X95085000Y-164830000I0J-500000D01*
G01*
G37*
G36*
G01*
X105985000Y-163750000D02*
X105985000Y-162250000D01*
G75*
G02*
X106485000Y-161750000I500000J0D01*
G01*
X108035000Y-161750000D01*
G75*
G02*
X108535000Y-162250000I0J-500000D01*
G01*
X108535000Y-163750000D01*
G75*
G02*
X108035000Y-164250000I-500000J0D01*
G01*
X106485000Y-164250000D01*
G75*
G02*
X105985000Y-163750000I0J500000D01*
G01*
G37*
G04 #@! TD*
G04 #@! TO.C,S7*
G36*
G01*
X95085000Y-143830000D02*
X95085000Y-145330000D01*
G75*
G02*
X94585000Y-145830000I-500000J0D01*
G01*
X93035000Y-145830000D01*
G75*
G02*
X92535000Y-145330000I0J500000D01*
G01*
X92535000Y-143830000D01*
G75*
G02*
X93035000Y-143330000I500000J0D01*
G01*
X94585000Y-143330000D01*
G75*
G02*
X95085000Y-143830000I0J-500000D01*
G01*
G37*
G36*
G01*
X105985000Y-142750000D02*
X105985000Y-141250000D01*
G75*
G02*
X106485000Y-140750000I500000J0D01*
G01*
X108035000Y-140750000D01*
G75*
G02*
X108535000Y-141250000I0J-500000D01*
G01*
X108535000Y-142750000D01*
G75*
G02*
X108035000Y-143250000I-500000J0D01*
G01*
X106485000Y-143250000D01*
G75*
G02*
X105985000Y-142750000I0J500000D01*
G01*
G37*
G04 #@! TD*
G04 #@! TO.C,S5*
G36*
G01*
X53085000Y-143830000D02*
X53085000Y-145330000D01*
G75*
G02*
X52585000Y-145830000I-500000J0D01*
G01*
X51035000Y-145830000D01*
G75*
G02*
X50535000Y-145330000I0J500000D01*
G01*
X50535000Y-143830000D01*
G75*
G02*
X51035000Y-143330000I500000J0D01*
G01*
X52585000Y-143330000D01*
G75*
G02*
X53085000Y-143830000I0J-500000D01*
G01*
G37*
G36*
G01*
X63985000Y-142750000D02*
X63985000Y-141250000D01*
G75*
G02*
X64485000Y-140750000I500000J0D01*
G01*
X66035000Y-140750000D01*
G75*
G02*
X66535000Y-141250000I0J-500000D01*
G01*
X66535000Y-142750000D01*
G75*
G02*
X66035000Y-143250000I-500000J0D01*
G01*
X64485000Y-143250000D01*
G75*
G02*
X63985000Y-142750000I0J500000D01*
G01*
G37*
G04 #@! TD*
G04 #@! TO.C,S1*
G36*
G01*
X53085000Y-164830000D02*
X53085000Y-166330000D01*
G75*
G02*
X52585000Y-166830000I-500000J0D01*
G01*
X51035000Y-166830000D01*
G75*
G02*
X50535000Y-166330000I0J500000D01*
G01*
X50535000Y-164830000D01*
G75*
G02*
X51035000Y-164330000I500000J0D01*
G01*
X52585000Y-164330000D01*
G75*
G02*
X53085000Y-164830000I0J-500000D01*
G01*
G37*
G36*
G01*
X63985000Y-163750000D02*
X63985000Y-162250000D01*
G75*
G02*
X64485000Y-161750000I500000J0D01*
G01*
X66035000Y-161750000D01*
G75*
G02*
X66535000Y-162250000I0J-500000D01*
G01*
X66535000Y-163750000D01*
G75*
G02*
X66035000Y-164250000I-500000J0D01*
G01*
X64485000Y-164250000D01*
G75*
G02*
X63985000Y-163750000I0J500000D01*
G01*
G37*
G04 #@! TD*
G04 #@! TO.C,S10*
G36*
G01*
X74085000Y-122830000D02*
X74085000Y-124330000D01*
G75*
G02*
X73585000Y-124830000I-500000J0D01*
G01*
X72035000Y-124830000D01*
G75*
G02*
X71535000Y-124330000I0J500000D01*
G01*
X71535000Y-122830000D01*
G75*
G02*
X72035000Y-122330000I500000J0D01*
G01*
X73585000Y-122330000D01*
G75*
G02*
X74085000Y-122830000I0J-500000D01*
G01*
G37*
G36*
G01*
X84985000Y-121750000D02*
X84985000Y-120250000D01*
G75*
G02*
X85485000Y-119750000I500000J0D01*
G01*
X87035000Y-119750000D01*
G75*
G02*
X87535000Y-120250000I0J-500000D01*
G01*
X87535000Y-121750000D01*
G75*
G02*
X87035000Y-122250000I-500000J0D01*
G01*
X85485000Y-122250000D01*
G75*
G02*
X84985000Y-121750000I0J500000D01*
G01*
G37*
G04 #@! TD*
G04 #@! TO.C,S4*
G36*
G01*
X116085000Y-164830000D02*
X116085000Y-166330000D01*
G75*
G02*
X115585000Y-166830000I-500000J0D01*
G01*
X114035000Y-166830000D01*
G75*
G02*
X113535000Y-166330000I0J500000D01*
G01*
X113535000Y-164830000D01*
G75*
G02*
X114035000Y-164330000I500000J0D01*
G01*
X115585000Y-164330000D01*
G75*
G02*
X116085000Y-164830000I0J-500000D01*
G01*
G37*
G36*
G01*
X126985000Y-163750000D02*
X126985000Y-162250000D01*
G75*
G02*
X127485000Y-161750000I500000J0D01*
G01*
X129035000Y-161750000D01*
G75*
G02*
X129535000Y-162250000I0J-500000D01*
G01*
X129535000Y-163750000D01*
G75*
G02*
X129035000Y-164250000I-500000J0D01*
G01*
X127485000Y-164250000D01*
G75*
G02*
X126985000Y-163750000I0J500000D01*
G01*
G37*
G04 #@! TD*
G04 #@! TO.C,S11*
G36*
G01*
X95085000Y-122830000D02*
X95085000Y-124330000D01*
G75*
G02*
X94585000Y-124830000I-500000J0D01*
G01*
X93035000Y-124830000D01*
G75*
G02*
X92535000Y-124330000I0J500000D01*
G01*
X92535000Y-122830000D01*
G75*
G02*
X93035000Y-122330000I500000J0D01*
G01*
X94585000Y-122330000D01*
G75*
G02*
X95085000Y-122830000I0J-500000D01*
G01*
G37*
G36*
G01*
X105985000Y-121750000D02*
X105985000Y-120250000D01*
G75*
G02*
X106485000Y-119750000I500000J0D01*
G01*
X108035000Y-119750000D01*
G75*
G02*
X108535000Y-120250000I0J-500000D01*
G01*
X108535000Y-121750000D01*
G75*
G02*
X108035000Y-122250000I-500000J0D01*
G01*
X106485000Y-122250000D01*
G75*
G02*
X105985000Y-121750000I0J500000D01*
G01*
G37*
G04 #@! TD*
G04 #@! TO.C,S6*
G36*
G01*
X74085000Y-143830000D02*
X74085000Y-145330000D01*
G75*
G02*
X73585000Y-145830000I-500000J0D01*
G01*
X72035000Y-145830000D01*
G75*
G02*
X71535000Y-145330000I0J500000D01*
G01*
X71535000Y-143830000D01*
G75*
G02*
X72035000Y-143330000I500000J0D01*
G01*
X73585000Y-143330000D01*
G75*
G02*
X74085000Y-143830000I0J-500000D01*
G01*
G37*
G36*
G01*
X84985000Y-142750000D02*
X84985000Y-141250000D01*
G75*
G02*
X85485000Y-140750000I500000J0D01*
G01*
X87035000Y-140750000D01*
G75*
G02*
X87535000Y-141250000I0J-500000D01*
G01*
X87535000Y-142750000D01*
G75*
G02*
X87035000Y-143250000I-500000J0D01*
G01*
X85485000Y-143250000D01*
G75*
G02*
X84985000Y-142750000I0J500000D01*
G01*
G37*
G04 #@! TD*
G04 #@! TO.C,S8*
G36*
G01*
X116085000Y-143830000D02*
X116085000Y-145330000D01*
G75*
G02*
X115585000Y-145830000I-500000J0D01*
G01*
X114035000Y-145830000D01*
G75*
G02*
X113535000Y-145330000I0J500000D01*
G01*
X113535000Y-143830000D01*
G75*
G02*
X114035000Y-143330000I500000J0D01*
G01*
X115585000Y-143330000D01*
G75*
G02*
X116085000Y-143830000I0J-500000D01*
G01*
G37*
G36*
G01*
X126985000Y-142750000D02*
X126985000Y-141250000D01*
G75*
G02*
X127485000Y-140750000I500000J0D01*
G01*
X129035000Y-140750000D01*
G75*
G02*
X129535000Y-141250000I0J-500000D01*
G01*
X129535000Y-142750000D01*
G75*
G02*
X129035000Y-143250000I-500000J0D01*
G01*
X127485000Y-143250000D01*
G75*
G02*
X126985000Y-142750000I0J500000D01*
G01*
G37*
G04 #@! TD*
G04 #@! TO.C,S2*
G36*
G01*
X74085000Y-164830000D02*
X74085000Y-166330000D01*
G75*
G02*
X73585000Y-166830000I-500000J0D01*
G01*
X72035000Y-166830000D01*
G75*
G02*
X71535000Y-166330000I0J500000D01*
G01*
X71535000Y-164830000D01*
G75*
G02*
X72035000Y-164330000I500000J0D01*
G01*
X73585000Y-164330000D01*
G75*
G02*
X74085000Y-164830000I0J-500000D01*
G01*
G37*
G36*
G01*
X84985000Y-163750000D02*
X84985000Y-162250000D01*
G75*
G02*
X85485000Y-161750000I500000J0D01*
G01*
X87035000Y-161750000D01*
G75*
G02*
X87535000Y-162250000I0J-500000D01*
G01*
X87535000Y-163750000D01*
G75*
G02*
X87035000Y-164250000I-500000J0D01*
G01*
X85485000Y-164250000D01*
G75*
G02*
X84985000Y-163750000I0J500000D01*
G01*
G37*
G04 #@! TD*
G04 #@! TO.C,S9*
G36*
G01*
X53085000Y-122830000D02*
X53085000Y-124330000D01*
G75*
G02*
X52585000Y-124830000I-500000J0D01*
G01*
X51035000Y-124830000D01*
G75*
G02*
X50535000Y-124330000I0J500000D01*
G01*
X50535000Y-122830000D01*
G75*
G02*
X51035000Y-122330000I500000J0D01*
G01*
X52585000Y-122330000D01*
G75*
G02*
X53085000Y-122830000I0J-500000D01*
G01*
G37*
G36*
G01*
X63985000Y-121750000D02*
X63985000Y-120250000D01*
G75*
G02*
X64485000Y-119750000I500000J0D01*
G01*
X66035000Y-119750000D01*
G75*
G02*
X66535000Y-120250000I0J-500000D01*
G01*
X66535000Y-121750000D01*
G75*
G02*
X66035000Y-122250000I-500000J0D01*
G01*
X64485000Y-122250000D01*
G75*
G02*
X63985000Y-121750000I0J500000D01*
G01*
G37*
G04 #@! TD*
G04 #@! TO.C,C38*
G36*
G01*
X112375000Y-126150000D02*
X112375000Y-125650000D01*
G75*
G02*
X112600000Y-125425000I225000J0D01*
G01*
X113050000Y-125425000D01*
G75*
G02*
X113275000Y-125650000I0J-225000D01*
G01*
X113275000Y-126150000D01*
G75*
G02*
X113050000Y-126375000I-225000J0D01*
G01*
X112600000Y-126375000D01*
G75*
G02*
X112375000Y-126150000I0J225000D01*
G01*
G37*
G36*
G01*
X113925000Y-126150000D02*
X113925000Y-125650000D01*
G75*
G02*
X114150000Y-125425000I225000J0D01*
G01*
X114600000Y-125425000D01*
G75*
G02*
X114825000Y-125650000I0J-225000D01*
G01*
X114825000Y-126150000D01*
G75*
G02*
X114600000Y-126375000I-225000J0D01*
G01*
X114150000Y-126375000D01*
G75*
G02*
X113925000Y-126150000I0J225000D01*
G01*
G37*
G04 #@! TD*
G04 #@! TO.C,C31*
G36*
G01*
X75575000Y-130950000D02*
X75575000Y-130450000D01*
G75*
G02*
X75800000Y-130225000I225000J0D01*
G01*
X76250000Y-130225000D01*
G75*
G02*
X76475000Y-130450000I0J-225000D01*
G01*
X76475000Y-130950000D01*
G75*
G02*
X76250000Y-131175000I-225000J0D01*
G01*
X75800000Y-131175000D01*
G75*
G02*
X75575000Y-130950000I0J225000D01*
G01*
G37*
G36*
G01*
X77125000Y-130950000D02*
X77125000Y-130450000D01*
G75*
G02*
X77350000Y-130225000I225000J0D01*
G01*
X77800000Y-130225000D01*
G75*
G02*
X78025000Y-130450000I0J-225000D01*
G01*
X78025000Y-130950000D01*
G75*
G02*
X77800000Y-131175000I-225000J0D01*
G01*
X77350000Y-131175000D01*
G75*
G02*
X77125000Y-130950000I0J225000D01*
G01*
G37*
G04 #@! TD*
G04 #@! TO.C,U2*
G36*
G01*
X98050000Y-152075000D02*
X99350000Y-152075000D01*
G75*
G02*
X99450000Y-152175000I0J-100000D01*
G01*
X99450000Y-152375000D01*
G75*
G02*
X99350000Y-152475000I-100000J0D01*
G01*
X98050000Y-152475000D01*
G75*
G02*
X97950000Y-152375000I0J100000D01*
G01*
X97950000Y-152175000D01*
G75*
G02*
X98050000Y-152075000I100000J0D01*
G01*
G37*
G36*
G01*
X98050000Y-151425000D02*
X99350000Y-151425000D01*
G75*
G02*
X99450000Y-151525000I0J-100000D01*
G01*
X99450000Y-151725000D01*
G75*
G02*
X99350000Y-151825000I-100000J0D01*
G01*
X98050000Y-151825000D01*
G75*
G02*
X97950000Y-151725000I0J100000D01*
G01*
X97950000Y-151525000D01*
G75*
G02*
X98050000Y-151425000I100000J0D01*
G01*
G37*
G36*
G01*
X98050000Y-150775000D02*
X99350000Y-150775000D01*
G75*
G02*
X99450000Y-150875000I0J-100000D01*
G01*
X99450000Y-151075000D01*
G75*
G02*
X99350000Y-151175000I-100000J0D01*
G01*
X98050000Y-151175000D01*
G75*
G02*
X97950000Y-151075000I0J100000D01*
G01*
X97950000Y-150875000D01*
G75*
G02*
X98050000Y-150775000I100000J0D01*
G01*
G37*
G36*
G01*
X98050000Y-150125000D02*
X99350000Y-150125000D01*
G75*
G02*
X99450000Y-150225000I0J-100000D01*
G01*
X99450000Y-150425000D01*
G75*
G02*
X99350000Y-150525000I-100000J0D01*
G01*
X98050000Y-150525000D01*
G75*
G02*
X97950000Y-150425000I0J100000D01*
G01*
X97950000Y-150225000D01*
G75*
G02*
X98050000Y-150125000I100000J0D01*
G01*
G37*
G36*
G01*
X98050000Y-149475000D02*
X99350000Y-149475000D01*
G75*
G02*
X99450000Y-149575000I0J-100000D01*
G01*
X99450000Y-149775000D01*
G75*
G02*
X99350000Y-149875000I-100000J0D01*
G01*
X98050000Y-149875000D01*
G75*
G02*
X97950000Y-149775000I0J100000D01*
G01*
X97950000Y-149575000D01*
G75*
G02*
X98050000Y-149475000I100000J0D01*
G01*
G37*
G36*
G01*
X98050000Y-148825000D02*
X99350000Y-148825000D01*
G75*
G02*
X99450000Y-148925000I0J-100000D01*
G01*
X99450000Y-149125000D01*
G75*
G02*
X99350000Y-149225000I-100000J0D01*
G01*
X98050000Y-149225000D01*
G75*
G02*
X97950000Y-149125000I0J100000D01*
G01*
X97950000Y-148925000D01*
G75*
G02*
X98050000Y-148825000I100000J0D01*
G01*
G37*
G36*
G01*
X98050000Y-148175000D02*
X99350000Y-148175000D01*
G75*
G02*
X99450000Y-148275000I0J-100000D01*
G01*
X99450000Y-148475000D01*
G75*
G02*
X99350000Y-148575000I-100000J0D01*
G01*
X98050000Y-148575000D01*
G75*
G02*
X97950000Y-148475000I0J100000D01*
G01*
X97950000Y-148275000D01*
G75*
G02*
X98050000Y-148175000I100000J0D01*
G01*
G37*
G36*
G01*
X98050000Y-147525000D02*
X99350000Y-147525000D01*
G75*
G02*
X99450000Y-147625000I0J-100000D01*
G01*
X99450000Y-147825000D01*
G75*
G02*
X99350000Y-147925000I-100000J0D01*
G01*
X98050000Y-147925000D01*
G75*
G02*
X97950000Y-147825000I0J100000D01*
G01*
X97950000Y-147625000D01*
G75*
G02*
X98050000Y-147525000I100000J0D01*
G01*
G37*
G36*
G01*
X103850000Y-147525000D02*
X105150000Y-147525000D01*
G75*
G02*
X105250000Y-147625000I0J-100000D01*
G01*
X105250000Y-147825000D01*
G75*
G02*
X105150000Y-147925000I-100000J0D01*
G01*
X103850000Y-147925000D01*
G75*
G02*
X103750000Y-147825000I0J100000D01*
G01*
X103750000Y-147625000D01*
G75*
G02*
X103850000Y-147525000I100000J0D01*
G01*
G37*
G36*
G01*
X103850000Y-148175000D02*
X105150000Y-148175000D01*
G75*
G02*
X105250000Y-148275000I0J-100000D01*
G01*
X105250000Y-148475000D01*
G75*
G02*
X105150000Y-148575000I-100000J0D01*
G01*
X103850000Y-148575000D01*
G75*
G02*
X103750000Y-148475000I0J100000D01*
G01*
X103750000Y-148275000D01*
G75*
G02*
X103850000Y-148175000I100000J0D01*
G01*
G37*
G36*
G01*
X103850000Y-148825000D02*
X105150000Y-148825000D01*
G75*
G02*
X105250000Y-148925000I0J-100000D01*
G01*
X105250000Y-149125000D01*
G75*
G02*
X105150000Y-149225000I-100000J0D01*
G01*
X103850000Y-149225000D01*
G75*
G02*
X103750000Y-149125000I0J100000D01*
G01*
X103750000Y-148925000D01*
G75*
G02*
X103850000Y-148825000I100000J0D01*
G01*
G37*
G36*
G01*
X103850000Y-149475000D02*
X105150000Y-149475000D01*
G75*
G02*
X105250000Y-149575000I0J-100000D01*
G01*
X105250000Y-149775000D01*
G75*
G02*
X105150000Y-149875000I-100000J0D01*
G01*
X103850000Y-149875000D01*
G75*
G02*
X103750000Y-149775000I0J100000D01*
G01*
X103750000Y-149575000D01*
G75*
G02*
X103850000Y-149475000I100000J0D01*
G01*
G37*
G36*
G01*
X103850000Y-150125000D02*
X105150000Y-150125000D01*
G75*
G02*
X105250000Y-150225000I0J-100000D01*
G01*
X105250000Y-150425000D01*
G75*
G02*
X105150000Y-150525000I-100000J0D01*
G01*
X103850000Y-150525000D01*
G75*
G02*
X103750000Y-150425000I0J100000D01*
G01*
X103750000Y-150225000D01*
G75*
G02*
X103850000Y-150125000I100000J0D01*
G01*
G37*
G36*
G01*
X103850000Y-150775000D02*
X105150000Y-150775000D01*
G75*
G02*
X105250000Y-150875000I0J-100000D01*
G01*
X105250000Y-151075000D01*
G75*
G02*
X105150000Y-151175000I-100000J0D01*
G01*
X103850000Y-151175000D01*
G75*
G02*
X103750000Y-151075000I0J100000D01*
G01*
X103750000Y-150875000D01*
G75*
G02*
X103850000Y-150775000I100000J0D01*
G01*
G37*
G36*
G01*
X103850000Y-151425000D02*
X105150000Y-151425000D01*
G75*
G02*
X105250000Y-151525000I0J-100000D01*
G01*
X105250000Y-151725000D01*
G75*
G02*
X105150000Y-151825000I-100000J0D01*
G01*
X103850000Y-151825000D01*
G75*
G02*
X103750000Y-151725000I0J100000D01*
G01*
X103750000Y-151525000D01*
G75*
G02*
X103850000Y-151425000I100000J0D01*
G01*
G37*
G36*
G01*
X103850000Y-152075000D02*
X105150000Y-152075000D01*
G75*
G02*
X105250000Y-152175000I0J-100000D01*
G01*
X105250000Y-152375000D01*
G75*
G02*
X105150000Y-152475000I-100000J0D01*
G01*
X103850000Y-152475000D01*
G75*
G02*
X103750000Y-152375000I0J100000D01*
G01*
X103750000Y-152175000D01*
G75*
G02*
X103850000Y-152075000I100000J0D01*
G01*
G37*
G04 #@! TD*
G04 #@! TO.C,U6*
G36*
G01*
X113990000Y-115037500D02*
X113690000Y-115037500D01*
G75*
G02*
X113540000Y-114887500I0J150000D01*
G01*
X113540000Y-112987500D01*
G75*
G02*
X113690000Y-112837500I150000J0D01*
G01*
X113990000Y-112837500D01*
G75*
G02*
X114140000Y-112987500I0J-150000D01*
G01*
X114140000Y-114887500D01*
G75*
G02*
X113990000Y-115037500I-150000J0D01*
G01*
G37*
G36*
G01*
X112720000Y-115037500D02*
X112420000Y-115037500D01*
G75*
G02*
X112270000Y-114887500I0J150000D01*
G01*
X112270000Y-112987500D01*
G75*
G02*
X112420000Y-112837500I150000J0D01*
G01*
X112720000Y-112837500D01*
G75*
G02*
X112870000Y-112987500I0J-150000D01*
G01*
X112870000Y-114887500D01*
G75*
G02*
X112720000Y-115037500I-150000J0D01*
G01*
G37*
G36*
G01*
X111450000Y-115037500D02*
X111150000Y-115037500D01*
G75*
G02*
X111000000Y-114887500I0J150000D01*
G01*
X111000000Y-112987500D01*
G75*
G02*
X111150000Y-112837500I150000J0D01*
G01*
X111450000Y-112837500D01*
G75*
G02*
X111600000Y-112987500I0J-150000D01*
G01*
X111600000Y-114887500D01*
G75*
G02*
X111450000Y-115037500I-150000J0D01*
G01*
G37*
G36*
G01*
X110180000Y-115037500D02*
X109880000Y-115037500D01*
G75*
G02*
X109730000Y-114887500I0J150000D01*
G01*
X109730000Y-112987500D01*
G75*
G02*
X109880000Y-112837500I150000J0D01*
G01*
X110180000Y-112837500D01*
G75*
G02*
X110330000Y-112987500I0J-150000D01*
G01*
X110330000Y-114887500D01*
G75*
G02*
X110180000Y-115037500I-150000J0D01*
G01*
G37*
G36*
G01*
X108910000Y-115037500D02*
X108610000Y-115037500D01*
G75*
G02*
X108460000Y-114887500I0J150000D01*
G01*
X108460000Y-112987500D01*
G75*
G02*
X108610000Y-112837500I150000J0D01*
G01*
X108910000Y-112837500D01*
G75*
G02*
X109060000Y-112987500I0J-150000D01*
G01*
X109060000Y-114887500D01*
G75*
G02*
X108910000Y-115037500I-150000J0D01*
G01*
G37*
G36*
G01*
X112702500Y-108712500D02*
X109897500Y-108712500D01*
G75*
G02*
X109575000Y-108390000I0J322500D01*
G01*
X109575000Y-106885000D01*
G75*
G02*
X109897500Y-106562500I322500J0D01*
G01*
X112702500Y-106562500D01*
G75*
G02*
X113025000Y-106885000I0J-322500D01*
G01*
X113025000Y-108390000D01*
G75*
G02*
X112702500Y-108712500I-322500J0D01*
G01*
G37*
G04 #@! TD*
G04 #@! TO.C,R3*
G36*
G01*
X90325000Y-120475000D02*
X90875000Y-120475000D01*
G75*
G02*
X91075000Y-120675000I0J-200000D01*
G01*
X91075000Y-121075000D01*
G75*
G02*
X90875000Y-121275000I-200000J0D01*
G01*
X90325000Y-121275000D01*
G75*
G02*
X90125000Y-121075000I0J200000D01*
G01*
X90125000Y-120675000D01*
G75*
G02*
X90325000Y-120475000I200000J0D01*
G01*
G37*
G36*
G01*
X90325000Y-122125000D02*
X90875000Y-122125000D01*
G75*
G02*
X91075000Y-122325000I0J-200000D01*
G01*
X91075000Y-122725000D01*
G75*
G02*
X90875000Y-122925000I-200000J0D01*
G01*
X90325000Y-122925000D01*
G75*
G02*
X90125000Y-122725000I0J200000D01*
G01*
X90125000Y-122325000D01*
G75*
G02*
X90325000Y-122125000I200000J0D01*
G01*
G37*
G04 #@! TD*
G04 #@! TO.C,R11*
G36*
G01*
X107133281Y-139345860D02*
X107133281Y-138795860D01*
G75*
G02*
X107333281Y-138595860I200000J0D01*
G01*
X107733281Y-138595860D01*
G75*
G02*
X107933281Y-138795860I0J-200000D01*
G01*
X107933281Y-139345860D01*
G75*
G02*
X107733281Y-139545860I-200000J0D01*
G01*
X107333281Y-139545860D01*
G75*
G02*
X107133281Y-139345860I0J200000D01*
G01*
G37*
G36*
G01*
X108783281Y-139345860D02*
X108783281Y-138795860D01*
G75*
G02*
X108983281Y-138595860I200000J0D01*
G01*
X109383281Y-138595860D01*
G75*
G02*
X109583281Y-138795860I0J-200000D01*
G01*
X109583281Y-139345860D01*
G75*
G02*
X109383281Y-139545860I-200000J0D01*
G01*
X108983281Y-139545860D01*
G75*
G02*
X108783281Y-139345860I0J200000D01*
G01*
G37*
G04 #@! TD*
G04 #@! TO.C,R12*
G36*
G01*
X128625000Y-144275000D02*
X129175000Y-144275000D01*
G75*
G02*
X129375000Y-144475000I0J-200000D01*
G01*
X129375000Y-144875000D01*
G75*
G02*
X129175000Y-145075000I-200000J0D01*
G01*
X128625000Y-145075000D01*
G75*
G02*
X128425000Y-144875000I0J200000D01*
G01*
X128425000Y-144475000D01*
G75*
G02*
X128625000Y-144275000I200000J0D01*
G01*
G37*
G36*
G01*
X128625000Y-145925000D02*
X129175000Y-145925000D01*
G75*
G02*
X129375000Y-146125000I0J-200000D01*
G01*
X129375000Y-146525000D01*
G75*
G02*
X129175000Y-146725000I-200000J0D01*
G01*
X128625000Y-146725000D01*
G75*
G02*
X128425000Y-146525000I0J200000D01*
G01*
X128425000Y-146125000D01*
G75*
G02*
X128625000Y-145925000I200000J0D01*
G01*
G37*
G04 #@! TD*
G04 #@! TO.C,D7*
G36*
G01*
X102400000Y-135417500D02*
X102400000Y-134967500D01*
G75*
G02*
X102625000Y-134742500I225000J0D01*
G01*
X103275000Y-134742500D01*
G75*
G02*
X103500000Y-134967500I0J-225000D01*
G01*
X103500000Y-135417500D01*
G75*
G02*
X103275000Y-135642500I-225000J0D01*
G01*
X102625000Y-135642500D01*
G75*
G02*
X102400000Y-135417500I0J225000D01*
G01*
G37*
G36*
G01*
X102400000Y-133917500D02*
X102400000Y-133467500D01*
G75*
G02*
X102625000Y-133242500I225000J0D01*
G01*
X103275000Y-133242500D01*
G75*
G02*
X103500000Y-133467500I0J-225000D01*
G01*
X103500000Y-133917500D01*
G75*
G02*
X103275000Y-134142500I-225000J0D01*
G01*
X102625000Y-134142500D01*
G75*
G02*
X102400000Y-133917500I0J225000D01*
G01*
G37*
G36*
G01*
X96300000Y-133917500D02*
X96300000Y-133467500D01*
G75*
G02*
X96525000Y-133242500I225000J0D01*
G01*
X97175000Y-133242500D01*
G75*
G02*
X97400000Y-133467500I0J-225000D01*
G01*
X97400000Y-133917500D01*
G75*
G02*
X97175000Y-134142500I-225000J0D01*
G01*
X96525000Y-134142500D01*
G75*
G02*
X96300000Y-133917500I0J225000D01*
G01*
G37*
G36*
G01*
X96300000Y-135417500D02*
X96300000Y-134967500D01*
G75*
G02*
X96525000Y-134742500I225000J0D01*
G01*
X97175000Y-134742500D01*
G75*
G02*
X97400000Y-134967500I0J-225000D01*
G01*
X97400000Y-135417500D01*
G75*
G02*
X97175000Y-135642500I-225000J0D01*
G01*
X96525000Y-135642500D01*
G75*
G02*
X96300000Y-135417500I0J225000D01*
G01*
G37*
G04 #@! TD*
G04 #@! TO.C,D15*
G36*
G01*
X132100000Y-126437500D02*
X132100000Y-125962500D01*
G75*
G02*
X132337500Y-125725000I237500J0D01*
G01*
X132912500Y-125725000D01*
G75*
G02*
X133150000Y-125962500I0J-237500D01*
G01*
X133150000Y-126437500D01*
G75*
G02*
X132912500Y-126675000I-237500J0D01*
G01*
X132337500Y-126675000D01*
G75*
G02*
X132100000Y-126437500I0J237500D01*
G01*
G37*
G36*
G01*
X133850000Y-126437500D02*
X133850000Y-125962500D01*
G75*
G02*
X134087500Y-125725000I237500J0D01*
G01*
X134662500Y-125725000D01*
G75*
G02*
X134900000Y-125962500I0J-237500D01*
G01*
X134900000Y-126437500D01*
G75*
G02*
X134662500Y-126675000I-237500J0D01*
G01*
X134087500Y-126675000D01*
G75*
G02*
X133850000Y-126437500I0J237500D01*
G01*
G37*
G04 #@! TD*
G04 #@! TO.C,R14*
G36*
G01*
X85825000Y-115725000D02*
X85825000Y-116275000D01*
G75*
G02*
X85625000Y-116475000I-200000J0D01*
G01*
X85225000Y-116475000D01*
G75*
G02*
X85025000Y-116275000I0J200000D01*
G01*
X85025000Y-115725000D01*
G75*
G02*
X85225000Y-115525000I200000J0D01*
G01*
X85625000Y-115525000D01*
G75*
G02*
X85825000Y-115725000I0J-200000D01*
G01*
G37*
G36*
G01*
X84175000Y-115725000D02*
X84175000Y-116275000D01*
G75*
G02*
X83975000Y-116475000I-200000J0D01*
G01*
X83575000Y-116475000D01*
G75*
G02*
X83375000Y-116275000I0J200000D01*
G01*
X83375000Y-115725000D01*
G75*
G02*
X83575000Y-115525000I200000J0D01*
G01*
X83975000Y-115525000D01*
G75*
G02*
X84175000Y-115725000I0J-200000D01*
G01*
G37*
G04 #@! TD*
G04 #@! TO.C,C40*
G36*
G01*
X122092283Y-151070715D02*
X122092283Y-151570715D01*
G75*
G02*
X121867283Y-151795715I-225000J0D01*
G01*
X121417283Y-151795715D01*
G75*
G02*
X121192283Y-151570715I0J225000D01*
G01*
X121192283Y-151070715D01*
G75*
G02*
X121417283Y-150845715I225000J0D01*
G01*
X121867283Y-150845715D01*
G75*
G02*
X122092283Y-151070715I0J-225000D01*
G01*
G37*
G36*
G01*
X120542283Y-151070715D02*
X120542283Y-151570715D01*
G75*
G02*
X120317283Y-151795715I-225000J0D01*
G01*
X119867283Y-151795715D01*
G75*
G02*
X119642283Y-151570715I0J225000D01*
G01*
X119642283Y-151070715D01*
G75*
G02*
X119867283Y-150845715I225000J0D01*
G01*
X120317283Y-150845715D01*
G75*
G02*
X120542283Y-151070715I0J-225000D01*
G01*
G37*
G04 #@! TD*
G04 #@! TO.C,R2*
G36*
G01*
X81075000Y-109625000D02*
X80525000Y-109625000D01*
G75*
G02*
X80325000Y-109425000I0J200000D01*
G01*
X80325000Y-109025000D01*
G75*
G02*
X80525000Y-108825000I200000J0D01*
G01*
X81075000Y-108825000D01*
G75*
G02*
X81275000Y-109025000I0J-200000D01*
G01*
X81275000Y-109425000D01*
G75*
G02*
X81075000Y-109625000I-200000J0D01*
G01*
G37*
G36*
G01*
X81075000Y-107975000D02*
X80525000Y-107975000D01*
G75*
G02*
X80325000Y-107775000I0J200000D01*
G01*
X80325000Y-107375000D01*
G75*
G02*
X80525000Y-107175000I200000J0D01*
G01*
X81075000Y-107175000D01*
G75*
G02*
X81275000Y-107375000I0J-200000D01*
G01*
X81275000Y-107775000D01*
G75*
G02*
X81075000Y-107975000I-200000J0D01*
G01*
G37*
G04 #@! TD*
G04 #@! TO.C,C33*
G36*
G01*
X63025000Y-125850000D02*
X63025000Y-126350000D01*
G75*
G02*
X62800000Y-126575000I-225000J0D01*
G01*
X62350000Y-126575000D01*
G75*
G02*
X62125000Y-126350000I0J225000D01*
G01*
X62125000Y-125850000D01*
G75*
G02*
X62350000Y-125625000I225000J0D01*
G01*
X62800000Y-125625000D01*
G75*
G02*
X63025000Y-125850000I0J-225000D01*
G01*
G37*
G36*
G01*
X61475000Y-125850000D02*
X61475000Y-126350000D01*
G75*
G02*
X61250000Y-126575000I-225000J0D01*
G01*
X60800000Y-126575000D01*
G75*
G02*
X60575000Y-126350000I0J225000D01*
G01*
X60575000Y-125850000D01*
G75*
G02*
X60800000Y-125625000I225000J0D01*
G01*
X61250000Y-125625000D01*
G75*
G02*
X61475000Y-125850000I0J-225000D01*
G01*
G37*
G04 #@! TD*
G04 #@! TO.C,C35*
G36*
G01*
X59450000Y-131125000D02*
X58950000Y-131125000D01*
G75*
G02*
X58725000Y-130900000I0J225000D01*
G01*
X58725000Y-130450000D01*
G75*
G02*
X58950000Y-130225000I225000J0D01*
G01*
X59450000Y-130225000D01*
G75*
G02*
X59675000Y-130450000I0J-225000D01*
G01*
X59675000Y-130900000D01*
G75*
G02*
X59450000Y-131125000I-225000J0D01*
G01*
G37*
G36*
G01*
X59450000Y-129575000D02*
X58950000Y-129575000D01*
G75*
G02*
X58725000Y-129350000I0J225000D01*
G01*
X58725000Y-128900000D01*
G75*
G02*
X58950000Y-128675000I225000J0D01*
G01*
X59450000Y-128675000D01*
G75*
G02*
X59675000Y-128900000I0J-225000D01*
G01*
X59675000Y-129350000D01*
G75*
G02*
X59450000Y-129575000I-225000J0D01*
G01*
G37*
G04 #@! TD*
G04 #@! TO.C,D16*
G36*
G01*
X128505714Y-126387356D02*
X128505714Y-125912356D01*
G75*
G02*
X128743214Y-125674856I237500J0D01*
G01*
X129318214Y-125674856D01*
G75*
G02*
X129555714Y-125912356I0J-237500D01*
G01*
X129555714Y-126387356D01*
G75*
G02*
X129318214Y-126624856I-237500J0D01*
G01*
X128743214Y-126624856D01*
G75*
G02*
X128505714Y-126387356I0J237500D01*
G01*
G37*
G36*
G01*
X130255714Y-126387356D02*
X130255714Y-125912356D01*
G75*
G02*
X130493214Y-125674856I237500J0D01*
G01*
X131068214Y-125674856D01*
G75*
G02*
X131305714Y-125912356I0J-237500D01*
G01*
X131305714Y-126387356D01*
G75*
G02*
X131068214Y-126624856I-237500J0D01*
G01*
X130493214Y-126624856D01*
G75*
G02*
X130255714Y-126387356I0J237500D01*
G01*
G37*
G04 #@! TD*
G04 #@! TO.C,C9*
G36*
G01*
X89950000Y-142575000D02*
X90450000Y-142575000D01*
G75*
G02*
X90675000Y-142800000I0J-225000D01*
G01*
X90675000Y-143250000D01*
G75*
G02*
X90450000Y-143475000I-225000J0D01*
G01*
X89950000Y-143475000D01*
G75*
G02*
X89725000Y-143250000I0J225000D01*
G01*
X89725000Y-142800000D01*
G75*
G02*
X89950000Y-142575000I225000J0D01*
G01*
G37*
G36*
G01*
X89950000Y-144125000D02*
X90450000Y-144125000D01*
G75*
G02*
X90675000Y-144350000I0J-225000D01*
G01*
X90675000Y-144800000D01*
G75*
G02*
X90450000Y-145025000I-225000J0D01*
G01*
X89950000Y-145025000D01*
G75*
G02*
X89725000Y-144800000I0J225000D01*
G01*
X89725000Y-144350000D01*
G75*
G02*
X89950000Y-144125000I225000J0D01*
G01*
G37*
G04 #@! TD*
G04 #@! TO.C,R39*
G36*
G01*
X132175000Y-146725000D02*
X131625000Y-146725000D01*
G75*
G02*
X131425000Y-146525000I0J200000D01*
G01*
X131425000Y-146125000D01*
G75*
G02*
X131625000Y-145925000I200000J0D01*
G01*
X132175000Y-145925000D01*
G75*
G02*
X132375000Y-146125000I0J-200000D01*
G01*
X132375000Y-146525000D01*
G75*
G02*
X132175000Y-146725000I-200000J0D01*
G01*
G37*
G36*
G01*
X132175000Y-145075000D02*
X131625000Y-145075000D01*
G75*
G02*
X131425000Y-144875000I0J200000D01*
G01*
X131425000Y-144475000D01*
G75*
G02*
X131625000Y-144275000I200000J0D01*
G01*
X132175000Y-144275000D01*
G75*
G02*
X132375000Y-144475000I0J-200000D01*
G01*
X132375000Y-144875000D01*
G75*
G02*
X132175000Y-145075000I-200000J0D01*
G01*
G37*
G04 #@! TD*
G04 #@! TO.C,R5*
G36*
G01*
X68925000Y-165660141D02*
X68925000Y-166210141D01*
G75*
G02*
X68725000Y-166410141I-200000J0D01*
G01*
X68325000Y-166410141D01*
G75*
G02*
X68125000Y-166210141I0J200000D01*
G01*
X68125000Y-165660141D01*
G75*
G02*
X68325000Y-165460141I200000J0D01*
G01*
X68725000Y-165460141D01*
G75*
G02*
X68925000Y-165660141I0J-200000D01*
G01*
G37*
G36*
G01*
X67275000Y-165660141D02*
X67275000Y-166210141D01*
G75*
G02*
X67075000Y-166410141I-200000J0D01*
G01*
X66675000Y-166410141D01*
G75*
G02*
X66475000Y-166210141I0J200000D01*
G01*
X66475000Y-165660141D01*
G75*
G02*
X66675000Y-165460141I200000J0D01*
G01*
X67075000Y-165460141D01*
G75*
G02*
X67275000Y-165660141I0J-200000D01*
G01*
G37*
G04 #@! TD*
G04 #@! TO.C,D1*
G36*
G01*
X60373849Y-156389764D02*
X60373849Y-155939764D01*
G75*
G02*
X60598849Y-155714764I225000J0D01*
G01*
X61248849Y-155714764D01*
G75*
G02*
X61473849Y-155939764I0J-225000D01*
G01*
X61473849Y-156389764D01*
G75*
G02*
X61248849Y-156614764I-225000J0D01*
G01*
X60598849Y-156614764D01*
G75*
G02*
X60373849Y-156389764I0J225000D01*
G01*
G37*
G36*
G01*
X60373849Y-154889764D02*
X60373849Y-154439764D01*
G75*
G02*
X60598849Y-154214764I225000J0D01*
G01*
X61248849Y-154214764D01*
G75*
G02*
X61473849Y-154439764I0J-225000D01*
G01*
X61473849Y-154889764D01*
G75*
G02*
X61248849Y-155114764I-225000J0D01*
G01*
X60598849Y-155114764D01*
G75*
G02*
X60373849Y-154889764I0J225000D01*
G01*
G37*
G36*
G01*
X54273849Y-154889764D02*
X54273849Y-154439764D01*
G75*
G02*
X54498849Y-154214764I225000J0D01*
G01*
X55148849Y-154214764D01*
G75*
G02*
X55373849Y-154439764I0J-225000D01*
G01*
X55373849Y-154889764D01*
G75*
G02*
X55148849Y-155114764I-225000J0D01*
G01*
X54498849Y-155114764D01*
G75*
G02*
X54273849Y-154889764I0J225000D01*
G01*
G37*
G36*
G01*
X54273849Y-156389764D02*
X54273849Y-155939764D01*
G75*
G02*
X54498849Y-155714764I225000J0D01*
G01*
X55148849Y-155714764D01*
G75*
G02*
X55373849Y-155939764I0J-225000D01*
G01*
X55373849Y-156389764D01*
G75*
G02*
X55148849Y-156614764I-225000J0D01*
G01*
X54498849Y-156614764D01*
G75*
G02*
X54273849Y-156389764I0J225000D01*
G01*
G37*
G04 #@! TD*
G04 #@! TO.C,R22*
G36*
G01*
X53575000Y-108825000D02*
X53025000Y-108825000D01*
G75*
G02*
X52825000Y-108625000I0J200000D01*
G01*
X52825000Y-108225000D01*
G75*
G02*
X53025000Y-108025000I200000J0D01*
G01*
X53575000Y-108025000D01*
G75*
G02*
X53775000Y-108225000I0J-200000D01*
G01*
X53775000Y-108625000D01*
G75*
G02*
X53575000Y-108825000I-200000J0D01*
G01*
G37*
G36*
G01*
X53575000Y-107175000D02*
X53025000Y-107175000D01*
G75*
G02*
X52825000Y-106975000I0J200000D01*
G01*
X52825000Y-106575000D01*
G75*
G02*
X53025000Y-106375000I200000J0D01*
G01*
X53575000Y-106375000D01*
G75*
G02*
X53775000Y-106575000I0J-200000D01*
G01*
X53775000Y-106975000D01*
G75*
G02*
X53575000Y-107175000I-200000J0D01*
G01*
G37*
G04 #@! TD*
G04 #@! TO.C,R35*
G36*
G01*
X130275000Y-158175000D02*
X130275000Y-157625000D01*
G75*
G02*
X130475000Y-157425000I200000J0D01*
G01*
X130875000Y-157425000D01*
G75*
G02*
X131075000Y-157625000I0J-200000D01*
G01*
X131075000Y-158175000D01*
G75*
G02*
X130875000Y-158375000I-200000J0D01*
G01*
X130475000Y-158375000D01*
G75*
G02*
X130275000Y-158175000I0J200000D01*
G01*
G37*
G36*
G01*
X131925000Y-158175000D02*
X131925000Y-157625000D01*
G75*
G02*
X132125000Y-157425000I200000J0D01*
G01*
X132525000Y-157425000D01*
G75*
G02*
X132725000Y-157625000I0J-200000D01*
G01*
X132725000Y-158175000D01*
G75*
G02*
X132525000Y-158375000I-200000J0D01*
G01*
X132125000Y-158375000D01*
G75*
G02*
X131925000Y-158175000I0J200000D01*
G01*
G37*
G04 #@! TD*
G04 #@! TO.C,C27*
G36*
G01*
X70625000Y-142850000D02*
X70625000Y-143350000D01*
G75*
G02*
X70400000Y-143575000I-225000J0D01*
G01*
X69950000Y-143575000D01*
G75*
G02*
X69725000Y-143350000I0J225000D01*
G01*
X69725000Y-142850000D01*
G75*
G02*
X69950000Y-142625000I225000J0D01*
G01*
X70400000Y-142625000D01*
G75*
G02*
X70625000Y-142850000I0J-225000D01*
G01*
G37*
G36*
G01*
X69075000Y-142850000D02*
X69075000Y-143350000D01*
G75*
G02*
X68850000Y-143575000I-225000J0D01*
G01*
X68400000Y-143575000D01*
G75*
G02*
X68175000Y-143350000I0J225000D01*
G01*
X68175000Y-142850000D01*
G75*
G02*
X68400000Y-142625000I225000J0D01*
G01*
X68850000Y-142625000D01*
G75*
G02*
X69075000Y-142850000I0J-225000D01*
G01*
G37*
G04 #@! TD*
G04 #@! TO.C,J2*
G36*
G01*
X64800000Y-113950000D02*
X64800000Y-110950000D01*
G75*
G02*
X65050000Y-110700000I250000J0D01*
G01*
X65550000Y-110700000D01*
G75*
G02*
X65800000Y-110950000I0J-250000D01*
G01*
X65800000Y-113950000D01*
G75*
G02*
X65550000Y-114200000I-250000J0D01*
G01*
X65050000Y-114200000D01*
G75*
G02*
X64800000Y-113950000I0J250000D01*
G01*
G37*
G36*
G01*
X66800000Y-113950000D02*
X66800000Y-110950000D01*
G75*
G02*
X67050000Y-110700000I250000J0D01*
G01*
X67550000Y-110700000D01*
G75*
G02*
X67800000Y-110950000I0J-250000D01*
G01*
X67800000Y-113950000D01*
G75*
G02*
X67550000Y-114200000I-250000J0D01*
G01*
X67050000Y-114200000D01*
G75*
G02*
X66800000Y-113950000I0J250000D01*
G01*
G37*
G36*
G01*
X68800000Y-113950000D02*
X68800000Y-110950000D01*
G75*
G02*
X69050000Y-110700000I250000J0D01*
G01*
X69550000Y-110700000D01*
G75*
G02*
X69800000Y-110950000I0J-250000D01*
G01*
X69800000Y-113950000D01*
G75*
G02*
X69550000Y-114200000I-250000J0D01*
G01*
X69050000Y-114200000D01*
G75*
G02*
X68800000Y-113950000I0J250000D01*
G01*
G37*
G36*
G01*
X70800000Y-113950000D02*
X70800000Y-110950000D01*
G75*
G02*
X71050000Y-110700000I250000J0D01*
G01*
X71550000Y-110700000D01*
G75*
G02*
X71800000Y-110950000I0J-250000D01*
G01*
X71800000Y-113950000D01*
G75*
G02*
X71550000Y-114200000I-250000J0D01*
G01*
X71050000Y-114200000D01*
G75*
G02*
X70800000Y-113950000I0J250000D01*
G01*
G37*
G36*
G01*
X62200000Y-108149999D02*
X62200000Y-105250001D01*
G75*
G02*
X62450001Y-105000000I250001J0D01*
G01*
X63449999Y-105000000D01*
G75*
G02*
X63700000Y-105250001I0J-250001D01*
G01*
X63700000Y-108149999D01*
G75*
G02*
X63449999Y-108400000I-250001J0D01*
G01*
X62450001Y-108400000D01*
G75*
G02*
X62200000Y-108149999I0J250001D01*
G01*
G37*
G36*
G01*
X72900000Y-108149999D02*
X72900000Y-105250001D01*
G75*
G02*
X73150001Y-105000000I250001J0D01*
G01*
X74149999Y-105000000D01*
G75*
G02*
X74400000Y-105250001I0J-250001D01*
G01*
X74400000Y-108149999D01*
G75*
G02*
X74149999Y-108400000I-250001J0D01*
G01*
X73150001Y-108400000D01*
G75*
G02*
X72900000Y-108149999I0J250001D01*
G01*
G37*
G04 #@! TD*
G04 #@! TO.C,R36*
G36*
G01*
X56725000Y-147775000D02*
X57275000Y-147775000D01*
G75*
G02*
X57475000Y-147975000I0J-200000D01*
G01*
X57475000Y-148375000D01*
G75*
G02*
X57275000Y-148575000I-200000J0D01*
G01*
X56725000Y-148575000D01*
G75*
G02*
X56525000Y-148375000I0J200000D01*
G01*
X56525000Y-147975000D01*
G75*
G02*
X56725000Y-147775000I200000J0D01*
G01*
G37*
G36*
G01*
X56725000Y-149425000D02*
X57275000Y-149425000D01*
G75*
G02*
X57475000Y-149625000I0J-200000D01*
G01*
X57475000Y-150025000D01*
G75*
G02*
X57275000Y-150225000I-200000J0D01*
G01*
X56725000Y-150225000D01*
G75*
G02*
X56525000Y-150025000I0J200000D01*
G01*
X56525000Y-149625000D01*
G75*
G02*
X56725000Y-149425000I200000J0D01*
G01*
G37*
G04 #@! TD*
G04 #@! TO.C,C11*
G36*
G01*
X130650000Y-146725000D02*
X130150000Y-146725000D01*
G75*
G02*
X129925000Y-146500000I0J225000D01*
G01*
X129925000Y-146050000D01*
G75*
G02*
X130150000Y-145825000I225000J0D01*
G01*
X130650000Y-145825000D01*
G75*
G02*
X130875000Y-146050000I0J-225000D01*
G01*
X130875000Y-146500000D01*
G75*
G02*
X130650000Y-146725000I-225000J0D01*
G01*
G37*
G36*
G01*
X130650000Y-145175000D02*
X130150000Y-145175000D01*
G75*
G02*
X129925000Y-144950000I0J225000D01*
G01*
X129925000Y-144500000D01*
G75*
G02*
X130150000Y-144275000I225000J0D01*
G01*
X130650000Y-144275000D01*
G75*
G02*
X130875000Y-144500000I0J-225000D01*
G01*
X130875000Y-144950000D01*
G75*
G02*
X130650000Y-145175000I-225000J0D01*
G01*
G37*
G04 #@! TD*
G04 #@! TO.C,U1*
G36*
G01*
X85750000Y-138800000D02*
X87050000Y-138800000D01*
G75*
G02*
X87150000Y-138900000I0J-100000D01*
G01*
X87150000Y-139100000D01*
G75*
G02*
X87050000Y-139200000I-100000J0D01*
G01*
X85750000Y-139200000D01*
G75*
G02*
X85650000Y-139100000I0J100000D01*
G01*
X85650000Y-138900000D01*
G75*
G02*
X85750000Y-138800000I100000J0D01*
G01*
G37*
G36*
G01*
X85750000Y-138150000D02*
X87050000Y-138150000D01*
G75*
G02*
X87150000Y-138250000I0J-100000D01*
G01*
X87150000Y-138450000D01*
G75*
G02*
X87050000Y-138550000I-100000J0D01*
G01*
X85750000Y-138550000D01*
G75*
G02*
X85650000Y-138450000I0J100000D01*
G01*
X85650000Y-138250000D01*
G75*
G02*
X85750000Y-138150000I100000J0D01*
G01*
G37*
G36*
G01*
X85750000Y-137500000D02*
X87050000Y-137500000D01*
G75*
G02*
X87150000Y-137600000I0J-100000D01*
G01*
X87150000Y-137800000D01*
G75*
G02*
X87050000Y-137900000I-100000J0D01*
G01*
X85750000Y-137900000D01*
G75*
G02*
X85650000Y-137800000I0J100000D01*
G01*
X85650000Y-137600000D01*
G75*
G02*
X85750000Y-137500000I100000J0D01*
G01*
G37*
G36*
G01*
X85750000Y-136850000D02*
X87050000Y-136850000D01*
G75*
G02*
X87150000Y-136950000I0J-100000D01*
G01*
X87150000Y-137150000D01*
G75*
G02*
X87050000Y-137250000I-100000J0D01*
G01*
X85750000Y-137250000D01*
G75*
G02*
X85650000Y-137150000I0J100000D01*
G01*
X85650000Y-136950000D01*
G75*
G02*
X85750000Y-136850000I100000J0D01*
G01*
G37*
G36*
G01*
X85750000Y-136200000D02*
X87050000Y-136200000D01*
G75*
G02*
X87150000Y-136300000I0J-100000D01*
G01*
X87150000Y-136500000D01*
G75*
G02*
X87050000Y-136600000I-100000J0D01*
G01*
X85750000Y-136600000D01*
G75*
G02*
X85650000Y-136500000I0J100000D01*
G01*
X85650000Y-136300000D01*
G75*
G02*
X85750000Y-136200000I100000J0D01*
G01*
G37*
G36*
G01*
X85750000Y-135550000D02*
X87050000Y-135550000D01*
G75*
G02*
X87150000Y-135650000I0J-100000D01*
G01*
X87150000Y-135850000D01*
G75*
G02*
X87050000Y-135950000I-100000J0D01*
G01*
X85750000Y-135950000D01*
G75*
G02*
X85650000Y-135850000I0J100000D01*
G01*
X85650000Y-135650000D01*
G75*
G02*
X85750000Y-135550000I100000J0D01*
G01*
G37*
G36*
G01*
X85750000Y-134900000D02*
X87050000Y-134900000D01*
G75*
G02*
X87150000Y-135000000I0J-100000D01*
G01*
X87150000Y-135200000D01*
G75*
G02*
X87050000Y-135300000I-100000J0D01*
G01*
X85750000Y-135300000D01*
G75*
G02*
X85650000Y-135200000I0J100000D01*
G01*
X85650000Y-135000000D01*
G75*
G02*
X85750000Y-134900000I100000J0D01*
G01*
G37*
G36*
G01*
X85750000Y-134250000D02*
X87050000Y-134250000D01*
G75*
G02*
X87150000Y-134350000I0J-100000D01*
G01*
X87150000Y-134550000D01*
G75*
G02*
X87050000Y-134650000I-100000J0D01*
G01*
X85750000Y-134650000D01*
G75*
G02*
X85650000Y-134550000I0J100000D01*
G01*
X85650000Y-134350000D01*
G75*
G02*
X85750000Y-134250000I100000J0D01*
G01*
G37*
G36*
G01*
X91550000Y-134250000D02*
X92850000Y-134250000D01*
G75*
G02*
X92950000Y-134350000I0J-100000D01*
G01*
X92950000Y-134550000D01*
G75*
G02*
X92850000Y-134650000I-100000J0D01*
G01*
X91550000Y-134650000D01*
G75*
G02*
X91450000Y-134550000I0J100000D01*
G01*
X91450000Y-134350000D01*
G75*
G02*
X91550000Y-134250000I100000J0D01*
G01*
G37*
G36*
G01*
X91550000Y-134900000D02*
X92850000Y-134900000D01*
G75*
G02*
X92950000Y-135000000I0J-100000D01*
G01*
X92950000Y-135200000D01*
G75*
G02*
X92850000Y-135300000I-100000J0D01*
G01*
X91550000Y-135300000D01*
G75*
G02*
X91450000Y-135200000I0J100000D01*
G01*
X91450000Y-135000000D01*
G75*
G02*
X91550000Y-134900000I100000J0D01*
G01*
G37*
G36*
G01*
X91550000Y-135550000D02*
X92850000Y-135550000D01*
G75*
G02*
X92950000Y-135650000I0J-100000D01*
G01*
X92950000Y-135850000D01*
G75*
G02*
X92850000Y-135950000I-100000J0D01*
G01*
X91550000Y-135950000D01*
G75*
G02*
X91450000Y-135850000I0J100000D01*
G01*
X91450000Y-135650000D01*
G75*
G02*
X91550000Y-135550000I100000J0D01*
G01*
G37*
G36*
G01*
X91550000Y-136200000D02*
X92850000Y-136200000D01*
G75*
G02*
X92950000Y-136300000I0J-100000D01*
G01*
X92950000Y-136500000D01*
G75*
G02*
X92850000Y-136600000I-100000J0D01*
G01*
X91550000Y-136600000D01*
G75*
G02*
X91450000Y-136500000I0J100000D01*
G01*
X91450000Y-136300000D01*
G75*
G02*
X91550000Y-136200000I100000J0D01*
G01*
G37*
G36*
G01*
X91550000Y-136850000D02*
X92850000Y-136850000D01*
G75*
G02*
X92950000Y-136950000I0J-100000D01*
G01*
X92950000Y-137150000D01*
G75*
G02*
X92850000Y-137250000I-100000J0D01*
G01*
X91550000Y-137250000D01*
G75*
G02*
X91450000Y-137150000I0J100000D01*
G01*
X91450000Y-136950000D01*
G75*
G02*
X91550000Y-136850000I100000J0D01*
G01*
G37*
G36*
G01*
X91550000Y-137500000D02*
X92850000Y-137500000D01*
G75*
G02*
X92950000Y-137600000I0J-100000D01*
G01*
X92950000Y-137800000D01*
G75*
G02*
X92850000Y-137900000I-100000J0D01*
G01*
X91550000Y-137900000D01*
G75*
G02*
X91450000Y-137800000I0J100000D01*
G01*
X91450000Y-137600000D01*
G75*
G02*
X91550000Y-137500000I100000J0D01*
G01*
G37*
G36*
G01*
X91550000Y-138150000D02*
X92850000Y-138150000D01*
G75*
G02*
X92950000Y-138250000I0J-100000D01*
G01*
X92950000Y-138450000D01*
G75*
G02*
X92850000Y-138550000I-100000J0D01*
G01*
X91550000Y-138550000D01*
G75*
G02*
X91450000Y-138450000I0J100000D01*
G01*
X91450000Y-138250000D01*
G75*
G02*
X91550000Y-138150000I100000J0D01*
G01*
G37*
G36*
G01*
X91550000Y-138800000D02*
X92850000Y-138800000D01*
G75*
G02*
X92950000Y-138900000I0J-100000D01*
G01*
X92950000Y-139100000D01*
G75*
G02*
X92850000Y-139200000I-100000J0D01*
G01*
X91550000Y-139200000D01*
G75*
G02*
X91450000Y-139100000I0J100000D01*
G01*
X91450000Y-138900000D01*
G75*
G02*
X91550000Y-138800000I100000J0D01*
G01*
G37*
G04 #@! TD*
G04 #@! TO.C,R31*
G36*
G01*
X88925000Y-155125000D02*
X88925000Y-155675000D01*
G75*
G02*
X88725000Y-155875000I-200000J0D01*
G01*
X88325000Y-155875000D01*
G75*
G02*
X88125000Y-155675000I0J200000D01*
G01*
X88125000Y-155125000D01*
G75*
G02*
X88325000Y-154925000I200000J0D01*
G01*
X88725000Y-154925000D01*
G75*
G02*
X88925000Y-155125000I0J-200000D01*
G01*
G37*
G36*
G01*
X87275000Y-155125000D02*
X87275000Y-155675000D01*
G75*
G02*
X87075000Y-155875000I-200000J0D01*
G01*
X86675000Y-155875000D01*
G75*
G02*
X86475000Y-155675000I0J200000D01*
G01*
X86475000Y-155125000D01*
G75*
G02*
X86675000Y-154925000I200000J0D01*
G01*
X87075000Y-154925000D01*
G75*
G02*
X87275000Y-155125000I0J-200000D01*
G01*
G37*
G04 #@! TD*
G04 #@! TO.C,Y1*
G36*
G01*
X71800000Y-140950315D02*
X71800000Y-141500315D01*
G75*
G02*
X71525000Y-141775315I-275000J0D01*
G01*
X70475000Y-141775315D01*
G75*
G02*
X70200000Y-141500315I0J275000D01*
G01*
X70200000Y-140950315D01*
G75*
G02*
X70475000Y-140675315I275000J0D01*
G01*
X71525000Y-140675315D01*
G75*
G02*
X71800000Y-140950315I0J-275000D01*
G01*
G37*
G36*
G01*
X69200000Y-140950315D02*
X69200000Y-141500315D01*
G75*
G02*
X68925000Y-141775315I-275000J0D01*
G01*
X67875000Y-141775315D01*
G75*
G02*
X67600000Y-141500315I0J275000D01*
G01*
X67600000Y-140950315D01*
G75*
G02*
X67875000Y-140675315I275000J0D01*
G01*
X68925000Y-140675315D01*
G75*
G02*
X69200000Y-140950315I0J-275000D01*
G01*
G37*
G36*
G01*
X69200000Y-139050315D02*
X69200000Y-139600315D01*
G75*
G02*
X68925000Y-139875315I-275000J0D01*
G01*
X67875000Y-139875315D01*
G75*
G02*
X67600000Y-139600315I0J275000D01*
G01*
X67600000Y-139050315D01*
G75*
G02*
X67875000Y-138775315I275000J0D01*
G01*
X68925000Y-138775315D01*
G75*
G02*
X69200000Y-139050315I0J-275000D01*
G01*
G37*
G36*
G01*
X71800000Y-139050315D02*
X71800000Y-139600315D01*
G75*
G02*
X71525000Y-139875315I-275000J0D01*
G01*
X70475000Y-139875315D01*
G75*
G02*
X70200000Y-139600315I0J275000D01*
G01*
X70200000Y-139050315D01*
G75*
G02*
X70475000Y-138775315I275000J0D01*
G01*
X71525000Y-138775315D01*
G75*
G02*
X71800000Y-139050315I0J-275000D01*
G01*
G37*
G04 #@! TD*
G04 #@! TO.C,C17*
G36*
G01*
X133050000Y-142050000D02*
X132550000Y-142050000D01*
G75*
G02*
X132325000Y-141825000I0J225000D01*
G01*
X132325000Y-141375000D01*
G75*
G02*
X132550000Y-141150000I225000J0D01*
G01*
X133050000Y-141150000D01*
G75*
G02*
X133275000Y-141375000I0J-225000D01*
G01*
X133275000Y-141825000D01*
G75*
G02*
X133050000Y-142050000I-225000J0D01*
G01*
G37*
G36*
G01*
X133050000Y-140500000D02*
X132550000Y-140500000D01*
G75*
G02*
X132325000Y-140275000I0J225000D01*
G01*
X132325000Y-139825000D01*
G75*
G02*
X132550000Y-139600000I225000J0D01*
G01*
X133050000Y-139600000D01*
G75*
G02*
X133275000Y-139825000I0J-225000D01*
G01*
X133275000Y-140275000D01*
G75*
G02*
X133050000Y-140500000I-225000J0D01*
G01*
G37*
G04 #@! TD*
G04 #@! TO.C,D3*
G36*
G01*
X102390556Y-156412768D02*
X102390556Y-155962768D01*
G75*
G02*
X102615556Y-155737768I225000J0D01*
G01*
X103265556Y-155737768D01*
G75*
G02*
X103490556Y-155962768I0J-225000D01*
G01*
X103490556Y-156412768D01*
G75*
G02*
X103265556Y-156637768I-225000J0D01*
G01*
X102615556Y-156637768D01*
G75*
G02*
X102390556Y-156412768I0J225000D01*
G01*
G37*
G36*
G01*
X102390556Y-154912768D02*
X102390556Y-154462768D01*
G75*
G02*
X102615556Y-154237768I225000J0D01*
G01*
X103265556Y-154237768D01*
G75*
G02*
X103490556Y-154462768I0J-225000D01*
G01*
X103490556Y-154912768D01*
G75*
G02*
X103265556Y-155137768I-225000J0D01*
G01*
X102615556Y-155137768D01*
G75*
G02*
X102390556Y-154912768I0J225000D01*
G01*
G37*
G36*
G01*
X96290556Y-154912768D02*
X96290556Y-154462768D01*
G75*
G02*
X96515556Y-154237768I225000J0D01*
G01*
X97165556Y-154237768D01*
G75*
G02*
X97390556Y-154462768I0J-225000D01*
G01*
X97390556Y-154912768D01*
G75*
G02*
X97165556Y-155137768I-225000J0D01*
G01*
X96515556Y-155137768D01*
G75*
G02*
X96290556Y-154912768I0J225000D01*
G01*
G37*
G36*
G01*
X96290556Y-156412768D02*
X96290556Y-155962768D01*
G75*
G02*
X96515556Y-155737768I225000J0D01*
G01*
X97165556Y-155737768D01*
G75*
G02*
X97390556Y-155962768I0J-225000D01*
G01*
X97390556Y-156412768D01*
G75*
G02*
X97165556Y-156637768I-225000J0D01*
G01*
X96515556Y-156637768D01*
G75*
G02*
X96290556Y-156412768I0J225000D01*
G01*
G37*
G04 #@! TD*
G04 #@! TO.C,R6*
G36*
G01*
X88925000Y-158225000D02*
X88925000Y-158775000D01*
G75*
G02*
X88725000Y-158975000I-200000J0D01*
G01*
X88325000Y-158975000D01*
G75*
G02*
X88125000Y-158775000I0J200000D01*
G01*
X88125000Y-158225000D01*
G75*
G02*
X88325000Y-158025000I200000J0D01*
G01*
X88725000Y-158025000D01*
G75*
G02*
X88925000Y-158225000I0J-200000D01*
G01*
G37*
G36*
G01*
X87275000Y-158225000D02*
X87275000Y-158775000D01*
G75*
G02*
X87075000Y-158975000I-200000J0D01*
G01*
X86675000Y-158975000D01*
G75*
G02*
X86475000Y-158775000I0J200000D01*
G01*
X86475000Y-158225000D01*
G75*
G02*
X86675000Y-158025000I200000J0D01*
G01*
X87075000Y-158025000D01*
G75*
G02*
X87275000Y-158225000I0J-200000D01*
G01*
G37*
G04 #@! TD*
G04 #@! TO.C,R28*
G36*
G01*
X112075000Y-128975000D02*
X112075000Y-128425000D01*
G75*
G02*
X112275000Y-128225000I200000J0D01*
G01*
X112675000Y-128225000D01*
G75*
G02*
X112875000Y-128425000I0J-200000D01*
G01*
X112875000Y-128975000D01*
G75*
G02*
X112675000Y-129175000I-200000J0D01*
G01*
X112275000Y-129175000D01*
G75*
G02*
X112075000Y-128975000I0J200000D01*
G01*
G37*
G36*
G01*
X113725000Y-128975000D02*
X113725000Y-128425000D01*
G75*
G02*
X113925000Y-128225000I200000J0D01*
G01*
X114325000Y-128225000D01*
G75*
G02*
X114525000Y-128425000I0J-200000D01*
G01*
X114525000Y-128975000D01*
G75*
G02*
X114325000Y-129175000I-200000J0D01*
G01*
X113925000Y-129175000D01*
G75*
G02*
X113725000Y-128975000I0J200000D01*
G01*
G37*
G04 #@! TD*
G04 #@! TO.C,FB1*
G36*
G01*
X92081250Y-115500000D02*
X91318750Y-115500000D01*
G75*
G02*
X91100000Y-115281250I0J218750D01*
G01*
X91100000Y-114843750D01*
G75*
G02*
X91318750Y-114625000I218750J0D01*
G01*
X92081250Y-114625000D01*
G75*
G02*
X92300000Y-114843750I0J-218750D01*
G01*
X92300000Y-115281250D01*
G75*
G02*
X92081250Y-115500000I-218750J0D01*
G01*
G37*
G36*
G01*
X92081250Y-113375000D02*
X91318750Y-113375000D01*
G75*
G02*
X91100000Y-113156250I0J218750D01*
G01*
X91100000Y-112718750D01*
G75*
G02*
X91318750Y-112500000I218750J0D01*
G01*
X92081250Y-112500000D01*
G75*
G02*
X92300000Y-112718750I0J-218750D01*
G01*
X92300000Y-113156250D01*
G75*
G02*
X92081250Y-113375000I-218750J0D01*
G01*
G37*
G04 #@! TD*
G04 #@! TO.C,C13*
G36*
G01*
X83366060Y-114682430D02*
X83366060Y-114182430D01*
G75*
G02*
X83591060Y-113957430I225000J0D01*
G01*
X84041060Y-113957430D01*
G75*
G02*
X84266060Y-114182430I0J-225000D01*
G01*
X84266060Y-114682430D01*
G75*
G02*
X84041060Y-114907430I-225000J0D01*
G01*
X83591060Y-114907430D01*
G75*
G02*
X83366060Y-114682430I0J225000D01*
G01*
G37*
G36*
G01*
X84916060Y-114682430D02*
X84916060Y-114182430D01*
G75*
G02*
X85141060Y-113957430I225000J0D01*
G01*
X85591060Y-113957430D01*
G75*
G02*
X85816060Y-114182430I0J-225000D01*
G01*
X85816060Y-114682430D01*
G75*
G02*
X85591060Y-114907430I-225000J0D01*
G01*
X85141060Y-114907430D01*
G75*
G02*
X84916060Y-114682430I0J225000D01*
G01*
G37*
G04 #@! TD*
G04 #@! TO.C,D12*
G36*
G01*
X94385000Y-115950000D02*
X93615000Y-115950000D01*
G75*
G02*
X93450000Y-115785000I0J165000D01*
G01*
X93450000Y-115015000D01*
G75*
G02*
X93615000Y-114850000I165000J0D01*
G01*
X94385000Y-114850000D01*
G75*
G02*
X94550000Y-115015000I0J-165000D01*
G01*
X94550000Y-115785000D01*
G75*
G02*
X94385000Y-115950000I-165000J0D01*
G01*
G37*
G36*
G01*
X94385000Y-113050000D02*
X93615000Y-113050000D01*
G75*
G02*
X93450000Y-112885000I0J165000D01*
G01*
X93450000Y-112115000D01*
G75*
G02*
X93615000Y-111950000I165000J0D01*
G01*
X94385000Y-111950000D01*
G75*
G02*
X94550000Y-112115000I0J-165000D01*
G01*
X94550000Y-112885000D01*
G75*
G02*
X94385000Y-113050000I-165000J0D01*
G01*
G37*
G04 #@! TD*
G04 #@! TO.C,R24*
G36*
G01*
X82825000Y-149475000D02*
X83375000Y-149475000D01*
G75*
G02*
X83575000Y-149675000I0J-200000D01*
G01*
X83575000Y-150075000D01*
G75*
G02*
X83375000Y-150275000I-200000J0D01*
G01*
X82825000Y-150275000D01*
G75*
G02*
X82625000Y-150075000I0J200000D01*
G01*
X82625000Y-149675000D01*
G75*
G02*
X82825000Y-149475000I200000J0D01*
G01*
G37*
G36*
G01*
X82825000Y-151125000D02*
X83375000Y-151125000D01*
G75*
G02*
X83575000Y-151325000I0J-200000D01*
G01*
X83575000Y-151725000D01*
G75*
G02*
X83375000Y-151925000I-200000J0D01*
G01*
X82825000Y-151925000D01*
G75*
G02*
X82625000Y-151725000I0J200000D01*
G01*
X82625000Y-151325000D01*
G75*
G02*
X82825000Y-151125000I200000J0D01*
G01*
G37*
G04 #@! TD*
G04 #@! TO.C,R17*
G36*
G01*
X132525000Y-132275000D02*
X133075000Y-132275000D01*
G75*
G02*
X133275000Y-132475000I0J-200000D01*
G01*
X133275000Y-132875000D01*
G75*
G02*
X133075000Y-133075000I-200000J0D01*
G01*
X132525000Y-133075000D01*
G75*
G02*
X132325000Y-132875000I0J200000D01*
G01*
X132325000Y-132475000D01*
G75*
G02*
X132525000Y-132275000I200000J0D01*
G01*
G37*
G36*
G01*
X132525000Y-133925000D02*
X133075000Y-133925000D01*
G75*
G02*
X133275000Y-134125000I0J-200000D01*
G01*
X133275000Y-134525000D01*
G75*
G02*
X133075000Y-134725000I-200000J0D01*
G01*
X132525000Y-134725000D01*
G75*
G02*
X132325000Y-134525000I0J200000D01*
G01*
X132325000Y-134125000D01*
G75*
G02*
X132525000Y-133925000I200000J0D01*
G01*
G37*
G04 #@! TD*
G04 #@! TO.C,R27*
G36*
G01*
X70475000Y-116075000D02*
X70475000Y-115525000D01*
G75*
G02*
X70675000Y-115325000I200000J0D01*
G01*
X71075000Y-115325000D01*
G75*
G02*
X71275000Y-115525000I0J-200000D01*
G01*
X71275000Y-116075000D01*
G75*
G02*
X71075000Y-116275000I-200000J0D01*
G01*
X70675000Y-116275000D01*
G75*
G02*
X70475000Y-116075000I0J200000D01*
G01*
G37*
G36*
G01*
X72125000Y-116075000D02*
X72125000Y-115525000D01*
G75*
G02*
X72325000Y-115325000I200000J0D01*
G01*
X72725000Y-115325000D01*
G75*
G02*
X72925000Y-115525000I0J-200000D01*
G01*
X72925000Y-116075000D01*
G75*
G02*
X72725000Y-116275000I-200000J0D01*
G01*
X72325000Y-116275000D01*
G75*
G02*
X72125000Y-116075000I0J200000D01*
G01*
G37*
G04 #@! TD*
G04 #@! TO.C,C18*
G36*
G01*
X134550000Y-142050000D02*
X134050000Y-142050000D01*
G75*
G02*
X133825000Y-141825000I0J225000D01*
G01*
X133825000Y-141375000D01*
G75*
G02*
X134050000Y-141150000I225000J0D01*
G01*
X134550000Y-141150000D01*
G75*
G02*
X134775000Y-141375000I0J-225000D01*
G01*
X134775000Y-141825000D01*
G75*
G02*
X134550000Y-142050000I-225000J0D01*
G01*
G37*
G36*
G01*
X134550000Y-140500000D02*
X134050000Y-140500000D01*
G75*
G02*
X133825000Y-140275000I0J225000D01*
G01*
X133825000Y-139825000D01*
G75*
G02*
X134050000Y-139600000I225000J0D01*
G01*
X134550000Y-139600000D01*
G75*
G02*
X134775000Y-139825000I0J-225000D01*
G01*
X134775000Y-140275000D01*
G75*
G02*
X134550000Y-140500000I-225000J0D01*
G01*
G37*
G04 #@! TD*
G04 #@! TO.C,C3*
G36*
G01*
X81850000Y-151925000D02*
X81350000Y-151925000D01*
G75*
G02*
X81125000Y-151700000I0J225000D01*
G01*
X81125000Y-151250000D01*
G75*
G02*
X81350000Y-151025000I225000J0D01*
G01*
X81850000Y-151025000D01*
G75*
G02*
X82075000Y-151250000I0J-225000D01*
G01*
X82075000Y-151700000D01*
G75*
G02*
X81850000Y-151925000I-225000J0D01*
G01*
G37*
G36*
G01*
X81850000Y-150375000D02*
X81350000Y-150375000D01*
G75*
G02*
X81125000Y-150150000I0J225000D01*
G01*
X81125000Y-149700000D01*
G75*
G02*
X81350000Y-149475000I225000J0D01*
G01*
X81850000Y-149475000D01*
G75*
G02*
X82075000Y-149700000I0J-225000D01*
G01*
X82075000Y-150150000D01*
G75*
G02*
X81850000Y-150375000I-225000J0D01*
G01*
G37*
G04 #@! TD*
G04 #@! TO.C,D10*
G36*
G01*
X81400000Y-114417500D02*
X81400000Y-113967500D01*
G75*
G02*
X81625000Y-113742500I225000J0D01*
G01*
X82275000Y-113742500D01*
G75*
G02*
X82500000Y-113967500I0J-225000D01*
G01*
X82500000Y-114417500D01*
G75*
G02*
X82275000Y-114642500I-225000J0D01*
G01*
X81625000Y-114642500D01*
G75*
G02*
X81400000Y-114417500I0J225000D01*
G01*
G37*
G36*
G01*
X81400000Y-112917500D02*
X81400000Y-112467500D01*
G75*
G02*
X81625000Y-112242500I225000J0D01*
G01*
X82275000Y-112242500D01*
G75*
G02*
X82500000Y-112467500I0J-225000D01*
G01*
X82500000Y-112917500D01*
G75*
G02*
X82275000Y-113142500I-225000J0D01*
G01*
X81625000Y-113142500D01*
G75*
G02*
X81400000Y-112917500I0J225000D01*
G01*
G37*
G36*
G01*
X75300000Y-112917500D02*
X75300000Y-112467500D01*
G75*
G02*
X75525000Y-112242500I225000J0D01*
G01*
X76175000Y-112242500D01*
G75*
G02*
X76400000Y-112467500I0J-225000D01*
G01*
X76400000Y-112917500D01*
G75*
G02*
X76175000Y-113142500I-225000J0D01*
G01*
X75525000Y-113142500D01*
G75*
G02*
X75300000Y-112917500I0J225000D01*
G01*
G37*
G36*
G01*
X75300000Y-114417500D02*
X75300000Y-113967500D01*
G75*
G02*
X75525000Y-113742500I225000J0D01*
G01*
X76175000Y-113742500D01*
G75*
G02*
X76400000Y-113967500I0J-225000D01*
G01*
X76400000Y-114417500D01*
G75*
G02*
X76175000Y-114642500I-225000J0D01*
G01*
X75525000Y-114642500D01*
G75*
G02*
X75300000Y-114417500I0J225000D01*
G01*
G37*
G04 #@! TD*
G04 #@! TO.C,C12*
G36*
G01*
X45775000Y-134750000D02*
X45775000Y-134250000D01*
G75*
G02*
X46000000Y-134025000I225000J0D01*
G01*
X46450000Y-134025000D01*
G75*
G02*
X46675000Y-134250000I0J-225000D01*
G01*
X46675000Y-134750000D01*
G75*
G02*
X46450000Y-134975000I-225000J0D01*
G01*
X46000000Y-134975000D01*
G75*
G02*
X45775000Y-134750000I0J225000D01*
G01*
G37*
G36*
G01*
X47325000Y-134750000D02*
X47325000Y-134250000D01*
G75*
G02*
X47550000Y-134025000I225000J0D01*
G01*
X48000000Y-134025000D01*
G75*
G02*
X48225000Y-134250000I0J-225000D01*
G01*
X48225000Y-134750000D01*
G75*
G02*
X48000000Y-134975000I-225000J0D01*
G01*
X47550000Y-134975000D01*
G75*
G02*
X47325000Y-134750000I0J225000D01*
G01*
G37*
G04 #@! TD*
G04 #@! TO.C,R33*
G36*
G01*
X131223643Y-124278051D02*
X131223643Y-124828051D01*
G75*
G02*
X131023643Y-125028051I-200000J0D01*
G01*
X130623643Y-125028051D01*
G75*
G02*
X130423643Y-124828051I0J200000D01*
G01*
X130423643Y-124278051D01*
G75*
G02*
X130623643Y-124078051I200000J0D01*
G01*
X131023643Y-124078051D01*
G75*
G02*
X131223643Y-124278051I0J-200000D01*
G01*
G37*
G36*
G01*
X129573643Y-124278051D02*
X129573643Y-124828051D01*
G75*
G02*
X129373643Y-125028051I-200000J0D01*
G01*
X128973643Y-125028051D01*
G75*
G02*
X128773643Y-124828051I0J200000D01*
G01*
X128773643Y-124278051D01*
G75*
G02*
X128973643Y-124078051I200000J0D01*
G01*
X129373643Y-124078051D01*
G75*
G02*
X129573643Y-124278051I0J-200000D01*
G01*
G37*
G04 #@! TD*
G04 #@! TO.C,D11*
G36*
G01*
X88725000Y-118850000D02*
X88725000Y-118650000D01*
G75*
G02*
X88825000Y-118550000I100000J0D01*
G01*
X89275000Y-118550000D01*
G75*
G02*
X89375000Y-118650000I0J-100000D01*
G01*
X89375000Y-118850000D01*
G75*
G02*
X89275000Y-118950000I-100000J0D01*
G01*
X88825000Y-118950000D01*
G75*
G02*
X88725000Y-118850000I0J100000D01*
G01*
G37*
G36*
G01*
X88725000Y-118200000D02*
X88725000Y-118000000D01*
G75*
G02*
X88825000Y-117900000I100000J0D01*
G01*
X89275000Y-117900000D01*
G75*
G02*
X89375000Y-118000000I0J-100000D01*
G01*
X89375000Y-118200000D01*
G75*
G02*
X89275000Y-118300000I-100000J0D01*
G01*
X88825000Y-118300000D01*
G75*
G02*
X88725000Y-118200000I0J100000D01*
G01*
G37*
G36*
G01*
X88725000Y-117550000D02*
X88725000Y-117350000D01*
G75*
G02*
X88825000Y-117250000I100000J0D01*
G01*
X89275000Y-117250000D01*
G75*
G02*
X89375000Y-117350000I0J-100000D01*
G01*
X89375000Y-117550000D01*
G75*
G02*
X89275000Y-117650000I-100000J0D01*
G01*
X88825000Y-117650000D01*
G75*
G02*
X88725000Y-117550000I0J100000D01*
G01*
G37*
G36*
G01*
X90625000Y-117550000D02*
X90625000Y-117350000D01*
G75*
G02*
X90725000Y-117250000I100000J0D01*
G01*
X91175000Y-117250000D01*
G75*
G02*
X91275000Y-117350000I0J-100000D01*
G01*
X91275000Y-117550000D01*
G75*
G02*
X91175000Y-117650000I-100000J0D01*
G01*
X90725000Y-117650000D01*
G75*
G02*
X90625000Y-117550000I0J100000D01*
G01*
G37*
G36*
G01*
X90625000Y-118200000D02*
X90625000Y-118000000D01*
G75*
G02*
X90725000Y-117900000I100000J0D01*
G01*
X91175000Y-117900000D01*
G75*
G02*
X91275000Y-118000000I0J-100000D01*
G01*
X91275000Y-118200000D01*
G75*
G02*
X91175000Y-118300000I-100000J0D01*
G01*
X90725000Y-118300000D01*
G75*
G02*
X90625000Y-118200000I0J100000D01*
G01*
G37*
G36*
G01*
X90625000Y-118850000D02*
X90625000Y-118650000D01*
G75*
G02*
X90725000Y-118550000I100000J0D01*
G01*
X91175000Y-118550000D01*
G75*
G02*
X91275000Y-118650000I0J-100000D01*
G01*
X91275000Y-118850000D01*
G75*
G02*
X91175000Y-118950000I-100000J0D01*
G01*
X90725000Y-118950000D01*
G75*
G02*
X90625000Y-118850000I0J100000D01*
G01*
G37*
G04 #@! TD*
D10*
G04 #@! TO.C,D13*
X70550000Y-158600000D03*
X68450000Y-158600000D03*
G04 #@! TD*
G04 #@! TO.C,R30*
G36*
G01*
X66475000Y-169175000D02*
X66475000Y-168625000D01*
G75*
G02*
X66675000Y-168425000I200000J0D01*
G01*
X67075000Y-168425000D01*
G75*
G02*
X67275000Y-168625000I0J-200000D01*
G01*
X67275000Y-169175000D01*
G75*
G02*
X67075000Y-169375000I-200000J0D01*
G01*
X66675000Y-169375000D01*
G75*
G02*
X66475000Y-169175000I0J200000D01*
G01*
G37*
G36*
G01*
X68125000Y-169175000D02*
X68125000Y-168625000D01*
G75*
G02*
X68325000Y-168425000I200000J0D01*
G01*
X68725000Y-168425000D01*
G75*
G02*
X68925000Y-168625000I0J-200000D01*
G01*
X68925000Y-169175000D01*
G75*
G02*
X68725000Y-169375000I-200000J0D01*
G01*
X68325000Y-169375000D01*
G75*
G02*
X68125000Y-169175000I0J200000D01*
G01*
G37*
G04 #@! TD*
G04 #@! TO.C,R20*
G36*
G01*
X132525000Y-135950000D02*
X133075000Y-135950000D01*
G75*
G02*
X133275000Y-136150000I0J-200000D01*
G01*
X133275000Y-136550000D01*
G75*
G02*
X133075000Y-136750000I-200000J0D01*
G01*
X132525000Y-136750000D01*
G75*
G02*
X132325000Y-136550000I0J200000D01*
G01*
X132325000Y-136150000D01*
G75*
G02*
X132525000Y-135950000I200000J0D01*
G01*
G37*
G36*
G01*
X132525000Y-137600000D02*
X133075000Y-137600000D01*
G75*
G02*
X133275000Y-137800000I0J-200000D01*
G01*
X133275000Y-138200000D01*
G75*
G02*
X133075000Y-138400000I-200000J0D01*
G01*
X132525000Y-138400000D01*
G75*
G02*
X132325000Y-138200000I0J200000D01*
G01*
X132325000Y-137800000D01*
G75*
G02*
X132525000Y-137600000I200000J0D01*
G01*
G37*
G04 #@! TD*
G04 #@! TO.C,C20*
G36*
G01*
X45150000Y-125675000D02*
X45150000Y-124725000D01*
G75*
G02*
X45400000Y-124475000I250000J0D01*
G01*
X45900000Y-124475000D01*
G75*
G02*
X46150000Y-124725000I0J-250000D01*
G01*
X46150000Y-125675000D01*
G75*
G02*
X45900000Y-125925000I-250000J0D01*
G01*
X45400000Y-125925000D01*
G75*
G02*
X45150000Y-125675000I0J250000D01*
G01*
G37*
G36*
G01*
X47050000Y-125675000D02*
X47050000Y-124725000D01*
G75*
G02*
X47300000Y-124475000I250000J0D01*
G01*
X47800000Y-124475000D01*
G75*
G02*
X48050000Y-124725000I0J-250000D01*
G01*
X48050000Y-125675000D01*
G75*
G02*
X47800000Y-125925000I-250000J0D01*
G01*
X47300000Y-125925000D01*
G75*
G02*
X47050000Y-125675000I0J250000D01*
G01*
G37*
G04 #@! TD*
G04 #@! TO.C,R13*
G36*
G01*
X48225000Y-132725000D02*
X48225000Y-133275000D01*
G75*
G02*
X48025000Y-133475000I-200000J0D01*
G01*
X47625000Y-133475000D01*
G75*
G02*
X47425000Y-133275000I0J200000D01*
G01*
X47425000Y-132725000D01*
G75*
G02*
X47625000Y-132525000I200000J0D01*
G01*
X48025000Y-132525000D01*
G75*
G02*
X48225000Y-132725000I0J-200000D01*
G01*
G37*
G36*
G01*
X46575000Y-132725000D02*
X46575000Y-133275000D01*
G75*
G02*
X46375000Y-133475000I-200000J0D01*
G01*
X45975000Y-133475000D01*
G75*
G02*
X45775000Y-133275000I0J200000D01*
G01*
X45775000Y-132725000D01*
G75*
G02*
X45975000Y-132525000I200000J0D01*
G01*
X46375000Y-132525000D01*
G75*
G02*
X46575000Y-132725000I0J-200000D01*
G01*
G37*
G04 #@! TD*
D11*
G04 #@! TO.C,U7*
X119000000Y-116350000D03*
D12*
X119000000Y-114650000D03*
X121200000Y-114650000D03*
X121200000Y-116550000D03*
G04 #@! TD*
G04 #@! TO.C,C21*
G36*
G01*
X77075000Y-108950000D02*
X76125000Y-108950000D01*
G75*
G02*
X75875000Y-108700000I0J250000D01*
G01*
X75875000Y-108200000D01*
G75*
G02*
X76125000Y-107950000I250000J0D01*
G01*
X77075000Y-107950000D01*
G75*
G02*
X77325000Y-108200000I0J-250000D01*
G01*
X77325000Y-108700000D01*
G75*
G02*
X77075000Y-108950000I-250000J0D01*
G01*
G37*
G36*
G01*
X77075000Y-107050000D02*
X76125000Y-107050000D01*
G75*
G02*
X75875000Y-106800000I0J250000D01*
G01*
X75875000Y-106300000D01*
G75*
G02*
X76125000Y-106050000I250000J0D01*
G01*
X77075000Y-106050000D01*
G75*
G02*
X77325000Y-106300000I0J-250000D01*
G01*
X77325000Y-106800000D01*
G75*
G02*
X77075000Y-107050000I-250000J0D01*
G01*
G37*
G04 #@! TD*
G04 #@! TO.C,C19*
G36*
G01*
X45154573Y-123654434D02*
X45154573Y-123154434D01*
G75*
G02*
X45379573Y-122929434I225000J0D01*
G01*
X45829573Y-122929434D01*
G75*
G02*
X46054573Y-123154434I0J-225000D01*
G01*
X46054573Y-123654434D01*
G75*
G02*
X45829573Y-123879434I-225000J0D01*
G01*
X45379573Y-123879434D01*
G75*
G02*
X45154573Y-123654434I0J225000D01*
G01*
G37*
G36*
G01*
X46704573Y-123654434D02*
X46704573Y-123154434D01*
G75*
G02*
X46929573Y-122929434I225000J0D01*
G01*
X47379573Y-122929434D01*
G75*
G02*
X47604573Y-123154434I0J-225000D01*
G01*
X47604573Y-123654434D01*
G75*
G02*
X47379573Y-123879434I-225000J0D01*
G01*
X46929573Y-123879434D01*
G75*
G02*
X46704573Y-123654434I0J225000D01*
G01*
G37*
G04 #@! TD*
G04 #@! TO.C,C2*
G36*
G01*
X89650000Y-112475000D02*
X90150000Y-112475000D01*
G75*
G02*
X90375000Y-112700000I0J-225000D01*
G01*
X90375000Y-113150000D01*
G75*
G02*
X90150000Y-113375000I-225000J0D01*
G01*
X89650000Y-113375000D01*
G75*
G02*
X89425000Y-113150000I0J225000D01*
G01*
X89425000Y-112700000D01*
G75*
G02*
X89650000Y-112475000I225000J0D01*
G01*
G37*
G36*
G01*
X89650000Y-114025000D02*
X90150000Y-114025000D01*
G75*
G02*
X90375000Y-114250000I0J-225000D01*
G01*
X90375000Y-114700000D01*
G75*
G02*
X90150000Y-114925000I-225000J0D01*
G01*
X89650000Y-114925000D01*
G75*
G02*
X89425000Y-114700000I0J225000D01*
G01*
X89425000Y-114250000D01*
G75*
G02*
X89650000Y-114025000I225000J0D01*
G01*
G37*
G04 #@! TD*
G04 #@! TO.C,C32*
G36*
G01*
X57950000Y-131125000D02*
X57450000Y-131125000D01*
G75*
G02*
X57225000Y-130900000I0J225000D01*
G01*
X57225000Y-130450000D01*
G75*
G02*
X57450000Y-130225000I225000J0D01*
G01*
X57950000Y-130225000D01*
G75*
G02*
X58175000Y-130450000I0J-225000D01*
G01*
X58175000Y-130900000D01*
G75*
G02*
X57950000Y-131125000I-225000J0D01*
G01*
G37*
G36*
G01*
X57950000Y-129575000D02*
X57450000Y-129575000D01*
G75*
G02*
X57225000Y-129350000I0J225000D01*
G01*
X57225000Y-128900000D01*
G75*
G02*
X57450000Y-128675000I225000J0D01*
G01*
X57950000Y-128675000D01*
G75*
G02*
X58175000Y-128900000I0J-225000D01*
G01*
X58175000Y-129350000D01*
G75*
G02*
X57950000Y-129575000I-225000J0D01*
G01*
G37*
G04 #@! TD*
G04 #@! TO.C,R37*
G36*
G01*
X90625000Y-141225000D02*
X90625000Y-141775000D01*
G75*
G02*
X90425000Y-141975000I-200000J0D01*
G01*
X90025000Y-141975000D01*
G75*
G02*
X89825000Y-141775000I0J200000D01*
G01*
X89825000Y-141225000D01*
G75*
G02*
X90025000Y-141025000I200000J0D01*
G01*
X90425000Y-141025000D01*
G75*
G02*
X90625000Y-141225000I0J-200000D01*
G01*
G37*
G36*
G01*
X88975000Y-141225000D02*
X88975000Y-141775000D01*
G75*
G02*
X88775000Y-141975000I-200000J0D01*
G01*
X88375000Y-141975000D01*
G75*
G02*
X88175000Y-141775000I0J200000D01*
G01*
X88175000Y-141225000D01*
G75*
G02*
X88375000Y-141025000I200000J0D01*
G01*
X88775000Y-141025000D01*
G75*
G02*
X88975000Y-141225000I0J-200000D01*
G01*
G37*
G04 #@! TD*
G04 #@! TO.C,C30*
G36*
G01*
X67475000Y-137850000D02*
X67475000Y-137350000D01*
G75*
G02*
X67700000Y-137125000I225000J0D01*
G01*
X68150000Y-137125000D01*
G75*
G02*
X68375000Y-137350000I0J-225000D01*
G01*
X68375000Y-137850000D01*
G75*
G02*
X68150000Y-138075000I-225000J0D01*
G01*
X67700000Y-138075000D01*
G75*
G02*
X67475000Y-137850000I0J225000D01*
G01*
G37*
G36*
G01*
X69025000Y-137850000D02*
X69025000Y-137350000D01*
G75*
G02*
X69250000Y-137125000I225000J0D01*
G01*
X69700000Y-137125000D01*
G75*
G02*
X69925000Y-137350000I0J-225000D01*
G01*
X69925000Y-137850000D01*
G75*
G02*
X69700000Y-138075000I-225000J0D01*
G01*
X69250000Y-138075000D01*
G75*
G02*
X69025000Y-137850000I0J225000D01*
G01*
G37*
G04 #@! TD*
G04 #@! TO.C,R42*
G36*
G01*
X114525000Y-131425000D02*
X114525000Y-131975000D01*
G75*
G02*
X114325000Y-132175000I-200000J0D01*
G01*
X113925000Y-132175000D01*
G75*
G02*
X113725000Y-131975000I0J200000D01*
G01*
X113725000Y-131425000D01*
G75*
G02*
X113925000Y-131225000I200000J0D01*
G01*
X114325000Y-131225000D01*
G75*
G02*
X114525000Y-131425000I0J-200000D01*
G01*
G37*
G36*
G01*
X112875000Y-131425000D02*
X112875000Y-131975000D01*
G75*
G02*
X112675000Y-132175000I-200000J0D01*
G01*
X112275000Y-132175000D01*
G75*
G02*
X112075000Y-131975000I0J200000D01*
G01*
X112075000Y-131425000D01*
G75*
G02*
X112275000Y-131225000I200000J0D01*
G01*
X112675000Y-131225000D01*
G75*
G02*
X112875000Y-131425000I0J-200000D01*
G01*
G37*
G04 #@! TD*
G04 #@! TO.C,C36*
G36*
G01*
X112226274Y-117828133D02*
X112226274Y-118328133D01*
G75*
G02*
X112001274Y-118553133I-225000J0D01*
G01*
X111551274Y-118553133D01*
G75*
G02*
X111326274Y-118328133I0J225000D01*
G01*
X111326274Y-117828133D01*
G75*
G02*
X111551274Y-117603133I225000J0D01*
G01*
X112001274Y-117603133D01*
G75*
G02*
X112226274Y-117828133I0J-225000D01*
G01*
G37*
G36*
G01*
X110676274Y-117828133D02*
X110676274Y-118328133D01*
G75*
G02*
X110451274Y-118553133I-225000J0D01*
G01*
X110001274Y-118553133D01*
G75*
G02*
X109776274Y-118328133I0J225000D01*
G01*
X109776274Y-117828133D01*
G75*
G02*
X110001274Y-117603133I225000J0D01*
G01*
X110451274Y-117603133D01*
G75*
G02*
X110676274Y-117828133I0J-225000D01*
G01*
G37*
G04 #@! TD*
G04 #@! TO.C,D9*
G36*
G01*
X60400000Y-114375000D02*
X60400000Y-113925000D01*
G75*
G02*
X60625000Y-113700000I225000J0D01*
G01*
X61275000Y-113700000D01*
G75*
G02*
X61500000Y-113925000I0J-225000D01*
G01*
X61500000Y-114375000D01*
G75*
G02*
X61275000Y-114600000I-225000J0D01*
G01*
X60625000Y-114600000D01*
G75*
G02*
X60400000Y-114375000I0J225000D01*
G01*
G37*
G36*
G01*
X60400000Y-112875000D02*
X60400000Y-112425000D01*
G75*
G02*
X60625000Y-112200000I225000J0D01*
G01*
X61275000Y-112200000D01*
G75*
G02*
X61500000Y-112425000I0J-225000D01*
G01*
X61500000Y-112875000D01*
G75*
G02*
X61275000Y-113100000I-225000J0D01*
G01*
X60625000Y-113100000D01*
G75*
G02*
X60400000Y-112875000I0J225000D01*
G01*
G37*
G36*
G01*
X54300000Y-112875000D02*
X54300000Y-112425000D01*
G75*
G02*
X54525000Y-112200000I225000J0D01*
G01*
X55175000Y-112200000D01*
G75*
G02*
X55400000Y-112425000I0J-225000D01*
G01*
X55400000Y-112875000D01*
G75*
G02*
X55175000Y-113100000I-225000J0D01*
G01*
X54525000Y-113100000D01*
G75*
G02*
X54300000Y-112875000I0J225000D01*
G01*
G37*
G36*
G01*
X54300000Y-114375000D02*
X54300000Y-113925000D01*
G75*
G02*
X54525000Y-113700000I225000J0D01*
G01*
X55175000Y-113700000D01*
G75*
G02*
X55400000Y-113925000I0J-225000D01*
G01*
X55400000Y-114375000D01*
G75*
G02*
X55175000Y-114600000I-225000J0D01*
G01*
X54525000Y-114600000D01*
G75*
G02*
X54300000Y-114375000I0J225000D01*
G01*
G37*
G04 #@! TD*
G04 #@! TO.C,D4*
G36*
G01*
X123400000Y-156232500D02*
X123400000Y-155782500D01*
G75*
G02*
X123625000Y-155557500I225000J0D01*
G01*
X124275000Y-155557500D01*
G75*
G02*
X124500000Y-155782500I0J-225000D01*
G01*
X124500000Y-156232500D01*
G75*
G02*
X124275000Y-156457500I-225000J0D01*
G01*
X123625000Y-156457500D01*
G75*
G02*
X123400000Y-156232500I0J225000D01*
G01*
G37*
G36*
G01*
X123400000Y-154732500D02*
X123400000Y-154282500D01*
G75*
G02*
X123625000Y-154057500I225000J0D01*
G01*
X124275000Y-154057500D01*
G75*
G02*
X124500000Y-154282500I0J-225000D01*
G01*
X124500000Y-154732500D01*
G75*
G02*
X124275000Y-154957500I-225000J0D01*
G01*
X123625000Y-154957500D01*
G75*
G02*
X123400000Y-154732500I0J225000D01*
G01*
G37*
G36*
G01*
X117300000Y-154732500D02*
X117300000Y-154282500D01*
G75*
G02*
X117525000Y-154057500I225000J0D01*
G01*
X118175000Y-154057500D01*
G75*
G02*
X118400000Y-154282500I0J-225000D01*
G01*
X118400000Y-154732500D01*
G75*
G02*
X118175000Y-154957500I-225000J0D01*
G01*
X117525000Y-154957500D01*
G75*
G02*
X117300000Y-154732500I0J225000D01*
G01*
G37*
G36*
G01*
X117300000Y-156232500D02*
X117300000Y-155782500D01*
G75*
G02*
X117525000Y-155557500I225000J0D01*
G01*
X118175000Y-155557500D01*
G75*
G02*
X118400000Y-155782500I0J-225000D01*
G01*
X118400000Y-156232500D01*
G75*
G02*
X118175000Y-156457500I-225000J0D01*
G01*
X117525000Y-156457500D01*
G75*
G02*
X117300000Y-156232500I0J225000D01*
G01*
G37*
G04 #@! TD*
G04 #@! TO.C,C23*
G36*
G01*
X71675000Y-121550000D02*
X70725000Y-121550000D01*
G75*
G02*
X70475000Y-121300000I0J250000D01*
G01*
X70475000Y-120800000D01*
G75*
G02*
X70725000Y-120550000I250000J0D01*
G01*
X71675000Y-120550000D01*
G75*
G02*
X71925000Y-120800000I0J-250000D01*
G01*
X71925000Y-121300000D01*
G75*
G02*
X71675000Y-121550000I-250000J0D01*
G01*
G37*
G36*
G01*
X71675000Y-119650000D02*
X70725000Y-119650000D01*
G75*
G02*
X70475000Y-119400000I0J250000D01*
G01*
X70475000Y-118900000D01*
G75*
G02*
X70725000Y-118650000I250000J0D01*
G01*
X71675000Y-118650000D01*
G75*
G02*
X71925000Y-118900000I0J-250000D01*
G01*
X71925000Y-119400000D01*
G75*
G02*
X71675000Y-119650000I-250000J0D01*
G01*
G37*
G04 #@! TD*
G04 #@! TO.C,C29*
G36*
G01*
X65650000Y-136375000D02*
X66150000Y-136375000D01*
G75*
G02*
X66375000Y-136600000I0J-225000D01*
G01*
X66375000Y-137050000D01*
G75*
G02*
X66150000Y-137275000I-225000J0D01*
G01*
X65650000Y-137275000D01*
G75*
G02*
X65425000Y-137050000I0J225000D01*
G01*
X65425000Y-136600000D01*
G75*
G02*
X65650000Y-136375000I225000J0D01*
G01*
G37*
G36*
G01*
X65650000Y-137925000D02*
X66150000Y-137925000D01*
G75*
G02*
X66375000Y-138150000I0J-225000D01*
G01*
X66375000Y-138600000D01*
G75*
G02*
X66150000Y-138825000I-225000J0D01*
G01*
X65650000Y-138825000D01*
G75*
G02*
X65425000Y-138600000I0J225000D01*
G01*
X65425000Y-138150000D01*
G75*
G02*
X65650000Y-137925000I225000J0D01*
G01*
G37*
G04 #@! TD*
G04 #@! TO.C,C39*
G36*
G01*
X101550000Y-108625000D02*
X101550000Y-109575000D01*
G75*
G02*
X101300000Y-109825000I-250000J0D01*
G01*
X100800000Y-109825000D01*
G75*
G02*
X100550000Y-109575000I0J250000D01*
G01*
X100550000Y-108625000D01*
G75*
G02*
X100800000Y-108375000I250000J0D01*
G01*
X101300000Y-108375000D01*
G75*
G02*
X101550000Y-108625000I0J-250000D01*
G01*
G37*
G36*
G01*
X99650000Y-108625000D02*
X99650000Y-109575000D01*
G75*
G02*
X99400000Y-109825000I-250000J0D01*
G01*
X98900000Y-109825000D01*
G75*
G02*
X98650000Y-109575000I0J250000D01*
G01*
X98650000Y-108625000D01*
G75*
G02*
X98900000Y-108375000I250000J0D01*
G01*
X99400000Y-108375000D01*
G75*
G02*
X99650000Y-108625000I0J-250000D01*
G01*
G37*
G04 #@! TD*
G04 #@! TO.C,R38*
G36*
G01*
X109582445Y-135577780D02*
X109582445Y-136127780D01*
G75*
G02*
X109382445Y-136327780I-200000J0D01*
G01*
X108982445Y-136327780D01*
G75*
G02*
X108782445Y-136127780I0J200000D01*
G01*
X108782445Y-135577780D01*
G75*
G02*
X108982445Y-135377780I200000J0D01*
G01*
X109382445Y-135377780D01*
G75*
G02*
X109582445Y-135577780I0J-200000D01*
G01*
G37*
G36*
G01*
X107932445Y-135577780D02*
X107932445Y-136127780D01*
G75*
G02*
X107732445Y-136327780I-200000J0D01*
G01*
X107332445Y-136327780D01*
G75*
G02*
X107132445Y-136127780I0J200000D01*
G01*
X107132445Y-135577780D01*
G75*
G02*
X107332445Y-135377780I200000J0D01*
G01*
X107732445Y-135377780D01*
G75*
G02*
X107932445Y-135577780I0J-200000D01*
G01*
G37*
G04 #@! TD*
G04 #@! TO.C,C1*
G36*
G01*
X102150000Y-106250000D02*
X102150000Y-107550000D01*
G75*
G02*
X101900000Y-107800000I-250000J0D01*
G01*
X101250000Y-107800000D01*
G75*
G02*
X101000000Y-107550000I0J250000D01*
G01*
X101000000Y-106250000D01*
G75*
G02*
X101250000Y-106000000I250000J0D01*
G01*
X101900000Y-106000000D01*
G75*
G02*
X102150000Y-106250000I0J-250000D01*
G01*
G37*
G36*
G01*
X99200000Y-106250000D02*
X99200000Y-107550000D01*
G75*
G02*
X98950000Y-107800000I-250000J0D01*
G01*
X98300000Y-107800000D01*
G75*
G02*
X98050000Y-107550000I0J250000D01*
G01*
X98050000Y-106250000D01*
G75*
G02*
X98300000Y-106000000I250000J0D01*
G01*
X98950000Y-106000000D01*
G75*
G02*
X99200000Y-106250000I0J-250000D01*
G01*
G37*
G04 #@! TD*
G04 #@! TO.C,D8*
G36*
G01*
X123400000Y-135417500D02*
X123400000Y-134967500D01*
G75*
G02*
X123625000Y-134742500I225000J0D01*
G01*
X124275000Y-134742500D01*
G75*
G02*
X124500000Y-134967500I0J-225000D01*
G01*
X124500000Y-135417500D01*
G75*
G02*
X124275000Y-135642500I-225000J0D01*
G01*
X123625000Y-135642500D01*
G75*
G02*
X123400000Y-135417500I0J225000D01*
G01*
G37*
G36*
G01*
X123400000Y-133917500D02*
X123400000Y-133467500D01*
G75*
G02*
X123625000Y-133242500I225000J0D01*
G01*
X124275000Y-133242500D01*
G75*
G02*
X124500000Y-133467500I0J-225000D01*
G01*
X124500000Y-133917500D01*
G75*
G02*
X124275000Y-134142500I-225000J0D01*
G01*
X123625000Y-134142500D01*
G75*
G02*
X123400000Y-133917500I0J225000D01*
G01*
G37*
G36*
G01*
X117300000Y-133917500D02*
X117300000Y-133467500D01*
G75*
G02*
X117525000Y-133242500I225000J0D01*
G01*
X118175000Y-133242500D01*
G75*
G02*
X118400000Y-133467500I0J-225000D01*
G01*
X118400000Y-133917500D01*
G75*
G02*
X118175000Y-134142500I-225000J0D01*
G01*
X117525000Y-134142500D01*
G75*
G02*
X117300000Y-133917500I0J225000D01*
G01*
G37*
G36*
G01*
X117300000Y-135417500D02*
X117300000Y-134967500D01*
G75*
G02*
X117525000Y-134742500I225000J0D01*
G01*
X118175000Y-134742500D01*
G75*
G02*
X118400000Y-134967500I0J-225000D01*
G01*
X118400000Y-135417500D01*
G75*
G02*
X118175000Y-135642500I-225000J0D01*
G01*
X117525000Y-135642500D01*
G75*
G02*
X117300000Y-135417500I0J225000D01*
G01*
G37*
G04 #@! TD*
G04 #@! TO.C,C5*
G36*
G01*
X86475000Y-157150000D02*
X86475000Y-156650000D01*
G75*
G02*
X86700000Y-156425000I225000J0D01*
G01*
X87150000Y-156425000D01*
G75*
G02*
X87375000Y-156650000I0J-225000D01*
G01*
X87375000Y-157150000D01*
G75*
G02*
X87150000Y-157375000I-225000J0D01*
G01*
X86700000Y-157375000D01*
G75*
G02*
X86475000Y-157150000I0J225000D01*
G01*
G37*
G36*
G01*
X88025000Y-157150000D02*
X88025000Y-156650000D01*
G75*
G02*
X88250000Y-156425000I225000J0D01*
G01*
X88700000Y-156425000D01*
G75*
G02*
X88925000Y-156650000I0J-225000D01*
G01*
X88925000Y-157150000D01*
G75*
G02*
X88700000Y-157375000I-225000J0D01*
G01*
X88250000Y-157375000D01*
G75*
G02*
X88025000Y-157150000I0J225000D01*
G01*
G37*
G04 #@! TD*
G04 #@! TO.C,D2*
G36*
G01*
X81400000Y-156417500D02*
X81400000Y-155967500D01*
G75*
G02*
X81625000Y-155742500I225000J0D01*
G01*
X82275000Y-155742500D01*
G75*
G02*
X82500000Y-155967500I0J-225000D01*
G01*
X82500000Y-156417500D01*
G75*
G02*
X82275000Y-156642500I-225000J0D01*
G01*
X81625000Y-156642500D01*
G75*
G02*
X81400000Y-156417500I0J225000D01*
G01*
G37*
G36*
G01*
X81400000Y-154917500D02*
X81400000Y-154467500D01*
G75*
G02*
X81625000Y-154242500I225000J0D01*
G01*
X82275000Y-154242500D01*
G75*
G02*
X82500000Y-154467500I0J-225000D01*
G01*
X82500000Y-154917500D01*
G75*
G02*
X82275000Y-155142500I-225000J0D01*
G01*
X81625000Y-155142500D01*
G75*
G02*
X81400000Y-154917500I0J225000D01*
G01*
G37*
G36*
G01*
X75300000Y-154917500D02*
X75300000Y-154467500D01*
G75*
G02*
X75525000Y-154242500I225000J0D01*
G01*
X76175000Y-154242500D01*
G75*
G02*
X76400000Y-154467500I0J-225000D01*
G01*
X76400000Y-154917500D01*
G75*
G02*
X76175000Y-155142500I-225000J0D01*
G01*
X75525000Y-155142500D01*
G75*
G02*
X75300000Y-154917500I0J225000D01*
G01*
G37*
G36*
G01*
X75300000Y-156417500D02*
X75300000Y-155967500D01*
G75*
G02*
X75525000Y-155742500I225000J0D01*
G01*
X76175000Y-155742500D01*
G75*
G02*
X76400000Y-155967500I0J-225000D01*
G01*
X76400000Y-156417500D01*
G75*
G02*
X76175000Y-156642500I-225000J0D01*
G01*
X75525000Y-156642500D01*
G75*
G02*
X75300000Y-156417500I0J225000D01*
G01*
G37*
G04 #@! TD*
G04 #@! TO.C,R29*
G36*
G01*
X116725000Y-114275000D02*
X117275000Y-114275000D01*
G75*
G02*
X117475000Y-114475000I0J-200000D01*
G01*
X117475000Y-114875000D01*
G75*
G02*
X117275000Y-115075000I-200000J0D01*
G01*
X116725000Y-115075000D01*
G75*
G02*
X116525000Y-114875000I0J200000D01*
G01*
X116525000Y-114475000D01*
G75*
G02*
X116725000Y-114275000I200000J0D01*
G01*
G37*
G36*
G01*
X116725000Y-115925000D02*
X117275000Y-115925000D01*
G75*
G02*
X117475000Y-116125000I0J-200000D01*
G01*
X117475000Y-116525000D01*
G75*
G02*
X117275000Y-116725000I-200000J0D01*
G01*
X116725000Y-116725000D01*
G75*
G02*
X116525000Y-116525000I0J200000D01*
G01*
X116525000Y-116125000D01*
G75*
G02*
X116725000Y-115925000I200000J0D01*
G01*
G37*
G04 #@! TD*
G04 #@! TO.C,R34*
G36*
G01*
X108875000Y-156975000D02*
X108875000Y-156425000D01*
G75*
G02*
X109075000Y-156225000I200000J0D01*
G01*
X109475000Y-156225000D01*
G75*
G02*
X109675000Y-156425000I0J-200000D01*
G01*
X109675000Y-156975000D01*
G75*
G02*
X109475000Y-157175000I-200000J0D01*
G01*
X109075000Y-157175000D01*
G75*
G02*
X108875000Y-156975000I0J200000D01*
G01*
G37*
G36*
G01*
X110525000Y-156975000D02*
X110525000Y-156425000D01*
G75*
G02*
X110725000Y-156225000I200000J0D01*
G01*
X111125000Y-156225000D01*
G75*
G02*
X111325000Y-156425000I0J-200000D01*
G01*
X111325000Y-156975000D01*
G75*
G02*
X111125000Y-157175000I-200000J0D01*
G01*
X110725000Y-157175000D01*
G75*
G02*
X110525000Y-156975000I0J200000D01*
G01*
G37*
G04 #@! TD*
G04 #@! TO.C,R18*
G36*
G01*
X134025000Y-135950000D02*
X134575000Y-135950000D01*
G75*
G02*
X134775000Y-136150000I0J-200000D01*
G01*
X134775000Y-136550000D01*
G75*
G02*
X134575000Y-136750000I-200000J0D01*
G01*
X134025000Y-136750000D01*
G75*
G02*
X133825000Y-136550000I0J200000D01*
G01*
X133825000Y-136150000D01*
G75*
G02*
X134025000Y-135950000I200000J0D01*
G01*
G37*
G36*
G01*
X134025000Y-137600000D02*
X134575000Y-137600000D01*
G75*
G02*
X134775000Y-137800000I0J-200000D01*
G01*
X134775000Y-138200000D01*
G75*
G02*
X134575000Y-138400000I-200000J0D01*
G01*
X134025000Y-138400000D01*
G75*
G02*
X133825000Y-138200000I0J200000D01*
G01*
X133825000Y-137800000D01*
G75*
G02*
X134025000Y-137600000I200000J0D01*
G01*
G37*
G04 #@! TD*
G04 #@! TO.C,D5*
G36*
G01*
X60442132Y-135375000D02*
X60442132Y-134925000D01*
G75*
G02*
X60667132Y-134700000I225000J0D01*
G01*
X61317132Y-134700000D01*
G75*
G02*
X61542132Y-134925000I0J-225000D01*
G01*
X61542132Y-135375000D01*
G75*
G02*
X61317132Y-135600000I-225000J0D01*
G01*
X60667132Y-135600000D01*
G75*
G02*
X60442132Y-135375000I0J225000D01*
G01*
G37*
G36*
G01*
X60442132Y-133875000D02*
X60442132Y-133425000D01*
G75*
G02*
X60667132Y-133200000I225000J0D01*
G01*
X61317132Y-133200000D01*
G75*
G02*
X61542132Y-133425000I0J-225000D01*
G01*
X61542132Y-133875000D01*
G75*
G02*
X61317132Y-134100000I-225000J0D01*
G01*
X60667132Y-134100000D01*
G75*
G02*
X60442132Y-133875000I0J225000D01*
G01*
G37*
G36*
G01*
X54342132Y-133875000D02*
X54342132Y-133425000D01*
G75*
G02*
X54567132Y-133200000I225000J0D01*
G01*
X55217132Y-133200000D01*
G75*
G02*
X55442132Y-133425000I0J-225000D01*
G01*
X55442132Y-133875000D01*
G75*
G02*
X55217132Y-134100000I-225000J0D01*
G01*
X54567132Y-134100000D01*
G75*
G02*
X54342132Y-133875000I0J225000D01*
G01*
G37*
G36*
G01*
X54342132Y-135375000D02*
X54342132Y-134925000D01*
G75*
G02*
X54567132Y-134700000I225000J0D01*
G01*
X55217132Y-134700000D01*
G75*
G02*
X55442132Y-134925000I0J-225000D01*
G01*
X55442132Y-135375000D01*
G75*
G02*
X55217132Y-135600000I-225000J0D01*
G01*
X54567132Y-135600000D01*
G75*
G02*
X54342132Y-135375000I0J225000D01*
G01*
G37*
G04 #@! TD*
G04 #@! TO.C,R41*
G36*
G01*
X83375000Y-113175000D02*
X83375000Y-112625000D01*
G75*
G02*
X83575000Y-112425000I200000J0D01*
G01*
X83975000Y-112425000D01*
G75*
G02*
X84175000Y-112625000I0J-200000D01*
G01*
X84175000Y-113175000D01*
G75*
G02*
X83975000Y-113375000I-200000J0D01*
G01*
X83575000Y-113375000D01*
G75*
G02*
X83375000Y-113175000I0J200000D01*
G01*
G37*
G36*
G01*
X85025000Y-113175000D02*
X85025000Y-112625000D01*
G75*
G02*
X85225000Y-112425000I200000J0D01*
G01*
X85625000Y-112425000D01*
G75*
G02*
X85825000Y-112625000I0J-200000D01*
G01*
X85825000Y-113175000D01*
G75*
G02*
X85625000Y-113375000I-200000J0D01*
G01*
X85225000Y-113375000D01*
G75*
G02*
X85025000Y-113175000I0J200000D01*
G01*
G37*
G04 #@! TD*
G04 #@! TO.C,C22*
G36*
G01*
X69925000Y-115550000D02*
X69925000Y-116050000D01*
G75*
G02*
X69700000Y-116275000I-225000J0D01*
G01*
X69250000Y-116275000D01*
G75*
G02*
X69025000Y-116050000I0J225000D01*
G01*
X69025000Y-115550000D01*
G75*
G02*
X69250000Y-115325000I225000J0D01*
G01*
X69700000Y-115325000D01*
G75*
G02*
X69925000Y-115550000I0J-225000D01*
G01*
G37*
G36*
G01*
X68375000Y-115550000D02*
X68375000Y-116050000D01*
G75*
G02*
X68150000Y-116275000I-225000J0D01*
G01*
X67700000Y-116275000D01*
G75*
G02*
X67475000Y-116050000I0J225000D01*
G01*
X67475000Y-115550000D01*
G75*
G02*
X67700000Y-115325000I225000J0D01*
G01*
X68150000Y-115325000D01*
G75*
G02*
X68375000Y-115550000I0J-225000D01*
G01*
G37*
G04 #@! TD*
G04 #@! TO.C,R25*
G36*
G01*
X67475000Y-136375000D02*
X67475000Y-135825000D01*
G75*
G02*
X67675000Y-135625000I200000J0D01*
G01*
X68075000Y-135625000D01*
G75*
G02*
X68275000Y-135825000I0J-200000D01*
G01*
X68275000Y-136375000D01*
G75*
G02*
X68075000Y-136575000I-200000J0D01*
G01*
X67675000Y-136575000D01*
G75*
G02*
X67475000Y-136375000I0J200000D01*
G01*
G37*
G36*
G01*
X69125000Y-136375000D02*
X69125000Y-135825000D01*
G75*
G02*
X69325000Y-135625000I200000J0D01*
G01*
X69725000Y-135625000D01*
G75*
G02*
X69925000Y-135825000I0J-200000D01*
G01*
X69925000Y-136375000D01*
G75*
G02*
X69725000Y-136575000I-200000J0D01*
G01*
X69325000Y-136575000D01*
G75*
G02*
X69125000Y-136375000I0J200000D01*
G01*
G37*
G04 #@! TD*
G04 #@! TO.C,C26*
G36*
G01*
X69650000Y-122125000D02*
X69150000Y-122125000D01*
G75*
G02*
X68925000Y-121900000I0J225000D01*
G01*
X68925000Y-121450000D01*
G75*
G02*
X69150000Y-121225000I225000J0D01*
G01*
X69650000Y-121225000D01*
G75*
G02*
X69875000Y-121450000I0J-225000D01*
G01*
X69875000Y-121900000D01*
G75*
G02*
X69650000Y-122125000I-225000J0D01*
G01*
G37*
G36*
G01*
X69650000Y-120575000D02*
X69150000Y-120575000D01*
G75*
G02*
X68925000Y-120350000I0J225000D01*
G01*
X68925000Y-119900000D01*
G75*
G02*
X69150000Y-119675000I225000J0D01*
G01*
X69650000Y-119675000D01*
G75*
G02*
X69875000Y-119900000I0J-225000D01*
G01*
X69875000Y-120350000D01*
G75*
G02*
X69650000Y-120575000I-225000J0D01*
G01*
G37*
G04 #@! TD*
G04 #@! TO.C,R26*
G36*
G01*
X67175000Y-118025000D02*
X67175000Y-117475000D01*
G75*
G02*
X67375000Y-117275000I200000J0D01*
G01*
X67775000Y-117275000D01*
G75*
G02*
X67975000Y-117475000I0J-200000D01*
G01*
X67975000Y-118025000D01*
G75*
G02*
X67775000Y-118225000I-200000J0D01*
G01*
X67375000Y-118225000D01*
G75*
G02*
X67175000Y-118025000I0J200000D01*
G01*
G37*
G36*
G01*
X68825000Y-118025000D02*
X68825000Y-117475000D01*
G75*
G02*
X69025000Y-117275000I200000J0D01*
G01*
X69425000Y-117275000D01*
G75*
G02*
X69625000Y-117475000I0J-200000D01*
G01*
X69625000Y-118025000D01*
G75*
G02*
X69425000Y-118225000I-200000J0D01*
G01*
X69025000Y-118225000D01*
G75*
G02*
X68825000Y-118025000I0J200000D01*
G01*
G37*
G04 #@! TD*
G04 #@! TO.C,FB2*
G36*
G01*
X78600000Y-126618750D02*
X78600000Y-127381250D01*
G75*
G02*
X78381250Y-127600000I-218750J0D01*
G01*
X77943750Y-127600000D01*
G75*
G02*
X77725000Y-127381250I0J218750D01*
G01*
X77725000Y-126618750D01*
G75*
G02*
X77943750Y-126400000I218750J0D01*
G01*
X78381250Y-126400000D01*
G75*
G02*
X78600000Y-126618750I0J-218750D01*
G01*
G37*
G36*
G01*
X76475000Y-126618750D02*
X76475000Y-127381250D01*
G75*
G02*
X76256250Y-127600000I-218750J0D01*
G01*
X75818750Y-127600000D01*
G75*
G02*
X75600000Y-127381250I0J218750D01*
G01*
X75600000Y-126618750D01*
G75*
G02*
X75818750Y-126400000I218750J0D01*
G01*
X76256250Y-126400000D01*
G75*
G02*
X76475000Y-126618750I0J-218750D01*
G01*
G37*
G04 #@! TD*
G04 #@! TO.C,C25*
G36*
G01*
X75550000Y-129375000D02*
X75550000Y-128425000D01*
G75*
G02*
X75800000Y-128175000I250000J0D01*
G01*
X76300000Y-128175000D01*
G75*
G02*
X76550000Y-128425000I0J-250000D01*
G01*
X76550000Y-129375000D01*
G75*
G02*
X76300000Y-129625000I-250000J0D01*
G01*
X75800000Y-129625000D01*
G75*
G02*
X75550000Y-129375000I0J250000D01*
G01*
G37*
G36*
G01*
X77450000Y-129375000D02*
X77450000Y-128425000D01*
G75*
G02*
X77700000Y-128175000I250000J0D01*
G01*
X78200000Y-128175000D01*
G75*
G02*
X78450000Y-128425000I0J-250000D01*
G01*
X78450000Y-129375000D01*
G75*
G02*
X78200000Y-129625000I-250000J0D01*
G01*
X77700000Y-129625000D01*
G75*
G02*
X77450000Y-129375000I0J250000D01*
G01*
G37*
G04 #@! TD*
G04 #@! TO.C,R9*
G36*
G01*
X60275000Y-150225000D02*
X59725000Y-150225000D01*
G75*
G02*
X59525000Y-150025000I0J200000D01*
G01*
X59525000Y-149625000D01*
G75*
G02*
X59725000Y-149425000I200000J0D01*
G01*
X60275000Y-149425000D01*
G75*
G02*
X60475000Y-149625000I0J-200000D01*
G01*
X60475000Y-150025000D01*
G75*
G02*
X60275000Y-150225000I-200000J0D01*
G01*
G37*
G36*
G01*
X60275000Y-148575000D02*
X59725000Y-148575000D01*
G75*
G02*
X59525000Y-148375000I0J200000D01*
G01*
X59525000Y-147975000D01*
G75*
G02*
X59725000Y-147775000I200000J0D01*
G01*
X60275000Y-147775000D01*
G75*
G02*
X60475000Y-147975000I0J-200000D01*
G01*
X60475000Y-148375000D01*
G75*
G02*
X60275000Y-148575000I-200000J0D01*
G01*
G37*
G04 #@! TD*
G04 #@! TO.C,R10*
G36*
G01*
X88875000Y-145025000D02*
X88325000Y-145025000D01*
G75*
G02*
X88125000Y-144825000I0J200000D01*
G01*
X88125000Y-144425000D01*
G75*
G02*
X88325000Y-144225000I200000J0D01*
G01*
X88875000Y-144225000D01*
G75*
G02*
X89075000Y-144425000I0J-200000D01*
G01*
X89075000Y-144825000D01*
G75*
G02*
X88875000Y-145025000I-200000J0D01*
G01*
G37*
G36*
G01*
X88875000Y-143375000D02*
X88325000Y-143375000D01*
G75*
G02*
X88125000Y-143175000I0J200000D01*
G01*
X88125000Y-142775000D01*
G75*
G02*
X88325000Y-142575000I200000J0D01*
G01*
X88875000Y-142575000D01*
G75*
G02*
X89075000Y-142775000I0J-200000D01*
G01*
X89075000Y-143175000D01*
G75*
G02*
X88875000Y-143375000I-200000J0D01*
G01*
G37*
G04 #@! TD*
G04 #@! TO.C,R19*
G36*
G01*
X135125000Y-118725000D02*
X135125000Y-119275000D01*
G75*
G02*
X134925000Y-119475000I-200000J0D01*
G01*
X134525000Y-119475000D01*
G75*
G02*
X134325000Y-119275000I0J200000D01*
G01*
X134325000Y-118725000D01*
G75*
G02*
X134525000Y-118525000I200000J0D01*
G01*
X134925000Y-118525000D01*
G75*
G02*
X135125000Y-118725000I0J-200000D01*
G01*
G37*
G36*
G01*
X133475000Y-118725000D02*
X133475000Y-119275000D01*
G75*
G02*
X133275000Y-119475000I-200000J0D01*
G01*
X132875000Y-119475000D01*
G75*
G02*
X132675000Y-119275000I0J200000D01*
G01*
X132675000Y-118725000D01*
G75*
G02*
X132875000Y-118525000I200000J0D01*
G01*
X133275000Y-118525000D01*
G75*
G02*
X133475000Y-118725000I0J-200000D01*
G01*
G37*
G04 #@! TD*
G04 #@! TO.C,R23*
G36*
G01*
X69725000Y-155325000D02*
X69725000Y-155875000D01*
G75*
G02*
X69525000Y-156075000I-200000J0D01*
G01*
X69125000Y-156075000D01*
G75*
G02*
X68925000Y-155875000I0J200000D01*
G01*
X68925000Y-155325000D01*
G75*
G02*
X69125000Y-155125000I200000J0D01*
G01*
X69525000Y-155125000D01*
G75*
G02*
X69725000Y-155325000I0J-200000D01*
G01*
G37*
G36*
G01*
X68075000Y-155325000D02*
X68075000Y-155875000D01*
G75*
G02*
X67875000Y-156075000I-200000J0D01*
G01*
X67475000Y-156075000D01*
G75*
G02*
X67275000Y-155875000I0J200000D01*
G01*
X67275000Y-155325000D01*
G75*
G02*
X67475000Y-155125000I200000J0D01*
G01*
X67875000Y-155125000D01*
G75*
G02*
X68075000Y-155325000I0J-200000D01*
G01*
G37*
G04 #@! TD*
D13*
G04 #@! TO.C,S13*
X72900000Y-151700000D03*
X78700000Y-151700000D03*
X72900000Y-148700000D03*
X78700000Y-148700000D03*
G04 #@! TD*
G04 #@! TO.C,R4*
G36*
G01*
X88725000Y-120475000D02*
X89275000Y-120475000D01*
G75*
G02*
X89475000Y-120675000I0J-200000D01*
G01*
X89475000Y-121075000D01*
G75*
G02*
X89275000Y-121275000I-200000J0D01*
G01*
X88725000Y-121275000D01*
G75*
G02*
X88525000Y-121075000I0J200000D01*
G01*
X88525000Y-120675000D01*
G75*
G02*
X88725000Y-120475000I200000J0D01*
G01*
G37*
G36*
G01*
X88725000Y-122125000D02*
X89275000Y-122125000D01*
G75*
G02*
X89475000Y-122325000I0J-200000D01*
G01*
X89475000Y-122725000D01*
G75*
G02*
X89275000Y-122925000I-200000J0D01*
G01*
X88725000Y-122925000D01*
G75*
G02*
X88525000Y-122725000I0J200000D01*
G01*
X88525000Y-122325000D01*
G75*
G02*
X88725000Y-122125000I200000J0D01*
G01*
G37*
G04 #@! TD*
G04 #@! TO.C,U4*
G36*
G01*
X45345000Y-113000000D02*
X45645000Y-113000000D01*
G75*
G02*
X45795000Y-113150000I0J-150000D01*
G01*
X45795000Y-114450000D01*
G75*
G02*
X45645000Y-114600000I-150000J0D01*
G01*
X45345000Y-114600000D01*
G75*
G02*
X45195000Y-114450000I0J150000D01*
G01*
X45195000Y-113150000D01*
G75*
G02*
X45345000Y-113000000I150000J0D01*
G01*
G37*
G36*
G01*
X46615000Y-113000000D02*
X46915000Y-113000000D01*
G75*
G02*
X47065000Y-113150000I0J-150000D01*
G01*
X47065000Y-114450000D01*
G75*
G02*
X46915000Y-114600000I-150000J0D01*
G01*
X46615000Y-114600000D01*
G75*
G02*
X46465000Y-114450000I0J150000D01*
G01*
X46465000Y-113150000D01*
G75*
G02*
X46615000Y-113000000I150000J0D01*
G01*
G37*
G36*
G01*
X47885000Y-113000000D02*
X48185000Y-113000000D01*
G75*
G02*
X48335000Y-113150000I0J-150000D01*
G01*
X48335000Y-114450000D01*
G75*
G02*
X48185000Y-114600000I-150000J0D01*
G01*
X47885000Y-114600000D01*
G75*
G02*
X47735000Y-114450000I0J150000D01*
G01*
X47735000Y-113150000D01*
G75*
G02*
X47885000Y-113000000I150000J0D01*
G01*
G37*
G36*
G01*
X49155000Y-113000000D02*
X49455000Y-113000000D01*
G75*
G02*
X49605000Y-113150000I0J-150000D01*
G01*
X49605000Y-114450000D01*
G75*
G02*
X49455000Y-114600000I-150000J0D01*
G01*
X49155000Y-114600000D01*
G75*
G02*
X49005000Y-114450000I0J150000D01*
G01*
X49005000Y-113150000D01*
G75*
G02*
X49155000Y-113000000I150000J0D01*
G01*
G37*
G36*
G01*
X49155000Y-120200000D02*
X49455000Y-120200000D01*
G75*
G02*
X49605000Y-120350000I0J-150000D01*
G01*
X49605000Y-121650000D01*
G75*
G02*
X49455000Y-121800000I-150000J0D01*
G01*
X49155000Y-121800000D01*
G75*
G02*
X49005000Y-121650000I0J150000D01*
G01*
X49005000Y-120350000D01*
G75*
G02*
X49155000Y-120200000I150000J0D01*
G01*
G37*
G36*
G01*
X47885000Y-120200000D02*
X48185000Y-120200000D01*
G75*
G02*
X48335000Y-120350000I0J-150000D01*
G01*
X48335000Y-121650000D01*
G75*
G02*
X48185000Y-121800000I-150000J0D01*
G01*
X47885000Y-121800000D01*
G75*
G02*
X47735000Y-121650000I0J150000D01*
G01*
X47735000Y-120350000D01*
G75*
G02*
X47885000Y-120200000I150000J0D01*
G01*
G37*
G36*
G01*
X46615000Y-120200000D02*
X46915000Y-120200000D01*
G75*
G02*
X47065000Y-120350000I0J-150000D01*
G01*
X47065000Y-121650000D01*
G75*
G02*
X46915000Y-121800000I-150000J0D01*
G01*
X46615000Y-121800000D01*
G75*
G02*
X46465000Y-121650000I0J150000D01*
G01*
X46465000Y-120350000D01*
G75*
G02*
X46615000Y-120200000I150000J0D01*
G01*
G37*
G36*
G01*
X45345000Y-120200000D02*
X45645000Y-120200000D01*
G75*
G02*
X45795000Y-120350000I0J-150000D01*
G01*
X45795000Y-121650000D01*
G75*
G02*
X45645000Y-121800000I-150000J0D01*
G01*
X45345000Y-121800000D01*
G75*
G02*
X45195000Y-121650000I0J150000D01*
G01*
X45195000Y-120350000D01*
G75*
G02*
X45345000Y-120200000I150000J0D01*
G01*
G37*
G04 #@! TD*
G04 #@! TO.C,C37*
G36*
G01*
X112250000Y-123450000D02*
X112250000Y-122150000D01*
G75*
G02*
X112500000Y-121900000I250000J0D01*
G01*
X113150000Y-121900000D01*
G75*
G02*
X113400000Y-122150000I0J-250000D01*
G01*
X113400000Y-123450000D01*
G75*
G02*
X113150000Y-123700000I-250000J0D01*
G01*
X112500000Y-123700000D01*
G75*
G02*
X112250000Y-123450000I0J250000D01*
G01*
G37*
G36*
G01*
X115200000Y-123450000D02*
X115200000Y-122150000D01*
G75*
G02*
X115450000Y-121900000I250000J0D01*
G01*
X116100000Y-121900000D01*
G75*
G02*
X116350000Y-122150000I0J-250000D01*
G01*
X116350000Y-123450000D01*
G75*
G02*
X116100000Y-123700000I-250000J0D01*
G01*
X115450000Y-123700000D01*
G75*
G02*
X115200000Y-123450000I0J250000D01*
G01*
G37*
G04 #@! TD*
G04 #@! TO.C,C28*
G36*
G01*
X56375000Y-131150000D02*
X55425000Y-131150000D01*
G75*
G02*
X55175000Y-130900000I0J250000D01*
G01*
X55175000Y-130400000D01*
G75*
G02*
X55425000Y-130150000I250000J0D01*
G01*
X56375000Y-130150000D01*
G75*
G02*
X56625000Y-130400000I0J-250000D01*
G01*
X56625000Y-130900000D01*
G75*
G02*
X56375000Y-131150000I-250000J0D01*
G01*
G37*
G36*
G01*
X56375000Y-129250000D02*
X55425000Y-129250000D01*
G75*
G02*
X55175000Y-129000000I0J250000D01*
G01*
X55175000Y-128500000D01*
G75*
G02*
X55425000Y-128250000I250000J0D01*
G01*
X56375000Y-128250000D01*
G75*
G02*
X56625000Y-128500000I0J-250000D01*
G01*
X56625000Y-129000000D01*
G75*
G02*
X56375000Y-129250000I-250000J0D01*
G01*
G37*
G04 #@! TD*
G04 #@! TO.C,D14*
G36*
G01*
X102400000Y-114375000D02*
X102400000Y-113925000D01*
G75*
G02*
X102625000Y-113700000I225000J0D01*
G01*
X103275000Y-113700000D01*
G75*
G02*
X103500000Y-113925000I0J-225000D01*
G01*
X103500000Y-114375000D01*
G75*
G02*
X103275000Y-114600000I-225000J0D01*
G01*
X102625000Y-114600000D01*
G75*
G02*
X102400000Y-114375000I0J225000D01*
G01*
G37*
G36*
G01*
X102400000Y-112875000D02*
X102400000Y-112425000D01*
G75*
G02*
X102625000Y-112200000I225000J0D01*
G01*
X103275000Y-112200000D01*
G75*
G02*
X103500000Y-112425000I0J-225000D01*
G01*
X103500000Y-112875000D01*
G75*
G02*
X103275000Y-113100000I-225000J0D01*
G01*
X102625000Y-113100000D01*
G75*
G02*
X102400000Y-112875000I0J225000D01*
G01*
G37*
G36*
G01*
X96300000Y-112875000D02*
X96300000Y-112425000D01*
G75*
G02*
X96525000Y-112200000I225000J0D01*
G01*
X97175000Y-112200000D01*
G75*
G02*
X97400000Y-112425000I0J-225000D01*
G01*
X97400000Y-112875000D01*
G75*
G02*
X97175000Y-113100000I-225000J0D01*
G01*
X96525000Y-113100000D01*
G75*
G02*
X96300000Y-112875000I0J225000D01*
G01*
G37*
G36*
G01*
X96300000Y-114375000D02*
X96300000Y-113925000D01*
G75*
G02*
X96525000Y-113700000I225000J0D01*
G01*
X97175000Y-113700000D01*
G75*
G02*
X97400000Y-113925000I0J-225000D01*
G01*
X97400000Y-114375000D01*
G75*
G02*
X97175000Y-114600000I-225000J0D01*
G01*
X96525000Y-114600000D01*
G75*
G02*
X96300000Y-114375000I0J225000D01*
G01*
G37*
G04 #@! TD*
G04 #@! TO.C,C15*
G36*
G01*
X108050000Y-153400000D02*
X107550000Y-153400000D01*
G75*
G02*
X107325000Y-153175000I0J225000D01*
G01*
X107325000Y-152725000D01*
G75*
G02*
X107550000Y-152500000I225000J0D01*
G01*
X108050000Y-152500000D01*
G75*
G02*
X108275000Y-152725000I0J-225000D01*
G01*
X108275000Y-153175000D01*
G75*
G02*
X108050000Y-153400000I-225000J0D01*
G01*
G37*
G36*
G01*
X108050000Y-151850000D02*
X107550000Y-151850000D01*
G75*
G02*
X107325000Y-151625000I0J225000D01*
G01*
X107325000Y-151175000D01*
G75*
G02*
X107550000Y-150950000I225000J0D01*
G01*
X108050000Y-150950000D01*
G75*
G02*
X108275000Y-151175000I0J-225000D01*
G01*
X108275000Y-151625000D01*
G75*
G02*
X108050000Y-151850000I-225000J0D01*
G01*
G37*
G04 #@! TD*
G04 #@! TO.C,U3*
G36*
G01*
X101250000Y-131000000D02*
X102550000Y-131000000D01*
G75*
G02*
X102650000Y-131100000I0J-100000D01*
G01*
X102650000Y-131300000D01*
G75*
G02*
X102550000Y-131400000I-100000J0D01*
G01*
X101250000Y-131400000D01*
G75*
G02*
X101150000Y-131300000I0J100000D01*
G01*
X101150000Y-131100000D01*
G75*
G02*
X101250000Y-131000000I100000J0D01*
G01*
G37*
G36*
G01*
X101250000Y-130350000D02*
X102550000Y-130350000D01*
G75*
G02*
X102650000Y-130450000I0J-100000D01*
G01*
X102650000Y-130650000D01*
G75*
G02*
X102550000Y-130750000I-100000J0D01*
G01*
X101250000Y-130750000D01*
G75*
G02*
X101150000Y-130650000I0J100000D01*
G01*
X101150000Y-130450000D01*
G75*
G02*
X101250000Y-130350000I100000J0D01*
G01*
G37*
G36*
G01*
X101250000Y-129700000D02*
X102550000Y-129700000D01*
G75*
G02*
X102650000Y-129800000I0J-100000D01*
G01*
X102650000Y-130000000D01*
G75*
G02*
X102550000Y-130100000I-100000J0D01*
G01*
X101250000Y-130100000D01*
G75*
G02*
X101150000Y-130000000I0J100000D01*
G01*
X101150000Y-129800000D01*
G75*
G02*
X101250000Y-129700000I100000J0D01*
G01*
G37*
G36*
G01*
X101250000Y-129050000D02*
X102550000Y-129050000D01*
G75*
G02*
X102650000Y-129150000I0J-100000D01*
G01*
X102650000Y-129350000D01*
G75*
G02*
X102550000Y-129450000I-100000J0D01*
G01*
X101250000Y-129450000D01*
G75*
G02*
X101150000Y-129350000I0J100000D01*
G01*
X101150000Y-129150000D01*
G75*
G02*
X101250000Y-129050000I100000J0D01*
G01*
G37*
G36*
G01*
X101250000Y-128400000D02*
X102550000Y-128400000D01*
G75*
G02*
X102650000Y-128500000I0J-100000D01*
G01*
X102650000Y-128700000D01*
G75*
G02*
X102550000Y-128800000I-100000J0D01*
G01*
X101250000Y-128800000D01*
G75*
G02*
X101150000Y-128700000I0J100000D01*
G01*
X101150000Y-128500000D01*
G75*
G02*
X101250000Y-128400000I100000J0D01*
G01*
G37*
G36*
G01*
X101250000Y-127750000D02*
X102550000Y-127750000D01*
G75*
G02*
X102650000Y-127850000I0J-100000D01*
G01*
X102650000Y-128050000D01*
G75*
G02*
X102550000Y-128150000I-100000J0D01*
G01*
X101250000Y-128150000D01*
G75*
G02*
X101150000Y-128050000I0J100000D01*
G01*
X101150000Y-127850000D01*
G75*
G02*
X101250000Y-127750000I100000J0D01*
G01*
G37*
G36*
G01*
X101250000Y-127100000D02*
X102550000Y-127100000D01*
G75*
G02*
X102650000Y-127200000I0J-100000D01*
G01*
X102650000Y-127400000D01*
G75*
G02*
X102550000Y-127500000I-100000J0D01*
G01*
X101250000Y-127500000D01*
G75*
G02*
X101150000Y-127400000I0J100000D01*
G01*
X101150000Y-127200000D01*
G75*
G02*
X101250000Y-127100000I100000J0D01*
G01*
G37*
G36*
G01*
X101250000Y-126450000D02*
X102550000Y-126450000D01*
G75*
G02*
X102650000Y-126550000I0J-100000D01*
G01*
X102650000Y-126750000D01*
G75*
G02*
X102550000Y-126850000I-100000J0D01*
G01*
X101250000Y-126850000D01*
G75*
G02*
X101150000Y-126750000I0J100000D01*
G01*
X101150000Y-126550000D01*
G75*
G02*
X101250000Y-126450000I100000J0D01*
G01*
G37*
G36*
G01*
X107050000Y-126450000D02*
X108350000Y-126450000D01*
G75*
G02*
X108450000Y-126550000I0J-100000D01*
G01*
X108450000Y-126750000D01*
G75*
G02*
X108350000Y-126850000I-100000J0D01*
G01*
X107050000Y-126850000D01*
G75*
G02*
X106950000Y-126750000I0J100000D01*
G01*
X106950000Y-126550000D01*
G75*
G02*
X107050000Y-126450000I100000J0D01*
G01*
G37*
G36*
G01*
X107050000Y-127100000D02*
X108350000Y-127100000D01*
G75*
G02*
X108450000Y-127200000I0J-100000D01*
G01*
X108450000Y-127400000D01*
G75*
G02*
X108350000Y-127500000I-100000J0D01*
G01*
X107050000Y-127500000D01*
G75*
G02*
X106950000Y-127400000I0J100000D01*
G01*
X106950000Y-127200000D01*
G75*
G02*
X107050000Y-127100000I100000J0D01*
G01*
G37*
G36*
G01*
X107050000Y-127750000D02*
X108350000Y-127750000D01*
G75*
G02*
X108450000Y-127850000I0J-100000D01*
G01*
X108450000Y-128050000D01*
G75*
G02*
X108350000Y-128150000I-100000J0D01*
G01*
X107050000Y-128150000D01*
G75*
G02*
X106950000Y-128050000I0J100000D01*
G01*
X106950000Y-127850000D01*
G75*
G02*
X107050000Y-127750000I100000J0D01*
G01*
G37*
G36*
G01*
X107050000Y-128400000D02*
X108350000Y-128400000D01*
G75*
G02*
X108450000Y-128500000I0J-100000D01*
G01*
X108450000Y-128700000D01*
G75*
G02*
X108350000Y-128800000I-100000J0D01*
G01*
X107050000Y-128800000D01*
G75*
G02*
X106950000Y-128700000I0J100000D01*
G01*
X106950000Y-128500000D01*
G75*
G02*
X107050000Y-128400000I100000J0D01*
G01*
G37*
G36*
G01*
X107050000Y-129050000D02*
X108350000Y-129050000D01*
G75*
G02*
X108450000Y-129150000I0J-100000D01*
G01*
X108450000Y-129350000D01*
G75*
G02*
X108350000Y-129450000I-100000J0D01*
G01*
X107050000Y-129450000D01*
G75*
G02*
X106950000Y-129350000I0J100000D01*
G01*
X106950000Y-129150000D01*
G75*
G02*
X107050000Y-129050000I100000J0D01*
G01*
G37*
G36*
G01*
X107050000Y-129700000D02*
X108350000Y-129700000D01*
G75*
G02*
X108450000Y-129800000I0J-100000D01*
G01*
X108450000Y-130000000D01*
G75*
G02*
X108350000Y-130100000I-100000J0D01*
G01*
X107050000Y-130100000D01*
G75*
G02*
X106950000Y-130000000I0J100000D01*
G01*
X106950000Y-129800000D01*
G75*
G02*
X107050000Y-129700000I100000J0D01*
G01*
G37*
G36*
G01*
X107050000Y-130350000D02*
X108350000Y-130350000D01*
G75*
G02*
X108450000Y-130450000I0J-100000D01*
G01*
X108450000Y-130650000D01*
G75*
G02*
X108350000Y-130750000I-100000J0D01*
G01*
X107050000Y-130750000D01*
G75*
G02*
X106950000Y-130650000I0J100000D01*
G01*
X106950000Y-130450000D01*
G75*
G02*
X107050000Y-130350000I100000J0D01*
G01*
G37*
G36*
G01*
X107050000Y-131000000D02*
X108350000Y-131000000D01*
G75*
G02*
X108450000Y-131100000I0J-100000D01*
G01*
X108450000Y-131300000D01*
G75*
G02*
X108350000Y-131400000I-100000J0D01*
G01*
X107050000Y-131400000D01*
G75*
G02*
X106950000Y-131300000I0J100000D01*
G01*
X106950000Y-131100000D01*
G75*
G02*
X107050000Y-131000000I100000J0D01*
G01*
G37*
G04 #@! TD*
G04 #@! TO.C,R32*
G36*
G01*
X134725000Y-124225000D02*
X134725000Y-124775000D01*
G75*
G02*
X134525000Y-124975000I-200000J0D01*
G01*
X134125000Y-124975000D01*
G75*
G02*
X133925000Y-124775000I0J200000D01*
G01*
X133925000Y-124225000D01*
G75*
G02*
X134125000Y-124025000I200000J0D01*
G01*
X134525000Y-124025000D01*
G75*
G02*
X134725000Y-124225000I0J-200000D01*
G01*
G37*
G36*
G01*
X133075000Y-124225000D02*
X133075000Y-124775000D01*
G75*
G02*
X132875000Y-124975000I-200000J0D01*
G01*
X132475000Y-124975000D01*
G75*
G02*
X132275000Y-124775000I0J200000D01*
G01*
X132275000Y-124225000D01*
G75*
G02*
X132475000Y-124025000I200000J0D01*
G01*
X132875000Y-124025000D01*
G75*
G02*
X133075000Y-124225000I0J-200000D01*
G01*
G37*
G04 #@! TD*
G04 #@! TO.C,S12*
X69000000Y-148700000D03*
X63200000Y-148700000D03*
X69000000Y-151700000D03*
X63200000Y-151700000D03*
G04 #@! TD*
G04 #@! TO.C,U5*
G36*
G01*
X69545000Y-130104999D02*
X69545000Y-130895001D01*
G75*
G02*
X69295001Y-131145000I-249999J0D01*
G01*
X68504999Y-131145000D01*
G75*
G02*
X68255000Y-130895001I0J249999D01*
G01*
X68255000Y-130104999D01*
G75*
G02*
X68504999Y-129855000I249999J0D01*
G01*
X69295001Y-129855000D01*
G75*
G02*
X69545000Y-130104999I0J-249999D01*
G01*
G37*
G36*
G01*
X69545000Y-128504999D02*
X69545000Y-129295001D01*
G75*
G02*
X69295001Y-129545000I-249999J0D01*
G01*
X68504999Y-129545000D01*
G75*
G02*
X68255000Y-129295001I0J249999D01*
G01*
X68255000Y-128504999D01*
G75*
G02*
X68504999Y-128255000I249999J0D01*
G01*
X69295001Y-128255000D01*
G75*
G02*
X69545000Y-128504999I0J-249999D01*
G01*
G37*
G36*
G01*
X67945000Y-130104999D02*
X67945000Y-130895001D01*
G75*
G02*
X67695001Y-131145000I-249999J0D01*
G01*
X66904999Y-131145000D01*
G75*
G02*
X66655000Y-130895001I0J249999D01*
G01*
X66655000Y-130104999D01*
G75*
G02*
X66904999Y-129855000I249999J0D01*
G01*
X67695001Y-129855000D01*
G75*
G02*
X67945000Y-130104999I0J-249999D01*
G01*
G37*
G36*
G01*
X67945000Y-128504999D02*
X67945000Y-129295001D01*
G75*
G02*
X67695001Y-129545000I-249999J0D01*
G01*
X66904999Y-129545000D01*
G75*
G02*
X66655000Y-129295001I0J249999D01*
G01*
X66655000Y-128504999D01*
G75*
G02*
X66904999Y-128255000I249999J0D01*
G01*
X67695001Y-128255000D01*
G75*
G02*
X67945000Y-128504999I0J-249999D01*
G01*
G37*
G36*
G01*
X71975000Y-127050000D02*
X71975000Y-127150000D01*
G75*
G02*
X71925000Y-127200000I-50000J0D01*
G01*
X71150000Y-127200000D01*
G75*
G02*
X71100000Y-127150000I0J50000D01*
G01*
X71100000Y-127050000D01*
G75*
G02*
X71150000Y-127000000I50000J0D01*
G01*
X71925000Y-127000000D01*
G75*
G02*
X71975000Y-127050000I0J-50000D01*
G01*
G37*
G36*
G01*
X71975000Y-127450000D02*
X71975000Y-127550000D01*
G75*
G02*
X71925000Y-127600000I-50000J0D01*
G01*
X71150000Y-127600000D01*
G75*
G02*
X71100000Y-127550000I0J50000D01*
G01*
X71100000Y-127450000D01*
G75*
G02*
X71150000Y-127400000I50000J0D01*
G01*
X71925000Y-127400000D01*
G75*
G02*
X71975000Y-127450000I0J-50000D01*
G01*
G37*
G36*
G01*
X71975000Y-127850000D02*
X71975000Y-127950000D01*
G75*
G02*
X71925000Y-128000000I-50000J0D01*
G01*
X71150000Y-128000000D01*
G75*
G02*
X71100000Y-127950000I0J50000D01*
G01*
X71100000Y-127850000D01*
G75*
G02*
X71150000Y-127800000I50000J0D01*
G01*
X71925000Y-127800000D01*
G75*
G02*
X71975000Y-127850000I0J-50000D01*
G01*
G37*
G36*
G01*
X71975000Y-128250000D02*
X71975000Y-128350000D01*
G75*
G02*
X71925000Y-128400000I-50000J0D01*
G01*
X71150000Y-128400000D01*
G75*
G02*
X71100000Y-128350000I0J50000D01*
G01*
X71100000Y-128250000D01*
G75*
G02*
X71150000Y-128200000I50000J0D01*
G01*
X71925000Y-128200000D01*
G75*
G02*
X71975000Y-128250000I0J-50000D01*
G01*
G37*
G36*
G01*
X71975000Y-128650000D02*
X71975000Y-128750000D01*
G75*
G02*
X71925000Y-128800000I-50000J0D01*
G01*
X71150000Y-128800000D01*
G75*
G02*
X71100000Y-128750000I0J50000D01*
G01*
X71100000Y-128650000D01*
G75*
G02*
X71150000Y-128600000I50000J0D01*
G01*
X71925000Y-128600000D01*
G75*
G02*
X71975000Y-128650000I0J-50000D01*
G01*
G37*
G36*
G01*
X71975000Y-129050000D02*
X71975000Y-129150000D01*
G75*
G02*
X71925000Y-129200000I-50000J0D01*
G01*
X71150000Y-129200000D01*
G75*
G02*
X71100000Y-129150000I0J50000D01*
G01*
X71100000Y-129050000D01*
G75*
G02*
X71150000Y-129000000I50000J0D01*
G01*
X71925000Y-129000000D01*
G75*
G02*
X71975000Y-129050000I0J-50000D01*
G01*
G37*
G36*
G01*
X71975000Y-129450000D02*
X71975000Y-129550000D01*
G75*
G02*
X71925000Y-129600000I-50000J0D01*
G01*
X71150000Y-129600000D01*
G75*
G02*
X71100000Y-129550000I0J50000D01*
G01*
X71100000Y-129450000D01*
G75*
G02*
X71150000Y-129400000I50000J0D01*
G01*
X71925000Y-129400000D01*
G75*
G02*
X71975000Y-129450000I0J-50000D01*
G01*
G37*
G36*
G01*
X71975000Y-129850000D02*
X71975000Y-129950000D01*
G75*
G02*
X71925000Y-130000000I-50000J0D01*
G01*
X71150000Y-130000000D01*
G75*
G02*
X71100000Y-129950000I0J50000D01*
G01*
X71100000Y-129850000D01*
G75*
G02*
X71150000Y-129800000I50000J0D01*
G01*
X71925000Y-129800000D01*
G75*
G02*
X71975000Y-129850000I0J-50000D01*
G01*
G37*
G36*
G01*
X71975000Y-130250000D02*
X71975000Y-130350000D01*
G75*
G02*
X71925000Y-130400000I-50000J0D01*
G01*
X71150000Y-130400000D01*
G75*
G02*
X71100000Y-130350000I0J50000D01*
G01*
X71100000Y-130250000D01*
G75*
G02*
X71150000Y-130200000I50000J0D01*
G01*
X71925000Y-130200000D01*
G75*
G02*
X71975000Y-130250000I0J-50000D01*
G01*
G37*
G36*
G01*
X71975000Y-130650000D02*
X71975000Y-130750000D01*
G75*
G02*
X71925000Y-130800000I-50000J0D01*
G01*
X71150000Y-130800000D01*
G75*
G02*
X71100000Y-130750000I0J50000D01*
G01*
X71100000Y-130650000D01*
G75*
G02*
X71150000Y-130600000I50000J0D01*
G01*
X71925000Y-130600000D01*
G75*
G02*
X71975000Y-130650000I0J-50000D01*
G01*
G37*
G36*
G01*
X71975000Y-131050000D02*
X71975000Y-131150000D01*
G75*
G02*
X71925000Y-131200000I-50000J0D01*
G01*
X71150000Y-131200000D01*
G75*
G02*
X71100000Y-131150000I0J50000D01*
G01*
X71100000Y-131050000D01*
G75*
G02*
X71150000Y-131000000I50000J0D01*
G01*
X71925000Y-131000000D01*
G75*
G02*
X71975000Y-131050000I0J-50000D01*
G01*
G37*
G36*
G01*
X71975000Y-131450000D02*
X71975000Y-131550000D01*
G75*
G02*
X71925000Y-131600000I-50000J0D01*
G01*
X71150000Y-131600000D01*
G75*
G02*
X71100000Y-131550000I0J50000D01*
G01*
X71100000Y-131450000D01*
G75*
G02*
X71150000Y-131400000I50000J0D01*
G01*
X71925000Y-131400000D01*
G75*
G02*
X71975000Y-131450000I0J-50000D01*
G01*
G37*
G36*
G01*
X71975000Y-131850000D02*
X71975000Y-131950000D01*
G75*
G02*
X71925000Y-132000000I-50000J0D01*
G01*
X71150000Y-132000000D01*
G75*
G02*
X71100000Y-131950000I0J50000D01*
G01*
X71100000Y-131850000D01*
G75*
G02*
X71150000Y-131800000I50000J0D01*
G01*
X71925000Y-131800000D01*
G75*
G02*
X71975000Y-131850000I0J-50000D01*
G01*
G37*
G36*
G01*
X71975000Y-132250000D02*
X71975000Y-132350000D01*
G75*
G02*
X71925000Y-132400000I-50000J0D01*
G01*
X71150000Y-132400000D01*
G75*
G02*
X71100000Y-132350000I0J50000D01*
G01*
X71100000Y-132250000D01*
G75*
G02*
X71150000Y-132200000I50000J0D01*
G01*
X71925000Y-132200000D01*
G75*
G02*
X71975000Y-132250000I0J-50000D01*
G01*
G37*
G36*
G01*
X70800000Y-132750000D02*
X70800000Y-133525000D01*
G75*
G02*
X70750000Y-133575000I-50000J0D01*
G01*
X70650000Y-133575000D01*
G75*
G02*
X70600000Y-133525000I0J50000D01*
G01*
X70600000Y-132750000D01*
G75*
G02*
X70650000Y-132700000I50000J0D01*
G01*
X70750000Y-132700000D01*
G75*
G02*
X70800000Y-132750000I0J-50000D01*
G01*
G37*
G36*
G01*
X70400000Y-132750000D02*
X70400000Y-133525000D01*
G75*
G02*
X70350000Y-133575000I-50000J0D01*
G01*
X70250000Y-133575000D01*
G75*
G02*
X70200000Y-133525000I0J50000D01*
G01*
X70200000Y-132750000D01*
G75*
G02*
X70250000Y-132700000I50000J0D01*
G01*
X70350000Y-132700000D01*
G75*
G02*
X70400000Y-132750000I0J-50000D01*
G01*
G37*
G36*
G01*
X70000000Y-132750000D02*
X70000000Y-133525000D01*
G75*
G02*
X69950000Y-133575000I-50000J0D01*
G01*
X69850000Y-133575000D01*
G75*
G02*
X69800000Y-133525000I0J50000D01*
G01*
X69800000Y-132750000D01*
G75*
G02*
X69850000Y-132700000I50000J0D01*
G01*
X69950000Y-132700000D01*
G75*
G02*
X70000000Y-132750000I0J-50000D01*
G01*
G37*
G36*
G01*
X69600000Y-132750000D02*
X69600000Y-133525000D01*
G75*
G02*
X69550000Y-133575000I-50000J0D01*
G01*
X69450000Y-133575000D01*
G75*
G02*
X69400000Y-133525000I0J50000D01*
G01*
X69400000Y-132750000D01*
G75*
G02*
X69450000Y-132700000I50000J0D01*
G01*
X69550000Y-132700000D01*
G75*
G02*
X69600000Y-132750000I0J-50000D01*
G01*
G37*
G36*
G01*
X69200000Y-132750000D02*
X69200000Y-133525000D01*
G75*
G02*
X69150000Y-133575000I-50000J0D01*
G01*
X69050000Y-133575000D01*
G75*
G02*
X69000000Y-133525000I0J50000D01*
G01*
X69000000Y-132750000D01*
G75*
G02*
X69050000Y-132700000I50000J0D01*
G01*
X69150000Y-132700000D01*
G75*
G02*
X69200000Y-132750000I0J-50000D01*
G01*
G37*
G36*
G01*
X68800000Y-132750000D02*
X68800000Y-133525000D01*
G75*
G02*
X68750000Y-133575000I-50000J0D01*
G01*
X68650000Y-133575000D01*
G75*
G02*
X68600000Y-133525000I0J50000D01*
G01*
X68600000Y-132750000D01*
G75*
G02*
X68650000Y-132700000I50000J0D01*
G01*
X68750000Y-132700000D01*
G75*
G02*
X68800000Y-132750000I0J-50000D01*
G01*
G37*
G36*
G01*
X68400000Y-132750000D02*
X68400000Y-133525000D01*
G75*
G02*
X68350000Y-133575000I-50000J0D01*
G01*
X68250000Y-133575000D01*
G75*
G02*
X68200000Y-133525000I0J50000D01*
G01*
X68200000Y-132750000D01*
G75*
G02*
X68250000Y-132700000I50000J0D01*
G01*
X68350000Y-132700000D01*
G75*
G02*
X68400000Y-132750000I0J-50000D01*
G01*
G37*
G36*
G01*
X68000000Y-132750000D02*
X68000000Y-133525000D01*
G75*
G02*
X67950000Y-133575000I-50000J0D01*
G01*
X67850000Y-133575000D01*
G75*
G02*
X67800000Y-133525000I0J50000D01*
G01*
X67800000Y-132750000D01*
G75*
G02*
X67850000Y-132700000I50000J0D01*
G01*
X67950000Y-132700000D01*
G75*
G02*
X68000000Y-132750000I0J-50000D01*
G01*
G37*
G36*
G01*
X67600000Y-132750000D02*
X67600000Y-133525000D01*
G75*
G02*
X67550000Y-133575000I-50000J0D01*
G01*
X67450000Y-133575000D01*
G75*
G02*
X67400000Y-133525000I0J50000D01*
G01*
X67400000Y-132750000D01*
G75*
G02*
X67450000Y-132700000I50000J0D01*
G01*
X67550000Y-132700000D01*
G75*
G02*
X67600000Y-132750000I0J-50000D01*
G01*
G37*
G36*
G01*
X67200000Y-132750000D02*
X67200000Y-133525000D01*
G75*
G02*
X67150000Y-133575000I-50000J0D01*
G01*
X67050000Y-133575000D01*
G75*
G02*
X67000000Y-133525000I0J50000D01*
G01*
X67000000Y-132750000D01*
G75*
G02*
X67050000Y-132700000I50000J0D01*
G01*
X67150000Y-132700000D01*
G75*
G02*
X67200000Y-132750000I0J-50000D01*
G01*
G37*
G36*
G01*
X66800000Y-132750000D02*
X66800000Y-133525000D01*
G75*
G02*
X66750000Y-133575000I-50000J0D01*
G01*
X66650000Y-133575000D01*
G75*
G02*
X66600000Y-133525000I0J50000D01*
G01*
X66600000Y-132750000D01*
G75*
G02*
X66650000Y-132700000I50000J0D01*
G01*
X66750000Y-132700000D01*
G75*
G02*
X66800000Y-132750000I0J-50000D01*
G01*
G37*
G36*
G01*
X66400000Y-132750000D02*
X66400000Y-133525000D01*
G75*
G02*
X66350000Y-133575000I-50000J0D01*
G01*
X66250000Y-133575000D01*
G75*
G02*
X66200000Y-133525000I0J50000D01*
G01*
X66200000Y-132750000D01*
G75*
G02*
X66250000Y-132700000I50000J0D01*
G01*
X66350000Y-132700000D01*
G75*
G02*
X66400000Y-132750000I0J-50000D01*
G01*
G37*
G36*
G01*
X66000000Y-132750000D02*
X66000000Y-133525000D01*
G75*
G02*
X65950000Y-133575000I-50000J0D01*
G01*
X65850000Y-133575000D01*
G75*
G02*
X65800000Y-133525000I0J50000D01*
G01*
X65800000Y-132750000D01*
G75*
G02*
X65850000Y-132700000I50000J0D01*
G01*
X65950000Y-132700000D01*
G75*
G02*
X66000000Y-132750000I0J-50000D01*
G01*
G37*
G36*
G01*
X65600000Y-132750000D02*
X65600000Y-133525000D01*
G75*
G02*
X65550000Y-133575000I-50000J0D01*
G01*
X65450000Y-133575000D01*
G75*
G02*
X65400000Y-133525000I0J50000D01*
G01*
X65400000Y-132750000D01*
G75*
G02*
X65450000Y-132700000I50000J0D01*
G01*
X65550000Y-132700000D01*
G75*
G02*
X65600000Y-132750000I0J-50000D01*
G01*
G37*
G36*
G01*
X65100000Y-132250000D02*
X65100000Y-132350000D01*
G75*
G02*
X65050000Y-132400000I-50000J0D01*
G01*
X64275000Y-132400000D01*
G75*
G02*
X64225000Y-132350000I0J50000D01*
G01*
X64225000Y-132250000D01*
G75*
G02*
X64275000Y-132200000I50000J0D01*
G01*
X65050000Y-132200000D01*
G75*
G02*
X65100000Y-132250000I0J-50000D01*
G01*
G37*
G36*
G01*
X65100000Y-131850000D02*
X65100000Y-131950000D01*
G75*
G02*
X65050000Y-132000000I-50000J0D01*
G01*
X64275000Y-132000000D01*
G75*
G02*
X64225000Y-131950000I0J50000D01*
G01*
X64225000Y-131850000D01*
G75*
G02*
X64275000Y-131800000I50000J0D01*
G01*
X65050000Y-131800000D01*
G75*
G02*
X65100000Y-131850000I0J-50000D01*
G01*
G37*
G36*
G01*
X65100000Y-131450000D02*
X65100000Y-131550000D01*
G75*
G02*
X65050000Y-131600000I-50000J0D01*
G01*
X64275000Y-131600000D01*
G75*
G02*
X64225000Y-131550000I0J50000D01*
G01*
X64225000Y-131450000D01*
G75*
G02*
X64275000Y-131400000I50000J0D01*
G01*
X65050000Y-131400000D01*
G75*
G02*
X65100000Y-131450000I0J-50000D01*
G01*
G37*
G36*
G01*
X65100000Y-131050000D02*
X65100000Y-131150000D01*
G75*
G02*
X65050000Y-131200000I-50000J0D01*
G01*
X64275000Y-131200000D01*
G75*
G02*
X64225000Y-131150000I0J50000D01*
G01*
X64225000Y-131050000D01*
G75*
G02*
X64275000Y-131000000I50000J0D01*
G01*
X65050000Y-131000000D01*
G75*
G02*
X65100000Y-131050000I0J-50000D01*
G01*
G37*
G36*
G01*
X65100000Y-130650000D02*
X65100000Y-130750000D01*
G75*
G02*
X65050000Y-130800000I-50000J0D01*
G01*
X64275000Y-130800000D01*
G75*
G02*
X64225000Y-130750000I0J50000D01*
G01*
X64225000Y-130650000D01*
G75*
G02*
X64275000Y-130600000I50000J0D01*
G01*
X65050000Y-130600000D01*
G75*
G02*
X65100000Y-130650000I0J-50000D01*
G01*
G37*
G36*
G01*
X65100000Y-130250000D02*
X65100000Y-130350000D01*
G75*
G02*
X65050000Y-130400000I-50000J0D01*
G01*
X64275000Y-130400000D01*
G75*
G02*
X64225000Y-130350000I0J50000D01*
G01*
X64225000Y-130250000D01*
G75*
G02*
X64275000Y-130200000I50000J0D01*
G01*
X65050000Y-130200000D01*
G75*
G02*
X65100000Y-130250000I0J-50000D01*
G01*
G37*
G36*
G01*
X65100000Y-129850000D02*
X65100000Y-129950000D01*
G75*
G02*
X65050000Y-130000000I-50000J0D01*
G01*
X64275000Y-130000000D01*
G75*
G02*
X64225000Y-129950000I0J50000D01*
G01*
X64225000Y-129850000D01*
G75*
G02*
X64275000Y-129800000I50000J0D01*
G01*
X65050000Y-129800000D01*
G75*
G02*
X65100000Y-129850000I0J-50000D01*
G01*
G37*
G36*
G01*
X65100000Y-129450000D02*
X65100000Y-129550000D01*
G75*
G02*
X65050000Y-129600000I-50000J0D01*
G01*
X64275000Y-129600000D01*
G75*
G02*
X64225000Y-129550000I0J50000D01*
G01*
X64225000Y-129450000D01*
G75*
G02*
X64275000Y-129400000I50000J0D01*
G01*
X65050000Y-129400000D01*
G75*
G02*
X65100000Y-129450000I0J-50000D01*
G01*
G37*
G36*
G01*
X65100000Y-129050000D02*
X65100000Y-129150000D01*
G75*
G02*
X65050000Y-129200000I-50000J0D01*
G01*
X64275000Y-129200000D01*
G75*
G02*
X64225000Y-129150000I0J50000D01*
G01*
X64225000Y-129050000D01*
G75*
G02*
X64275000Y-129000000I50000J0D01*
G01*
X65050000Y-129000000D01*
G75*
G02*
X65100000Y-129050000I0J-50000D01*
G01*
G37*
G36*
G01*
X65100000Y-128650000D02*
X65100000Y-128750000D01*
G75*
G02*
X65050000Y-128800000I-50000J0D01*
G01*
X64275000Y-128800000D01*
G75*
G02*
X64225000Y-128750000I0J50000D01*
G01*
X64225000Y-128650000D01*
G75*
G02*
X64275000Y-128600000I50000J0D01*
G01*
X65050000Y-128600000D01*
G75*
G02*
X65100000Y-128650000I0J-50000D01*
G01*
G37*
G36*
G01*
X65100000Y-128250000D02*
X65100000Y-128350000D01*
G75*
G02*
X65050000Y-128400000I-50000J0D01*
G01*
X64275000Y-128400000D01*
G75*
G02*
X64225000Y-128350000I0J50000D01*
G01*
X64225000Y-128250000D01*
G75*
G02*
X64275000Y-128200000I50000J0D01*
G01*
X65050000Y-128200000D01*
G75*
G02*
X65100000Y-128250000I0J-50000D01*
G01*
G37*
G36*
G01*
X65100000Y-127850000D02*
X65100000Y-127950000D01*
G75*
G02*
X65050000Y-128000000I-50000J0D01*
G01*
X64275000Y-128000000D01*
G75*
G02*
X64225000Y-127950000I0J50000D01*
G01*
X64225000Y-127850000D01*
G75*
G02*
X64275000Y-127800000I50000J0D01*
G01*
X65050000Y-127800000D01*
G75*
G02*
X65100000Y-127850000I0J-50000D01*
G01*
G37*
G36*
G01*
X65100000Y-127450000D02*
X65100000Y-127550000D01*
G75*
G02*
X65050000Y-127600000I-50000J0D01*
G01*
X64275000Y-127600000D01*
G75*
G02*
X64225000Y-127550000I0J50000D01*
G01*
X64225000Y-127450000D01*
G75*
G02*
X64275000Y-127400000I50000J0D01*
G01*
X65050000Y-127400000D01*
G75*
G02*
X65100000Y-127450000I0J-50000D01*
G01*
G37*
G36*
G01*
X65100000Y-127050000D02*
X65100000Y-127150000D01*
G75*
G02*
X65050000Y-127200000I-50000J0D01*
G01*
X64275000Y-127200000D01*
G75*
G02*
X64225000Y-127150000I0J50000D01*
G01*
X64225000Y-127050000D01*
G75*
G02*
X64275000Y-127000000I50000J0D01*
G01*
X65050000Y-127000000D01*
G75*
G02*
X65100000Y-127050000I0J-50000D01*
G01*
G37*
G36*
G01*
X65600000Y-125875000D02*
X65600000Y-126650000D01*
G75*
G02*
X65550000Y-126700000I-50000J0D01*
G01*
X65450000Y-126700000D01*
G75*
G02*
X65400000Y-126650000I0J50000D01*
G01*
X65400000Y-125875000D01*
G75*
G02*
X65450000Y-125825000I50000J0D01*
G01*
X65550000Y-125825000D01*
G75*
G02*
X65600000Y-125875000I0J-50000D01*
G01*
G37*
G36*
G01*
X66000000Y-125875000D02*
X66000000Y-126650000D01*
G75*
G02*
X65950000Y-126700000I-50000J0D01*
G01*
X65850000Y-126700000D01*
G75*
G02*
X65800000Y-126650000I0J50000D01*
G01*
X65800000Y-125875000D01*
G75*
G02*
X65850000Y-125825000I50000J0D01*
G01*
X65950000Y-125825000D01*
G75*
G02*
X66000000Y-125875000I0J-50000D01*
G01*
G37*
G36*
G01*
X66400000Y-125875000D02*
X66400000Y-126650000D01*
G75*
G02*
X66350000Y-126700000I-50000J0D01*
G01*
X66250000Y-126700000D01*
G75*
G02*
X66200000Y-126650000I0J50000D01*
G01*
X66200000Y-125875000D01*
G75*
G02*
X66250000Y-125825000I50000J0D01*
G01*
X66350000Y-125825000D01*
G75*
G02*
X66400000Y-125875000I0J-50000D01*
G01*
G37*
G36*
G01*
X66800000Y-125875000D02*
X66800000Y-126650000D01*
G75*
G02*
X66750000Y-126700000I-50000J0D01*
G01*
X66650000Y-126700000D01*
G75*
G02*
X66600000Y-126650000I0J50000D01*
G01*
X66600000Y-125875000D01*
G75*
G02*
X66650000Y-125825000I50000J0D01*
G01*
X66750000Y-125825000D01*
G75*
G02*
X66800000Y-125875000I0J-50000D01*
G01*
G37*
G36*
G01*
X67200000Y-125875000D02*
X67200000Y-126650000D01*
G75*
G02*
X67150000Y-126700000I-50000J0D01*
G01*
X67050000Y-126700000D01*
G75*
G02*
X67000000Y-126650000I0J50000D01*
G01*
X67000000Y-125875000D01*
G75*
G02*
X67050000Y-125825000I50000J0D01*
G01*
X67150000Y-125825000D01*
G75*
G02*
X67200000Y-125875000I0J-50000D01*
G01*
G37*
G36*
G01*
X67600000Y-125875000D02*
X67600000Y-126650000D01*
G75*
G02*
X67550000Y-126700000I-50000J0D01*
G01*
X67450000Y-126700000D01*
G75*
G02*
X67400000Y-126650000I0J50000D01*
G01*
X67400000Y-125875000D01*
G75*
G02*
X67450000Y-125825000I50000J0D01*
G01*
X67550000Y-125825000D01*
G75*
G02*
X67600000Y-125875000I0J-50000D01*
G01*
G37*
G36*
G01*
X68000000Y-125875000D02*
X68000000Y-126650000D01*
G75*
G02*
X67950000Y-126700000I-50000J0D01*
G01*
X67850000Y-126700000D01*
G75*
G02*
X67800000Y-126650000I0J50000D01*
G01*
X67800000Y-125875000D01*
G75*
G02*
X67850000Y-125825000I50000J0D01*
G01*
X67950000Y-125825000D01*
G75*
G02*
X68000000Y-125875000I0J-50000D01*
G01*
G37*
G36*
G01*
X68400000Y-125875000D02*
X68400000Y-126650000D01*
G75*
G02*
X68350000Y-126700000I-50000J0D01*
G01*
X68250000Y-126700000D01*
G75*
G02*
X68200000Y-126650000I0J50000D01*
G01*
X68200000Y-125875000D01*
G75*
G02*
X68250000Y-125825000I50000J0D01*
G01*
X68350000Y-125825000D01*
G75*
G02*
X68400000Y-125875000I0J-50000D01*
G01*
G37*
G36*
G01*
X68800000Y-125875000D02*
X68800000Y-126650000D01*
G75*
G02*
X68750000Y-126700000I-50000J0D01*
G01*
X68650000Y-126700000D01*
G75*
G02*
X68600000Y-126650000I0J50000D01*
G01*
X68600000Y-125875000D01*
G75*
G02*
X68650000Y-125825000I50000J0D01*
G01*
X68750000Y-125825000D01*
G75*
G02*
X68800000Y-125875000I0J-50000D01*
G01*
G37*
G36*
G01*
X69200000Y-125875000D02*
X69200000Y-126650000D01*
G75*
G02*
X69150000Y-126700000I-50000J0D01*
G01*
X69050000Y-126700000D01*
G75*
G02*
X69000000Y-126650000I0J50000D01*
G01*
X69000000Y-125875000D01*
G75*
G02*
X69050000Y-125825000I50000J0D01*
G01*
X69150000Y-125825000D01*
G75*
G02*
X69200000Y-125875000I0J-50000D01*
G01*
G37*
G36*
G01*
X69600000Y-125875000D02*
X69600000Y-126650000D01*
G75*
G02*
X69550000Y-126700000I-50000J0D01*
G01*
X69450000Y-126700000D01*
G75*
G02*
X69400000Y-126650000I0J50000D01*
G01*
X69400000Y-125875000D01*
G75*
G02*
X69450000Y-125825000I50000J0D01*
G01*
X69550000Y-125825000D01*
G75*
G02*
X69600000Y-125875000I0J-50000D01*
G01*
G37*
G36*
G01*
X70000000Y-125875000D02*
X70000000Y-126650000D01*
G75*
G02*
X69950000Y-126700000I-50000J0D01*
G01*
X69850000Y-126700000D01*
G75*
G02*
X69800000Y-126650000I0J50000D01*
G01*
X69800000Y-125875000D01*
G75*
G02*
X69850000Y-125825000I50000J0D01*
G01*
X69950000Y-125825000D01*
G75*
G02*
X70000000Y-125875000I0J-50000D01*
G01*
G37*
G36*
G01*
X70400000Y-125875000D02*
X70400000Y-126650000D01*
G75*
G02*
X70350000Y-126700000I-50000J0D01*
G01*
X70250000Y-126700000D01*
G75*
G02*
X70200000Y-126650000I0J50000D01*
G01*
X70200000Y-125875000D01*
G75*
G02*
X70250000Y-125825000I50000J0D01*
G01*
X70350000Y-125825000D01*
G75*
G02*
X70400000Y-125875000I0J-50000D01*
G01*
G37*
G36*
G01*
X70800000Y-125875000D02*
X70800000Y-126650000D01*
G75*
G02*
X70750000Y-126700000I-50000J0D01*
G01*
X70650000Y-126700000D01*
G75*
G02*
X70600000Y-126650000I0J50000D01*
G01*
X70600000Y-125875000D01*
G75*
G02*
X70650000Y-125825000I50000J0D01*
G01*
X70750000Y-125825000D01*
G75*
G02*
X70800000Y-125875000I0J-50000D01*
G01*
G37*
G04 #@! TD*
G04 #@! TO.C,R15*
G36*
G01*
X134025000Y-132275000D02*
X134575000Y-132275000D01*
G75*
G02*
X134775000Y-132475000I0J-200000D01*
G01*
X134775000Y-132875000D01*
G75*
G02*
X134575000Y-133075000I-200000J0D01*
G01*
X134025000Y-133075000D01*
G75*
G02*
X133825000Y-132875000I0J200000D01*
G01*
X133825000Y-132475000D01*
G75*
G02*
X134025000Y-132275000I200000J0D01*
G01*
G37*
G36*
G01*
X134025000Y-133925000D02*
X134575000Y-133925000D01*
G75*
G02*
X134775000Y-134125000I0J-200000D01*
G01*
X134775000Y-134525000D01*
G75*
G02*
X134575000Y-134725000I-200000J0D01*
G01*
X134025000Y-134725000D01*
G75*
G02*
X133825000Y-134525000I0J200000D01*
G01*
X133825000Y-134125000D01*
G75*
G02*
X134025000Y-133925000I200000J0D01*
G01*
G37*
G04 #@! TD*
G04 #@! TO.C,C34*
G36*
G01*
X68150000Y-122125000D02*
X67650000Y-122125000D01*
G75*
G02*
X67425000Y-121900000I0J225000D01*
G01*
X67425000Y-121450000D01*
G75*
G02*
X67650000Y-121225000I225000J0D01*
G01*
X68150000Y-121225000D01*
G75*
G02*
X68375000Y-121450000I0J-225000D01*
G01*
X68375000Y-121900000D01*
G75*
G02*
X68150000Y-122125000I-225000J0D01*
G01*
G37*
G36*
G01*
X68150000Y-120575000D02*
X67650000Y-120575000D01*
G75*
G02*
X67425000Y-120350000I0J225000D01*
G01*
X67425000Y-119900000D01*
G75*
G02*
X67650000Y-119675000I225000J0D01*
G01*
X68150000Y-119675000D01*
G75*
G02*
X68375000Y-119900000I0J-225000D01*
G01*
X68375000Y-120350000D01*
G75*
G02*
X68150000Y-120575000I-225000J0D01*
G01*
G37*
G04 #@! TD*
G04 #@! TO.C,C24*
G36*
G01*
X64150000Y-135675000D02*
X64650000Y-135675000D01*
G75*
G02*
X64875000Y-135900000I0J-225000D01*
G01*
X64875000Y-136350000D01*
G75*
G02*
X64650000Y-136575000I-225000J0D01*
G01*
X64150000Y-136575000D01*
G75*
G02*
X63925000Y-136350000I0J225000D01*
G01*
X63925000Y-135900000D01*
G75*
G02*
X64150000Y-135675000I225000J0D01*
G01*
G37*
G36*
G01*
X64150000Y-137225000D02*
X64650000Y-137225000D01*
G75*
G02*
X64875000Y-137450000I0J-225000D01*
G01*
X64875000Y-137900000D01*
G75*
G02*
X64650000Y-138125000I-225000J0D01*
G01*
X64150000Y-138125000D01*
G75*
G02*
X63925000Y-137900000I0J225000D01*
G01*
X63925000Y-137450000D01*
G75*
G02*
X64150000Y-137225000I225000J0D01*
G01*
G37*
G04 #@! TD*
G04 #@! TO.C,C8*
G36*
G01*
X58250000Y-147775000D02*
X58750000Y-147775000D01*
G75*
G02*
X58975000Y-148000000I0J-225000D01*
G01*
X58975000Y-148450000D01*
G75*
G02*
X58750000Y-148675000I-225000J0D01*
G01*
X58250000Y-148675000D01*
G75*
G02*
X58025000Y-148450000I0J225000D01*
G01*
X58025000Y-148000000D01*
G75*
G02*
X58250000Y-147775000I225000J0D01*
G01*
G37*
G36*
G01*
X58250000Y-149325000D02*
X58750000Y-149325000D01*
G75*
G02*
X58975000Y-149550000I0J-225000D01*
G01*
X58975000Y-150000000D01*
G75*
G02*
X58750000Y-150225000I-225000J0D01*
G01*
X58250000Y-150225000D01*
G75*
G02*
X58025000Y-150000000I0J225000D01*
G01*
X58025000Y-149550000D01*
G75*
G02*
X58250000Y-149325000I225000J0D01*
G01*
G37*
G04 #@! TD*
G04 #@! TO.C,C4*
G36*
G01*
X66475000Y-167650000D02*
X66475000Y-167150000D01*
G75*
G02*
X66700000Y-166925000I225000J0D01*
G01*
X67150000Y-166925000D01*
G75*
G02*
X67375000Y-167150000I0J-225000D01*
G01*
X67375000Y-167650000D01*
G75*
G02*
X67150000Y-167875000I-225000J0D01*
G01*
X66700000Y-167875000D01*
G75*
G02*
X66475000Y-167650000I0J225000D01*
G01*
G37*
G36*
G01*
X68025000Y-167650000D02*
X68025000Y-167150000D01*
G75*
G02*
X68250000Y-166925000I225000J0D01*
G01*
X68700000Y-166925000D01*
G75*
G02*
X68925000Y-167150000I0J-225000D01*
G01*
X68925000Y-167650000D01*
G75*
G02*
X68700000Y-167875000I-225000J0D01*
G01*
X68250000Y-167875000D01*
G75*
G02*
X68025000Y-167650000I0J225000D01*
G01*
G37*
G04 #@! TD*
G04 #@! TO.C,R40*
G36*
G01*
X45775000Y-136275000D02*
X45775000Y-135725000D01*
G75*
G02*
X45975000Y-135525000I200000J0D01*
G01*
X46375000Y-135525000D01*
G75*
G02*
X46575000Y-135725000I0J-200000D01*
G01*
X46575000Y-136275000D01*
G75*
G02*
X46375000Y-136475000I-200000J0D01*
G01*
X45975000Y-136475000D01*
G75*
G02*
X45775000Y-136275000I0J200000D01*
G01*
G37*
G36*
G01*
X47425000Y-136275000D02*
X47425000Y-135725000D01*
G75*
G02*
X47625000Y-135525000I200000J0D01*
G01*
X48025000Y-135525000D01*
G75*
G02*
X48225000Y-135725000I0J-200000D01*
G01*
X48225000Y-136275000D01*
G75*
G02*
X48025000Y-136475000I-200000J0D01*
G01*
X47625000Y-136475000D01*
G75*
G02*
X47425000Y-136275000I0J200000D01*
G01*
G37*
G04 #@! TD*
G04 #@! TO.C,C7*
G36*
G01*
X130275000Y-159650000D02*
X130275000Y-159150000D01*
G75*
G02*
X130500000Y-158925000I225000J0D01*
G01*
X130950000Y-158925000D01*
G75*
G02*
X131175000Y-159150000I0J-225000D01*
G01*
X131175000Y-159650000D01*
G75*
G02*
X130950000Y-159875000I-225000J0D01*
G01*
X130500000Y-159875000D01*
G75*
G02*
X130275000Y-159650000I0J225000D01*
G01*
G37*
G36*
G01*
X131825000Y-159650000D02*
X131825000Y-159150000D01*
G75*
G02*
X132050000Y-158925000I225000J0D01*
G01*
X132500000Y-158925000D01*
G75*
G02*
X132725000Y-159150000I0J-225000D01*
G01*
X132725000Y-159650000D01*
G75*
G02*
X132500000Y-159875000I-225000J0D01*
G01*
X132050000Y-159875000D01*
G75*
G02*
X131825000Y-159650000I0J225000D01*
G01*
G37*
G04 #@! TD*
G04 #@! TO.C,R16*
G36*
G01*
X132680281Y-117776295D02*
X132680281Y-117226295D01*
G75*
G02*
X132880281Y-117026295I200000J0D01*
G01*
X133280281Y-117026295D01*
G75*
G02*
X133480281Y-117226295I0J-200000D01*
G01*
X133480281Y-117776295D01*
G75*
G02*
X133280281Y-117976295I-200000J0D01*
G01*
X132880281Y-117976295D01*
G75*
G02*
X132680281Y-117776295I0J200000D01*
G01*
G37*
G36*
G01*
X134330281Y-117776295D02*
X134330281Y-117226295D01*
G75*
G02*
X134530281Y-117026295I200000J0D01*
G01*
X134930281Y-117026295D01*
G75*
G02*
X135130281Y-117226295I0J-200000D01*
G01*
X135130281Y-117776295D01*
G75*
G02*
X134930281Y-117976295I-200000J0D01*
G01*
X134530281Y-117976295D01*
G75*
G02*
X134330281Y-117776295I0J200000D01*
G01*
G37*
G04 #@! TD*
G04 #@! TO.C,C6*
G36*
G01*
X108875000Y-158450000D02*
X108875000Y-157950000D01*
G75*
G02*
X109100000Y-157725000I225000J0D01*
G01*
X109550000Y-157725000D01*
G75*
G02*
X109775000Y-157950000I0J-225000D01*
G01*
X109775000Y-158450000D01*
G75*
G02*
X109550000Y-158675000I-225000J0D01*
G01*
X109100000Y-158675000D01*
G75*
G02*
X108875000Y-158450000I0J225000D01*
G01*
G37*
G36*
G01*
X110425000Y-158450000D02*
X110425000Y-157950000D01*
G75*
G02*
X110650000Y-157725000I225000J0D01*
G01*
X111100000Y-157725000D01*
G75*
G02*
X111325000Y-157950000I0J-225000D01*
G01*
X111325000Y-158450000D01*
G75*
G02*
X111100000Y-158675000I-225000J0D01*
G01*
X110650000Y-158675000D01*
G75*
G02*
X110425000Y-158450000I0J225000D01*
G01*
G37*
G04 #@! TD*
G04 #@! TO.C,R1*
G36*
G01*
X82713828Y-109638906D02*
X82163828Y-109638906D01*
G75*
G02*
X81963828Y-109438906I0J200000D01*
G01*
X81963828Y-109038906D01*
G75*
G02*
X82163828Y-108838906I200000J0D01*
G01*
X82713828Y-108838906D01*
G75*
G02*
X82913828Y-109038906I0J-200000D01*
G01*
X82913828Y-109438906D01*
G75*
G02*
X82713828Y-109638906I-200000J0D01*
G01*
G37*
G36*
G01*
X82713828Y-107988906D02*
X82163828Y-107988906D01*
G75*
G02*
X81963828Y-107788906I0J200000D01*
G01*
X81963828Y-107388906D01*
G75*
G02*
X82163828Y-107188906I200000J0D01*
G01*
X82713828Y-107188906D01*
G75*
G02*
X82913828Y-107388906I0J-200000D01*
G01*
X82913828Y-107788906D01*
G75*
G02*
X82713828Y-107988906I-200000J0D01*
G01*
G37*
G04 #@! TD*
G04 #@! TO.C,C14*
G36*
G01*
X91582305Y-140837854D02*
X92082305Y-140837854D01*
G75*
G02*
X92307305Y-141062854I0J-225000D01*
G01*
X92307305Y-141512854D01*
G75*
G02*
X92082305Y-141737854I-225000J0D01*
G01*
X91582305Y-141737854D01*
G75*
G02*
X91357305Y-141512854I0J225000D01*
G01*
X91357305Y-141062854D01*
G75*
G02*
X91582305Y-140837854I225000J0D01*
G01*
G37*
G36*
G01*
X91582305Y-142387854D02*
X92082305Y-142387854D01*
G75*
G02*
X92307305Y-142612854I0J-225000D01*
G01*
X92307305Y-143062854D01*
G75*
G02*
X92082305Y-143287854I-225000J0D01*
G01*
X91582305Y-143287854D01*
G75*
G02*
X91357305Y-143062854I0J225000D01*
G01*
X91357305Y-142612854D01*
G75*
G02*
X91582305Y-142387854I225000J0D01*
G01*
G37*
G04 #@! TD*
G04 #@! TO.C,R7*
G36*
G01*
X111331844Y-159414293D02*
X111331844Y-159964293D01*
G75*
G02*
X111131844Y-160164293I-200000J0D01*
G01*
X110731844Y-160164293D01*
G75*
G02*
X110531844Y-159964293I0J200000D01*
G01*
X110531844Y-159414293D01*
G75*
G02*
X110731844Y-159214293I200000J0D01*
G01*
X111131844Y-159214293D01*
G75*
G02*
X111331844Y-159414293I0J-200000D01*
G01*
G37*
G36*
G01*
X109681844Y-159414293D02*
X109681844Y-159964293D01*
G75*
G02*
X109481844Y-160164293I-200000J0D01*
G01*
X109081844Y-160164293D01*
G75*
G02*
X108881844Y-159964293I0J200000D01*
G01*
X108881844Y-159414293D01*
G75*
G02*
X109081844Y-159214293I200000J0D01*
G01*
X109481844Y-159214293D01*
G75*
G02*
X109681844Y-159414293I0J-200000D01*
G01*
G37*
G04 #@! TD*
G04 #@! TO.C,D6*
G36*
G01*
X81400000Y-135436380D02*
X81400000Y-134986380D01*
G75*
G02*
X81625000Y-134761380I225000J0D01*
G01*
X82275000Y-134761380D01*
G75*
G02*
X82500000Y-134986380I0J-225000D01*
G01*
X82500000Y-135436380D01*
G75*
G02*
X82275000Y-135661380I-225000J0D01*
G01*
X81625000Y-135661380D01*
G75*
G02*
X81400000Y-135436380I0J225000D01*
G01*
G37*
G36*
G01*
X81400000Y-133936380D02*
X81400000Y-133486380D01*
G75*
G02*
X81625000Y-133261380I225000J0D01*
G01*
X82275000Y-133261380D01*
G75*
G02*
X82500000Y-133486380I0J-225000D01*
G01*
X82500000Y-133936380D01*
G75*
G02*
X82275000Y-134161380I-225000J0D01*
G01*
X81625000Y-134161380D01*
G75*
G02*
X81400000Y-133936380I0J225000D01*
G01*
G37*
G36*
G01*
X75300000Y-133936380D02*
X75300000Y-133486380D01*
G75*
G02*
X75525000Y-133261380I225000J0D01*
G01*
X76175000Y-133261380D01*
G75*
G02*
X76400000Y-133486380I0J-225000D01*
G01*
X76400000Y-133936380D01*
G75*
G02*
X76175000Y-134161380I-225000J0D01*
G01*
X75525000Y-134161380D01*
G75*
G02*
X75300000Y-133936380I0J225000D01*
G01*
G37*
G36*
G01*
X75300000Y-135436380D02*
X75300000Y-134986380D01*
G75*
G02*
X75525000Y-134761380I225000J0D01*
G01*
X76175000Y-134761380D01*
G75*
G02*
X76400000Y-134986380I0J-225000D01*
G01*
X76400000Y-135436380D01*
G75*
G02*
X76175000Y-135661380I-225000J0D01*
G01*
X75525000Y-135661380D01*
G75*
G02*
X75300000Y-135436380I0J225000D01*
G01*
G37*
G04 #@! TD*
G04 #@! TO.C,R21*
G36*
G01*
X95775000Y-130975000D02*
X95775000Y-130425000D01*
G75*
G02*
X95975000Y-130225000I200000J0D01*
G01*
X96375000Y-130225000D01*
G75*
G02*
X96575000Y-130425000I0J-200000D01*
G01*
X96575000Y-130975000D01*
G75*
G02*
X96375000Y-131175000I-200000J0D01*
G01*
X95975000Y-131175000D01*
G75*
G02*
X95775000Y-130975000I0J200000D01*
G01*
G37*
G36*
G01*
X97425000Y-130975000D02*
X97425000Y-130425000D01*
G75*
G02*
X97625000Y-130225000I200000J0D01*
G01*
X98025000Y-130225000D01*
G75*
G02*
X98225000Y-130425000I0J-200000D01*
G01*
X98225000Y-130975000D01*
G75*
G02*
X98025000Y-131175000I-200000J0D01*
G01*
X97625000Y-131175000D01*
G75*
G02*
X97425000Y-130975000I0J200000D01*
G01*
G37*
G04 #@! TD*
G04 #@! TO.C,R8*
G36*
G01*
X132725000Y-160625000D02*
X132725000Y-161175000D01*
G75*
G02*
X132525000Y-161375000I-200000J0D01*
G01*
X132125000Y-161375000D01*
G75*
G02*
X131925000Y-161175000I0J200000D01*
G01*
X131925000Y-160625000D01*
G75*
G02*
X132125000Y-160425000I200000J0D01*
G01*
X132525000Y-160425000D01*
G75*
G02*
X132725000Y-160625000I0J-200000D01*
G01*
G37*
G36*
G01*
X131075000Y-160625000D02*
X131075000Y-161175000D01*
G75*
G02*
X130875000Y-161375000I-200000J0D01*
G01*
X130475000Y-161375000D01*
G75*
G02*
X130275000Y-161175000I0J200000D01*
G01*
X130275000Y-160625000D01*
G75*
G02*
X130475000Y-160425000I200000J0D01*
G01*
X130875000Y-160425000D01*
G75*
G02*
X131075000Y-160625000I0J-200000D01*
G01*
G37*
G04 #@! TD*
G04 #@! TO.C,C41*
G36*
G01*
X114525000Y-129950000D02*
X114525000Y-130450000D01*
G75*
G02*
X114300000Y-130675000I-225000J0D01*
G01*
X113850000Y-130675000D01*
G75*
G02*
X113625000Y-130450000I0J225000D01*
G01*
X113625000Y-129950000D01*
G75*
G02*
X113850000Y-129725000I225000J0D01*
G01*
X114300000Y-129725000D01*
G75*
G02*
X114525000Y-129950000I0J-225000D01*
G01*
G37*
G36*
G01*
X112975000Y-129950000D02*
X112975000Y-130450000D01*
G75*
G02*
X112750000Y-130675000I-225000J0D01*
G01*
X112300000Y-130675000D01*
G75*
G02*
X112075000Y-130450000I0J225000D01*
G01*
X112075000Y-129950000D01*
G75*
G02*
X112300000Y-129725000I225000J0D01*
G01*
X112750000Y-129725000D01*
G75*
G02*
X112975000Y-129950000I0J-225000D01*
G01*
G37*
G04 #@! TD*
G04 #@! TO.C,C16*
G36*
G01*
X131350000Y-116975000D02*
X131850000Y-116975000D01*
G75*
G02*
X132075000Y-117200000I0J-225000D01*
G01*
X132075000Y-117650000D01*
G75*
G02*
X131850000Y-117875000I-225000J0D01*
G01*
X131350000Y-117875000D01*
G75*
G02*
X131125000Y-117650000I0J225000D01*
G01*
X131125000Y-117200000D01*
G75*
G02*
X131350000Y-116975000I225000J0D01*
G01*
G37*
G36*
G01*
X131350000Y-118525000D02*
X131850000Y-118525000D01*
G75*
G02*
X132075000Y-118750000I0J-225000D01*
G01*
X132075000Y-119200000D01*
G75*
G02*
X131850000Y-119425000I-225000J0D01*
G01*
X131350000Y-119425000D01*
G75*
G02*
X131125000Y-119200000I0J225000D01*
G01*
X131125000Y-118750000D01*
G75*
G02*
X131350000Y-118525000I225000J0D01*
G01*
G37*
G04 #@! TD*
G04 #@! TO.C,C10*
G36*
G01*
X109574281Y-137150739D02*
X109574281Y-137650739D01*
G75*
G02*
X109349281Y-137875739I-225000J0D01*
G01*
X108899281Y-137875739D01*
G75*
G02*
X108674281Y-137650739I0J225000D01*
G01*
X108674281Y-137150739D01*
G75*
G02*
X108899281Y-136925739I225000J0D01*
G01*
X109349281Y-136925739D01*
G75*
G02*
X109574281Y-137150739I0J-225000D01*
G01*
G37*
G36*
G01*
X108024281Y-137150739D02*
X108024281Y-137650739D01*
G75*
G02*
X107799281Y-137875739I-225000J0D01*
G01*
X107349281Y-137875739D01*
G75*
G02*
X107124281Y-137650739I0J225000D01*
G01*
X107124281Y-137150739D01*
G75*
G02*
X107349281Y-136925739I225000J0D01*
G01*
X107799281Y-136925739D01*
G75*
G02*
X108024281Y-137150739I0J-225000D01*
G01*
G37*
G04 #@! TD*
M02*
